G04*
G04 #@! TF.GenerationSoftware,Altium Limited,Altium Designer,24.10.1 (45)*
G04*
G04 Layer_Color=128*
%FSLAX44Y44*%
%MOMM*%
G71*
G04*
G04 #@! TF.SameCoordinates,C031E789-135E-4793-A04E-BF888AAD087F*
G04*
G04*
G04 #@! TF.FilePolarity,Positive*
G04*
G01*
G75*
%ADD19R,1.4000X0.7000*%
%ADD25O,2.2000X0.6000*%
%ADD26R,0.6000X1.4000*%
%ADD27R,1.4000X0.6000*%
%ADD29R,0.7000X1.4000*%
%ADD32R,1.1000X1.7000*%
%ADD33R,1.5240X0.8000*%
%ADD34R,0.8000X1.5240*%
%ADD35R,1.5240X1.5240*%
%ADD36O,0.6000X2.2000*%
%ADD66R,1.1000X1.5500*%
%ADD67R,1.1000X1.5500*%
%ADD68R,3.4500X1.5500*%
%ADD69R,1.7000X1.1000*%
%ADD70R,1.5240X1.5240*%
%ADD71R,1.5000X3.0000*%
D19*
X361500Y-467422D02*
D03*
Y-445578D02*
D03*
X520250Y-39508D02*
D03*
Y-61352D02*
D03*
X519200Y-229578D02*
D03*
Y-251422D02*
D03*
X518500Y-130078D02*
D03*
Y-151922D02*
D03*
X522500Y-323078D02*
D03*
Y-344922D02*
D03*
D25*
X308500Y-60150D02*
D03*
Y-47450D02*
D03*
Y-34750D02*
D03*
Y-22050D02*
D03*
X356499Y-60150D02*
D03*
Y-47450D02*
D03*
Y-34750D02*
D03*
Y-22050D02*
D03*
X307450Y-250221D02*
D03*
Y-237521D02*
D03*
Y-224821D02*
D03*
Y-212121D02*
D03*
X355450Y-250221D02*
D03*
Y-237521D02*
D03*
Y-224821D02*
D03*
Y-212121D02*
D03*
X307450Y-347221D02*
D03*
Y-334521D02*
D03*
Y-321821D02*
D03*
Y-309121D02*
D03*
X355450Y-347221D02*
D03*
Y-334521D02*
D03*
Y-321821D02*
D03*
Y-309121D02*
D03*
X449500Y-77150D02*
D03*
Y-64450D02*
D03*
Y-51750D02*
D03*
Y-39050D02*
D03*
X497499Y-77150D02*
D03*
Y-64450D02*
D03*
Y-51750D02*
D03*
Y-39050D02*
D03*
X448450Y-267221D02*
D03*
Y-254521D02*
D03*
Y-241821D02*
D03*
Y-229121D02*
D03*
X496450Y-267221D02*
D03*
Y-254521D02*
D03*
Y-241821D02*
D03*
Y-229121D02*
D03*
X449500Y-165500D02*
D03*
Y-152800D02*
D03*
Y-140100D02*
D03*
Y-127400D02*
D03*
X497500Y-165500D02*
D03*
Y-152800D02*
D03*
Y-140100D02*
D03*
Y-127400D02*
D03*
X448450Y-355571D02*
D03*
Y-342871D02*
D03*
Y-330171D02*
D03*
Y-317471D02*
D03*
X496450Y-355571D02*
D03*
Y-342871D02*
D03*
Y-330171D02*
D03*
Y-317471D02*
D03*
X308500Y-157150D02*
D03*
Y-144450D02*
D03*
Y-131750D02*
D03*
Y-119050D02*
D03*
X356499Y-157150D02*
D03*
Y-144450D02*
D03*
Y-131750D02*
D03*
Y-119050D02*
D03*
D26*
X85078Y-197872D02*
D03*
X106923D02*
D03*
X84908Y-436622D02*
D03*
X106752D02*
D03*
X202593Y-176750D02*
D03*
X180749D02*
D03*
X202422Y-415500D02*
D03*
X180578D02*
D03*
X29078Y-182000D02*
D03*
X50922D02*
D03*
X28907Y-420750D02*
D03*
X50751D02*
D03*
X126749Y-193050D02*
D03*
X148593D02*
D03*
X126579Y-431800D02*
D03*
X148422D02*
D03*
X470422Y-514500D02*
D03*
X448578D02*
D03*
D27*
X403500Y-131022D02*
D03*
Y-109178D02*
D03*
X403322Y-321093D02*
D03*
Y-299249D02*
D03*
X383550Y-23430D02*
D03*
Y-45273D02*
D03*
X382200Y-203578D02*
D03*
Y-225422D02*
D03*
X388500Y-185422D02*
D03*
Y-163578D02*
D03*
X387450Y-377093D02*
D03*
Y-355249D02*
D03*
X399550Y-89351D02*
D03*
Y-67507D02*
D03*
X398501Y-279422D02*
D03*
Y-257578D02*
D03*
D29*
X424922Y-512000D02*
D03*
X403078D02*
D03*
X504001Y-516000D02*
D03*
X482156D02*
D03*
X390078Y-403500D02*
D03*
X411922D02*
D03*
X176593Y-313750D02*
D03*
X154749D02*
D03*
X176422Y-552500D02*
D03*
X154578D02*
D03*
X88422Y-311000D02*
D03*
X66578D02*
D03*
X84422Y-551000D02*
D03*
X62578D02*
D03*
D32*
X178171Y-219050D02*
D03*
X151171D02*
D03*
X178001Y-457800D02*
D03*
X151000D02*
D03*
X89500Y-219000D02*
D03*
X62500D02*
D03*
X89329Y-457750D02*
D03*
X62330D02*
D03*
D33*
X196500Y-247500D02*
D03*
X196000Y-287500D02*
D03*
X109500Y-246500D02*
D03*
X109000Y-286500D02*
D03*
X109329Y-485250D02*
D03*
X108829Y-525250D02*
D03*
X386000Y-151600D02*
D03*
X386500Y-111600D02*
D03*
X384950Y-341671D02*
D03*
X385450Y-301671D02*
D03*
X196171Y-234050D02*
D03*
X196671Y-194050D02*
D03*
X196000Y-472800D02*
D03*
X196500Y-432800D02*
D03*
X406000Y-185500D02*
D03*
X406500Y-145500D02*
D03*
X404950Y-378171D02*
D03*
X405450Y-338171D02*
D03*
X382050Y-59930D02*
D03*
X381550Y-99930D02*
D03*
X381000Y-250000D02*
D03*
X380500Y-290000D02*
D03*
X196329Y-486250D02*
D03*
X195829Y-526250D02*
D03*
D34*
X452950Y-209671D02*
D03*
X492950Y-210171D02*
D03*
X453000Y-106601D02*
D03*
X492999Y-107100D02*
D03*
X451949Y-296671D02*
D03*
X491950Y-297171D02*
D03*
X64500Y-179500D02*
D03*
X104500Y-180000D02*
D03*
X64330Y-418250D02*
D03*
X104330Y-418750D02*
D03*
X440500Y-23000D02*
D03*
X400500Y-22500D02*
D03*
X439500Y-210000D02*
D03*
X399500Y-209499D02*
D03*
X28000Y-199500D02*
D03*
X68000Y-200000D02*
D03*
X27829Y-438250D02*
D03*
X67829Y-438750D02*
D03*
X156171Y-175550D02*
D03*
X116171Y-175050D02*
D03*
X156000Y-414300D02*
D03*
X116000Y-413800D02*
D03*
X454000Y-19600D02*
D03*
X494000Y-20100D02*
D03*
D35*
X133500Y-138645D02*
D03*
Y-104355D02*
D03*
X132000Y-378645D02*
D03*
Y-344355D02*
D03*
D36*
X155950Y-102000D02*
D03*
X168650D02*
D03*
X181350D02*
D03*
X194050D02*
D03*
X155950Y-150000D02*
D03*
X168650D02*
D03*
X181350D02*
D03*
X194050D02*
D03*
X155779Y-340750D02*
D03*
X168479D02*
D03*
X181179D02*
D03*
X193879D02*
D03*
X155779Y-388750D02*
D03*
X168479D02*
D03*
X181179D02*
D03*
X193879D02*
D03*
X58950Y-102000D02*
D03*
X71650D02*
D03*
X84350D02*
D03*
X97050D02*
D03*
X58950Y-150000D02*
D03*
X71650D02*
D03*
X84350D02*
D03*
X97050D02*
D03*
X58779Y-340750D02*
D03*
X71479D02*
D03*
X84179D02*
D03*
X96879D02*
D03*
X58779Y-388750D02*
D03*
X71479D02*
D03*
X84179D02*
D03*
X96879D02*
D03*
X138950Y-243000D02*
D03*
X151650D02*
D03*
X164350D02*
D03*
X177050D02*
D03*
X138950Y-291000D02*
D03*
X151650D02*
D03*
X164350D02*
D03*
X177050D02*
D03*
X138780Y-481750D02*
D03*
X151480D02*
D03*
X164180D02*
D03*
X176880D02*
D03*
X138780Y-529750D02*
D03*
X151480D02*
D03*
X164180D02*
D03*
X176880D02*
D03*
X50600Y-243000D02*
D03*
X63300D02*
D03*
X76000D02*
D03*
X88700D02*
D03*
X50600Y-291000D02*
D03*
X63300D02*
D03*
X76000D02*
D03*
X88700D02*
D03*
X50429Y-481750D02*
D03*
X63129D02*
D03*
X75829D02*
D03*
X88529D02*
D03*
X50429Y-529750D02*
D03*
X63129D02*
D03*
X75829D02*
D03*
X88529D02*
D03*
D66*
X427500Y-493020D02*
D03*
X503500Y-495500D02*
D03*
D67*
X404500Y-493020D02*
D03*
X381500D02*
D03*
X480500Y-495500D02*
D03*
X457500D02*
D03*
D68*
X404500Y-425520D02*
D03*
X480500Y-428000D02*
D03*
D69*
X427500Y-39000D02*
D03*
Y-66000D02*
D03*
X424500Y-228000D02*
D03*
Y-255000D02*
D03*
X428500Y-126500D02*
D03*
Y-153500D02*
D03*
X424450Y-316671D02*
D03*
Y-343671D02*
D03*
D70*
X345645Y-85500D02*
D03*
X311355D02*
D03*
X343645Y-276000D02*
D03*
X309355D02*
D03*
D71*
X463500Y-398000D02*
D03*
X525000D02*
D03*
M02*
