G04*
G04 #@! TF.GenerationSoftware,Altium Limited,Altium Designer,24.10.1 (45)*
G04*
G04 Layer_Physical_Order=2*
G04 Layer_Color=36540*
%FSLAX44Y44*%
%MOMM*%
G71*
G04*
G04 #@! TF.SameCoordinates,C031E789-135E-4793-A04E-BF888AAD087F*
G04*
G04*
G04 #@! TF.FilePolarity,Positive*
G04*
G01*
G75*
%ADD13C,0.6000*%
%ADD15C,0.2540*%
%ADD58C,1.0000*%
G04:AMPARAMS|DCode=60|XSize=2.032mm|YSize=1.524mm|CornerRadius=0mm|HoleSize=0mm|Usage=FLASHONLY|Rotation=90.000|XOffset=0mm|YOffset=0mm|HoleType=Round|Shape=Octagon|*
%AMOCTAGOND60*
4,1,8,0.3810,1.0160,-0.3810,1.0160,-0.7620,0.6350,-0.7620,-0.6350,-0.3810,-1.0160,0.3810,-1.0160,0.7620,-0.6350,0.7620,0.6350,0.3810,1.0160,0.0*
%
%ADD60OCTAGOND60*%

%ADD61C,1.5240*%
G04:AMPARAMS|DCode=62|XSize=2.032mm|YSize=1.524mm|CornerRadius=0mm|HoleSize=0mm|Usage=FLASHONLY|Rotation=180.000|XOffset=0mm|YOffset=0mm|HoleType=Round|Shape=Octagon|*
%AMOCTAGOND62*
4,1,8,-1.0160,0.3810,-1.0160,-0.3810,-0.6350,-0.7620,0.6350,-0.7620,1.0160,-0.3810,1.0160,0.3810,0.6350,0.7620,-0.6350,0.7620,-1.0160,0.3810,0.0*
%
%ADD62OCTAGOND62*%

%ADD63C,0.6000*%
%ADD64C,0.5000*%
%ADD65C,0.4000*%
G36*
X209834Y-34002D02*
X209333Y-34020D01*
X208848Y-34074D01*
X208377Y-34164D01*
X207921Y-34290D01*
X207480Y-34451D01*
X207054Y-34649D01*
X206642Y-34882D01*
X206246Y-35152D01*
X205864Y-35457D01*
X205498Y-35798D01*
X201906D01*
X202222Y-35457D01*
X202451Y-35152D01*
X202593Y-34882D01*
X202649Y-34649D01*
X202618Y-34451D01*
X202500Y-34290D01*
X202295Y-34164D01*
X202004Y-34074D01*
X201626Y-34020D01*
X201162Y-34002D01*
X206768Y-31462D01*
X209834Y-34002D01*
D02*
G37*
G36*
X166334D02*
X165833Y-34020D01*
X165348Y-34074D01*
X164877Y-34164D01*
X164421Y-34290D01*
X163980Y-34451D01*
X163554Y-34649D01*
X163142Y-34882D01*
X162746Y-35152D01*
X162364Y-35457D01*
X161998Y-35798D01*
X158406D01*
X158722Y-35457D01*
X158951Y-35152D01*
X159093Y-34882D01*
X159149Y-34649D01*
X159118Y-34451D01*
X159000Y-34290D01*
X158795Y-34164D01*
X158504Y-34074D01*
X158126Y-34020D01*
X157662Y-34002D01*
X163268Y-31462D01*
X166334Y-34002D01*
D02*
G37*
G36*
X252810D02*
X252327Y-34021D01*
X251896Y-34076D01*
X251515Y-34168D01*
X251184Y-34297D01*
X250905Y-34463D01*
X250676Y-34666D01*
X250499Y-34905D01*
X250372Y-35181D01*
X250295Y-35494D01*
X250270Y-35845D01*
X247730D01*
X247705Y-35494D01*
X247628Y-35181D01*
X247501Y-34905D01*
X247324Y-34666D01*
X247095Y-34463D01*
X246816Y-34297D01*
X246485Y-34168D01*
X246104Y-34076D01*
X245673Y-34021D01*
X245190Y-34002D01*
X249000Y-31462D01*
X252810Y-34002D01*
D02*
G37*
G36*
X284767Y-46893D02*
X284631Y-46864D01*
X284489Y-46860D01*
X284340Y-46879D01*
X284185Y-46922D01*
X284023Y-46989D01*
X283854Y-47080D01*
X283679Y-47195D01*
X283497Y-47334D01*
X283308Y-47497D01*
X283113Y-47683D01*
X281958Y-45246D01*
X282153Y-45048D01*
X282856Y-44243D01*
X282943Y-44118D01*
X283011Y-44006D01*
X283061Y-43906D01*
X283093Y-43819D01*
X284767Y-46893D01*
D02*
G37*
G36*
X250713Y-49253D02*
X250609Y-49161D01*
X250487Y-49080D01*
X250347Y-49008D01*
X250188Y-48945D01*
X250010Y-48892D01*
X249814Y-48849D01*
X249600Y-48816D01*
X249366Y-48792D01*
X248845Y-48772D01*
Y-46232D01*
X249115Y-46228D01*
X249600Y-46189D01*
X249814Y-46156D01*
X250010Y-46112D01*
X250188Y-46060D01*
X250347Y-45997D01*
X250487Y-45925D01*
X250609Y-45844D01*
X250713Y-45752D01*
Y-49253D01*
D02*
G37*
G36*
X285981Y-55815D02*
X285794Y-56009D01*
X285478Y-56379D01*
X285350Y-56555D01*
X285242Y-56724D01*
X285154Y-56887D01*
X285085Y-57043D01*
X285037Y-57193D01*
X285008Y-57337D01*
X285000Y-57475D01*
X282525Y-55000D01*
X282663Y-54991D01*
X282806Y-54963D01*
X282957Y-54914D01*
X283113Y-54846D01*
X283276Y-54758D01*
X283445Y-54650D01*
X283621Y-54522D01*
X283803Y-54374D01*
X284185Y-54019D01*
X285981Y-55815D01*
D02*
G37*
G36*
X431470Y-58000D02*
X431238Y-58009D01*
X431007Y-58040D01*
X430778Y-58093D01*
X430550Y-58169D01*
X430322Y-58267D01*
X430096Y-58388D01*
X429871Y-58531D01*
X429647Y-58696D01*
X429425Y-58883D01*
X429203Y-59093D01*
X427407Y-57297D01*
X427617Y-57075D01*
X427804Y-56852D01*
X427970Y-56629D01*
X428112Y-56404D01*
X428233Y-56178D01*
X428331Y-55950D01*
X428407Y-55722D01*
X428460Y-55493D01*
X428491Y-55262D01*
X428500Y-55030D01*
X431470Y-58000D01*
D02*
G37*
G36*
X540156Y-59436D02*
X540096Y-59155D01*
X539992Y-58953D01*
X539845Y-58832D01*
X539653Y-58790D01*
X539417Y-58828D01*
X539137Y-58946D01*
X538813Y-59145D01*
X538445Y-59423D01*
X538033Y-59781D01*
X537577Y-60219D01*
Y-56627D01*
X537957Y-56229D01*
X538587Y-55458D01*
X538835Y-55086D01*
X539040Y-54723D01*
X539201Y-54368D01*
X539317Y-54022D01*
X539390Y-53684D01*
X539419Y-53355D01*
X539404Y-53035D01*
X540156Y-59436D01*
D02*
G37*
G36*
X199775Y-63617D02*
X199813Y-64102D01*
X199847Y-64316D01*
X199890Y-64512D01*
X199943Y-64690D01*
X200005Y-64849D01*
X200077Y-64989D01*
X200159Y-65111D01*
X200250Y-65215D01*
X196750D01*
X196841Y-65111D01*
X196923Y-64989D01*
X196995Y-64849D01*
X197057Y-64690D01*
X197110Y-64512D01*
X197153Y-64316D01*
X197187Y-64102D01*
X197211Y-63869D01*
X197230Y-63347D01*
X199770D01*
X199775Y-63617D01*
D02*
G37*
G36*
X265060Y-63887D02*
X264961Y-63987D01*
X264872Y-64105D01*
X264795Y-64243D01*
X264727Y-64399D01*
X264670Y-64575D01*
X264623Y-64769D01*
X264587Y-64982D01*
X264561Y-65214D01*
X264540Y-65735D01*
X262000Y-65558D01*
X261996Y-65287D01*
X261961Y-64800D01*
X261931Y-64585D01*
X261891Y-64387D01*
X261844Y-64209D01*
X261787Y-64048D01*
X261722Y-63906D01*
X261648Y-63783D01*
X261566Y-63678D01*
X265060Y-63887D01*
D02*
G37*
G36*
X88773Y-66119D02*
X88812Y-66604D01*
X88845Y-66819D01*
X88889Y-67015D01*
X88941Y-67192D01*
X89004Y-67351D01*
X89076Y-67492D01*
X89157Y-67614D01*
X89249Y-67717D01*
X85749D01*
X85840Y-67614D01*
X85921Y-67492D01*
X85993Y-67351D01*
X86056Y-67192D01*
X86109Y-67015D01*
X86152Y-66819D01*
X86185Y-66604D01*
X86209Y-66371D01*
X86229Y-65849D01*
X88769D01*
X88773Y-66119D01*
D02*
G37*
G36*
X137151Y-67719D02*
X137034Y-67794D01*
X136930Y-67890D01*
X136838Y-68008D01*
X136759Y-68147D01*
X136691Y-68309D01*
X136636Y-68492D01*
X136593Y-68697D01*
X136563Y-68923D01*
X136544Y-69171D01*
X136538Y-69441D01*
X133998Y-68498D01*
X133996Y-68219D01*
X133928Y-67154D01*
X133903Y-67007D01*
X133874Y-66881D01*
X133841Y-66777D01*
X133804Y-66695D01*
X137151Y-67719D01*
D02*
G37*
G36*
X530093Y-67703D02*
X529883Y-67925D01*
X529696Y-68148D01*
X529530Y-68371D01*
X529388Y-68596D01*
X529267Y-68822D01*
X529169Y-69050D01*
X529093Y-69278D01*
X529040Y-69507D01*
X529009Y-69738D01*
X529000Y-69970D01*
X526030Y-67000D01*
X526262Y-66991D01*
X526493Y-66960D01*
X526722Y-66907D01*
X526950Y-66831D01*
X527178Y-66733D01*
X527404Y-66612D01*
X527629Y-66470D01*
X527853Y-66304D01*
X528075Y-66117D01*
X528297Y-65907D01*
X530093Y-67703D01*
D02*
G37*
G36*
X272159Y-68389D02*
X272077Y-68511D01*
X272005Y-68651D01*
X271943Y-68810D01*
X271890Y-68988D01*
X271847Y-69184D01*
X271813Y-69398D01*
X271789Y-69632D01*
X271770Y-70153D01*
X269230D01*
X269225Y-69883D01*
X269187Y-69398D01*
X269153Y-69184D01*
X269110Y-68988D01*
X269057Y-68810D01*
X268995Y-68651D01*
X268923Y-68511D01*
X268841Y-68389D01*
X268750Y-68285D01*
X272250D01*
X272159Y-68389D01*
D02*
G37*
G36*
X527266Y-72720D02*
X527077Y-72824D01*
X526907Y-72951D01*
X526758Y-73101D01*
X526628Y-73273D01*
X526519Y-73469D01*
X526429Y-73687D01*
X526360Y-73928D01*
X526310Y-74192D01*
X526280Y-74478D01*
X526270Y-74788D01*
X523730Y-73761D01*
X523726Y-73453D01*
X523662Y-72614D01*
X523624Y-72363D01*
X523522Y-71903D01*
X523459Y-71694D01*
X523387Y-71500D01*
X523306Y-71320D01*
X527266Y-72720D01*
D02*
G37*
G36*
X205775Y-74117D02*
X205813Y-74602D01*
X205847Y-74816D01*
X205890Y-75012D01*
X205943Y-75190D01*
X206005Y-75349D01*
X206077Y-75489D01*
X206159Y-75611D01*
X206250Y-75715D01*
X202750D01*
X202841Y-75611D01*
X202923Y-75489D01*
X202995Y-75349D01*
X203057Y-75190D01*
X203110Y-75012D01*
X203153Y-74816D01*
X203187Y-74602D01*
X203211Y-74368D01*
X203230Y-73847D01*
X205770D01*
X205775Y-74117D01*
D02*
G37*
G36*
X143538Y-74552D02*
X143540Y-74831D01*
X143624Y-76037D01*
X143651Y-76160D01*
X143680Y-76260D01*
X143714Y-76339D01*
X140383Y-75263D01*
X140500Y-75191D01*
X140605Y-75096D01*
X140697Y-74980D01*
X140777Y-74842D01*
X140844Y-74682D01*
X140900Y-74499D01*
X140943Y-74295D01*
X140974Y-74069D01*
X140992Y-73821D01*
X140998Y-73551D01*
X143538Y-74552D01*
D02*
G37*
G36*
X246699Y-76429D02*
X246617Y-76551D01*
X246545Y-76691D01*
X246483Y-76850D01*
X246430Y-77028D01*
X246387Y-77224D01*
X246353Y-77438D01*
X246329Y-77671D01*
X246310Y-78193D01*
X243770D01*
X243765Y-77923D01*
X243727Y-77438D01*
X243693Y-77224D01*
X243650Y-77028D01*
X243597Y-76850D01*
X243535Y-76691D01*
X243463Y-76551D01*
X243381Y-76429D01*
X243290Y-76325D01*
X246790D01*
X246699Y-76429D01*
D02*
G37*
G36*
X252775Y-78617D02*
X252813Y-79102D01*
X252847Y-79316D01*
X252890Y-79512D01*
X252943Y-79690D01*
X253005Y-79849D01*
X253077Y-79989D01*
X253159Y-80111D01*
X253250Y-80215D01*
X249750D01*
X249841Y-80111D01*
X249923Y-79989D01*
X249995Y-79849D01*
X250057Y-79690D01*
X250110Y-79512D01*
X250153Y-79316D01*
X250187Y-79102D01*
X250211Y-78869D01*
X250230Y-78347D01*
X252770D01*
X252775Y-78617D01*
D02*
G37*
G36*
X194737Y-76635D02*
X194786Y-76749D01*
X194853Y-76872D01*
X194938Y-77006D01*
X195041Y-77151D01*
X195301Y-77471D01*
X195633Y-77833D01*
X195826Y-78030D01*
X194540Y-80336D01*
X194345Y-80149D01*
X193974Y-79846D01*
X193797Y-79729D01*
X193627Y-79635D01*
X193464Y-79564D01*
X193307Y-79517D01*
X193155Y-79493D01*
X193011Y-79492D01*
X192872Y-79514D01*
X194706Y-76533D01*
X194737Y-76635D01*
D02*
G37*
G36*
X84009Y-77662D02*
X84037Y-77806D01*
X84085Y-77957D01*
X84154Y-78113D01*
X84242Y-78276D01*
X84350Y-78445D01*
X84478Y-78621D01*
X84626Y-78802D01*
X84981Y-79185D01*
X83185Y-80981D01*
X82991Y-80794D01*
X82621Y-80478D01*
X82445Y-80350D01*
X82276Y-80242D01*
X82113Y-80154D01*
X81957Y-80085D01*
X81806Y-80037D01*
X81663Y-80008D01*
X81525Y-80000D01*
X84000Y-77525D01*
X84009Y-77662D01*
D02*
G37*
G36*
X362383Y-85469D02*
X362494Y-85524D01*
X362622Y-85572D01*
X362767Y-85614D01*
X362929Y-85649D01*
X363109Y-85679D01*
X363520Y-85717D01*
X364000Y-85730D01*
Y-88270D01*
X363751Y-88273D01*
X363109Y-88322D01*
X362929Y-88350D01*
X362767Y-88386D01*
X362622Y-88428D01*
X362494Y-88476D01*
X362383Y-88531D01*
X362290Y-88592D01*
Y-85408D01*
X362383Y-85469D01*
D02*
G37*
G36*
X366313Y-85058D02*
X366498Y-85199D01*
X366698Y-85323D01*
X366913Y-85431D01*
X367143Y-85522D01*
X367388Y-85597D01*
X367648Y-85655D01*
X367923Y-85697D01*
X368213Y-85722D01*
X368518Y-85730D01*
Y-88270D01*
X368213Y-88278D01*
X367923Y-88303D01*
X367648Y-88345D01*
X367388Y-88403D01*
X367143Y-88477D01*
X366913Y-88569D01*
X366698Y-88677D01*
X366498Y-88801D01*
X366313Y-88942D01*
X366142Y-89100D01*
Y-84900D01*
X366313Y-85058D01*
D02*
G37*
G36*
X261010Y-95011D02*
X261040Y-95297D01*
X261090Y-95558D01*
X261159Y-95793D01*
X261249Y-96002D01*
X261358Y-96187D01*
X261488Y-96346D01*
X261637Y-96479D01*
X261806Y-96587D01*
X261996Y-96670D01*
X258204Y-98412D01*
X258253Y-98271D01*
X258296Y-98110D01*
X258335Y-97928D01*
X258396Y-97506D01*
X258437Y-97005D01*
X258460Y-96104D01*
X261000Y-94700D01*
X261010Y-95011D01*
D02*
G37*
G36*
X501922Y-112117D02*
X502145Y-112304D01*
X502369Y-112470D01*
X502594Y-112612D01*
X502820Y-112733D01*
X503047Y-112831D01*
X503275Y-112907D01*
X503505Y-112960D01*
X503736Y-112991D01*
X503967Y-113000D01*
X500998Y-115970D01*
X500989Y-115738D01*
X500958Y-115507D01*
X500904Y-115278D01*
X500828Y-115049D01*
X500730Y-114822D01*
X500610Y-114596D01*
X500467Y-114371D01*
X500302Y-114148D01*
X500115Y-113925D01*
X499905Y-113703D01*
X501701Y-111907D01*
X501922Y-112117D01*
D02*
G37*
G36*
X507006Y-116262D02*
X507037Y-116493D01*
X507091Y-116722D01*
X507166Y-116951D01*
X507265Y-117178D01*
X507385Y-117404D01*
X507528Y-117629D01*
X507693Y-117852D01*
X507880Y-118075D01*
X508090Y-118297D01*
X506294Y-120093D01*
X506073Y-119883D01*
X505850Y-119696D01*
X505626Y-119530D01*
X505401Y-119388D01*
X505175Y-119267D01*
X504948Y-119169D01*
X504720Y-119093D01*
X504490Y-119040D01*
X504259Y-119009D01*
X504027Y-119000D01*
X506997Y-116030D01*
X507006Y-116262D01*
D02*
G37*
G36*
X380313Y-125558D02*
X380498Y-125699D01*
X380698Y-125823D01*
X380913Y-125931D01*
X381143Y-126023D01*
X381388Y-126097D01*
X381648Y-126155D01*
X381923Y-126197D01*
X382213Y-126222D01*
X382518Y-126230D01*
Y-128770D01*
X382213Y-128778D01*
X381923Y-128803D01*
X381648Y-128845D01*
X381388Y-128903D01*
X381143Y-128977D01*
X380913Y-129069D01*
X380698Y-129177D01*
X380498Y-129301D01*
X380313Y-129442D01*
X380142Y-129600D01*
Y-125400D01*
X380313Y-125558D01*
D02*
G37*
G36*
X341432Y-131469D02*
X341255Y-131511D01*
X341096Y-131584D01*
X340956Y-131687D01*
X340835Y-131820D01*
X340733Y-131984D01*
X340649Y-132178D01*
X340584Y-132402D01*
X340537Y-132657D01*
X340509Y-132942D01*
X340500Y-133258D01*
X337960Y-132722D01*
X338093Y-129241D01*
X341432Y-131469D01*
D02*
G37*
G36*
X248970Y-150500D02*
X248738Y-150509D01*
X248507Y-150540D01*
X248278Y-150593D01*
X248050Y-150669D01*
X247822Y-150767D01*
X247596Y-150888D01*
X247371Y-151031D01*
X247148Y-151195D01*
X246925Y-151383D01*
X246703Y-151593D01*
X244907Y-149797D01*
X245117Y-149575D01*
X245305Y-149353D01*
X245470Y-149129D01*
X245612Y-148904D01*
X245733Y-148678D01*
X245831Y-148450D01*
X245907Y-148222D01*
X245960Y-147993D01*
X245991Y-147762D01*
X246000Y-147530D01*
X248970Y-150500D01*
D02*
G37*
G36*
X259970Y-158000D02*
X259738Y-158009D01*
X259508Y-158040D01*
X259278Y-158093D01*
X259049Y-158169D01*
X258822Y-158267D01*
X258596Y-158388D01*
X258371Y-158530D01*
X258148Y-158695D01*
X257925Y-158883D01*
X257703Y-159093D01*
X255907Y-157297D01*
X256117Y-157075D01*
X256304Y-156853D01*
X256470Y-156629D01*
X256612Y-156404D01*
X256733Y-156178D01*
X256831Y-155950D01*
X256907Y-155722D01*
X256960Y-155493D01*
X256991Y-155262D01*
X257000Y-155030D01*
X259970Y-158000D01*
D02*
G37*
G36*
X283940Y-160815D02*
X283799Y-161000D01*
X283675Y-161200D01*
X283567Y-161415D01*
X283475Y-161645D01*
X283401Y-161890D01*
X283343Y-162150D01*
X283301Y-162425D01*
X283276Y-162715D01*
X283268Y-163020D01*
X280728D01*
X280720Y-162715D01*
X280695Y-162425D01*
X280653Y-162150D01*
X280595Y-161890D01*
X280520Y-161645D01*
X280429Y-161415D01*
X280321Y-161200D01*
X280197Y-161000D01*
X280056Y-160815D01*
X279898Y-160645D01*
X284098D01*
X283940Y-160815D01*
D02*
G37*
G36*
X223470Y-163500D02*
X223238Y-163509D01*
X223008Y-163540D01*
X222778Y-163593D01*
X222549Y-163669D01*
X222322Y-163767D01*
X222096Y-163888D01*
X221871Y-164030D01*
X221647Y-164195D01*
X221425Y-164383D01*
X221203Y-164593D01*
X219407Y-162797D01*
X219617Y-162575D01*
X219804Y-162353D01*
X219970Y-162129D01*
X220112Y-161904D01*
X220233Y-161678D01*
X220331Y-161451D01*
X220407Y-161222D01*
X220460Y-160993D01*
X220491Y-160762D01*
X220500Y-160530D01*
X223470Y-163500D01*
D02*
G37*
G36*
X544385Y-163971D02*
X545253Y-164699D01*
X545650Y-164972D01*
X546022Y-165185D01*
X546369Y-165337D01*
X546690Y-165429D01*
X546987Y-165461D01*
X547259Y-165432D01*
X547505Y-165343D01*
X542764Y-167756D01*
X542969Y-167620D01*
X543108Y-167453D01*
X543181Y-167257D01*
X543188Y-167031D01*
X543129Y-166774D01*
X543004Y-166488D01*
X542813Y-166171D01*
X542556Y-165824D01*
X542233Y-165447D01*
X541844Y-165040D01*
X543913Y-163517D01*
X544385Y-163971D01*
D02*
G37*
G36*
X259970Y-169500D02*
X259738Y-169509D01*
X259508Y-169540D01*
X259278Y-169593D01*
X259049Y-169669D01*
X258822Y-169767D01*
X258596Y-169888D01*
X258371Y-170030D01*
X258148Y-170196D01*
X257925Y-170383D01*
X257703Y-170593D01*
X255907Y-168797D01*
X256117Y-168575D01*
X256304Y-168353D01*
X256470Y-168129D01*
X256612Y-167904D01*
X256733Y-167678D01*
X256831Y-167451D01*
X256907Y-167222D01*
X256960Y-166993D01*
X256991Y-166762D01*
X257000Y-166530D01*
X259970Y-169500D01*
D02*
G37*
G36*
X409857Y-170640D02*
X409687Y-170482D01*
X409502Y-170341D01*
X409302Y-170217D01*
X409087Y-170109D01*
X408857Y-170018D01*
X408612Y-169943D01*
X408352Y-169885D01*
X408077Y-169843D01*
X407787Y-169818D01*
X407482Y-169810D01*
Y-167270D01*
X407787Y-167262D01*
X408077Y-167237D01*
X408352Y-167195D01*
X408612Y-167137D01*
X408857Y-167063D01*
X409087Y-166971D01*
X409302Y-166863D01*
X409502Y-166739D01*
X409687Y-166598D01*
X409857Y-166440D01*
Y-170640D01*
D02*
G37*
G36*
X348509Y-170762D02*
X348540Y-170993D01*
X348593Y-171222D01*
X348669Y-171451D01*
X348767Y-171678D01*
X348888Y-171904D01*
X349030Y-172129D01*
X349196Y-172353D01*
X349383Y-172575D01*
X349593Y-172797D01*
X347797Y-174593D01*
X347575Y-174383D01*
X347352Y-174195D01*
X347129Y-174030D01*
X346904Y-173888D01*
X346678Y-173767D01*
X346451Y-173669D01*
X346222Y-173593D01*
X345993Y-173540D01*
X345762Y-173509D01*
X345530Y-173500D01*
X348500Y-170530D01*
X348509Y-170762D01*
D02*
G37*
G36*
X384442Y-174313D02*
X384301Y-174498D01*
X384177Y-174698D01*
X384069Y-174913D01*
X383978Y-175143D01*
X383903Y-175388D01*
X383845Y-175648D01*
X383803Y-175923D01*
X383778Y-176213D01*
X383770Y-176518D01*
X381230D01*
X381222Y-176213D01*
X381197Y-175923D01*
X381155Y-175648D01*
X381097Y-175388D01*
X381022Y-175143D01*
X380931Y-174913D01*
X380823Y-174698D01*
X380699Y-174498D01*
X380558Y-174313D01*
X380400Y-174142D01*
X384600D01*
X384442Y-174313D01*
D02*
G37*
G36*
X499358Y-178100D02*
X499187Y-177942D01*
X499002Y-177801D01*
X498802Y-177677D01*
X498587Y-177569D01*
X498357Y-177477D01*
X498112Y-177403D01*
X497852Y-177345D01*
X497577Y-177303D01*
X497287Y-177278D01*
X496982Y-177270D01*
Y-174730D01*
X497287Y-174722D01*
X497577Y-174697D01*
X497852Y-174655D01*
X498112Y-174597D01*
X498357Y-174522D01*
X498587Y-174431D01*
X498802Y-174323D01*
X499002Y-174199D01*
X499187Y-174058D01*
X499358Y-173900D01*
Y-178100D01*
D02*
G37*
G36*
X294590Y-217206D02*
X294381Y-217427D01*
X294193Y-217650D01*
X294028Y-217873D01*
X293885Y-218098D01*
X293765Y-218324D01*
X293667Y-218552D01*
X293591Y-218780D01*
X293538Y-219010D01*
X293507Y-219240D01*
X293498Y-219472D01*
X290528Y-216502D01*
X290760Y-216493D01*
X290991Y-216462D01*
X291220Y-216409D01*
X291448Y-216333D01*
X291676Y-216235D01*
X291902Y-216114D01*
X292127Y-215972D01*
X292350Y-215807D01*
X292573Y-215619D01*
X292794Y-215409D01*
X294590Y-217206D01*
D02*
G37*
G36*
X289925Y-227117D02*
X290147Y-227304D01*
X290371Y-227470D01*
X290596Y-227612D01*
X290822Y-227733D01*
X291049Y-227831D01*
X291278Y-227907D01*
X291507Y-227960D01*
X291738Y-227991D01*
X291970Y-228000D01*
X289000Y-230970D01*
X288991Y-230738D01*
X288960Y-230507D01*
X288907Y-230278D01*
X288831Y-230049D01*
X288733Y-229822D01*
X288612Y-229596D01*
X288470Y-229371D01*
X288305Y-229147D01*
X288117Y-228925D01*
X287907Y-228703D01*
X289703Y-226907D01*
X289925Y-227117D01*
D02*
G37*
G36*
X288925Y-239617D02*
X289147Y-239804D01*
X289371Y-239970D01*
X289596Y-240112D01*
X289822Y-240233D01*
X290049Y-240331D01*
X290278Y-240407D01*
X290507Y-240460D01*
X290738Y-240491D01*
X290970Y-240500D01*
X288000Y-243470D01*
X287991Y-243238D01*
X287960Y-243007D01*
X287907Y-242778D01*
X287831Y-242549D01*
X287733Y-242322D01*
X287612Y-242096D01*
X287470Y-241871D01*
X287304Y-241647D01*
X287117Y-241425D01*
X286907Y-241203D01*
X288703Y-239407D01*
X288925Y-239617D01*
D02*
G37*
G36*
X338500Y-103812D02*
X322116Y-120196D01*
X321232Y-121519D01*
X320922Y-123080D01*
X320922Y-123080D01*
Y-247522D01*
X320604Y-247743D01*
X319334Y-247078D01*
Y-197881D01*
X319344Y-197831D01*
Y-45871D01*
X324230Y-40985D01*
Y-38316D01*
X324096Y-38388D01*
X323871Y-38530D01*
X323647Y-38695D01*
X323425Y-38883D01*
X323203Y-39093D01*
X321407Y-37297D01*
X321617Y-37075D01*
X321805Y-36853D01*
X321970Y-36629D01*
X322112Y-36404D01*
X322184Y-36270D01*
X319515D01*
X313652Y-42133D01*
X312930Y-43214D01*
X312676Y-44490D01*
Y-93514D01*
X311503Y-94000D01*
X288915Y-71413D01*
X287833Y-70690D01*
X286558Y-70436D01*
X281651D01*
X279989Y-68774D01*
X280074Y-68268D01*
X280626Y-68024D01*
X281430Y-67864D01*
X282742Y-68741D01*
X284498Y-69091D01*
X286254Y-68741D01*
X287742Y-67747D01*
X288737Y-66258D01*
X289086Y-64502D01*
X288737Y-62747D01*
X287742Y-61258D01*
X287180Y-60882D01*
X286739Y-59256D01*
X287052Y-57681D01*
X287080Y-57643D01*
X287128Y-57587D01*
X295357Y-49357D01*
X296080Y-48276D01*
X296334Y-47000D01*
Y-38000D01*
X296080Y-36724D01*
X295357Y-35642D01*
X290090Y-30375D01*
X289008Y-29652D01*
X287732Y-29398D01*
X107268D01*
X105992Y-29652D01*
X104910Y-30375D01*
X85141Y-50144D01*
X84418Y-51226D01*
X84164Y-52502D01*
Y-66321D01*
X84162Y-66342D01*
X84151Y-66412D01*
X83260Y-67747D01*
X82910Y-69502D01*
X83260Y-71258D01*
X83882Y-72189D01*
X83577Y-72711D01*
X83042Y-73218D01*
X81500Y-72912D01*
X80725Y-73066D01*
X80368Y-72773D01*
X79799Y-71955D01*
X80088Y-70500D01*
X79739Y-68744D01*
X78744Y-67256D01*
X77256Y-66261D01*
X75500Y-65912D01*
X73744Y-66261D01*
X72256Y-67256D01*
X71261Y-68744D01*
X70912Y-70500D01*
X70994Y-70914D01*
X69914Y-71994D01*
X69500Y-71912D01*
X68725Y-72066D01*
X68368Y-71772D01*
X67799Y-70956D01*
X68088Y-69500D01*
X67739Y-67744D01*
X66744Y-66255D01*
X65256Y-65261D01*
X63500Y-64912D01*
X61744Y-65261D01*
X60256Y-66255D01*
X59261Y-67744D01*
X58912Y-69500D01*
X59261Y-71256D01*
X60256Y-72744D01*
X61744Y-73739D01*
X63500Y-74088D01*
X64275Y-73934D01*
X64632Y-74227D01*
X65201Y-75044D01*
X64912Y-76500D01*
X65261Y-78256D01*
X66256Y-79744D01*
X67744Y-80739D01*
X69500Y-81088D01*
X71256Y-80739D01*
X72744Y-79744D01*
X73739Y-78256D01*
X74088Y-76500D01*
X74006Y-76086D01*
X75086Y-75006D01*
X75500Y-75088D01*
X76275Y-74934D01*
X76632Y-75227D01*
X77201Y-76045D01*
X76912Y-77500D01*
X77261Y-79256D01*
X78256Y-80744D01*
X79744Y-81739D01*
X81319Y-82052D01*
X81356Y-82079D01*
X81413Y-82128D01*
X89643Y-90358D01*
X90724Y-91080D01*
X92000Y-91334D01*
X189778D01*
X224342Y-125898D01*
X225423Y-126620D01*
X226699Y-126874D01*
X271728D01*
X272251Y-127852D01*
X272271Y-128144D01*
X271902Y-130000D01*
X272290Y-131951D01*
X273395Y-133605D01*
X275049Y-134710D01*
X277000Y-135098D01*
X278951Y-134710D01*
X280605Y-133605D01*
X281549Y-132192D01*
X282939Y-131787D01*
X285436Y-134284D01*
Y-140037D01*
X284166Y-140733D01*
X282500Y-140402D01*
X280549Y-140790D01*
X278895Y-141895D01*
X277790Y-143549D01*
X277402Y-145500D01*
X277790Y-147451D01*
X278895Y-149105D01*
X280549Y-150210D01*
X282500Y-150598D01*
X284166Y-150267D01*
X285436Y-150963D01*
Y-153439D01*
X284316Y-154038D01*
X283949Y-153792D01*
X281998Y-153404D01*
X280047Y-153792D01*
X278393Y-154897D01*
X277288Y-156551D01*
X276900Y-158502D01*
X277288Y-160453D01*
X278393Y-162107D01*
X278546Y-162209D01*
X278566Y-162250D01*
X278594Y-162320D01*
X278622Y-162411D01*
X278647Y-162525D01*
X278664Y-162634D01*
Y-184621D01*
X266619Y-196666D01*
X254478D01*
X253202Y-196920D01*
X252121Y-197642D01*
X175536Y-274227D01*
X174363Y-273741D01*
Y-256852D01*
X243200Y-188015D01*
X243689Y-188255D01*
X244247Y-188764D01*
X243902Y-190500D01*
X244290Y-192451D01*
X245395Y-194105D01*
X247049Y-195210D01*
X249000Y-195598D01*
X250951Y-195210D01*
X252605Y-194105D01*
X253710Y-192451D01*
X254098Y-190500D01*
X253710Y-188549D01*
X252605Y-186895D01*
X250951Y-185790D01*
X249000Y-185402D01*
X247264Y-185747D01*
X246755Y-185189D01*
X246515Y-184700D01*
X259436Y-171779D01*
X259524Y-171714D01*
X259624Y-171651D01*
X259707Y-171606D01*
X259776Y-171576D01*
X259820Y-171562D01*
X260000Y-171598D01*
X261951Y-171210D01*
X263605Y-170105D01*
X264710Y-168451D01*
X265098Y-166500D01*
X264710Y-164549D01*
X263605Y-162895D01*
X261951Y-161790D01*
X261240Y-161649D01*
X260461Y-160199D01*
X260478Y-160157D01*
X260697Y-159959D01*
X261951Y-159710D01*
X263605Y-158605D01*
X264710Y-156951D01*
X265098Y-155000D01*
X264710Y-153049D01*
X263605Y-151395D01*
X261951Y-150290D01*
X260000Y-149902D01*
X258049Y-150290D01*
X256395Y-151395D01*
X255290Y-153049D01*
X254902Y-155000D01*
X254938Y-155180D01*
X254923Y-155224D01*
X254894Y-155293D01*
X254849Y-155377D01*
X254786Y-155476D01*
X254721Y-155564D01*
X162374Y-247911D01*
X161104Y-247385D01*
Y-240111D01*
X248436Y-152779D01*
X248524Y-152714D01*
X248624Y-152651D01*
X248707Y-152606D01*
X248776Y-152577D01*
X248820Y-152562D01*
X249000Y-152598D01*
X250951Y-152210D01*
X252605Y-151105D01*
X253710Y-149451D01*
X254098Y-147500D01*
X253710Y-145549D01*
X252774Y-144149D01*
X253213Y-143198D01*
X253404Y-142979D01*
X254000Y-143098D01*
X255951Y-142710D01*
X257605Y-141605D01*
X258710Y-139951D01*
X259098Y-138000D01*
X258710Y-136049D01*
X257605Y-134395D01*
X255951Y-133290D01*
X254000Y-132902D01*
X252049Y-133290D01*
X250395Y-134395D01*
X249290Y-136049D01*
X248902Y-138000D01*
X249290Y-139951D01*
X250226Y-141351D01*
X249787Y-142302D01*
X249596Y-142521D01*
X249000Y-142402D01*
X247049Y-142790D01*
X245395Y-143895D01*
X244290Y-145549D01*
X243902Y-147500D01*
X243938Y-147680D01*
X243923Y-147724D01*
X243894Y-147793D01*
X243849Y-147877D01*
X243786Y-147976D01*
X243721Y-148064D01*
X229547Y-162238D01*
X228377Y-161612D01*
X228598Y-160500D01*
X228210Y-158549D01*
X227105Y-156895D01*
X225451Y-155790D01*
X223500Y-155402D01*
X221549Y-155790D01*
X219895Y-156895D01*
X218790Y-158549D01*
X218402Y-160500D01*
X218438Y-160680D01*
X218424Y-160724D01*
X218394Y-160793D01*
X218349Y-160877D01*
X218286Y-160976D01*
X218221Y-161064D01*
X112800Y-266485D01*
X112311Y-266245D01*
X111753Y-265736D01*
X112098Y-264000D01*
X111710Y-262049D01*
X110605Y-260395D01*
X108951Y-259290D01*
X107000Y-258902D01*
X105049Y-259290D01*
X103395Y-260395D01*
X102290Y-262049D01*
X101902Y-264000D01*
X102290Y-265951D01*
X103395Y-267605D01*
X105049Y-268710D01*
X107000Y-269098D01*
X108736Y-268753D01*
X109245Y-269311D01*
X109485Y-269800D01*
X16142Y-363143D01*
X15420Y-364224D01*
X15166Y-365500D01*
Y-512867D01*
X15420Y-514143D01*
X16142Y-515225D01*
X21545Y-520628D01*
X22627Y-521350D01*
X23903Y-521604D01*
X36230D01*
X37506Y-521350D01*
X38588Y-520628D01*
X51381Y-507834D01*
X54637D01*
X55298Y-508879D01*
X55279Y-509104D01*
X54902Y-511000D01*
X55290Y-512951D01*
X56395Y-514605D01*
X58049Y-515710D01*
X60000Y-516098D01*
X61951Y-515710D01*
X63605Y-514605D01*
X64710Y-512951D01*
X65098Y-511000D01*
X64721Y-509104D01*
X64702Y-508879D01*
X65363Y-507834D01*
X70869D01*
X70977Y-507850D01*
X71091Y-507876D01*
X71182Y-507904D01*
X71252Y-507931D01*
X71293Y-507952D01*
X71395Y-508105D01*
X73049Y-509210D01*
X75000Y-509598D01*
X76856Y-509229D01*
X77148Y-509249D01*
X78126Y-509772D01*
Y-518659D01*
X66619Y-530166D01*
X53000D01*
X51724Y-530420D01*
X50642Y-531143D01*
X38142Y-543643D01*
X37420Y-544724D01*
X37166Y-546000D01*
Y-563000D01*
X37420Y-564276D01*
X38142Y-565358D01*
X40504Y-567719D01*
X40018Y-568892D01*
X3108D01*
Y-5108D01*
X338500D01*
Y-103812D01*
D02*
G37*
G36*
X289424Y-248985D02*
X289865Y-249349D01*
X290086Y-249503D01*
X290307Y-249638D01*
X290529Y-249755D01*
X290751Y-249852D01*
X290973Y-249931D01*
X291196Y-249991D01*
X291419Y-250032D01*
X288036Y-252522D01*
X288060Y-252295D01*
X288058Y-252068D01*
X288030Y-251841D01*
X287976Y-251615D01*
X287896Y-251390D01*
X287790Y-251164D01*
X287658Y-250940D01*
X287499Y-250715D01*
X287315Y-250492D01*
X287105Y-250268D01*
X289204Y-248775D01*
X289424Y-248985D01*
D02*
G37*
G36*
X288055Y-258247D02*
X288277Y-258434D01*
X288501Y-258599D01*
X288726Y-258742D01*
X288952Y-258862D01*
X289179Y-258961D01*
X289408Y-259037D01*
X289637Y-259090D01*
X289868Y-259121D01*
X290100Y-259130D01*
X287130Y-262100D01*
X287121Y-261868D01*
X287090Y-261637D01*
X287036Y-261408D01*
X286961Y-261179D01*
X286863Y-260952D01*
X286742Y-260726D01*
X286599Y-260501D01*
X286434Y-260277D01*
X286247Y-260055D01*
X286037Y-259833D01*
X287833Y-258037D01*
X288055Y-258247D01*
D02*
G37*
G36*
X148358Y-265640D02*
X148187Y-265482D01*
X148002Y-265341D01*
X147802Y-265217D01*
X147587Y-265109D01*
X147357Y-265017D01*
X147112Y-264943D01*
X146852Y-264885D01*
X146577Y-264843D01*
X146287Y-264818D01*
X145982Y-264810D01*
Y-262270D01*
X146287Y-262262D01*
X146577Y-262237D01*
X146852Y-262195D01*
X147112Y-262137D01*
X147357Y-262062D01*
X147587Y-261971D01*
X147802Y-261863D01*
X148002Y-261739D01*
X148187Y-261598D01*
X148358Y-261440D01*
Y-265640D01*
D02*
G37*
G36*
X530652Y-268867D02*
X530499Y-268695D01*
X530329Y-268541D01*
X530143Y-268405D01*
X529939Y-268287D01*
X529718Y-268187D01*
X529480Y-268105D01*
X529225Y-268042D01*
X528953Y-267996D01*
X528664Y-267969D01*
X528358Y-267960D01*
X528650Y-265420D01*
X528954Y-265413D01*
X529522Y-265354D01*
X529786Y-265303D01*
X530036Y-265238D01*
X530273Y-265157D01*
X530497Y-265062D01*
X530707Y-264953D01*
X530903Y-264829D01*
X531086Y-264690D01*
X530652Y-268867D01*
D02*
G37*
G36*
X159048Y-270787D02*
X159073Y-271077D01*
X159115Y-271352D01*
X159173Y-271612D01*
X159248Y-271857D01*
X159339Y-272087D01*
X159447Y-272302D01*
X159571Y-272502D01*
X159712Y-272687D01*
X159870Y-272858D01*
X155670D01*
X155828Y-272687D01*
X155969Y-272502D01*
X156093Y-272302D01*
X156201Y-272087D01*
X156292Y-271857D01*
X156367Y-271612D01*
X156425Y-271352D01*
X156467Y-271077D01*
X156492Y-270787D01*
X156500Y-270482D01*
X159040D01*
X159048Y-270787D01*
D02*
G37*
G36*
X142835Y-273683D02*
X142883Y-273910D01*
X142951Y-274137D01*
X143040Y-274363D01*
X143149Y-274588D01*
X143278Y-274812D01*
X143427Y-275035D01*
X143596Y-275258D01*
X143786Y-275479D01*
X143996Y-275700D01*
X142372Y-277668D01*
X142150Y-277458D01*
X141926Y-277273D01*
X141702Y-277112D01*
X141476Y-276975D01*
X141250Y-276863D01*
X141023Y-276775D01*
X140795Y-276712D01*
X140566Y-276674D01*
X140337Y-276659D01*
X140106Y-276670D01*
X142808Y-273454D01*
X142835Y-273683D01*
D02*
G37*
G36*
X541404Y-282240D02*
X541378Y-281999D01*
X541301Y-281783D01*
X541172Y-281592D01*
X540992Y-281427D01*
X540761Y-281287D01*
X540478Y-281173D01*
X540144Y-281084D01*
X539758Y-281021D01*
X539321Y-280983D01*
X538833Y-280970D01*
Y-278430D01*
X539321Y-278417D01*
X539758Y-278379D01*
X540144Y-278316D01*
X540478Y-278227D01*
X540761Y-278113D01*
X540992Y-277973D01*
X541172Y-277808D01*
X541301Y-277617D01*
X541378Y-277401D01*
X541404Y-277160D01*
Y-282240D01*
D02*
G37*
G36*
X478442Y-301313D02*
X478301Y-301498D01*
X478177Y-301698D01*
X478069Y-301913D01*
X477977Y-302143D01*
X477903Y-302388D01*
X477845Y-302648D01*
X477803Y-302923D01*
X477778Y-303213D01*
X477770Y-303518D01*
X475230D01*
X475222Y-303213D01*
X475197Y-302923D01*
X475155Y-302648D01*
X475097Y-302388D01*
X475023Y-302143D01*
X474931Y-301913D01*
X474823Y-301698D01*
X474699Y-301498D01*
X474558Y-301313D01*
X474400Y-301142D01*
X478600D01*
X478442Y-301313D01*
D02*
G37*
G36*
X274768Y-303060D02*
X273500Y-304470D01*
X270530Y-301500D01*
X270569Y-301488D01*
X270631Y-301450D01*
X270716Y-301387D01*
X270952Y-301184D01*
X271697Y-300473D01*
X271940Y-300232D01*
X274768Y-303060D01*
D02*
G37*
G36*
X284042Y-302653D02*
X283833Y-302875D01*
X283645Y-303097D01*
X283480Y-303321D01*
X283337Y-303546D01*
X283217Y-303772D01*
X283119Y-303999D01*
X283043Y-304228D01*
X282990Y-304457D01*
X282958Y-304688D01*
X282950Y-304920D01*
X279980Y-301950D01*
X280212Y-301941D01*
X280442Y-301910D01*
X280672Y-301856D01*
X280900Y-301781D01*
X281127Y-301682D01*
X281354Y-301562D01*
X281579Y-301419D01*
X281802Y-301254D01*
X282025Y-301067D01*
X282246Y-300857D01*
X284042Y-302653D01*
D02*
G37*
G36*
X541404Y-307640D02*
X541378Y-307399D01*
X541301Y-307183D01*
X541172Y-306992D01*
X540992Y-306827D01*
X540761Y-306688D01*
X540478Y-306573D01*
X540144Y-306484D01*
X539758Y-306421D01*
X539321Y-306383D01*
X538833Y-306370D01*
Y-303830D01*
X539321Y-303817D01*
X539758Y-303779D01*
X540144Y-303716D01*
X540478Y-303627D01*
X540761Y-303512D01*
X540992Y-303373D01*
X541172Y-303208D01*
X541301Y-303017D01*
X541378Y-302801D01*
X541404Y-302560D01*
Y-307640D01*
D02*
G37*
G36*
X509925Y-304617D02*
X510148Y-304804D01*
X510371Y-304970D01*
X510596Y-305112D01*
X510822Y-305233D01*
X511049Y-305331D01*
X511278Y-305407D01*
X511507Y-305460D01*
X511738Y-305491D01*
X511970Y-305500D01*
X509000Y-308470D01*
X508991Y-308238D01*
X508960Y-308007D01*
X508907Y-307778D01*
X508831Y-307549D01*
X508733Y-307322D01*
X508612Y-307096D01*
X508470Y-306871D01*
X508304Y-306647D01*
X508117Y-306425D01*
X507907Y-306203D01*
X509703Y-304407D01*
X509925Y-304617D01*
D02*
G37*
G36*
X117468Y-310502D02*
X117236Y-310511D01*
X117006Y-310542D01*
X116776Y-310595D01*
X116548Y-310671D01*
X116320Y-310769D01*
X116094Y-310890D01*
X115869Y-311032D01*
X115646Y-311197D01*
X115423Y-311385D01*
X115202Y-311595D01*
X113406Y-309799D01*
X113615Y-309577D01*
X113803Y-309354D01*
X113968Y-309131D01*
X114110Y-308906D01*
X114231Y-308680D01*
X114329Y-308452D01*
X114405Y-308224D01*
X114458Y-307994D01*
X114489Y-307764D01*
X114498Y-307532D01*
X117468Y-310502D01*
D02*
G37*
G36*
X474735Y-292444D02*
X474481Y-293666D01*
X474301Y-293806D01*
X472506Y-295006D01*
X471282Y-296838D01*
X471104Y-297730D01*
X476500D01*
Y-300270D01*
X471104D01*
X471282Y-301162D01*
X472506Y-302994D01*
X473166Y-303435D01*
Y-324886D01*
X473420Y-326162D01*
X474142Y-327243D01*
X486795Y-339896D01*
X486269Y-341166D01*
X288881D01*
X267564Y-319849D01*
Y-309963D01*
X268834Y-309267D01*
X270500Y-309598D01*
X272451Y-309210D01*
X274105Y-308105D01*
X274311Y-307796D01*
X275838D01*
X276345Y-308555D01*
X277999Y-309660D01*
X279950Y-310048D01*
X281901Y-309660D01*
X283554Y-308555D01*
X284660Y-306901D01*
X285048Y-304950D01*
X285012Y-304769D01*
X285026Y-304726D01*
X285056Y-304657D01*
X285101Y-304573D01*
X285164Y-304474D01*
X285229Y-304386D01*
X286682Y-302932D01*
X287410Y-302787D01*
X288491Y-302065D01*
X299765Y-290791D01*
X301143Y-291210D01*
X301290Y-291951D01*
X302395Y-293605D01*
X320895Y-312105D01*
X322549Y-313210D01*
X324500Y-313598D01*
X438500D01*
X440451Y-313210D01*
X442105Y-312105D01*
X466112Y-288098D01*
X470388D01*
X474735Y-292444D01*
D02*
G37*
G36*
X127509Y-319262D02*
X127540Y-319493D01*
X127593Y-319722D01*
X127669Y-319951D01*
X127767Y-320178D01*
X127888Y-320404D01*
X128031Y-320629D01*
X128195Y-320853D01*
X128383Y-321075D01*
X128593Y-321297D01*
X126797Y-323093D01*
X126575Y-322883D01*
X126353Y-322696D01*
X126129Y-322530D01*
X125904Y-322388D01*
X125678Y-322267D01*
X125450Y-322169D01*
X125222Y-322093D01*
X124993Y-322040D01*
X124762Y-322009D01*
X124530Y-322000D01*
X127500Y-319030D01*
X127509Y-319262D01*
D02*
G37*
G36*
X260896Y-314478D02*
Y-321230D01*
X261150Y-322506D01*
X261873Y-323587D01*
X285142Y-346857D01*
X286224Y-347580D01*
X287500Y-347834D01*
X485619D01*
X489278Y-351493D01*
X488792Y-352666D01*
X221381D01*
X210485Y-341770D01*
X207816D01*
X207888Y-341904D01*
X208030Y-342129D01*
X208195Y-342352D01*
X208383Y-342575D01*
X208593Y-342797D01*
X206797Y-344593D01*
X206575Y-344383D01*
X206353Y-344196D01*
X206129Y-344030D01*
X205904Y-343888D01*
X205770Y-343816D01*
Y-346485D01*
X217642Y-358358D01*
X218724Y-359080D01*
X220000Y-359334D01*
X274385D01*
X274911Y-360604D01*
X257575Y-377940D01*
X110424D01*
X102560Y-370075D01*
Y-363924D01*
X105010Y-361475D01*
X106180Y-362101D01*
X105902Y-363500D01*
X106290Y-365451D01*
X107395Y-367105D01*
X109049Y-368210D01*
X111000Y-368598D01*
X112951Y-368210D01*
X114605Y-367105D01*
X115710Y-365451D01*
X116098Y-363500D01*
X116062Y-363320D01*
X116077Y-363276D01*
X116106Y-363207D01*
X116151Y-363123D01*
X116214Y-363024D01*
X116279Y-362936D01*
X144381Y-334834D01*
X187000D01*
X188276Y-334580D01*
X189358Y-333857D01*
X200631Y-322584D01*
X249750D01*
X251026Y-322330D01*
X252108Y-321608D01*
X259723Y-313992D01*
X260896Y-314478D01*
D02*
G37*
G36*
X115093Y-361203D02*
X114883Y-361425D01*
X114696Y-361647D01*
X114530Y-361871D01*
X114388Y-362096D01*
X114267Y-362322D01*
X114169Y-362550D01*
X114093Y-362778D01*
X114040Y-363008D01*
X114009Y-363238D01*
X114000Y-363470D01*
X111030Y-360500D01*
X111262Y-360491D01*
X111493Y-360460D01*
X111722Y-360407D01*
X111951Y-360331D01*
X112178Y-360233D01*
X112404Y-360112D01*
X112629Y-359970D01*
X112852Y-359804D01*
X113075Y-359617D01*
X113297Y-359407D01*
X115093Y-361203D01*
D02*
G37*
G36*
X493902Y-311612D02*
Y-319000D01*
X494290Y-320951D01*
X495395Y-322605D01*
X553402Y-380612D01*
Y-385950D01*
X552132Y-386381D01*
X550960Y-384854D01*
X548838Y-383225D01*
X546366Y-382201D01*
X544984Y-382020D01*
Y-392100D01*
Y-402180D01*
X546366Y-401998D01*
X548838Y-400975D01*
X550960Y-399346D01*
X552132Y-397819D01*
X553402Y-398250D01*
Y-411350D01*
X552132Y-411781D01*
X550960Y-410254D01*
X548838Y-408625D01*
X546366Y-407602D01*
X544984Y-407420D01*
Y-417500D01*
Y-427580D01*
X546366Y-427398D01*
X548838Y-426375D01*
X550960Y-424746D01*
X552132Y-423219D01*
X553402Y-423650D01*
Y-429388D01*
X536888Y-445902D01*
X471612D01*
X436210Y-410500D01*
X436579Y-409285D01*
X436949Y-409212D01*
X438602Y-408106D01*
X439707Y-406453D01*
X440095Y-404502D01*
X439707Y-402551D01*
X438602Y-400897D01*
X436949Y-399792D01*
X434998Y-399404D01*
X433047Y-399792D01*
X431393Y-400897D01*
X431303Y-401031D01*
X429820Y-400965D01*
X429105Y-399895D01*
X427451Y-398790D01*
X425500Y-398402D01*
X423549Y-398790D01*
X421895Y-399895D01*
X420790Y-401549D01*
X420402Y-403500D01*
Y-407000D01*
X420790Y-408951D01*
X421895Y-410605D01*
X465895Y-454605D01*
X467549Y-455710D01*
X469500Y-456098D01*
X539000D01*
X540951Y-455710D01*
X542605Y-454605D01*
X562105Y-435105D01*
X563210Y-433451D01*
X563598Y-431500D01*
Y-378500D01*
X563210Y-376549D01*
X562105Y-374895D01*
X536383Y-349173D01*
X536869Y-348000D01*
X565892D01*
Y-568892D01*
X529399D01*
X528913Y-567719D01*
X531451Y-565181D01*
X532013Y-564341D01*
X532210Y-563350D01*
Y-558270D01*
X522000D01*
X511790D01*
Y-563350D01*
X511987Y-564341D01*
X512549Y-565181D01*
X515087Y-567719D01*
X514600Y-568892D01*
X503358D01*
X502831Y-567622D01*
X505662Y-564792D01*
X506104Y-564130D01*
X506259Y-563350D01*
Y-550650D01*
X506104Y-549870D01*
X505662Y-549208D01*
X501852Y-545398D01*
X501190Y-544956D01*
X500410Y-544801D01*
X492790D01*
X492010Y-544956D01*
X491348Y-545398D01*
X487538Y-549208D01*
X487096Y-549870D01*
X486941Y-550650D01*
Y-563350D01*
X487096Y-564130D01*
X487538Y-564792D01*
X490368Y-567622D01*
X489842Y-568892D01*
X474121D01*
X473635Y-567719D01*
X476062Y-565292D01*
X476504Y-564630D01*
X476659Y-563850D01*
Y-551150D01*
X476504Y-550370D01*
X476062Y-549708D01*
X472252Y-545898D01*
X471590Y-545456D01*
X470810Y-545301D01*
X463190D01*
X462410Y-545456D01*
X461748Y-545898D01*
X457938Y-549708D01*
X457496Y-550370D01*
X457341Y-551150D01*
Y-563850D01*
X457496Y-564630D01*
X457938Y-565292D01*
X460365Y-567719D01*
X459879Y-568892D01*
X448721D01*
X448235Y-567719D01*
X450662Y-565292D01*
X451104Y-564630D01*
X451259Y-563850D01*
Y-551150D01*
X451104Y-550370D01*
X450662Y-549708D01*
X446852Y-545898D01*
X446190Y-545456D01*
X445410Y-545301D01*
X437790D01*
X437010Y-545456D01*
X436348Y-545898D01*
X432538Y-549708D01*
X432096Y-550370D01*
X431941Y-551150D01*
Y-563850D01*
X432096Y-564630D01*
X432538Y-565292D01*
X434965Y-567719D01*
X434479Y-568892D01*
X411021D01*
X410535Y-567719D01*
X411962Y-566292D01*
X412404Y-565630D01*
X412559Y-564850D01*
Y-552150D01*
X412404Y-551370D01*
X411962Y-550708D01*
X408152Y-546898D01*
X407490Y-546456D01*
X406710Y-546301D01*
X399090D01*
X398310Y-546456D01*
X397648Y-546898D01*
X393838Y-550708D01*
X393396Y-551370D01*
X393241Y-552150D01*
Y-564850D01*
X393396Y-565630D01*
X393838Y-566292D01*
X395265Y-567719D01*
X394779Y-568892D01*
X385621D01*
X385135Y-567719D01*
X386562Y-566292D01*
X387004Y-565630D01*
X387159Y-564850D01*
Y-552150D01*
X387004Y-551370D01*
X386562Y-550708D01*
X382752Y-546898D01*
X382090Y-546456D01*
X381310Y-546301D01*
X373690D01*
X372910Y-546456D01*
X372248Y-546898D01*
X368438Y-550708D01*
X367996Y-551370D01*
X367841Y-552150D01*
Y-564850D01*
X367996Y-565630D01*
X368438Y-566292D01*
X369865Y-567719D01*
X369379Y-568892D01*
X360221D01*
X359735Y-567719D01*
X361162Y-566292D01*
X361604Y-565630D01*
X361759Y-564850D01*
Y-552150D01*
X361604Y-551370D01*
X361162Y-550708D01*
X357352Y-546898D01*
X356690Y-546456D01*
X355910Y-546301D01*
X348290D01*
X347510Y-546456D01*
X346848Y-546898D01*
X343038Y-550708D01*
X342596Y-551370D01*
X342441Y-552150D01*
Y-564850D01*
X342596Y-565630D01*
X343038Y-566292D01*
X344465Y-567719D01*
X343979Y-568892D01*
X96482D01*
X95996Y-567719D01*
X104436Y-559279D01*
X104524Y-559214D01*
X104623Y-559151D01*
X104707Y-559106D01*
X104776Y-559076D01*
X104820Y-559062D01*
X105000Y-559098D01*
X105180Y-559062D01*
X105224Y-559077D01*
X105293Y-559106D01*
X105377Y-559151D01*
X105476Y-559214D01*
X105564Y-559279D01*
X109642Y-563358D01*
X110724Y-564080D01*
X112000Y-564334D01*
X138214D01*
X138395Y-564605D01*
X140049Y-565710D01*
X142000Y-566098D01*
X143951Y-565710D01*
X145605Y-564605D01*
X146710Y-562951D01*
X147098Y-561000D01*
X146767Y-559334D01*
X147463Y-558064D01*
X156349D01*
X158721Y-560436D01*
X158786Y-560524D01*
X158849Y-560624D01*
X158894Y-560707D01*
X158924Y-560776D01*
X158938Y-560820D01*
X158902Y-561000D01*
X159290Y-562951D01*
X160395Y-564605D01*
X162049Y-565710D01*
X164000Y-566098D01*
X165951Y-565710D01*
X167605Y-564605D01*
X168710Y-562951D01*
X169098Y-561000D01*
X168710Y-559049D01*
X167605Y-557395D01*
X165951Y-556290D01*
X164000Y-555902D01*
X163820Y-555938D01*
X163776Y-555923D01*
X163707Y-555894D01*
X163623Y-555849D01*
X163524Y-555786D01*
X163436Y-555721D01*
X160088Y-552373D01*
X159006Y-551650D01*
X157730Y-551396D01*
X139403D01*
X138127Y-551650D01*
X137045Y-552373D01*
X136292Y-553126D01*
X130485D01*
X129778Y-551856D01*
X129894Y-551271D01*
X119102D01*
X119121Y-551364D01*
X118285Y-552571D01*
X117384Y-552668D01*
X110674Y-545959D01*
X110273Y-545691D01*
X109955Y-545373D01*
X108873Y-544650D01*
X107597Y-544396D01*
X103314D01*
X102271Y-544057D01*
X101938Y-543194D01*
X101710Y-542049D01*
X100605Y-540395D01*
X98951Y-539290D01*
X97000Y-538902D01*
X96820Y-538938D01*
X96776Y-538923D01*
X96707Y-538894D01*
X96623Y-538849D01*
X96524Y-538786D01*
X96436Y-538721D01*
X89334Y-531619D01*
Y-528000D01*
Y-486500D01*
X89080Y-485224D01*
X88357Y-484142D01*
X61834Y-457619D01*
Y-367881D01*
X80943Y-348772D01*
X81659Y-348983D01*
X82166Y-349345D01*
Y-381500D01*
X82420Y-382776D01*
X83142Y-383857D01*
X98114Y-398829D01*
X97488Y-399999D01*
X97000Y-399902D01*
X95049Y-400290D01*
X93395Y-401395D01*
X92290Y-403049D01*
X91902Y-405000D01*
X92290Y-406951D01*
X93395Y-408605D01*
X95049Y-409710D01*
X97000Y-410098D01*
X97180Y-410062D01*
X97224Y-410076D01*
X97293Y-410106D01*
X97377Y-410151D01*
X97476Y-410214D01*
X97564Y-410279D01*
X106643Y-419357D01*
X107724Y-420080D01*
X109000Y-420334D01*
X124369D01*
X124477Y-420350D01*
X124591Y-420376D01*
X124682Y-420404D01*
X124752Y-420431D01*
X124793Y-420452D01*
X124895Y-420605D01*
X126549Y-421710D01*
X128500Y-422098D01*
X130451Y-421710D01*
X132105Y-420605D01*
X133210Y-418951D01*
X133580Y-417091D01*
X133935Y-416862D01*
X134796Y-416511D01*
X150142Y-431857D01*
X151224Y-432580D01*
X152500Y-432834D01*
X251369D01*
X251477Y-432850D01*
X251591Y-432876D01*
X251682Y-432904D01*
X251752Y-432931D01*
X251793Y-432952D01*
X251895Y-433105D01*
X253549Y-434210D01*
X255500Y-434598D01*
X257451Y-434210D01*
X259105Y-433105D01*
X260210Y-431451D01*
X260598Y-429500D01*
X260210Y-427549D01*
X259105Y-425895D01*
X257451Y-424790D01*
X255500Y-424402D01*
X253549Y-424790D01*
X251895Y-425895D01*
X251793Y-426048D01*
X251752Y-426069D01*
X251682Y-426096D01*
X251591Y-426124D01*
X251477Y-426150D01*
X251369Y-426166D01*
X153881D01*
X134358Y-406642D01*
X133276Y-405920D01*
X132000Y-405666D01*
X114381D01*
X88834Y-380119D01*
Y-377898D01*
X90104Y-377467D01*
X90508Y-377993D01*
X102508Y-389992D01*
X103970Y-391115D01*
X105673Y-391820D01*
X107500Y-392060D01*
X260500D01*
X262327Y-391820D01*
X264030Y-391115D01*
X265492Y-389992D01*
X283424Y-372060D01*
X435378D01*
X435503Y-373330D01*
X434549Y-373520D01*
X432895Y-374625D01*
X431790Y-376279D01*
X431402Y-378230D01*
X431790Y-380181D01*
X432895Y-381835D01*
X434549Y-382940D01*
X436500Y-383328D01*
X438451Y-382940D01*
X440105Y-381835D01*
X441210Y-380181D01*
X441598Y-378230D01*
X441210Y-376279D01*
X440105Y-374625D01*
X438451Y-373520D01*
X437497Y-373330D01*
X437622Y-372060D01*
X452575D01*
X477608Y-397092D01*
X479070Y-398214D01*
X480773Y-398920D01*
X482600Y-399160D01*
X536325D01*
X536468Y-399346D01*
X538590Y-400975D01*
X541062Y-401998D01*
X542444Y-402180D01*
Y-392100D01*
Y-388373D01*
X538714Y-392103D01*
X538650Y-391429D01*
X538458Y-390692D01*
X538163Y-389955D01*
X536094Y-392024D01*
X536086Y-390924D01*
X535954Y-388952D01*
X535830Y-388081D01*
X535667Y-387286D01*
X535465Y-386567D01*
X535224Y-385924D01*
X534945Y-385357D01*
X534845Y-385203D01*
X534625Y-384935D01*
X533539Y-383753D01*
X532325Y-382507D01*
X534121Y-380711D01*
X535367Y-381925D01*
X537060Y-383375D01*
X537538Y-383610D01*
X538181Y-383851D01*
X538900Y-384053D01*
X539695Y-384216D01*
X540566Y-384340D01*
X542444Y-384466D01*
Y-382020D01*
X541062Y-382201D01*
X540796Y-382312D01*
X540779Y-382311D01*
X540044Y-382206D01*
X539380Y-382070D01*
X538815Y-381911D01*
X538348Y-381736D01*
X538191Y-381659D01*
X536775Y-380446D01*
X512309Y-355980D01*
X512677Y-354764D01*
X512951Y-354710D01*
X514605Y-353605D01*
X515710Y-351951D01*
X516098Y-350000D01*
X515710Y-348049D01*
X514605Y-346395D01*
X512951Y-345290D01*
X511000Y-344902D01*
X509049Y-345290D01*
X507395Y-346395D01*
X506290Y-348049D01*
X506236Y-348323D01*
X505020Y-348691D01*
X479834Y-323505D01*
Y-303435D01*
X480494Y-302994D01*
X481693Y-301199D01*
X481834Y-301019D01*
X483056Y-300765D01*
X493902Y-311612D01*
D02*
G37*
G36*
X526253Y-381925D02*
X529608Y-384799D01*
X530600Y-385502D01*
X531527Y-386077D01*
X532392Y-386524D01*
X533192Y-386844D01*
X533929Y-387036D01*
X534603Y-387100D01*
X529600Y-392103D01*
X529536Y-391429D01*
X529344Y-390692D01*
X529024Y-389892D01*
X528577Y-389027D01*
X528002Y-388100D01*
X527781Y-387789D01*
X525677Y-389893D01*
X528467Y-392100D01*
Y-397100D01*
Y-397100D01*
X511671Y-387100D01*
X513553Y-387082D01*
X516609Y-386938D01*
X517784Y-386813D01*
X518722Y-386651D01*
X519425Y-386453D01*
X519891Y-386220D01*
X520122Y-385951D01*
X520120Y-385836D01*
X519378Y-384935D01*
X518292Y-383753D01*
X517078Y-382507D01*
X518875Y-380711D01*
X520120Y-381925D01*
X523475Y-384799D01*
X524467Y-385502D01*
X525395Y-386077D01*
X526259Y-386524D01*
X527060Y-386844D01*
X527087Y-386851D01*
X525511Y-384935D01*
X524425Y-383753D01*
X523211Y-382507D01*
X525007Y-380711D01*
X526253Y-381925D01*
D02*
G37*
G36*
X100009Y-405262D02*
X100040Y-405493D01*
X100093Y-405722D01*
X100169Y-405951D01*
X100267Y-406178D01*
X100388Y-406404D01*
X100531Y-406629D01*
X100695Y-406852D01*
X100883Y-407075D01*
X101093Y-407297D01*
X99297Y-409093D01*
X99075Y-408883D01*
X98853Y-408695D01*
X98629Y-408531D01*
X98404Y-408388D01*
X98178Y-408267D01*
X97950Y-408169D01*
X97722Y-408093D01*
X97493Y-408040D01*
X97262Y-408009D01*
X97030Y-408000D01*
X100000Y-405030D01*
X100009Y-405262D01*
D02*
G37*
G36*
X126358Y-419100D02*
X126187Y-418942D01*
X126002Y-418801D01*
X125802Y-418677D01*
X125587Y-418569D01*
X125357Y-418478D01*
X125112Y-418403D01*
X124852Y-418345D01*
X124577Y-418303D01*
X124287Y-418278D01*
X123982Y-418270D01*
Y-415730D01*
X124287Y-415722D01*
X124577Y-415697D01*
X124852Y-415655D01*
X125112Y-415597D01*
X125357Y-415522D01*
X125587Y-415431D01*
X125802Y-415323D01*
X126002Y-415199D01*
X126187Y-415058D01*
X126358Y-414900D01*
Y-419100D01*
D02*
G37*
G36*
X253358Y-431600D02*
X253187Y-431442D01*
X253002Y-431301D01*
X252802Y-431177D01*
X252587Y-431069D01*
X252357Y-430978D01*
X252112Y-430903D01*
X251852Y-430845D01*
X251577Y-430803D01*
X251287Y-430778D01*
X250982Y-430770D01*
Y-428230D01*
X251287Y-428222D01*
X251577Y-428197D01*
X251852Y-428155D01*
X252112Y-428097D01*
X252357Y-428022D01*
X252587Y-427931D01*
X252802Y-427823D01*
X253002Y-427699D01*
X253187Y-427558D01*
X253358Y-427400D01*
Y-431600D01*
D02*
G37*
G36*
X34588Y-505709D02*
X34377Y-505928D01*
X34012Y-506369D01*
X33857Y-506589D01*
X33721Y-506810D01*
X33603Y-507031D01*
X33504Y-507252D01*
X33424Y-507473D01*
X33362Y-507694D01*
X33318Y-507916D01*
X30868Y-504505D01*
X31095Y-504531D01*
X31321Y-504531D01*
X31547Y-504505D01*
X31772Y-504452D01*
X31998Y-504374D01*
X32223Y-504268D01*
X32447Y-504137D01*
X32671Y-503979D01*
X32895Y-503795D01*
X33119Y-503585D01*
X34588Y-505709D01*
D02*
G37*
G36*
X72858Y-506600D02*
X72687Y-506442D01*
X72502Y-506301D01*
X72302Y-506177D01*
X72087Y-506069D01*
X71857Y-505978D01*
X71612Y-505903D01*
X71352Y-505845D01*
X71077Y-505803D01*
X70787Y-505778D01*
X70482Y-505770D01*
Y-503230D01*
X70787Y-503222D01*
X71077Y-503197D01*
X71352Y-503155D01*
X71612Y-503097D01*
X71857Y-503022D01*
X72087Y-502931D01*
X72302Y-502823D01*
X72502Y-502699D01*
X72687Y-502558D01*
X72858Y-502400D01*
Y-506600D01*
D02*
G37*
G36*
X87270Y-528000D02*
X84730Y-533000D01*
X84712Y-532650D01*
X84658Y-532376D01*
X84568Y-532175D01*
X84443Y-532050D01*
X84281Y-531998D01*
X84083Y-532022D01*
X83850Y-532120D01*
X83581Y-532293D01*
X83275Y-532540D01*
X82934Y-532862D01*
Y-529270D01*
X83275Y-528903D01*
X83581Y-528522D01*
X83850Y-528125D01*
X84083Y-527714D01*
X84281Y-527288D01*
X84443Y-526847D01*
X84568Y-526391D01*
X84658Y-525920D01*
X84712Y-525434D01*
X84730Y-524934D01*
X87270Y-528000D01*
D02*
G37*
G36*
X94925Y-540117D02*
X95147Y-540304D01*
X95371Y-540470D01*
X95596Y-540612D01*
X95822Y-540733D01*
X96049Y-540831D01*
X96278Y-540907D01*
X96508Y-540960D01*
X96738Y-540991D01*
X96970Y-541000D01*
X94000Y-543970D01*
X93991Y-543738D01*
X93960Y-543507D01*
X93907Y-543278D01*
X93831Y-543050D01*
X93733Y-542822D01*
X93612Y-542596D01*
X93470Y-542371D01*
X93305Y-542147D01*
X93117Y-541925D01*
X92907Y-541703D01*
X94703Y-539907D01*
X94925Y-540117D01*
D02*
G37*
G36*
X56441Y-549855D02*
X56231Y-550078D01*
X56046Y-550302D01*
X55886Y-550526D01*
X55752Y-550751D01*
X55643Y-550977D01*
X55559Y-551204D01*
X55500Y-551431D01*
X55467Y-551659D01*
X55458Y-551887D01*
X55475Y-552117D01*
X52176Y-549518D01*
X52403Y-549483D01*
X52628Y-549429D01*
X52853Y-549356D01*
X53077Y-549263D01*
X53301Y-549151D01*
X53524Y-549019D01*
X53746Y-548867D01*
X53968Y-548696D01*
X54188Y-548506D01*
X54409Y-548295D01*
X56441Y-549855D01*
D02*
G37*
G36*
X108009Y-554262D02*
X108040Y-554493D01*
X108093Y-554722D01*
X108169Y-554950D01*
X108267Y-555178D01*
X108388Y-555404D01*
X108530Y-555629D01*
X108695Y-555853D01*
X108883Y-556075D01*
X109093Y-556297D01*
X107297Y-558093D01*
X107075Y-557883D01*
X106853Y-557696D01*
X106629Y-557531D01*
X106404Y-557388D01*
X106178Y-557267D01*
X105950Y-557169D01*
X105722Y-557093D01*
X105493Y-557040D01*
X105262Y-557009D01*
X105030Y-557000D01*
X108000Y-554030D01*
X108009Y-554262D01*
D02*
G37*
G36*
X104970Y-557000D02*
X104738Y-557009D01*
X104507Y-557040D01*
X104278Y-557093D01*
X104050Y-557169D01*
X103822Y-557267D01*
X103596Y-557388D01*
X103371Y-557531D01*
X103147Y-557696D01*
X102925Y-557883D01*
X102703Y-558093D01*
X100907Y-556297D01*
X101117Y-556075D01*
X101305Y-555853D01*
X101469Y-555629D01*
X101612Y-555404D01*
X101733Y-555178D01*
X101831Y-554950D01*
X101907Y-554722D01*
X101960Y-554493D01*
X101991Y-554262D01*
X102000Y-554030D01*
X104970Y-557000D01*
D02*
G37*
G36*
X161925Y-557117D02*
X162148Y-557304D01*
X162371Y-557469D01*
X162596Y-557612D01*
X162822Y-557733D01*
X163050Y-557831D01*
X163278Y-557907D01*
X163507Y-557960D01*
X163738Y-557991D01*
X163970Y-558000D01*
X161000Y-560970D01*
X160991Y-560738D01*
X160960Y-560507D01*
X160907Y-560278D01*
X160831Y-560050D01*
X160733Y-559822D01*
X160612Y-559596D01*
X160470Y-559371D01*
X160305Y-559147D01*
X160117Y-558925D01*
X159907Y-558703D01*
X161703Y-556907D01*
X161925Y-557117D01*
D02*
G37*
G36*
X57313Y-559058D02*
X57498Y-559199D01*
X57698Y-559323D01*
X57913Y-559431D01*
X58143Y-559523D01*
X58388Y-559597D01*
X58648Y-559655D01*
X58923Y-559697D01*
X59213Y-559722D01*
X59518Y-559730D01*
Y-562270D01*
X59213Y-562278D01*
X58923Y-562303D01*
X58648Y-562345D01*
X58388Y-562403D01*
X58143Y-562477D01*
X57913Y-562569D01*
X57698Y-562677D01*
X57498Y-562801D01*
X57313Y-562942D01*
X57142Y-563100D01*
Y-558900D01*
X57313Y-559058D01*
D02*
G37*
%LPC*%
G36*
X326770Y-29604D02*
Y-33730D01*
X330896D01*
X330719Y-32838D01*
X329494Y-31006D01*
X327662Y-29781D01*
X326770Y-29604D01*
D02*
G37*
G36*
X324230D02*
X323338Y-29781D01*
X321506Y-31006D01*
X320281Y-32838D01*
X320104Y-33730D01*
X324230D01*
Y-29604D01*
D02*
G37*
G36*
Y-36270D02*
X323740D01*
X324230Y-36760D01*
Y-36270D01*
D02*
G37*
G36*
X330896D02*
X326770D01*
Y-40396D01*
X327662Y-40219D01*
X329494Y-38994D01*
X330719Y-37162D01*
X330896Y-36270D01*
D02*
G37*
G36*
X51500Y-64912D02*
X49744Y-65261D01*
X48256Y-66255D01*
X47261Y-67744D01*
X46912Y-69500D01*
X47261Y-71256D01*
X46488Y-72384D01*
X45270Y-72142D01*
X45048Y-72186D01*
X43968Y-71106D01*
X44088Y-70500D01*
X43739Y-68744D01*
X42744Y-67256D01*
X41256Y-66261D01*
X39500Y-65912D01*
X37744Y-66261D01*
X36256Y-67256D01*
X35261Y-68744D01*
X34912Y-70500D01*
X34994Y-70914D01*
X33914Y-71994D01*
X33500Y-71912D01*
X31744Y-72261D01*
X30256Y-73256D01*
X29261Y-74744D01*
X28912Y-76500D01*
X29261Y-78256D01*
X30256Y-79744D01*
X31744Y-80739D01*
X33500Y-81088D01*
X35256Y-80739D01*
X36744Y-79744D01*
X37739Y-78256D01*
X38088Y-76500D01*
X38006Y-76086D01*
X39086Y-75006D01*
X39500Y-75088D01*
X39722Y-75044D01*
X40802Y-76124D01*
X40682Y-76730D01*
X41031Y-78486D01*
X42026Y-79974D01*
X43514Y-80969D01*
X45270Y-81318D01*
X47026Y-80969D01*
X48514Y-79974D01*
X49509Y-78486D01*
X49858Y-76730D01*
X49509Y-74974D01*
X50282Y-73846D01*
X51500Y-74088D01*
X53256Y-73739D01*
X54744Y-72744D01*
X55739Y-71256D01*
X56088Y-69500D01*
X55739Y-67744D01*
X54744Y-66255D01*
X53256Y-65261D01*
X51500Y-64912D01*
D02*
G37*
G36*
X171500Y-124402D02*
X169549Y-124790D01*
X167895Y-125895D01*
X166790Y-127549D01*
X166402Y-129500D01*
X166790Y-131451D01*
X167895Y-133105D01*
X169549Y-134210D01*
X171500Y-134598D01*
X173451Y-134210D01*
X175105Y-133105D01*
X176210Y-131451D01*
X176598Y-129500D01*
X176210Y-127549D01*
X175105Y-125895D01*
X173451Y-124790D01*
X171500Y-124402D01*
D02*
G37*
G36*
X214500Y-127402D02*
X212549Y-127790D01*
X210895Y-128895D01*
X209790Y-130549D01*
X209402Y-132500D01*
X209790Y-134451D01*
X210895Y-136105D01*
X212549Y-137210D01*
X214500Y-137598D01*
X216451Y-137210D01*
X218105Y-136105D01*
X219210Y-134451D01*
X219598Y-132500D01*
X219210Y-130549D01*
X218105Y-128895D01*
X216451Y-127790D01*
X214500Y-127402D01*
D02*
G37*
G36*
X85000Y-168402D02*
X83049Y-168790D01*
X81395Y-169895D01*
X80290Y-171549D01*
X79902Y-173500D01*
X80290Y-175451D01*
X81395Y-177105D01*
X83049Y-178210D01*
X85000Y-178598D01*
X86951Y-178210D01*
X88605Y-177105D01*
X89710Y-175451D01*
X90098Y-173500D01*
X89710Y-171549D01*
X88605Y-169895D01*
X86951Y-168790D01*
X85000Y-168402D01*
D02*
G37*
G36*
X128000Y-168902D02*
X126049Y-169290D01*
X124395Y-170395D01*
X123290Y-172049D01*
X122902Y-174000D01*
X123290Y-175951D01*
X124395Y-177605D01*
X126049Y-178710D01*
X128000Y-179098D01*
X129951Y-178710D01*
X131605Y-177605D01*
X132710Y-175951D01*
X133098Y-174000D01*
X132710Y-172049D01*
X131605Y-170395D01*
X129951Y-169290D01*
X128000Y-168902D01*
D02*
G37*
G36*
X55500Y-308402D02*
X53549Y-308790D01*
X51895Y-309895D01*
X50790Y-311549D01*
X50402Y-313500D01*
X50790Y-315451D01*
X51895Y-317105D01*
X53549Y-318210D01*
X55500Y-318598D01*
X57451Y-318210D01*
X59105Y-317105D01*
X60210Y-315451D01*
X60598Y-313500D01*
X60210Y-311549D01*
X59105Y-309895D01*
X57451Y-308790D01*
X55500Y-308402D01*
D02*
G37*
G36*
X383498Y-316404D02*
X381547Y-316792D01*
X379893Y-317897D01*
X378788Y-319551D01*
X378400Y-321502D01*
X378788Y-323453D01*
X379893Y-325107D01*
X381547Y-326212D01*
X383498Y-326600D01*
X385449Y-326212D01*
X387103Y-325107D01*
X388208Y-323453D01*
X388596Y-321502D01*
X388208Y-319551D01*
X387103Y-317897D01*
X385449Y-316792D01*
X383498Y-316404D01*
D02*
G37*
G36*
X210770Y-325402D02*
X208819Y-325790D01*
X207165Y-326895D01*
X206060Y-328549D01*
X205672Y-330500D01*
X206060Y-332451D01*
X207165Y-334105D01*
X207337Y-334219D01*
X206662Y-335281D01*
X205770Y-335104D01*
Y-339230D01*
X209896D01*
X209719Y-338338D01*
X208494Y-336506D01*
X208144Y-336272D01*
X208819Y-335210D01*
X210770Y-335598D01*
X212721Y-335210D01*
X214375Y-334105D01*
X215480Y-332451D01*
X215868Y-330500D01*
X215480Y-328549D01*
X214375Y-326895D01*
X212721Y-325790D01*
X210770Y-325402D01*
D02*
G37*
G36*
X259000Y-326402D02*
X257049Y-326790D01*
X255395Y-327895D01*
X254290Y-329549D01*
X253902Y-331500D01*
X254290Y-333451D01*
X255395Y-335105D01*
X257049Y-336210D01*
X259000Y-336598D01*
X260951Y-336210D01*
X262605Y-335105D01*
X263710Y-333451D01*
X264098Y-331500D01*
X263710Y-329549D01*
X262605Y-327895D01*
X260951Y-326790D01*
X259000Y-326402D01*
D02*
G37*
G36*
X203230Y-335104D02*
X202338Y-335281D01*
X200506Y-336506D01*
X199281Y-338338D01*
X199104Y-339230D01*
X203230D01*
Y-335104D01*
D02*
G37*
G36*
X206260Y-341770D02*
X205770D01*
Y-342260D01*
X206260Y-341770D01*
D02*
G37*
G36*
X203230D02*
X199104D01*
X199281Y-342662D01*
X200506Y-344494D01*
X202338Y-345719D01*
X203230Y-345896D01*
Y-341770D01*
D02*
G37*
G36*
X243000Y-364902D02*
X241049Y-365290D01*
X239395Y-366395D01*
X238290Y-368049D01*
X237902Y-370000D01*
X238290Y-371951D01*
X239395Y-373605D01*
X241049Y-374710D01*
X243000Y-375098D01*
X244951Y-374710D01*
X246605Y-373605D01*
X247710Y-371951D01*
X248098Y-370000D01*
X247710Y-368049D01*
X246605Y-366395D01*
X244951Y-365290D01*
X243000Y-364902D01*
D02*
G37*
G36*
X296040Y-376402D02*
X294089Y-376790D01*
X292435Y-377895D01*
X291330Y-379549D01*
X290942Y-381500D01*
X291330Y-383451D01*
X292435Y-385105D01*
X294089Y-386210D01*
X296040Y-386598D01*
X297991Y-386210D01*
X299645Y-385105D01*
X300750Y-383451D01*
X301138Y-381500D01*
X300750Y-379549D01*
X299645Y-377895D01*
X297991Y-376790D01*
X296040Y-376402D01*
D02*
G37*
G36*
X542444Y-385674D02*
X541569Y-386549D01*
X542306Y-386844D01*
X542444Y-386880D01*
Y-385674D01*
D02*
G37*
G36*
X330350Y-382041D02*
X317650D01*
X316870Y-382196D01*
X316208Y-382638D01*
X312398Y-386448D01*
X311956Y-387110D01*
X311801Y-387890D01*
Y-395510D01*
X311956Y-396290D01*
X312398Y-396952D01*
X316208Y-400762D01*
X316870Y-401204D01*
X317650Y-401359D01*
X330350D01*
X331130Y-401204D01*
X331792Y-400762D01*
X335602Y-396952D01*
X336044Y-396290D01*
X336199Y-395510D01*
Y-387890D01*
X336044Y-387110D01*
X335602Y-386448D01*
X331792Y-382638D01*
X331130Y-382196D01*
X330350Y-382041D01*
D02*
G37*
G36*
X355500Y-382397D02*
X352989Y-382728D01*
X350648Y-383697D01*
X348639Y-385239D01*
X347097Y-387248D01*
X346128Y-389589D01*
X345797Y-392100D01*
X346128Y-394611D01*
X347097Y-396951D01*
X348639Y-398961D01*
X350648Y-400503D01*
X352989Y-401472D01*
X355500Y-401803D01*
X358011Y-401472D01*
X360351Y-400503D01*
X362361Y-398961D01*
X363903Y-396951D01*
X364872Y-394611D01*
X365203Y-392100D01*
X364872Y-389589D01*
X363903Y-387248D01*
X362361Y-385239D01*
X360351Y-383697D01*
X358011Y-382728D01*
X355500Y-382397D01*
D02*
G37*
G36*
X542444Y-407420D02*
X541062Y-407602D01*
X538590Y-408625D01*
X536468Y-410254D01*
X534839Y-412376D01*
X533815Y-414848D01*
X533633Y-416230D01*
X542444D01*
Y-407420D01*
D02*
G37*
G36*
X330350Y-407441D02*
X317650D01*
X316870Y-407596D01*
X316208Y-408038D01*
X312398Y-411848D01*
X311956Y-412510D01*
X311801Y-413290D01*
Y-420910D01*
X311956Y-421690D01*
X312398Y-422352D01*
X316208Y-426162D01*
X316870Y-426604D01*
X317650Y-426759D01*
X330350D01*
X331130Y-426604D01*
X331792Y-426162D01*
X335602Y-422352D01*
X336044Y-421690D01*
X336199Y-420910D01*
Y-413290D01*
X336044Y-412510D01*
X335602Y-411848D01*
X331792Y-408038D01*
X331130Y-407596D01*
X330350Y-407441D01*
D02*
G37*
G36*
X355500Y-407797D02*
X352989Y-408128D01*
X350648Y-409097D01*
X348639Y-410639D01*
X347097Y-412649D01*
X346128Y-414989D01*
X345797Y-417500D01*
X346128Y-420011D01*
X347097Y-422351D01*
X348639Y-424361D01*
X350648Y-425903D01*
X352989Y-426872D01*
X355500Y-427203D01*
X358011Y-426872D01*
X360351Y-425903D01*
X362361Y-424361D01*
X363903Y-422351D01*
X364872Y-420011D01*
X365203Y-417500D01*
X364872Y-414989D01*
X363903Y-412649D01*
X362361Y-410639D01*
X360351Y-409097D01*
X358011Y-408128D01*
X355500Y-407797D01*
D02*
G37*
G36*
X542444Y-418770D02*
X533633D01*
X533815Y-420152D01*
X534839Y-422624D01*
X536468Y-424746D01*
X538590Y-426375D01*
X541062Y-427398D01*
X542444Y-427580D01*
Y-418770D01*
D02*
G37*
G36*
X242500Y-437402D02*
X240549Y-437790D01*
X238895Y-438895D01*
X237790Y-440549D01*
X237402Y-442500D01*
X237790Y-444451D01*
X238895Y-446105D01*
X240549Y-447210D01*
X242500Y-447598D01*
X244451Y-447210D01*
X246105Y-446105D01*
X247210Y-444451D01*
X247598Y-442500D01*
X247210Y-440549D01*
X246105Y-438895D01*
X244451Y-437790D01*
X242500Y-437402D01*
D02*
G37*
G36*
X330350Y-432841D02*
X317650D01*
X316870Y-432996D01*
X316208Y-433438D01*
X312398Y-437248D01*
X311956Y-437910D01*
X311801Y-438690D01*
Y-446310D01*
X311956Y-447090D01*
X312398Y-447752D01*
X316208Y-451562D01*
X316870Y-452004D01*
X317650Y-452159D01*
X330350D01*
X331130Y-452004D01*
X331792Y-451562D01*
X335602Y-447752D01*
X336044Y-447090D01*
X336199Y-446310D01*
Y-438690D01*
X336044Y-437910D01*
X335602Y-437248D01*
X331792Y-433438D01*
X331130Y-432996D01*
X330350Y-432841D01*
D02*
G37*
G36*
X291500Y-449902D02*
X289549Y-450290D01*
X287895Y-451395D01*
X286790Y-453049D01*
X286402Y-455000D01*
X286790Y-456951D01*
X287895Y-458605D01*
X289549Y-459710D01*
X291500Y-460098D01*
X293451Y-459710D01*
X295105Y-458605D01*
X296210Y-456951D01*
X296598Y-455000D01*
X296210Y-453049D01*
X295105Y-451395D01*
X293451Y-450290D01*
X291500Y-449902D01*
D02*
G37*
G36*
X330850Y-461841D02*
X318150D01*
X317370Y-461996D01*
X316708Y-462438D01*
X312898Y-466248D01*
X312456Y-466910D01*
X312301Y-467690D01*
Y-475310D01*
X312456Y-476090D01*
X312898Y-476752D01*
X316708Y-480562D01*
X317370Y-481004D01*
X318150Y-481159D01*
X330850D01*
X331630Y-481004D01*
X332292Y-480562D01*
X336102Y-476752D01*
X336544Y-476090D01*
X336699Y-475310D01*
Y-467690D01*
X336544Y-466910D01*
X336102Y-466248D01*
X332292Y-462438D01*
X331630Y-461996D01*
X330850Y-461841D01*
D02*
G37*
G36*
X502500Y-472402D02*
X500549Y-472790D01*
X498895Y-473895D01*
X497790Y-475549D01*
X497402Y-477500D01*
X497790Y-479451D01*
X498895Y-481105D01*
X500549Y-482210D01*
X502500Y-482598D01*
X504451Y-482210D01*
X506105Y-481105D01*
X507210Y-479451D01*
X507598Y-477500D01*
X507210Y-475549D01*
X506105Y-473895D01*
X504451Y-472790D01*
X502500Y-472402D01*
D02*
G37*
G36*
X425000Y-470440D02*
X423173Y-470680D01*
X421470Y-471385D01*
X420008Y-472508D01*
X418885Y-473970D01*
X418180Y-475673D01*
X418080Y-476435D01*
X399748Y-494768D01*
X363669D01*
X363033Y-494759D01*
X361552Y-494675D01*
X361459Y-494664D01*
X359843Y-493425D01*
X357503Y-492456D01*
X354992Y-492125D01*
X352481Y-492456D01*
X350140Y-493425D01*
X348131Y-494967D01*
X346589Y-496977D01*
X345620Y-499317D01*
X345289Y-501828D01*
X345620Y-504339D01*
X346589Y-506679D01*
X348131Y-508689D01*
X350140Y-510231D01*
X352481Y-511200D01*
X354992Y-511531D01*
X357503Y-511200D01*
X359843Y-510231D01*
X361386Y-509047D01*
X364188Y-508888D01*
X402672D01*
X404499Y-508648D01*
X406202Y-507943D01*
X407664Y-506820D01*
X429992Y-484492D01*
X431115Y-483030D01*
X431557Y-481962D01*
X432936Y-481523D01*
X433050Y-481543D01*
X434049Y-482210D01*
X436000Y-482598D01*
X437951Y-482210D01*
X439605Y-481105D01*
X440710Y-479451D01*
X441098Y-477500D01*
X440710Y-475549D01*
X439605Y-473895D01*
X437951Y-472790D01*
X436000Y-472402D01*
X434049Y-472790D01*
X432445Y-473862D01*
X432229Y-473970D01*
X430956Y-473763D01*
X429992Y-472508D01*
X428530Y-471385D01*
X426827Y-470680D01*
X425000Y-470440D01*
D02*
G37*
G36*
X242000Y-475402D02*
X240049Y-475790D01*
X238395Y-476895D01*
X237290Y-478549D01*
X236902Y-480500D01*
X237290Y-482451D01*
X238395Y-484105D01*
X240049Y-485210D01*
X242000Y-485598D01*
X243951Y-485210D01*
X245605Y-484105D01*
X246710Y-482451D01*
X247098Y-480500D01*
X246710Y-478549D01*
X245605Y-476895D01*
X243951Y-475790D01*
X242000Y-475402D01*
D02*
G37*
G36*
X257000Y-487902D02*
X255049Y-488290D01*
X253395Y-489395D01*
X252290Y-491049D01*
X251902Y-493000D01*
X252290Y-494951D01*
X253395Y-496605D01*
X255049Y-497710D01*
X257000Y-498098D01*
X258951Y-497710D01*
X260605Y-496605D01*
X261710Y-494951D01*
X262098Y-493000D01*
X261710Y-491049D01*
X260605Y-489395D01*
X258951Y-488290D01*
X257000Y-487902D01*
D02*
G37*
G36*
X330850Y-487241D02*
X318150D01*
X317370Y-487396D01*
X316708Y-487838D01*
X312898Y-491648D01*
X312456Y-492310D01*
X312301Y-493090D01*
Y-500710D01*
X312456Y-501490D01*
X312898Y-502152D01*
X316708Y-505962D01*
X317370Y-506404D01*
X318150Y-506559D01*
X330850D01*
X331630Y-506404D01*
X332292Y-505962D01*
X336102Y-502152D01*
X336544Y-501490D01*
X336699Y-500710D01*
Y-493090D01*
X336544Y-492310D01*
X336102Y-491648D01*
X332292Y-487838D01*
X331630Y-487396D01*
X330850Y-487241D01*
D02*
G37*
G36*
X543206Y-492125D02*
X540695Y-492456D01*
X538354Y-493425D01*
X536345Y-494967D01*
X534803Y-496977D01*
X533834Y-499317D01*
X533503Y-501828D01*
X533834Y-504339D01*
X534803Y-506679D01*
X536345Y-508689D01*
X538354Y-510231D01*
X540695Y-511200D01*
X543206Y-511531D01*
X545717Y-511200D01*
X548058Y-510231D01*
X550067Y-508689D01*
X551609Y-506679D01*
X552578Y-504339D01*
X552909Y-501828D01*
X552578Y-499317D01*
X551609Y-496977D01*
X550067Y-494967D01*
X548058Y-493425D01*
X545717Y-492456D01*
X543206Y-492125D01*
D02*
G37*
G36*
X330850Y-512641D02*
X318150D01*
X317370Y-512796D01*
X316708Y-513238D01*
X312898Y-517048D01*
X312456Y-517710D01*
X312301Y-518490D01*
Y-526110D01*
X312456Y-526890D01*
X312898Y-527552D01*
X316708Y-531362D01*
X317370Y-531804D01*
X318150Y-531959D01*
X330850D01*
X331630Y-531804D01*
X332292Y-531362D01*
X336102Y-527552D01*
X336544Y-526890D01*
X336699Y-526110D01*
Y-518490D01*
X336544Y-517710D01*
X336102Y-517048D01*
X332292Y-513238D01*
X331630Y-512796D01*
X330850Y-512641D01*
D02*
G37*
G36*
X543206Y-517525D02*
X540695Y-517856D01*
X538354Y-518825D01*
X536345Y-520367D01*
X534803Y-522377D01*
X533834Y-524717D01*
X533503Y-527228D01*
X533834Y-529739D01*
X534803Y-532080D01*
X536345Y-534089D01*
X538354Y-535631D01*
X540695Y-536600D01*
X543206Y-536931D01*
X545717Y-536600D01*
X548058Y-535631D01*
X550067Y-534089D01*
X551609Y-532080D01*
X552578Y-529739D01*
X552909Y-527228D01*
X552578Y-524717D01*
X551609Y-522377D01*
X550067Y-520367D01*
X548058Y-518825D01*
X545717Y-517856D01*
X543206Y-517525D01*
D02*
G37*
G36*
X354992D02*
X352481Y-517856D01*
X350140Y-518825D01*
X348131Y-520367D01*
X346589Y-522377D01*
X345620Y-524717D01*
X345289Y-527228D01*
X345620Y-529739D01*
X346589Y-532080D01*
X348131Y-534089D01*
X350140Y-535631D01*
X352481Y-536600D01*
X354992Y-536931D01*
X357503Y-536600D01*
X359843Y-535631D01*
X361853Y-534089D01*
X363395Y-532080D01*
X364364Y-529739D01*
X364695Y-527228D01*
X364364Y-524717D01*
X363395Y-522377D01*
X361853Y-520367D01*
X359843Y-518825D01*
X357503Y-517856D01*
X354992Y-517525D01*
D02*
G37*
G36*
X197270Y-537104D02*
Y-541230D01*
X201396D01*
X201219Y-540338D01*
X199994Y-538506D01*
X198162Y-537281D01*
X197270Y-537104D01*
D02*
G37*
G36*
X201396Y-543770D02*
X197270D01*
Y-547896D01*
X198162Y-547719D01*
X199994Y-546494D01*
X201219Y-544662D01*
X201396Y-543770D01*
D02*
G37*
G36*
X194730Y-537104D02*
X193838Y-537281D01*
X192006Y-538506D01*
X191565Y-539166D01*
X132000D01*
X130724Y-539420D01*
X129642Y-540143D01*
X125768Y-544016D01*
Y-546685D01*
X125902Y-546614D01*
X126127Y-546471D01*
X126351Y-546306D01*
X126573Y-546119D01*
X126795Y-545909D01*
X128591Y-547705D01*
X128381Y-547926D01*
X128194Y-548149D01*
X128029Y-548373D01*
X127886Y-548598D01*
X127815Y-548731D01*
X130483D01*
X133381Y-545834D01*
X191565D01*
X192006Y-546494D01*
X193838Y-547719D01*
X194730Y-547896D01*
Y-542500D01*
Y-537104D01*
D02*
G37*
G36*
X125768Y-548242D02*
Y-548731D01*
X126258D01*
X125768Y-548242D01*
D02*
G37*
G36*
X123228Y-544605D02*
X122337Y-544783D01*
X120504Y-546007D01*
X119280Y-547840D01*
X119102Y-548731D01*
X123228D01*
Y-544605D01*
D02*
G37*
G36*
X525810Y-544250D02*
X523270D01*
Y-555730D01*
X532210D01*
Y-550650D01*
X532013Y-549659D01*
X531451Y-548819D01*
X527641Y-545009D01*
X526801Y-544447D01*
X525810Y-544250D01*
D02*
G37*
G36*
X520730D02*
X518190D01*
X517199Y-544447D01*
X516359Y-545009D01*
X512549Y-548819D01*
X511987Y-549659D01*
X511790Y-550650D01*
Y-555730D01*
X520730D01*
Y-544250D01*
D02*
G37*
G36*
X283210Y-542801D02*
X275590D01*
X274810Y-542956D01*
X274148Y-543398D01*
X270338Y-547208D01*
X269896Y-547870D01*
X269741Y-548650D01*
Y-561350D01*
X269896Y-562131D01*
X270338Y-562792D01*
X274148Y-566602D01*
X274810Y-567044D01*
X275590Y-567199D01*
X283210D01*
X283991Y-567044D01*
X284652Y-566602D01*
X288462Y-562792D01*
X288904Y-562131D01*
X289059Y-561350D01*
Y-548650D01*
X288904Y-547870D01*
X288462Y-547208D01*
X284652Y-543398D01*
X283991Y-542956D01*
X283210Y-542801D01*
D02*
G37*
G36*
X257810D02*
X250190D01*
X249410Y-542956D01*
X248748Y-543398D01*
X244938Y-547208D01*
X244496Y-547870D01*
X244341Y-548650D01*
Y-561350D01*
X244496Y-562131D01*
X244938Y-562792D01*
X248748Y-566602D01*
X249410Y-567044D01*
X250190Y-567199D01*
X257810D01*
X258591Y-567044D01*
X259252Y-566602D01*
X263062Y-562792D01*
X263504Y-562131D01*
X263659Y-561350D01*
Y-548650D01*
X263504Y-547870D01*
X263062Y-547208D01*
X259252Y-543398D01*
X258591Y-542956D01*
X257810Y-542801D01*
D02*
G37*
G36*
X232410D02*
X224790D01*
X224010Y-542956D01*
X223348Y-543398D01*
X219538Y-547208D01*
X219096Y-547870D01*
X218941Y-548650D01*
Y-561350D01*
X219096Y-562131D01*
X219538Y-562792D01*
X223348Y-566602D01*
X224010Y-567044D01*
X224790Y-567199D01*
X232410D01*
X233191Y-567044D01*
X233852Y-566602D01*
X237662Y-562792D01*
X238104Y-562131D01*
X238259Y-561350D01*
Y-548650D01*
X238104Y-547870D01*
X237662Y-547208D01*
X233852Y-543398D01*
X233191Y-542956D01*
X232410Y-542801D01*
D02*
G37*
%LPD*%
G36*
X360541Y-496558D02*
X360734Y-496614D01*
X361011Y-496664D01*
X361372Y-496708D01*
X362963Y-496798D01*
X365314Y-496828D01*
Y-506828D01*
X364446Y-506831D01*
X360734Y-507042D01*
X360541Y-507099D01*
X360434Y-507162D01*
Y-496494D01*
X360541Y-496558D01*
D02*
G37*
G36*
X193858Y-544600D02*
X193687Y-544442D01*
X193502Y-544301D01*
X193302Y-544177D01*
X193087Y-544069D01*
X192857Y-543978D01*
X192612Y-543903D01*
X192352Y-543845D01*
X192077Y-543803D01*
X191787Y-543778D01*
X191482Y-543770D01*
Y-541230D01*
X191787Y-541222D01*
X192077Y-541197D01*
X192352Y-541155D01*
X192612Y-541097D01*
X192857Y-541022D01*
X193087Y-540931D01*
X193302Y-540823D01*
X193502Y-540699D01*
X193687Y-540558D01*
X193858Y-540400D01*
Y-544600D01*
D02*
G37*
D13*
X324500Y-308500D02*
X438500D01*
X306000Y-290000D02*
X324500Y-308500D01*
X464000Y-283000D02*
X472500D01*
X499000Y-309500D01*
Y-319000D02*
Y-309500D01*
X539000Y-451000D02*
X558500Y-431500D01*
Y-378500D01*
X469500Y-451000D02*
X539000D01*
X425500Y-407000D02*
X469500Y-451000D01*
X425500Y-407000D02*
Y-403500D01*
X438500Y-308500D02*
X464000Y-283000D01*
X499000Y-319000D02*
X558500Y-378500D01*
D15*
X129000Y-327500D02*
Y-323500D01*
X124500Y-319000D02*
X129000Y-323500D01*
X132000Y-409000D02*
X152500Y-429500D01*
X85500Y-381500D02*
X113000Y-409000D01*
X132000D01*
X85500Y-381500D02*
Y-349133D01*
X152500Y-429500D02*
X255500D01*
X526190Y-266690D02*
X532690D01*
X517770Y-258270D02*
X526190Y-266690D01*
X493500Y-266000D02*
X532600Y-305100D01*
X477000Y-273500D02*
X512000Y-308500D01*
X513620Y-279700D02*
X551500D01*
X493420Y-259500D02*
X513620Y-279700D01*
X503997Y-116000D02*
X517770Y-129773D01*
X532600Y-305100D02*
X551500D01*
X493997Y-106000D02*
X503997Y-116000D01*
X140183Y-273683D02*
X147770Y-281270D01*
X139817Y-273683D02*
X140183D01*
X68000Y-533500D02*
X81460Y-520040D01*
X40500Y-563000D02*
Y-546000D01*
X53000Y-533500D01*
X68000D01*
X81460Y-520040D02*
Y-500460D01*
X77500Y-496500D02*
X81460Y-500460D01*
X51579Y-496500D02*
X77500D01*
X34350Y-513730D02*
X51579Y-496500D01*
X31040Y-507460D02*
X53960Y-484540D01*
X30353Y-507460D02*
X31040D01*
X36230Y-518270D02*
X50000Y-504500D01*
X75000D01*
X23903Y-518270D02*
X36230D01*
X27069Y-513730D02*
X34350D01*
X24083Y-510744D02*
X27069Y-513730D01*
X24083Y-510744D02*
Y-366337D01*
X18500Y-512867D02*
X23903Y-518270D01*
X18500Y-512867D02*
Y-365500D01*
X223500Y-160500D01*
X126881Y-263540D02*
X150500D01*
X24083Y-366337D02*
X126881Y-263540D01*
X86000Y-533000D02*
Y-528000D01*
Y-533000D02*
X97000Y-544000D01*
X86000Y-528000D02*
Y-486500D01*
X58500Y-459000D02*
X86000Y-486500D01*
X147770Y-281270D02*
X160367D01*
X164040Y-277597D01*
X387934Y-175434D02*
X388770Y-174597D01*
Y-174230D02*
X394500Y-168500D01*
X388770Y-174597D02*
Y-174230D01*
X274566Y-235933D02*
X290998Y-252365D01*
Y-253002D02*
Y-252365D01*
X204500Y-77500D02*
Y-58000D01*
X281730Y-84230D02*
X290597D01*
X270500Y-73000D02*
X281730Y-84230D01*
X259730Y-98230D02*
X261000Y-99500D01*
X258268Y-49892D02*
Y-45113D01*
X204500Y-58000D02*
X214998Y-47502D01*
X293000Y-47000D02*
Y-38000D01*
X206768Y-32732D02*
X249000D01*
Y-35845D02*
Y-32732D01*
Y-35845D02*
X258268Y-45113D01*
X107268Y-32732D02*
X163268D01*
X142268Y-53732D02*
X163268Y-32732D01*
X206768D01*
X287732D02*
X293000Y-38000D01*
X295500Y-214500D02*
Y-205500D01*
X270026Y-205053D02*
X288770Y-186310D01*
Y-132903D01*
X274566Y-206933D02*
X293310Y-188190D01*
Y-131022D01*
X297850Y-190309D02*
Y-129142D01*
X295500Y-205500D02*
X306930Y-194070D01*
Y-100563D01*
X281998Y-186002D02*
Y-158502D01*
X268000Y-200000D02*
X281998Y-186002D01*
X285500Y-268500D02*
X287633D01*
X259500Y-294500D02*
X285500Y-268500D01*
X164040Y-250960D02*
X260000Y-155000D01*
X164040Y-277597D02*
Y-250960D01*
X171029Y-277029D02*
Y-255471D01*
X162248Y-285810D02*
X171029Y-277029D01*
X364000Y-87000D02*
X399500D01*
X276270Y-52730D02*
X284498Y-44502D01*
X214998Y-47502D02*
X252498D01*
X280270Y-73770D02*
X286558D01*
X259730Y-98230D02*
Y-78930D01*
X245040Y-98000D02*
Y-74540D01*
X276270Y-69770D02*
X280270Y-73770D01*
X290498Y-219502D02*
X295500Y-214500D01*
X284228Y-210352D02*
X302390Y-192190D01*
X279688Y-232188D02*
X291000Y-243500D01*
X279688Y-208471D02*
X297850Y-190309D01*
X394500Y-168500D02*
X394540Y-168540D01*
X412000D01*
X532690Y-266690D02*
X533000Y-267000D01*
X270026Y-242027D02*
Y-205053D01*
X274566Y-235933D02*
Y-206933D01*
X279688Y-232188D02*
Y-208471D01*
X284228Y-223228D02*
Y-210352D01*
X290498Y-219502D02*
X290498D01*
X284228Y-223228D02*
X292000Y-231000D01*
X251500Y-56660D02*
X258268Y-49892D01*
X259730Y-78930D02*
X263270Y-75390D01*
X302390Y-192190D02*
Y-127261D01*
X245040Y-98000D02*
X255540Y-108500D01*
X281288Y-119000D02*
X293310Y-131022D01*
X279407Y-123540D02*
X288770Y-132903D01*
X228580Y-119000D02*
X281288D01*
X226699Y-123540D02*
X279407D01*
X171029Y-255471D02*
X260000Y-166500D01*
X290597Y-84230D02*
X306930Y-100563D01*
X229040Y-113040D02*
X281748D01*
X297850Y-129142D01*
X255540Y-108500D02*
X283629D01*
X302390Y-127261D01*
X259500Y-309500D02*
Y-294500D01*
X204500Y-340500D02*
X220000Y-356000D01*
X251500Y-82000D02*
Y-56660D01*
X263270Y-62150D02*
X263420Y-62000D01*
X263270Y-75390D02*
Y-62150D01*
X270500Y-73000D02*
Y-66500D01*
X276270Y-69770D02*
Y-52730D01*
X284498Y-44502D02*
X285498D01*
X191159Y-88000D02*
X226699Y-123540D01*
X193039Y-83460D02*
X228580Y-119000D01*
X198500Y-67000D02*
Y-41000D01*
X206768Y-32732D01*
X193088Y-77088D02*
X229040Y-113040D01*
X192268Y-77088D02*
X193088D01*
X142268Y-76732D02*
Y-53732D01*
X135268Y-80768D02*
X137960Y-83460D01*
X92000Y-88000D02*
X191159D01*
X137960Y-83460D02*
X193039D01*
X135268Y-66232D02*
X136000Y-65500D01*
X141500Y-77500D02*
X142268Y-76732D01*
X135268Y-80768D02*
Y-66232D01*
X81500Y-77500D02*
X92000Y-88000D01*
X87499Y-52502D02*
X107268Y-32732D01*
X87499Y-69502D02*
Y-52502D01*
X111000Y-363500D02*
X143000Y-331500D01*
X40500Y-563000D02*
X45230Y-567730D01*
X91270D01*
X71000Y-543000D02*
X86000Y-528000D01*
X54000Y-550500D02*
X61500Y-543000D01*
X71000D01*
X109000Y-417000D02*
X128500D01*
X97000Y-405000D02*
X109000Y-417000D01*
X91270Y-567730D02*
X105000Y-554000D01*
X55000Y-561000D02*
X89133D01*
X102403Y-547730D01*
X107597D01*
X108183Y-548316D01*
X108316D01*
X116460Y-556460D01*
X105000Y-554000D02*
X112000Y-561000D01*
X142000D01*
X116460Y-556460D02*
X137673D01*
X139403Y-554730D01*
X157730D01*
X164000Y-561000D01*
X525000Y-146400D02*
X551500Y-172900D01*
X399500Y-87000D02*
X431500Y-55000D01*
X525000Y-146400D02*
Y-71000D01*
X541100Y-54900D02*
X549500D01*
X525000Y-71000D02*
X526000Y-70000D01*
X541100Y-54900D01*
X517770Y-258270D02*
Y-129773D01*
X476500Y-176000D02*
X501500D01*
X428000Y-127500D02*
X476500Y-176000D01*
X378000Y-127500D02*
X428000D01*
X254478Y-200000D02*
X268000D01*
X132000Y-542500D02*
X196000D01*
X124498Y-550001D02*
X132000Y-542500D01*
X361079Y-87000D02*
X364000D01*
X85500Y-349133D02*
X134133Y-300500D01*
X153978D01*
X254478Y-200000D01*
X249000Y-32732D02*
X287732D01*
X187000Y-331500D02*
X199250Y-319250D01*
X249750D01*
X259500Y-309500D01*
X143000Y-331500D02*
X187000D01*
X53960Y-353040D02*
X121190Y-285810D01*
X162248D01*
X53960Y-484540D02*
Y-353040D01*
X157770Y-238730D02*
X249000Y-147500D01*
X157770Y-275000D02*
Y-238730D01*
X58500Y-459000D02*
Y-366500D01*
X117498Y-307502D01*
X447421Y-266000D02*
X493500D01*
X387934Y-200093D02*
X447341Y-259500D01*
X382500Y-201080D02*
X447421Y-266000D01*
X382500Y-201080D02*
Y-172000D01*
X447341Y-259500D02*
X493420D01*
X387934Y-200093D02*
Y-175434D01*
X220000Y-356000D02*
X492367D01*
X287500Y-344500D02*
X487000D01*
X264230Y-321230D02*
X287500Y-344500D01*
X264230Y-297270D02*
X287690Y-273810D01*
X264230Y-321230D02*
Y-297270D01*
X476500Y-324886D02*
Y-299000D01*
X487000Y-344500D02*
X534600Y-392100D01*
X492367Y-356000D02*
X528467Y-392100D01*
X476500Y-324886D02*
X543714Y-392100D01*
X282500Y-57500D02*
X293000Y-47000D01*
X316010Y-44490D02*
X325500Y-35000D01*
X311470Y-195951D02*
Y-98682D01*
X316010Y-197831D02*
Y-44490D01*
X311460Y-195961D02*
X311470Y-195951D01*
X316000Y-197841D02*
X316010Y-197831D01*
X286558Y-73770D02*
X311470Y-98682D01*
X287633Y-268500D02*
X288403Y-269270D01*
X339230Y-196730D02*
Y-130270D01*
X341000Y-128500D01*
X448500Y-273500D02*
X477000D01*
X339230Y-196730D02*
X342000Y-199500D01*
X345500Y-170500D02*
X448500Y-273500D01*
X311460Y-249667D02*
Y-195961D01*
X334690Y-201057D02*
X338270Y-204637D01*
X270026Y-242027D02*
X290130Y-262130D01*
X334690Y-122330D02*
X351020Y-106000D01*
X316000Y-251547D02*
Y-197841D01*
X288403Y-269270D02*
X291857D01*
X334690Y-201057D02*
Y-122330D01*
X279950Y-304950D02*
X285192Y-299707D01*
X286134D01*
X293737Y-273810D02*
X316000Y-251547D01*
X291857Y-269270D02*
X311460Y-249667D01*
X287690Y-273810D02*
X293737D01*
X338270Y-247571D02*
Y-204637D01*
X351020Y-106000D02*
X493997D01*
X286134Y-299707D02*
X338270Y-247571D01*
D58*
X129000Y-327500D02*
X147000Y-309500D01*
X95500Y-361000D02*
X129000Y-327500D01*
X107500Y-385000D02*
X260500D01*
X147000Y-309500D02*
X186500D01*
X95500Y-373000D02*
Y-361000D01*
Y-373000D02*
X107500Y-385000D01*
X260500D02*
X280500Y-365000D01*
X455500D01*
X534600Y-392100D02*
X543714D01*
X528467D02*
X534600D01*
X482600D02*
X528467D01*
X455500Y-365000D02*
X482600Y-392100D01*
X354992Y-501828D02*
X402672D01*
X425000Y-479500D02*
Y-477500D01*
X402672Y-501828D02*
X425000Y-479500D01*
D60*
X467000Y-557500D02*
D03*
X441600D02*
D03*
X496600Y-557000D02*
D03*
X522000D02*
D03*
X228600Y-555000D02*
D03*
X254000D02*
D03*
X279400D02*
D03*
X402900Y-558500D02*
D03*
X377500D02*
D03*
X352100D02*
D03*
D61*
X543714Y-417500D02*
D03*
Y-392100D02*
D03*
X543206Y-527228D02*
D03*
Y-501828D02*
D03*
X354992D02*
D03*
Y-527228D02*
D03*
X355500Y-392100D02*
D03*
Y-417500D02*
D03*
D62*
X324000Y-442500D02*
D03*
Y-417100D02*
D03*
Y-391700D02*
D03*
X551500Y-330500D02*
D03*
Y-305100D02*
D03*
Y-279700D02*
D03*
Y-254300D02*
D03*
Y-228900D02*
D03*
Y-203500D02*
D03*
X324500Y-471500D02*
D03*
Y-496900D02*
D03*
Y-522300D02*
D03*
X549500Y-29500D02*
D03*
Y-54900D02*
D03*
Y-80300D02*
D03*
X551500Y-172900D02*
D03*
Y-147500D02*
D03*
Y-122100D02*
D03*
D63*
X249000Y-217000D02*
D03*
Y-230500D02*
D03*
X499500Y-372000D02*
D03*
X382500Y-172000D02*
D03*
X512000Y-308500D02*
D03*
X503997Y-116000D02*
D03*
X139817Y-273683D02*
D03*
X30353Y-507460D02*
D03*
X60000Y-511000D02*
D03*
X75000Y-504500D02*
D03*
X97000Y-544000D02*
D03*
X150500Y-263540D02*
D03*
X157770Y-275000D02*
D03*
X242500Y-442500D02*
D03*
X243000Y-370000D02*
D03*
X426730Y-187650D02*
D03*
X422597Y-180270D02*
D03*
X433000Y-174000D02*
D03*
X242000Y-480500D02*
D03*
X257000Y-493000D02*
D03*
X291500Y-455000D02*
D03*
X475500Y-142000D02*
D03*
X450500Y-174500D02*
D03*
X479500Y-129000D02*
D03*
X476500Y-119000D02*
D03*
X282500Y-145500D02*
D03*
X249000Y-147500D02*
D03*
X260000Y-155000D02*
D03*
X107000Y-264000D02*
D03*
X223500Y-160500D02*
D03*
X290998Y-253002D02*
D03*
X291000Y-243500D02*
D03*
X511500Y-212000D02*
D03*
X472998Y-227502D02*
D03*
X111000Y-363500D02*
D03*
X261000Y-99500D02*
D03*
X171500Y-129500D02*
D03*
X186500Y-309500D02*
D03*
X196000Y-542500D02*
D03*
X124500Y-319000D02*
D03*
X255500Y-429500D02*
D03*
X281998Y-158502D02*
D03*
X364000Y-87000D02*
D03*
X466997Y-115502D02*
D03*
X117498Y-307502D02*
D03*
X218500Y-89500D02*
D03*
X412000Y-168540D02*
D03*
X530000Y-237500D02*
D03*
X533000Y-267000D02*
D03*
X249000Y-190500D02*
D03*
X502500Y-477500D02*
D03*
X511000Y-350000D02*
D03*
X436500Y-378230D02*
D03*
X290498Y-219502D02*
D03*
X292000Y-231000D02*
D03*
X249000Y-245500D02*
D03*
X254000Y-138000D02*
D03*
X294500Y-104500D02*
D03*
X260000Y-166500D02*
D03*
X325500Y-35000D02*
D03*
X284500Y-101500D02*
D03*
X288500Y-92500D02*
D03*
X128000Y-174000D02*
D03*
X85000Y-173500D02*
D03*
X259000Y-331500D02*
D03*
X248000Y-311000D02*
D03*
X253000Y-303000D02*
D03*
X270500Y-304500D02*
D03*
X210770Y-330500D02*
D03*
X204500Y-340500D02*
D03*
X55500Y-313500D02*
D03*
X142000Y-561000D02*
D03*
X362000Y-269500D02*
D03*
X374000Y-32000D02*
D03*
X150500Y-325000D02*
D03*
X55000Y-561000D02*
D03*
X52500Y-552500D02*
D03*
X97000Y-405000D02*
D03*
X128500Y-417000D02*
D03*
X164000Y-561000D02*
D03*
X105000Y-554000D02*
D03*
X124498Y-550001D02*
D03*
X512480Y-267221D02*
D03*
X501500Y-176000D02*
D03*
X431500Y-55000D02*
D03*
X468500Y-17000D02*
D03*
X382500Y-138000D02*
D03*
X378000Y-127500D02*
D03*
X526000Y-70000D02*
D03*
X383498Y-321502D02*
D03*
X503997Y-202502D02*
D03*
X531770Y-175040D02*
D03*
X526230Y-205514D02*
D03*
X509510Y-195929D02*
D03*
X525999Y-197518D02*
D03*
X527000Y-184978D02*
D03*
X454500Y-187730D02*
D03*
X459686Y-175190D02*
D03*
X436000Y-477500D02*
D03*
X425000D02*
D03*
X306000Y-290000D02*
D03*
X434998Y-404502D02*
D03*
X425500Y-403500D02*
D03*
X296040Y-381500D02*
D03*
X476500Y-299000D02*
D03*
X342000Y-199500D02*
D03*
X341000Y-128500D02*
D03*
X345500Y-170500D02*
D03*
X332000Y-218730D02*
D03*
X279950Y-304950D02*
D03*
X290130Y-262130D02*
D03*
X277000Y-130000D02*
D03*
X214500Y-132500D02*
D03*
D64*
X186498Y-70502D02*
D03*
X105268Y-77732D02*
D03*
X154268Y-76732D02*
D03*
X216500Y-78500D02*
D03*
X260498Y-38502D02*
D03*
X204500Y-77500D02*
D03*
X33500Y-76500D02*
D03*
X45270Y-76730D02*
D03*
X210498Y-70502D02*
D03*
X227500Y-93000D02*
D03*
X252498Y-47502D02*
D03*
X245040Y-74540D02*
D03*
X251500Y-82000D02*
D03*
X270998Y-89002D02*
D03*
X257500Y-73000D02*
D03*
X263420Y-62000D02*
D03*
X270500Y-66500D02*
D03*
X267500Y-81000D02*
D03*
X267498Y-39502D02*
D03*
X273268Y-43991D02*
D03*
X285498Y-44502D02*
D03*
X198500Y-67000D02*
D03*
X162500Y-70500D02*
D03*
X174500D02*
D03*
X180500Y-76500D02*
D03*
X192268Y-77088D02*
D03*
X148498Y-70502D02*
D03*
X123498Y-70502D02*
D03*
X136000Y-65500D02*
D03*
X141500Y-77500D02*
D03*
X129498Y-76502D02*
D03*
X117500Y-77500D02*
D03*
X39500Y-70500D02*
D03*
X99500D02*
D03*
X75500D02*
D03*
X51500Y-69500D02*
D03*
X63500D02*
D03*
X69500Y-76500D02*
D03*
X81500Y-77500D02*
D03*
X87499Y-69502D02*
D03*
X92500Y-77500D02*
D03*
X284498Y-64502D02*
D03*
X282500Y-57500D02*
D03*
D65*
X325000Y-250000D02*
Y-123080D01*
X361079Y-87000D01*
X270500Y-304500D02*
X325000Y-250000D01*
M02*
