M48
;Layer_Color=9474304
;FILE_FORMAT=4:3
METRIC,LZ
;TYPE=PLATED
T01F00S00C0.300
T02F00S00C0.400
T03F00S00C1.000
T04F00S00C1.016
%
T01
X000815Y-000775
X000925
X0010527Y-0007773
X001175Y-000775
X001415
X0019227Y-0007709
X002045Y-000775
X002165Y-000785
X002275Y-00093
X002515Y-00082
X002675Y-00081
X00271Y-00089
X002705Y-000665
X0026342Y-00062
X002575Y-00073
X0024504Y-0007454
X002525Y-000475
X002605Y-000385
X002675Y-000395
X0027327Y-0004399
X002855Y-000445
X002825Y-000575
X002845Y-000645
X002105Y-000705
X001985Y-00067
X001865Y-000705
X001805Y-000765
X001745Y-000705
X001625
X001485Y-000705
X0015427Y-0007673
X001295Y-000765
X001235Y-000705
X00136Y-000655
X000995Y-000705
X000875Y-000695
X000755Y-000705
X000695Y-000765
X000635Y-000695
X000515
X000395Y-000705
X000335Y-000765
X0004527Y-0007673
T02
X00425Y-004775
X00436
X005025
X00257Y-00493
X00242Y-004805
X00196Y-005425
X00164Y-00561
X00142
X001245Y-0055
X00105Y-00554
X00097Y-00544
X000525Y-005525
X00055Y-00561
X0006Y-00511
X00075Y-005045
X0003035Y-0050746
X00097Y-00405
X001285Y-00417
X00111Y-003635
X001245Y-00319
X001175Y-003075
X001505Y-00325
X001865Y-003095
X0021077Y-003305
X002045Y-003405
X00259Y-003315
X00248Y-00311
X00253Y-00303
X002705Y-003045
X0027995Y-0030495
X00306Y-0029
X0029013Y-0026213
X00291Y-00253
X00291Y-002435
X00292Y-00231
X002905Y-002195
X00332Y-0021873
X00342Y-001995
X003455Y-001705
X003825Y-00172
Y-00138
X00378Y-001275
X00341Y-001285
X00364Y-00087
X002885Y-000925
X002845Y-001015
X002945Y-001045
X00261Y-000995
X00254Y-00138
X00249Y-001475
X0026Y-00155
Y-001665
X00282Y-001585
X002825Y-001455
X00277Y-0013
X002145Y-001325
X002235Y-001605
X00249Y-001905
Y-00217
Y-002305
X00249Y-002455
X001505Y-0026354
X0015777Y-00275
X0013982Y-0027368
X00107Y-00264
X000555Y-003135
X00085Y-001735
X00128Y-00174
X001715Y-001295
X002185Y-000895
X00243Y-0037
X0029604Y-003815
X002915Y-00455
X002425Y-004425
X002555Y-004295
X003835Y-003215
X00362Y-002695
X004765Y-00299
X00512Y-003085
X0051248Y-0026722
X00533Y-00267
X0053Y-002375
X0052623Y-0020551
X00526Y-0019752
X00527Y-0018498
X0053177Y-0017504
X005015Y-00176
X0050951Y-0019593
X00504Y-002025
X005115Y-00212
X00473Y-002275
X004545Y-0018773
X004505Y-001745
X0045969Y-0017519
X00433Y-00174
X004226Y-0018027
X0042673Y-0018765
X00412Y-0016854
X004755Y-00142
X004795Y-00129
X004765Y-00119
X00467Y-001155
X00504Y-00116
X00511Y-0035
X004995Y-00372
X004365Y-0037823
X00435Y-004045
X004255Y-004035
X004315Y-00055
X004685Y-00017
X00526Y-0007
X00374Y-00032
X003255Y-00035
T03
X0054321Y-0052723
Y-0050183
X0035499
Y-0052723
X003555Y-004175
Y-003921
X0054371
Y-004175
T04
X004029Y-005585
X004416Y-005575
X00467
X004966Y-00557
X00522
X003775Y-005585
X003521
X003245Y-005223
Y-004969
X002794Y-00555
X00254
X002286
X003245Y-004715
X00324Y-004425
Y-004171
Y-003917
X005515Y-003305
Y-003051
Y-002797
Y-002543
Y-002289
Y-002035
Y-001729
Y-001475
Y-001221
X005495Y-000803
Y-000549
Y-000295
M30
