G04*
G04 #@! TF.GenerationSoftware,Altium Limited,Altium Designer,24.10.1 (45)*
G04*
G04 Layer_Color=16711935*
%FSLAX44Y44*%
%MOMM*%
G71*
G04*
G04 #@! TF.SameCoordinates,C031E789-135E-4793-A04E-BF888AAD087F*
G04*
G04*
G04 #@! TF.FilePolarity,Positive*
G04*
G01*
G75*
%ADD80C,0.1000*%
D80*
X195500Y-136500D02*
G03*
X195500Y-136500I-5000J0D01*
G01*
X347999Y-25601D02*
G03*
X347999Y-25601I-5000J0D01*
G01*
X195329Y-375250D02*
G03*
X195329Y-375250I-5000J0D01*
G01*
X346950Y-215671D02*
G03*
X346950Y-215671I-5000J0D01*
G01*
X98500Y-136500D02*
G03*
X98500Y-136500I-5000J0D01*
G01*
X98329Y-375250D02*
G03*
X98329Y-375250I-5000J0D01*
G01*
X346950Y-312671D02*
G03*
X346950Y-312671I-5000J0D01*
G01*
X178500Y-277500D02*
G03*
X178500Y-277500I-5000J0D01*
G01*
X488999Y-42600D02*
G03*
X488999Y-42600I-5000J0D01*
G01*
X178330Y-516250D02*
G03*
X178330Y-516250I-5000J0D01*
G01*
X487949Y-232671D02*
G03*
X487949Y-232671I-5000J0D01*
G01*
X90150Y-277500D02*
G03*
X90150Y-277500I-5000J0D01*
G01*
X489000Y-130950D02*
G03*
X489000Y-130950I-5000J0D01*
G01*
X89979Y-516250D02*
G03*
X89979Y-516250I-5000J0D01*
G01*
X487950Y-321021D02*
G03*
X487950Y-321021I-5000J0D01*
G01*
X347999Y-122600D02*
G03*
X347999Y-122600I-5000J0D01*
G01*
X417500Y-216500D02*
G03*
X417500Y-216500I-5000J0D01*
G01*
X244000Y-433250D02*
G03*
X244000Y-433250I-5000J0D01*
G01*
X245500Y-209500D02*
G03*
X245500Y-209500I-5000J0D01*
G01*
X433500Y-38550D02*
G03*
X433500Y-38550I-5000J0D01*
G01*
X34569Y-383001D02*
G03*
X34569Y-383001I-5000J0D01*
G01*
X131569D02*
G03*
X131569Y-383001I-5000J0D01*
G01*
X51569Y-524001D02*
G03*
X51569Y-524001I-5000J0D01*
G01*
X139919Y-524001D02*
G03*
X139919Y-524001I-5000J0D01*
G01*
X34500Y-142500D02*
G03*
X34500Y-142500I-5000J0D01*
G01*
X131500D02*
G03*
X131500Y-142500I-5000J0D01*
G01*
X51500Y-283500D02*
G03*
X51500Y-283500I-5000J0D01*
G01*
X139850Y-283500D02*
G03*
X139850Y-283500I-5000J0D01*
G01*
X332000Y-98000D02*
G03*
X332000Y-98000I-5000J0D01*
G01*
X245500Y-322750D02*
G03*
X245500Y-322750I-5000J0D01*
G01*
X429500Y-521000D02*
Y-503000D01*
X398500Y-521000D02*
Y-503000D01*
X429500D01*
X398500Y-521000D02*
X429500D01*
X352500Y-472000D02*
X370500D01*
X352500Y-441000D02*
X370500D01*
Y-472000D02*
Y-441000D01*
X352500Y-472000D02*
Y-441000D01*
X508578Y-525000D02*
Y-507000D01*
X477578Y-525000D02*
Y-507000D01*
X508578D01*
X477578Y-525000D02*
X508578D01*
X385500Y-412500D02*
Y-394500D01*
X416500Y-412500D02*
Y-394500D01*
X385500Y-412500D02*
X416500D01*
X385500Y-394500D02*
X416500D01*
X147671Y-210050D02*
X181671D01*
X147671Y-228050D02*
X181671D01*
Y-210050D01*
X147671Y-228050D02*
Y-210050D01*
X418500Y-69500D02*
Y-35500D01*
X436500Y-69500D02*
Y-35500D01*
X418500D02*
X436500D01*
X418500Y-69500D02*
X436500D01*
X147500Y-448800D02*
X181501D01*
X147500Y-466800D02*
X181501D01*
Y-448800D01*
X147500Y-466800D02*
Y-448800D01*
X415500Y-258500D02*
Y-224500D01*
X433500Y-258500D02*
Y-224500D01*
X415500D02*
X433500D01*
X415500Y-258500D02*
X433500D01*
X59000Y-210000D02*
X93000D01*
X59000Y-228000D02*
X93000D01*
Y-210000D01*
X59000Y-228000D02*
Y-210000D01*
X419500Y-157000D02*
Y-123000D01*
X437500Y-157000D02*
Y-123000D01*
X419500D02*
X437500D01*
X419500Y-157000D02*
X437500D01*
X58829Y-448750D02*
X92829D01*
X58829Y-466750D02*
X92829D01*
Y-448750D01*
X58829Y-466750D02*
Y-448750D01*
X415450Y-347171D02*
Y-313171D01*
X433450Y-347171D02*
Y-313171D01*
X415450D02*
X433450D01*
X415450Y-347171D02*
X433450D01*
X150171Y-304750D02*
X181171D01*
X150171Y-322750D02*
X181171D01*
Y-304750D01*
X150171Y-322750D02*
Y-304750D01*
X511250Y-65930D02*
Y-34930D01*
X529250Y-65930D02*
Y-34930D01*
X511250D02*
X529250D01*
X511250Y-65930D02*
X529250D01*
X150000Y-543500D02*
X181000D01*
X150000Y-561500D02*
X181000D01*
Y-543500D01*
X150000Y-561500D02*
Y-543500D01*
X510200Y-256000D02*
Y-225000D01*
X528200Y-256000D02*
Y-225000D01*
X510200D02*
X528200D01*
X510200Y-256000D02*
X528200D01*
X62000Y-302000D02*
X93000D01*
X62000Y-320000D02*
X93000D01*
Y-302000D01*
X62000Y-320000D02*
Y-302000D01*
X509500Y-156500D02*
Y-125500D01*
X527500Y-156500D02*
Y-125500D01*
X509500D02*
X527500D01*
X509500Y-156500D02*
X527500D01*
X58000Y-542000D02*
X89000D01*
X58000Y-560000D02*
X89000D01*
Y-542000D01*
X58000Y-560000D02*
Y-542000D01*
X513500Y-349500D02*
Y-318500D01*
X531500Y-349500D02*
Y-318500D01*
X513500D02*
X531500D01*
X513500Y-349500D02*
X531500D01*
X150500Y-145500D02*
Y-106500D01*
X199500Y-145500D02*
Y-106500D01*
X150500D02*
X199500D01*
X150500Y-145500D02*
X199500D01*
X312999Y-65601D02*
X352000D01*
X312999Y-16601D02*
X352000D01*
X312999Y-65601D02*
Y-16601D01*
X352000Y-65601D02*
Y-16601D01*
X150330Y-384250D02*
Y-345250D01*
X199330Y-384250D02*
Y-345250D01*
X150330D02*
X199330D01*
X150330Y-384250D02*
X199330D01*
X311950Y-255671D02*
X350950D01*
X311950Y-206671D02*
X350950D01*
X311950Y-255671D02*
Y-206671D01*
X350950Y-255671D02*
Y-206671D01*
X53500Y-145500D02*
Y-106500D01*
X102500Y-145500D02*
Y-106500D01*
X53500D02*
X102500D01*
X53500Y-145500D02*
X102500D01*
X53329Y-384250D02*
Y-345250D01*
X102330Y-384250D02*
Y-345250D01*
X53329D02*
X102330D01*
X53329Y-384250D02*
X102330D01*
X311950Y-352671D02*
X350950D01*
X311950Y-303671D02*
X350950D01*
X311950Y-352671D02*
Y-303671D01*
X350950Y-352671D02*
Y-303671D01*
X133500Y-286500D02*
Y-247500D01*
X182500Y-286500D02*
Y-247500D01*
X133500D02*
X182500D01*
X133500Y-286500D02*
X182500D01*
X453999Y-82600D02*
X492999D01*
X453999Y-33600D02*
X492999D01*
X453999Y-82600D02*
Y-33600D01*
X492999Y-82600D02*
Y-33600D01*
X133329Y-525250D02*
Y-486250D01*
X182330Y-525250D02*
Y-486250D01*
X133329D02*
X182330D01*
X133329Y-525250D02*
X182330D01*
X452950Y-272671D02*
X491950D01*
X452950Y-223671D02*
X491950D01*
X452950Y-272671D02*
Y-223671D01*
X491950Y-272671D02*
Y-223671D01*
X45150Y-286500D02*
Y-247500D01*
X94150Y-286500D02*
Y-247500D01*
X45150D02*
X94150D01*
X45150Y-286500D02*
X94150D01*
X454000Y-170950D02*
X493000D01*
X454000Y-121950D02*
X493000D01*
X454000Y-170950D02*
Y-121950D01*
X493000Y-170950D02*
Y-121950D01*
X44980Y-525250D02*
Y-486250D01*
X93980Y-525250D02*
Y-486250D01*
X44980D02*
X93980D01*
X44980Y-525250D02*
X93980D01*
X452950Y-361021D02*
X491950D01*
X452950Y-312021D02*
X491950D01*
X452950Y-361021D02*
Y-312021D01*
X491950Y-361021D02*
Y-312021D01*
X312999Y-162600D02*
X352000D01*
X312999Y-113600D02*
X352000D01*
X312999Y-162600D02*
Y-113600D01*
X352000Y-162600D02*
Y-113600D01*
X375500Y-120922D02*
X393500D01*
X375500Y-89922D02*
X393500D01*
X375500Y-120922D02*
Y-89922D01*
X393500Y-120922D02*
Y-89922D01*
X403500Y-225500D02*
X473500D01*
X403500Y-155500D02*
X473500D01*
X403500Y-225500D02*
Y-155500D01*
X473500Y-225500D02*
Y-155500D01*
X230000Y-510750D02*
Y-424250D01*
X269000Y-510750D02*
Y-424250D01*
X230000D02*
X269000D01*
X230000Y-510750D02*
X269000D01*
X231500Y-299500D02*
Y-200500D01*
X270500Y-299500D02*
Y-200500D01*
X231500D02*
X270500D01*
X231500Y-299500D02*
X270500D01*
X419500Y-79550D02*
Y-29550D01*
X459500Y-79550D02*
Y-29550D01*
X419500D02*
X459500D01*
X419500Y-79550D02*
X459500D01*
X313750Y-299700D02*
Y-273300D01*
X347250Y-299700D02*
Y-273300D01*
X313750D02*
X347250D01*
X313750Y-299700D02*
X347250D01*
X314000Y-248500D02*
Y-230500D01*
X345000Y-248500D02*
Y-230500D01*
X314000D02*
X345000D01*
X314000Y-248500D02*
X345000D01*
X474000Y-377500D02*
Y-359500D01*
X443000Y-377500D02*
Y-359500D01*
Y-377500D02*
X474000D01*
X443000Y-359500D02*
X474000D01*
X381000Y-262500D02*
Y-244500D01*
X412000Y-262500D02*
Y-244500D01*
X381000D02*
X412000D01*
X381000Y-262500D02*
X412000D01*
X391000Y-112500D02*
X409000D01*
X391000Y-143500D02*
X409000D01*
Y-112500D01*
X391000Y-143500D02*
Y-112500D01*
X493500Y-170000D02*
X511500D01*
X493500Y-139000D02*
X511500D01*
X493500Y-170000D02*
Y-139000D01*
X511500Y-170000D02*
Y-139000D01*
X444922Y-337500D02*
Y-319500D01*
X475922Y-337500D02*
Y-319500D01*
X444922D02*
X475922D01*
X444922Y-337500D02*
X475922D01*
X385000Y-36000D02*
X403000D01*
X385000Y-67000D02*
X403000D01*
Y-36000D01*
X385000Y-67000D02*
Y-36000D01*
X232500Y-199000D02*
Y-181000D01*
X263500Y-199000D02*
Y-181000D01*
X232500D02*
X263500D01*
X232500Y-199000D02*
X263500D01*
X38719Y-456500D02*
X72719D01*
X38719Y-474500D02*
X72719D01*
X38719D02*
Y-456500D01*
X72719Y-474500D02*
Y-456500D01*
X127069Y-456501D02*
X161069D01*
X127069Y-474501D02*
X161069D01*
X127069D02*
Y-456501D01*
X161069Y-474501D02*
Y-456501D01*
X38749Y-551250D02*
X69749D01*
X38749Y-569250D02*
X69749D01*
X38749D02*
Y-551250D01*
X69749Y-569250D02*
Y-551250D01*
X127078Y-549500D02*
X158078D01*
X127078Y-567500D02*
X158078D01*
X127078D02*
Y-549500D01*
X158078Y-567500D02*
Y-549500D01*
X69569Y-392000D02*
Y-353001D01*
X20569Y-392000D02*
Y-353001D01*
X69569D01*
X20569Y-392000D02*
X69569D01*
X166569D02*
Y-353001D01*
X117569Y-392000D02*
Y-353001D01*
X166569D01*
X117569Y-392000D02*
X166569D01*
X86569Y-533000D02*
Y-494001D01*
X37569Y-533000D02*
Y-494001D01*
X86569D01*
X37569Y-533000D02*
X86569D01*
X174919Y-533001D02*
Y-494001D01*
X125919Y-533001D02*
Y-494001D01*
X174919D01*
X125919Y-533001D02*
X174919D01*
X38500Y-215000D02*
X72500D01*
X38500Y-233000D02*
X72500D01*
X38500D02*
Y-215000D01*
X72500Y-233000D02*
Y-215000D01*
X126999Y-215999D02*
X161000D01*
X126999Y-233999D02*
X161000D01*
X126999D02*
Y-215999D01*
X161000Y-233999D02*
Y-215999D01*
X38680Y-310749D02*
X69680D01*
X38680Y-328749D02*
X69680D01*
X38680D02*
Y-310749D01*
X69680Y-328749D02*
Y-310749D01*
X132500Y-309000D02*
X163500D01*
X132500Y-327000D02*
X163500D01*
X132500D02*
Y-309000D01*
X163500Y-327000D02*
Y-309000D01*
X69500Y-151500D02*
Y-112500D01*
X20500Y-151500D02*
Y-112500D01*
X69500D01*
X20500Y-151500D02*
X69500D01*
X166500D02*
Y-112500D01*
X117500Y-151500D02*
Y-112500D01*
X166500D01*
X117500Y-151500D02*
X166500D01*
X86500Y-292500D02*
Y-253500D01*
X37500Y-292500D02*
Y-253500D01*
X86500D01*
X37500Y-292500D02*
X86500D01*
X174850Y-292500D02*
Y-253500D01*
X125850Y-292500D02*
Y-253500D01*
X174850D01*
X125850Y-292500D02*
X174850D01*
X318000Y-188000D02*
X357000D01*
X318000Y-89000D02*
X357000D01*
Y-188000D02*
Y-89000D01*
X318000Y-188000D02*
Y-89000D01*
X408000Y-337500D02*
Y-319500D01*
X439000Y-337500D02*
Y-319500D01*
X408000D02*
X439000D01*
X408000Y-337500D02*
X439000D01*
X354000Y-237000D02*
Y-219000D01*
X385000Y-237000D02*
Y-219000D01*
X354000D02*
X385000D01*
X354000Y-237000D02*
X385000D01*
X231500Y-400250D02*
X270500D01*
X231500Y-313750D02*
X270500D01*
Y-400250D02*
Y-313750D01*
X231500Y-400250D02*
Y-313750D01*
M02*
