G04*
G04 #@! TF.GenerationSoftware,Altium Limited,Altium Designer,24.10.1 (45)*
G04*
G04 Layer_Color=65535*
%FSLAX44Y44*%
%MOMM*%
G71*
G04*
G04 #@! TF.SameCoordinates,C031E789-135E-4793-A04E-BF888AAD087F*
G04*
G04*
G04 #@! TF.FilePolarity,Positive*
G04*
G01*
G75*
%ADD10C,0.0508*%
%ADD11C,0.1524*%
%ADD12C,0.2500*%
%ADD13C,0.6000*%
%ADD14C,0.2000*%
%ADD15C,0.2540*%
%ADD16C,0.3048*%
%ADD17C,0.1500*%
%ADD18R,0.5080X0.5080*%
D10*
X402210Y-274720D02*
G03*
X402210Y-310280I0J-17780D01*
G01*
X470790D02*
G03*
X470790Y-274720I0J17780D01*
G01*
X402210Y-274720D02*
X470790D01*
X402210Y-310280D02*
X470790D01*
D11*
X402210Y-269640D02*
G03*
X402210Y-315360I0J-22860D01*
G01*
X470790D02*
G03*
X470790Y-269640I0J22860D01*
G01*
X435250Y-570200D02*
X447950D01*
X428900Y-563850D02*
X435250Y-570200D01*
X428900Y-551150D02*
X435250Y-544800D01*
X428900Y-563850D02*
Y-551150D01*
X454300Y-563850D02*
X460650Y-570200D01*
X473350D01*
X479700Y-563850D01*
Y-551150D01*
X473350Y-544800D02*
X479700Y-551150D01*
X460650Y-544800D02*
X473350D01*
X454300Y-551150D02*
X460650Y-544800D01*
X447950Y-570200D02*
X454300Y-563850D01*
Y-551150D01*
X447950Y-544800D02*
X454300Y-551150D01*
X435250Y-544800D02*
X447950D01*
X515650Y-544300D02*
X528350D01*
X534700Y-550650D01*
X528350Y-569700D02*
X534700Y-563350D01*
Y-550650D01*
X502950Y-544300D02*
X509300Y-550650D01*
X490250Y-544300D02*
X502950D01*
X483900Y-550650D02*
X490250Y-544300D01*
X483900Y-563350D02*
Y-550650D01*
Y-563350D02*
X490250Y-569700D01*
X502950D01*
X509300Y-563350D01*
Y-550650D02*
X515650Y-544300D01*
X509300Y-563350D02*
Y-550650D01*
Y-563350D02*
X515650Y-569700D01*
X528350D01*
X402210Y-269640D02*
X470790D01*
X402210Y-315360D02*
X470790D01*
X352706Y-533578D02*
Y-520878D01*
X311300Y-448850D02*
Y-436150D01*
X317650Y-429800D01*
X330350D01*
X336700Y-436150D01*
X311300Y-423450D02*
X317650Y-429800D01*
X311300Y-423450D02*
Y-410750D01*
X317650Y-404400D01*
X330350D01*
X336700Y-410750D01*
Y-423450D02*
Y-410750D01*
X330350Y-429800D02*
X336700Y-423450D01*
X317650Y-455200D02*
X330350D01*
X311300Y-448850D02*
X317650Y-455200D01*
X330350D02*
X336700Y-448850D01*
Y-436150D01*
X311300Y-398050D02*
X317650Y-404400D01*
X311300Y-398050D02*
Y-385350D01*
X317650Y-379000D01*
X330350D01*
X336700Y-385350D01*
Y-398050D02*
Y-385350D01*
X330350Y-404400D02*
X336700Y-398050D01*
X538800Y-260650D02*
Y-247950D01*
X545150Y-241600D01*
X557850D01*
X564200Y-247950D01*
X538800Y-235250D02*
X545150Y-241600D01*
X538800Y-235250D02*
Y-222550D01*
X545150Y-216200D01*
X557850D01*
X564200Y-222550D01*
Y-235250D02*
Y-222550D01*
X557850Y-241600D02*
X564200Y-235250D01*
X538800Y-286050D02*
X545150Y-292400D01*
X538800Y-286050D02*
Y-273350D01*
X545150Y-267000D01*
X557850D01*
X564200Y-273350D01*
Y-286050D02*
Y-273350D01*
X557850Y-292400D02*
X564200Y-286050D01*
X538800Y-260650D02*
X545150Y-267000D01*
X557850D02*
X564200Y-260650D01*
Y-247950D01*
X538800Y-336850D02*
Y-324150D01*
X545150Y-317800D01*
X557850D01*
X564200Y-324150D01*
X538800Y-311450D02*
X545150Y-317800D01*
X538800Y-311450D02*
Y-298750D01*
X545150Y-292400D01*
X557850D01*
X564200Y-298750D01*
Y-311450D02*
Y-298750D01*
X557850Y-317800D02*
X564200Y-311450D01*
X545150Y-343200D02*
X557850D01*
X538800Y-336850D02*
X545150Y-343200D01*
X557850D02*
X564200Y-336850D01*
Y-324150D01*
X538800Y-209850D02*
Y-197150D01*
X545150Y-190800D01*
X557850D01*
X564200Y-197150D01*
X538800Y-209850D02*
X545150Y-216200D01*
X557850D02*
X564200Y-209850D01*
Y-197150D01*
X337200Y-477850D02*
Y-465150D01*
X330850Y-484200D02*
X337200Y-477850D01*
X318150Y-484200D02*
X330850D01*
X311800Y-477850D02*
X318150Y-484200D01*
X330850D02*
X337200Y-490550D01*
Y-503250D02*
Y-490550D01*
X330850Y-509600D02*
X337200Y-503250D01*
X318150Y-509600D02*
X330850D01*
X311800Y-503250D02*
X318150Y-509600D01*
X311800Y-503250D02*
Y-490550D01*
X318150Y-484200D01*
Y-458800D02*
X330850D01*
X337200Y-465150D01*
X311800D02*
X318150Y-458800D01*
X311800Y-477850D02*
Y-465150D01*
X330850Y-509600D02*
X337200Y-515950D01*
Y-528650D02*
Y-515950D01*
X330850Y-535000D02*
X337200Y-528650D01*
X318150Y-535000D02*
X330850D01*
X311800Y-528650D02*
X318150Y-535000D01*
X311800Y-528650D02*
Y-515950D01*
X318150Y-509600D01*
X222250Y-542300D02*
X234950D01*
X241300Y-548650D01*
Y-561350D02*
Y-548650D01*
X234950Y-567700D02*
X241300Y-561350D01*
Y-548650D02*
X247650Y-542300D01*
X260350D01*
X266700Y-548650D01*
Y-561350D02*
Y-548650D01*
X260350Y-567700D02*
X266700Y-561350D01*
X247650Y-567700D02*
X260350D01*
X241300Y-561350D02*
X247650Y-567700D01*
X215900Y-561350D02*
Y-548650D01*
X222250Y-542300D01*
X215900Y-561350D02*
X222250Y-567700D01*
X234950D01*
X266700Y-548650D02*
X273050Y-542300D01*
X285750D01*
X292100Y-548650D01*
Y-561350D02*
Y-548650D01*
X285750Y-567700D02*
X292100Y-561350D01*
X273050Y-567700D02*
X285750D01*
X266700Y-561350D02*
X273050Y-567700D01*
X396550Y-571200D02*
X409250D01*
X390200Y-564850D02*
X396550Y-571200D01*
X390200Y-564850D02*
Y-552150D01*
X396550Y-545800D01*
X383850Y-571200D02*
X390200Y-564850D01*
X371150Y-571200D02*
X383850D01*
X364800Y-564850D02*
X371150Y-571200D01*
X364800Y-564850D02*
Y-552150D01*
X371150Y-545800D01*
X383850D01*
X390200Y-552150D01*
X415600Y-564850D02*
Y-552150D01*
X409250Y-571200D02*
X415600Y-564850D01*
X409250Y-545800D02*
X415600Y-552150D01*
X396550Y-545800D02*
X409250D01*
X358450Y-571200D02*
X364800Y-564850D01*
X345750Y-571200D02*
X358450D01*
X339400Y-564850D02*
X345750Y-571200D01*
X339400Y-564850D02*
Y-552150D01*
X345750Y-545800D01*
X358450D01*
X364800Y-552150D01*
X555850Y-42200D02*
X562200Y-35850D01*
Y-23150D01*
X555850Y-16800D02*
X562200Y-23150D01*
X543150Y-16800D02*
X555850D01*
X536800Y-23150D02*
X543150Y-16800D01*
X536800Y-35850D02*
Y-23150D01*
Y-35850D02*
X543150Y-42200D01*
X562200Y-86650D02*
Y-73950D01*
X555850Y-93000D02*
X562200Y-86650D01*
X536800D02*
X543150Y-93000D01*
X555850D01*
Y-67600D02*
X562200Y-61250D01*
Y-48550D01*
X555850Y-42200D02*
X562200Y-48550D01*
X543150Y-42200D02*
X555850D01*
X536800Y-48550D02*
X543150Y-42200D01*
X536800Y-61250D02*
Y-48550D01*
Y-61250D02*
X543150Y-67600D01*
X555850D02*
X562200Y-73950D01*
X543150Y-67600D02*
X555850D01*
X536800Y-73950D02*
X543150Y-67600D01*
X536800Y-86650D02*
Y-73950D01*
X538800Y-179250D02*
Y-166550D01*
X545150Y-160200D01*
X557850D01*
X564200Y-166550D01*
X538800Y-153850D02*
X545150Y-160200D01*
X538800Y-153850D02*
Y-141150D01*
X545150Y-134800D01*
X557850D01*
X564200Y-141150D01*
Y-153850D02*
Y-141150D01*
X557850Y-160200D02*
X564200Y-153850D01*
X545150Y-185600D02*
X557850D01*
X538800Y-179250D02*
X545150Y-185600D01*
X557850D02*
X564200Y-179250D01*
Y-166550D01*
X538800Y-128450D02*
X545150Y-134800D01*
X538800Y-128450D02*
Y-115750D01*
X545150Y-109400D01*
X557850D01*
X564200Y-115750D01*
Y-128450D02*
Y-115750D01*
X557850Y-134800D02*
X564200Y-128450D01*
X235197Y25594D02*
X225040D01*
Y17976D01*
X230118Y20515D01*
X232658D01*
X235197Y17976D01*
Y12898D01*
X232658Y10359D01*
X227579D01*
X225040Y12898D01*
X240275Y25594D02*
X250432D01*
Y23054D01*
X240275Y12898D01*
Y10359D01*
X255510D02*
Y12898D01*
X258049D01*
Y10359D01*
X255510D01*
X275824D02*
Y25594D01*
X268206Y17976D01*
X278363D01*
X303755Y10359D02*
X298676Y15437D01*
Y20515D01*
X303755Y25594D01*
X311372Y10359D02*
Y20515D01*
X313911D01*
X316450Y17976D01*
Y10359D01*
Y17976D01*
X318990Y20515D01*
X321529Y17976D01*
Y10359D01*
X326607D02*
Y20515D01*
X329146D01*
X331685Y17976D01*
Y10359D01*
Y17976D01*
X334225Y20515D01*
X336764Y17976D01*
Y10359D01*
X341842D02*
X346921Y15437D01*
Y20515D01*
X341842Y25594D01*
X595406Y-339812D02*
Y-349969D01*
X603024D01*
X600485Y-344890D01*
Y-342351D01*
X603024Y-339812D01*
X608102D01*
X610642Y-342351D01*
Y-347429D01*
X608102Y-349969D01*
X595406Y-334734D02*
Y-324577D01*
X597946D01*
X608102Y-334734D01*
X610642D01*
Y-319498D02*
X608102D01*
Y-316959D01*
X610642D01*
Y-319498D01*
X595406Y-296646D02*
Y-306803D01*
X603024D01*
X600485Y-301724D01*
Y-299185D01*
X603024Y-296646D01*
X608102D01*
X610642Y-299185D01*
Y-304263D01*
X608102Y-306803D01*
X610642Y-271254D02*
X605563Y-276332D01*
X600485D01*
X595406Y-271254D01*
X610642Y-263636D02*
X600485D01*
Y-261097D01*
X603024Y-258558D01*
X610642D01*
X603024D01*
X600485Y-256019D01*
X603024Y-253480D01*
X610642D01*
Y-248401D02*
X600485D01*
Y-245862D01*
X603024Y-243323D01*
X610642D01*
X603024D01*
X600485Y-240784D01*
X603024Y-238245D01*
X610642D01*
Y-233166D02*
X605563Y-228088D01*
X600485D01*
X595406Y-233166D01*
D12*
X405250Y-231000D02*
G03*
X405250Y-231000I-1250J0D01*
G01*
X226750Y-420900D02*
G03*
X226750Y-420900I-1250J0D01*
G01*
X228250Y-197050D02*
G03*
X228250Y-197050I-1250J0D01*
G01*
X416750Y-27000D02*
G03*
X416750Y-27000I-1250J0D01*
G01*
X18769Y-396501D02*
G03*
X18769Y-396501I-1250J0D01*
G01*
X115769D02*
G03*
X115769Y-396501I-1250J0D01*
G01*
X35769Y-537501D02*
G03*
X35769Y-537501I-1250J0D01*
G01*
X124119Y-537501D02*
G03*
X124119Y-537501I-1250J0D01*
G01*
X18700Y-156000D02*
G03*
X18700Y-156000I-1250J0D01*
G01*
X115700D02*
G03*
X115700Y-156000I-1250J0D01*
G01*
X35700Y-297000D02*
G03*
X35700Y-297000I-1250J0D01*
G01*
X124050Y-297000D02*
G03*
X124050Y-297000I-1250J0D01*
G01*
X314750Y-85550D02*
G03*
X314750Y-85550I-1250J0D01*
G01*
X228250Y-310400D02*
G03*
X228250Y-310400I-1250J0D01*
G01*
D13*
X424000Y-208000D02*
G03*
X424000Y-208000I-3000J0D01*
G01*
D14*
X377000Y-109422D02*
Y-101422D01*
X392000Y-109422D02*
Y-101422D01*
X411000Y-218000D02*
X466000D01*
X411000Y-163000D02*
X466000D01*
X411000Y-218000D02*
Y-163000D01*
X466000Y-218000D02*
Y-163000D01*
X240500Y-511500D02*
Y-423500D01*
X258500Y-511500D02*
Y-423500D01*
X240500D02*
X258500D01*
X240500Y-511500D02*
X258500D01*
X242000Y-300000D02*
Y-200000D01*
X260000Y-300000D02*
Y-200000D01*
X242000D02*
X260000D01*
X242000Y-300000D02*
X260000D01*
X430500Y-79550D02*
Y-29550D01*
X448500Y-79550D02*
Y-29550D01*
X430500D02*
X448500D01*
X430500Y-79550D02*
X448500D01*
X454500Y-357500D02*
X462500D01*
X455000Y-342500D02*
X463000D01*
X290500Y-408422D02*
Y-400422D01*
X305500Y-408922D02*
Y-400922D01*
X304000Y-358000D02*
X312000D01*
X303500Y-373000D02*
X311500D01*
X440078Y-266000D02*
X448078D01*
X440578Y-251000D02*
X448578D01*
X356000Y-205000D02*
X364000D01*
X356500Y-190000D02*
X364500D01*
X519000Y-158422D02*
Y-150422D01*
X534000Y-158922D02*
Y-150922D01*
X426500Y-116000D02*
Y-108000D01*
X441500Y-116500D02*
Y-108500D01*
X457500Y-118000D02*
Y-110000D01*
X442500Y-117500D02*
Y-109500D01*
X418500Y-82500D02*
X426500D01*
X418000Y-97500D02*
X426000D01*
X435500Y-27500D02*
X443500D01*
X436000Y-12500D02*
X444000D01*
X505000Y-60500D02*
Y-52500D01*
X520000Y-61000D02*
Y-53000D01*
X326500Y-274500D02*
X334500D01*
X326500Y-298500D02*
X334500D01*
X567500Y-16900D02*
Y-14233D01*
X553500Y-4900D02*
X567500Y-14233D01*
Y-104900D02*
Y-16900D01*
X525500Y-4900D02*
X553500D01*
X525500Y-104900D02*
Y-4900D01*
Y-104900D02*
X567500D01*
X325500Y-232000D02*
X333500D01*
X325500Y-247000D02*
X333500D01*
X454500Y-376000D02*
X462500D01*
X454500Y-361000D02*
X462500D01*
X392500Y-246000D02*
X400500D01*
X392500Y-261000D02*
X400500D01*
X407500Y-132000D02*
Y-124000D01*
X392500Y-132000D02*
Y-124000D01*
X495000Y-158500D02*
Y-150500D01*
X510000Y-158500D02*
Y-150500D01*
X456422Y-321000D02*
X464422D01*
X456422Y-336000D02*
X464422D01*
X401500Y-55500D02*
Y-47500D01*
X386500Y-55500D02*
Y-47500D01*
X244000Y-182500D02*
X252000D01*
X244000Y-197500D02*
X252000D01*
X51719Y-458000D02*
X59719D01*
X51719Y-473000D02*
X59719D01*
X140069Y-458001D02*
X148069D01*
X140069Y-473000D02*
X148069D01*
X50249Y-552750D02*
X58249D01*
X50249Y-567750D02*
X58249D01*
X138578Y-551000D02*
X146578D01*
X138578Y-566000D02*
X146578D01*
X70069Y-381501D02*
Y-363501D01*
X20069Y-381501D02*
Y-363501D01*
X70069D01*
X20069Y-381501D02*
X70069D01*
X167069D02*
Y-363501D01*
X117069Y-381501D02*
Y-363501D01*
X167069D01*
X117069Y-381501D02*
X167069D01*
X120569Y-451873D02*
X128569D01*
X121069Y-436873D02*
X129069D01*
X26500Y-419000D02*
X34500D01*
X26000Y-434000D02*
X34000D01*
X176569Y-436000D02*
X184569D01*
X177069Y-421001D02*
X185069D01*
X80422Y-447000D02*
X88422D01*
X80922Y-432000D02*
X88922D01*
X87069Y-522500D02*
Y-504501D01*
X37069Y-522500D02*
Y-504501D01*
X87069D01*
X37069Y-522500D02*
X87069D01*
X175419Y-522501D02*
Y-504501D01*
X125419Y-522501D02*
Y-504501D01*
X175419D01*
X125419Y-522501D02*
X175419D01*
X51500Y-216500D02*
X59500D01*
X51500Y-231500D02*
X59500D01*
X140000Y-217500D02*
X148000D01*
X140000Y-232500D02*
X148000D01*
X50180Y-312249D02*
X58180D01*
X50180Y-327249D02*
X58180D01*
X144000Y-310500D02*
X152000D01*
X144000Y-325500D02*
X152000D01*
X70000Y-140999D02*
Y-122999D01*
X20000Y-140999D02*
Y-122999D01*
X70000D01*
X20000Y-140999D02*
X70000D01*
X167000D02*
Y-122999D01*
X117000Y-140999D02*
Y-122999D01*
X167000D01*
X117000Y-140999D02*
X167000D01*
X120499Y-211372D02*
X128499D01*
X121000Y-196372D02*
X129000D01*
X33000Y-175000D02*
X41000D01*
X32500Y-190000D02*
X40500D01*
X176500Y-195500D02*
X184500D01*
X177000Y-180499D02*
X185000D01*
X77499Y-206372D02*
X85499D01*
X77999Y-191372D02*
X85999D01*
X87000Y-282000D02*
Y-263999D01*
X37000Y-282000D02*
Y-263999D01*
X87000D01*
X37000Y-282000D02*
X87000D01*
X175350Y-282000D02*
Y-264000D01*
X125350Y-282000D02*
Y-264000D01*
X175350D01*
X125350Y-282000D02*
X175350D01*
X328500Y-188500D02*
X346500D01*
X328500Y-88500D02*
X346500D01*
Y-188500D02*
Y-88500D01*
X328500Y-188500D02*
Y-88500D01*
X451000Y-82000D02*
X459000D01*
X450500Y-97000D02*
X458500D01*
X419500Y-321000D02*
X427500D01*
X419500Y-336000D02*
X427500D01*
X365500Y-220500D02*
X373500D01*
X365500Y-235500D02*
X373500D01*
X242000Y-401000D02*
X260000D01*
X242000Y-313000D02*
X260000D01*
Y-401000D02*
Y-313000D01*
X242000Y-401000D02*
Y-313000D01*
D15*
X556922Y-540182D02*
Y-380416D01*
X342038Y-540182D02*
X556922D01*
X342038Y-380416D02*
X556922D01*
X342038Y-540182D02*
Y-380416D01*
X315300Y-249500D02*
X347800D01*
X315300Y-269500D02*
X347800D01*
X331500Y-340000D02*
X437500D01*
Y-376500D02*
Y-340000D01*
X331500Y-376500D02*
X437500D01*
X331500D02*
Y-340000D01*
X574504Y16960D02*
Y22040D01*
X504Y16960D02*
Y22040D01*
X559264Y14420D02*
X574504Y19500D01*
X559264Y24580D02*
X574504Y19500D01*
X504D02*
X15744Y14420D01*
X504Y19500D02*
X15744Y24580D01*
X352509Y19500D02*
X574504D01*
X504D02*
X222500D01*
X598960Y-4D02*
X604040D01*
X598960Y-575004D02*
X604040D01*
X601500Y-4D02*
X606580Y-15244D01*
X596420D02*
X601500Y-4D01*
Y-575004D02*
X606580Y-559764D01*
X596420D02*
X601500Y-575004D01*
Y-222500D02*
Y-4D01*
Y-575004D02*
Y-352509D01*
D16*
X79369Y-341656D02*
X104769D01*
X79369Y-401345D02*
X104769D01*
X79369Y-360705D02*
Y-341656D01*
X104769Y-360705D02*
Y-341656D01*
Y-401345D02*
Y-382295D01*
X79369Y-401345D02*
Y-382295D01*
X84800Y-106155D02*
X110200D01*
X84800Y-165845D02*
X110200D01*
X84800Y-125205D02*
Y-106155D01*
X110200Y-125205D02*
Y-106155D01*
Y-165845D02*
Y-146795D01*
X84800Y-165845D02*
Y-146795D01*
D17*
X292500Y-78452D02*
Y-83450D01*
X293500Y-84450D01*
X295499D01*
X296499Y-83450D01*
Y-78452D01*
X298498Y-79452D02*
X299498Y-78452D01*
X301497D01*
X302497Y-79452D01*
Y-80451D01*
X301497Y-81451D01*
X300497D01*
X301497D01*
X302497Y-82451D01*
Y-83450D01*
X301497Y-84450D01*
X299498D01*
X298498Y-83450D01*
X112002Y-322000D02*
X117000D01*
X118000Y-321001D01*
Y-319001D01*
X117000Y-318001D01*
X112002D01*
X118000Y-312003D02*
Y-316002D01*
X114001Y-312003D01*
X113001D01*
X112002Y-313003D01*
Y-315002D01*
X113001Y-316002D01*
X112002Y-310004D02*
X118000D01*
Y-307005D01*
X117000Y-306005D01*
X116000D01*
X115001Y-307005D01*
Y-310004D01*
Y-307005D01*
X114001Y-306005D01*
X113001D01*
X112002Y-307005D01*
Y-310004D01*
X23002Y-283000D02*
X28000D01*
X29000Y-282000D01*
Y-280001D01*
X28000Y-279001D01*
X23002D01*
X29000Y-277002D02*
Y-275002D01*
Y-276002D01*
X23002D01*
X24002Y-277002D01*
X23002Y-272003D02*
X29000D01*
Y-269004D01*
X28000Y-268005D01*
X27001D01*
X26001Y-269004D01*
Y-272003D01*
Y-269004D01*
X25001Y-268005D01*
X24002D01*
X23002Y-269004D01*
Y-272003D01*
X83500Y-217000D02*
Y-211002D01*
X86499D01*
X87499Y-212002D01*
Y-214001D01*
X86499Y-215001D01*
X83500D01*
X85499D02*
X87499Y-217000D01*
X92497D02*
Y-211002D01*
X89498Y-214001D01*
X93497D01*
X95496Y-211002D02*
Y-217000D01*
X98495D01*
X99495Y-216000D01*
Y-215001D01*
X98495Y-214001D01*
X95496D01*
X98495D01*
X99495Y-213001D01*
Y-212002D01*
X98495Y-211002D01*
X95496D01*
X171000Y-175000D02*
Y-169002D01*
X173999D01*
X174998Y-170002D01*
Y-172001D01*
X173999Y-173001D01*
X171000D01*
X172999D02*
X174998Y-175000D01*
X176998Y-170002D02*
X177997Y-169002D01*
X179997D01*
X180997Y-170002D01*
Y-171001D01*
X179997Y-172001D01*
X178997D01*
X179997D01*
X180997Y-173001D01*
Y-174000D01*
X179997Y-175000D01*
X177997D01*
X176998Y-174000D01*
X182996Y-169002D02*
Y-175000D01*
X185995D01*
X186995Y-174000D01*
Y-173001D01*
X185995Y-172001D01*
X182996D01*
X185995D01*
X186995Y-171001D01*
Y-170002D01*
X185995Y-169002D01*
X182996D01*
X19500Y-182500D02*
X13502D01*
Y-179501D01*
X14502Y-178501D01*
X16501D01*
X17501Y-179501D01*
Y-182500D01*
Y-180501D02*
X19500Y-178501D01*
Y-172503D02*
Y-176502D01*
X15502Y-172503D01*
X14502D01*
X13502Y-173503D01*
Y-175502D01*
X14502Y-176502D01*
X13502Y-170504D02*
X19500D01*
Y-167505D01*
X18500Y-166505D01*
X17501D01*
X16501Y-167505D01*
Y-170504D01*
Y-167505D01*
X15502Y-166505D01*
X14502D01*
X13502Y-167505D01*
Y-170504D01*
X121950Y-190872D02*
Y-184874D01*
X124949D01*
X125948Y-185874D01*
Y-187873D01*
X124949Y-188873D01*
X121950D01*
X123949D02*
X125948Y-190872D01*
X127948D02*
X129947D01*
X128947D01*
Y-184874D01*
X127948Y-185874D01*
X132946Y-184874D02*
Y-190872D01*
X135945D01*
X136945Y-189872D01*
Y-188873D01*
X135945Y-187873D01*
X132946D01*
X135945D01*
X136945Y-186873D01*
Y-185874D01*
X135945Y-184874D01*
X132946D01*
X182000Y-137001D02*
X178001D01*
X177002Y-138001D01*
Y-140000D01*
X178001Y-141000D01*
X182000D01*
X183000Y-140000D01*
Y-138001D01*
X181000Y-139001D02*
X183000Y-137001D01*
Y-138001D02*
X182000Y-137001D01*
X183000Y-131003D02*
Y-135002D01*
X179001Y-131003D01*
X178001D01*
X177002Y-132003D01*
Y-134002D01*
X178001Y-135002D01*
X177002Y-129004D02*
X183000D01*
Y-126005D01*
X182000Y-125005D01*
X181000D01*
X180001Y-126005D01*
Y-129004D01*
Y-126005D01*
X179001Y-125005D01*
X178001D01*
X177002Y-126005D01*
Y-129004D01*
X11000Y-137001D02*
X7002D01*
X6002Y-138001D01*
Y-140000D01*
X7002Y-141000D01*
X11000D01*
X12000Y-140000D01*
Y-138001D01*
X10000Y-139001D02*
X12000Y-137001D01*
Y-138001D02*
X11000Y-137001D01*
X12000Y-135002D02*
Y-133003D01*
Y-134002D01*
X6002D01*
X7002Y-135002D01*
X6002Y-130003D02*
X12000D01*
Y-127004D01*
X11000Y-126005D01*
X10000D01*
X9001Y-127004D01*
Y-130003D01*
Y-127004D01*
X8001Y-126005D01*
X7002D01*
X6002Y-127004D01*
Y-130003D01*
X96502Y-96001D02*
Y-100000D01*
X99501D01*
Y-98000D01*
Y-100000D01*
X102500D01*
Y-94002D02*
Y-92002D01*
Y-93002D01*
X96502D01*
X97502Y-94002D01*
X96502Y-89003D02*
X102500D01*
Y-86004D01*
X101501Y-85005D01*
X100501D01*
X99501Y-86004D01*
Y-89003D01*
Y-86004D01*
X98502Y-85005D01*
X97502D01*
X96502Y-86004D01*
Y-89003D01*
X71500Y-181874D02*
Y-187872D01*
X74499D01*
X75498Y-186872D01*
Y-182873D01*
X74499Y-181874D01*
X71500D01*
X81496D02*
X79497Y-182873D01*
X77498Y-184873D01*
Y-186872D01*
X78498Y-187872D01*
X80497D01*
X81496Y-186872D01*
Y-185872D01*
X80497Y-184873D01*
X77498D01*
X83496Y-181874D02*
Y-187872D01*
X86495D01*
X87494Y-186872D01*
Y-185872D01*
X86495Y-184873D01*
X83496D01*
X86495D01*
X87494Y-183873D01*
Y-182873D01*
X86495Y-181874D01*
X83496D01*
X199000Y-203002D02*
Y-209000D01*
X201999D01*
X202999Y-208000D01*
Y-204002D01*
X201999Y-203002D01*
X199000D01*
X208997D02*
X204998D01*
Y-206001D01*
X206997Y-205001D01*
X207997D01*
X208997Y-206001D01*
Y-208000D01*
X207997Y-209000D01*
X205998D01*
X204998Y-208000D01*
X210996Y-203002D02*
Y-209000D01*
X213995D01*
X214995Y-208000D01*
Y-207001D01*
X213995Y-206001D01*
X210996D01*
X213995D01*
X214995Y-205001D01*
Y-204002D01*
X213995Y-203002D01*
X210996D01*
X3002Y-222000D02*
X9000D01*
Y-219001D01*
X8000Y-218001D01*
X4002D01*
X3002Y-219001D01*
Y-222000D01*
X9000Y-213003D02*
X3002D01*
X6001Y-216002D01*
Y-212003D01*
X3002Y-210004D02*
X9000D01*
Y-207005D01*
X8000Y-206005D01*
X7001D01*
X6001Y-207005D01*
Y-210004D01*
Y-207005D01*
X5001Y-206005D01*
X4002D01*
X3002Y-207005D01*
Y-210004D01*
X137000Y-170502D02*
Y-176500D01*
X139999D01*
X140999Y-175500D01*
Y-171502D01*
X139999Y-170502D01*
X137000D01*
X142998Y-171502D02*
X143998Y-170502D01*
X145997D01*
X146997Y-171502D01*
Y-172501D01*
X145997Y-173501D01*
X144997D01*
X145997D01*
X146997Y-174501D01*
Y-175500D01*
X145997Y-176500D01*
X143998D01*
X142998Y-175500D01*
X148996Y-170502D02*
Y-176500D01*
X151995D01*
X152995Y-175500D01*
Y-174501D01*
X151995Y-173501D01*
X148996D01*
X151995D01*
X152995Y-172501D01*
Y-171502D01*
X151995Y-170502D01*
X148996D01*
X94002Y-280000D02*
X100000D01*
Y-277001D01*
X99000Y-276001D01*
X95001D01*
X94002Y-277001D01*
Y-280000D01*
X100000Y-270003D02*
Y-274002D01*
X96001Y-270003D01*
X95001D01*
X94002Y-271003D01*
Y-273002D01*
X95001Y-274002D01*
X94002Y-268004D02*
X100000D01*
Y-265005D01*
X99000Y-264005D01*
X98000D01*
X97001Y-265005D01*
Y-268004D01*
Y-265005D01*
X96001Y-264005D01*
X95001D01*
X94002Y-265005D01*
Y-268004D01*
X16442Y-234834D02*
Y-240832D01*
X19441D01*
X20441Y-239832D01*
Y-235834D01*
X19441Y-234834D01*
X16442D01*
X22440Y-240832D02*
X24439D01*
X23440D01*
Y-234834D01*
X22440Y-235834D01*
X27438Y-234834D02*
Y-240832D01*
X30438D01*
X31437Y-239832D01*
Y-238833D01*
X30438Y-237833D01*
X27438D01*
X30438D01*
X31437Y-236833D01*
Y-235834D01*
X30438Y-234834D01*
X27438D01*
X168998Y-316001D02*
X167999Y-315002D01*
X165999D01*
X165000Y-316001D01*
Y-320000D01*
X165999Y-321000D01*
X167999D01*
X168998Y-320000D01*
X173997Y-321000D02*
Y-315002D01*
X170998Y-318001D01*
X174996D01*
X176996Y-315002D02*
Y-321000D01*
X179995D01*
X180994Y-320000D01*
Y-319000D01*
X179995Y-318001D01*
X176996D01*
X179995D01*
X180994Y-317001D01*
Y-316001D01*
X179995Y-315002D01*
X176996D01*
X13178Y-317623D02*
X12178Y-316623D01*
X10179D01*
X9179Y-317623D01*
Y-321622D01*
X10179Y-322621D01*
X12178D01*
X13178Y-321622D01*
X15177Y-317623D02*
X16177Y-316623D01*
X18176D01*
X19176Y-317623D01*
Y-318623D01*
X18176Y-319622D01*
X17177D01*
X18176D01*
X19176Y-320622D01*
Y-321622D01*
X18176Y-322621D01*
X16177D01*
X15177Y-321622D01*
X21175Y-316623D02*
Y-322621D01*
X24174D01*
X25174Y-321622D01*
Y-320622D01*
X24174Y-319622D01*
X21175D01*
X24174D01*
X25174Y-318623D01*
Y-317623D01*
X24174Y-316623D01*
X21175D01*
X169998Y-224002D02*
X168999Y-223002D01*
X166999D01*
X166000Y-224002D01*
Y-228000D01*
X166999Y-229000D01*
X168999D01*
X169998Y-228000D01*
X175997Y-229000D02*
X171998D01*
X175997Y-225001D01*
Y-224002D01*
X174997Y-223002D01*
X172997D01*
X171998Y-224002D01*
X177996Y-223002D02*
Y-229000D01*
X180995D01*
X181995Y-228000D01*
Y-227001D01*
X180995Y-226001D01*
X177996D01*
X180995D01*
X181995Y-225001D01*
Y-224002D01*
X180995Y-223002D01*
X177996D01*
X16998Y-222002D02*
X15999Y-221002D01*
X14000D01*
X13000Y-222002D01*
Y-226000D01*
X14000Y-227000D01*
X15999D01*
X16998Y-226000D01*
X18998Y-227000D02*
X20997D01*
X19998D01*
Y-221002D01*
X18998Y-222002D01*
X23996Y-221002D02*
Y-227000D01*
X26995D01*
X27995Y-226000D01*
Y-225001D01*
X26995Y-224001D01*
X23996D01*
X26995D01*
X27995Y-223001D01*
Y-222002D01*
X26995Y-221002D01*
X23996D01*
X209500Y-304502D02*
Y-309500D01*
X210500Y-310500D01*
X212499D01*
X213499Y-309500D01*
Y-304502D01*
X218497Y-310500D02*
Y-304502D01*
X215498Y-307501D01*
X219497D01*
X112071Y-562501D02*
X117069D01*
X118069Y-561501D01*
Y-559502D01*
X117069Y-558502D01*
X112071D01*
X118069Y-552504D02*
Y-556503D01*
X114070Y-552504D01*
X113071D01*
X112071Y-553504D01*
Y-555503D01*
X113071Y-556503D01*
X118069Y-550505D02*
X114070D01*
X112071Y-548505D01*
X114070Y-546506D01*
X118069D01*
X115070D01*
Y-550505D01*
X23071Y-523501D02*
X28069D01*
X29069Y-522501D01*
Y-520502D01*
X28069Y-519502D01*
X23071D01*
X29069Y-517503D02*
Y-515503D01*
Y-516503D01*
X23071D01*
X24071Y-517503D01*
X29069Y-512504D02*
X25070D01*
X23071Y-510505D01*
X25070Y-508506D01*
X29069D01*
X26070D01*
Y-512504D01*
X28922Y-412081D02*
X34920D01*
Y-415080D01*
X33921Y-416080D01*
X31921D01*
X30922Y-415080D01*
Y-412081D01*
Y-414080D02*
X28922Y-416080D01*
Y-421078D02*
X34920D01*
X31921Y-418079D01*
Y-422078D01*
X28922Y-424077D02*
X32921D01*
X34920Y-426077D01*
X32921Y-428076D01*
X28922D01*
X31921D01*
Y-424077D01*
X171069Y-415501D02*
Y-409502D01*
X174068D01*
X175068Y-410502D01*
Y-412502D01*
X174068Y-413501D01*
X171069D01*
X173068D02*
X175068Y-415501D01*
X177067Y-410502D02*
X178067Y-409502D01*
X180066D01*
X181066Y-410502D01*
Y-411502D01*
X180066Y-412502D01*
X179067D01*
X180066D01*
X181066Y-413501D01*
Y-414501D01*
X180066Y-415501D01*
X178067D01*
X177067Y-414501D01*
X183065Y-415501D02*
Y-411502D01*
X185065Y-409502D01*
X187064Y-411502D01*
Y-415501D01*
Y-412502D01*
X183065D01*
X13000Y-426500D02*
X7002D01*
Y-423501D01*
X8002Y-422501D01*
X10001D01*
X11001Y-423501D01*
Y-426500D01*
Y-424501D02*
X13000Y-422501D01*
Y-416503D02*
Y-420502D01*
X9001Y-416503D01*
X8002D01*
X7002Y-417503D01*
Y-419502D01*
X8002Y-420502D01*
X13000Y-414504D02*
X9001D01*
X7002Y-412505D01*
X9001Y-410505D01*
X13000D01*
X10001D01*
Y-414504D01*
X122019Y-431373D02*
Y-425375D01*
X125018D01*
X126018Y-426374D01*
Y-428374D01*
X125018Y-429373D01*
X122019D01*
X124018D02*
X126018Y-431373D01*
X128017D02*
X130016D01*
X129017D01*
Y-425375D01*
X128017Y-426374D01*
X133015Y-431373D02*
Y-427374D01*
X135015Y-425375D01*
X137014Y-427374D01*
Y-431373D01*
Y-428374D01*
X133015D01*
X182069Y-377502D02*
X178071D01*
X177071Y-378502D01*
Y-380501D01*
X178071Y-381501D01*
X182069D01*
X183069Y-380501D01*
Y-378502D01*
X181070Y-379501D02*
X183069Y-377502D01*
Y-378502D02*
X182069Y-377502D01*
X183069Y-371504D02*
Y-375503D01*
X179070Y-371504D01*
X178071D01*
X177071Y-372504D01*
Y-374503D01*
X178071Y-375503D01*
X183069Y-369505D02*
X179070D01*
X177071Y-367505D01*
X179070Y-365506D01*
X183069D01*
X180070D01*
Y-369505D01*
X11069Y-377502D02*
X7071D01*
X6071Y-378502D01*
Y-380501D01*
X7071Y-381501D01*
X11069D01*
X12069Y-380501D01*
Y-378502D01*
X10070Y-379501D02*
X12069Y-377502D01*
Y-378502D02*
X11069Y-377502D01*
X12069Y-375503D02*
Y-373503D01*
Y-374503D01*
X6071D01*
X7071Y-375503D01*
X12069Y-370504D02*
X8070D01*
X6071Y-368505D01*
X8070Y-366506D01*
X12069D01*
X9070D01*
Y-370504D01*
X91071Y-331502D02*
Y-335501D01*
X94070D01*
Y-333501D01*
Y-335501D01*
X97069D01*
Y-329502D02*
Y-327503D01*
Y-328503D01*
X91071D01*
X92071Y-329502D01*
X97069Y-324504D02*
X93070D01*
X91071Y-322505D01*
X93070Y-320505D01*
X97069D01*
X94070D01*
Y-324504D01*
X71569Y-422374D02*
Y-428372D01*
X74568D01*
X75568Y-427373D01*
Y-423374D01*
X74568Y-422374D01*
X71569D01*
X81566D02*
X79566Y-423374D01*
X77567Y-425373D01*
Y-427373D01*
X78567Y-428372D01*
X80566D01*
X81566Y-427373D01*
Y-426373D01*
X80566Y-425373D01*
X77567D01*
X83565Y-428372D02*
Y-424374D01*
X85564Y-422374D01*
X87564Y-424374D01*
Y-428372D01*
Y-425373D01*
X83565D01*
X199069Y-443503D02*
Y-449501D01*
X202068D01*
X203068Y-448501D01*
Y-444502D01*
X202068Y-443503D01*
X199069D01*
X209066D02*
X205067D01*
Y-446502D01*
X207066Y-445502D01*
X208066D01*
X209066Y-446502D01*
Y-448501D01*
X208066Y-449501D01*
X206067D01*
X205067Y-448501D01*
X211065Y-449501D02*
Y-445502D01*
X213064Y-443503D01*
X215064Y-445502D01*
Y-449501D01*
Y-446502D01*
X211065D01*
X8002Y-459000D02*
X14000D01*
Y-456001D01*
X13000Y-455001D01*
X9002D01*
X8002Y-456001D01*
Y-459000D01*
X14000Y-450003D02*
X8002D01*
X11001Y-453002D01*
Y-449003D01*
X14000Y-447004D02*
X10001D01*
X8002Y-445005D01*
X10001Y-443005D01*
X14000D01*
X11001D01*
Y-447004D01*
X135500Y-411502D02*
Y-417500D01*
X138499D01*
X139499Y-416500D01*
Y-412502D01*
X138499Y-411502D01*
X135500D01*
X141498Y-412502D02*
X142498Y-411502D01*
X144497D01*
X145497Y-412502D01*
Y-413501D01*
X144497Y-414501D01*
X143497D01*
X144497D01*
X145497Y-415501D01*
Y-416500D01*
X144497Y-417500D01*
X142498D01*
X141498Y-416500D01*
X147496Y-417500D02*
Y-413501D01*
X149495Y-411502D01*
X151495Y-413501D01*
Y-417500D01*
Y-414501D01*
X147496D01*
X94071Y-520501D02*
X100069D01*
Y-517502D01*
X99069Y-516502D01*
X95071D01*
X94071Y-517502D01*
Y-520501D01*
X100069Y-510504D02*
Y-514502D01*
X96070Y-510504D01*
X95071D01*
X94071Y-511503D01*
Y-513503D01*
X95071Y-514502D01*
X100069Y-508504D02*
X96070D01*
X94071Y-506505D01*
X96070Y-504506D01*
X100069D01*
X97070D01*
Y-508504D01*
X16442Y-475372D02*
Y-481370D01*
X19441D01*
X20441Y-480370D01*
Y-476372D01*
X19441Y-475372D01*
X16442D01*
X22440Y-481370D02*
X24439D01*
X23440D01*
Y-475372D01*
X22440Y-476372D01*
X27438Y-481370D02*
Y-477371D01*
X29438Y-475372D01*
X31437Y-477371D01*
Y-481370D01*
Y-478371D01*
X27438D01*
X165499Y-554502D02*
X164499Y-553502D01*
X162500D01*
X161500Y-554502D01*
Y-558500D01*
X162500Y-559500D01*
X164499D01*
X165499Y-558500D01*
X170497Y-559500D02*
Y-553502D01*
X167498Y-556501D01*
X171497D01*
X173496Y-559500D02*
Y-555501D01*
X175495Y-553502D01*
X177495Y-555501D01*
Y-559500D01*
Y-556501D01*
X173496D01*
X13247Y-558124D02*
X12248Y-557124D01*
X10248D01*
X9248Y-558124D01*
Y-562122D01*
X10248Y-563122D01*
X12248D01*
X13247Y-562122D01*
X15246Y-558124D02*
X16246Y-557124D01*
X18246D01*
X19245Y-558124D01*
Y-559123D01*
X18246Y-560123D01*
X17246D01*
X18246D01*
X19245Y-561123D01*
Y-562122D01*
X18246Y-563122D01*
X16246D01*
X15246Y-562122D01*
X21245Y-563122D02*
Y-559123D01*
X23244Y-557124D01*
X25243Y-559123D01*
Y-563122D01*
Y-560123D01*
X21245D01*
X170068Y-464502D02*
X169068Y-463503D01*
X167069D01*
X166069Y-464502D01*
Y-468501D01*
X167069Y-469501D01*
X169068D01*
X170068Y-468501D01*
X176066Y-469501D02*
X172067D01*
X176066Y-465502D01*
Y-464502D01*
X175066Y-463503D01*
X173067D01*
X172067Y-464502D01*
X178065Y-469501D02*
Y-465502D01*
X180065Y-463503D01*
X182064Y-465502D01*
Y-469501D01*
Y-466502D01*
X178065D01*
X17218Y-463502D02*
X16218Y-462502D01*
X14219D01*
X13219Y-463502D01*
Y-467500D01*
X14219Y-468500D01*
X16218D01*
X17218Y-467500D01*
X19217Y-468500D02*
X21216D01*
X20217D01*
Y-462502D01*
X19217Y-463502D01*
X24215Y-468500D02*
Y-464501D01*
X26215Y-462502D01*
X28214Y-464501D01*
Y-468500D01*
Y-465501D01*
X24215D01*
X331656Y-326274D02*
Y-332272D01*
X334655D01*
X335655Y-331272D01*
Y-330273D01*
X334655Y-329273D01*
X331656D01*
X334655D01*
X335655Y-328273D01*
Y-327274D01*
X334655Y-326274D01*
X331656D01*
X337654Y-332272D02*
X339653D01*
X338654D01*
Y-326274D01*
X337654Y-327274D01*
X236087Y-168524D02*
X235087Y-167524D01*
X233088D01*
X232088Y-168524D01*
Y-172522D01*
X233088Y-173522D01*
X235087D01*
X236087Y-172522D01*
X242085Y-167524D02*
X240085Y-168524D01*
X238086Y-170523D01*
Y-172522D01*
X239086Y-173522D01*
X241085D01*
X242085Y-172522D01*
Y-171523D01*
X241085Y-170523D01*
X238086D01*
X393999Y-27502D02*
X392999Y-26502D01*
X391000D01*
X390000Y-27502D01*
Y-31500D01*
X391000Y-32500D01*
X392999D01*
X393999Y-31500D01*
X395998Y-26502D02*
X399997D01*
Y-27502D01*
X395998Y-31500D01*
Y-32500D01*
X406502Y-330001D02*
X405502Y-331001D01*
Y-333000D01*
X406502Y-334000D01*
X410500D01*
X411500Y-333000D01*
Y-331001D01*
X410500Y-330001D01*
X406502Y-328002D02*
X405502Y-327002D01*
Y-325003D01*
X406502Y-324003D01*
X407501D01*
X408501Y-325003D01*
X409501Y-324003D01*
X410500D01*
X411500Y-325003D01*
Y-327002D01*
X410500Y-328002D01*
X409501D01*
X408501Y-327002D01*
X407501Y-328002D01*
X406502D01*
X408501Y-327002D02*
Y-325003D01*
X456499Y-342502D02*
X455499Y-341502D01*
X453500D01*
X452500Y-342502D01*
Y-346500D01*
X453500Y-347500D01*
X455499D01*
X456499Y-346500D01*
X458498D02*
X459498Y-347500D01*
X461497D01*
X462497Y-346500D01*
Y-342502D01*
X461497Y-341502D01*
X459498D01*
X458498Y-342502D01*
Y-343501D01*
X459498Y-344501D01*
X462497D01*
X485502Y-154501D02*
X484502Y-155501D01*
Y-157500D01*
X485502Y-158500D01*
X489500D01*
X490500Y-157500D01*
Y-155501D01*
X489500Y-154501D01*
X490500Y-152502D02*
Y-150503D01*
Y-151502D01*
X484502D01*
X485502Y-152502D01*
Y-147504D02*
X484502Y-146504D01*
Y-144505D01*
X485502Y-143505D01*
X489500D01*
X490500Y-144505D01*
Y-146504D01*
X489500Y-147504D01*
X485502D01*
X345499Y-209502D02*
X344499Y-208502D01*
X342500D01*
X341500Y-209502D01*
Y-213500D01*
X342500Y-214500D01*
X344499D01*
X345499Y-213500D01*
X347498Y-214500D02*
X349497D01*
X348498D01*
Y-208502D01*
X347498Y-209502D01*
X352496Y-214500D02*
X354496D01*
X353496D01*
Y-208502D01*
X352496Y-209502D01*
X395599Y-98928D02*
X394599Y-97928D01*
X392600D01*
X391600Y-98928D01*
Y-102926D01*
X392600Y-103926D01*
X394599D01*
X395599Y-102926D01*
X397598Y-103926D02*
X399597D01*
X398598D01*
Y-97928D01*
X397598Y-98928D01*
X406595Y-103926D02*
X402596D01*
X406595Y-99927D01*
Y-98928D01*
X405596Y-97928D01*
X403596D01*
X402596Y-98928D01*
X419499Y-254502D02*
X418499Y-253502D01*
X416500D01*
X415500Y-254502D01*
Y-258500D01*
X416500Y-259500D01*
X418499D01*
X419499Y-258500D01*
X421498Y-259500D02*
X423497D01*
X422498D01*
Y-253502D01*
X421498Y-254502D01*
X426496D02*
X427496Y-253502D01*
X429496D01*
X430495Y-254502D01*
Y-255501D01*
X429496Y-256501D01*
X428496D01*
X429496D01*
X430495Y-257501D01*
Y-258500D01*
X429496Y-259500D01*
X427496D01*
X426496Y-258500D01*
X446907Y-346832D02*
X445907Y-345832D01*
X443908D01*
X442908Y-346832D01*
Y-350830D01*
X443908Y-351830D01*
X445907D01*
X446907Y-350830D01*
X448906Y-351830D02*
X450905D01*
X449906D01*
Y-345832D01*
X448906Y-346832D01*
X457903Y-345832D02*
X453904D01*
Y-348831D01*
X455904Y-347831D01*
X456903D01*
X457903Y-348831D01*
Y-350830D01*
X456903Y-351830D01*
X454904D01*
X453904Y-350830D01*
X373501Y-259498D02*
X374501Y-260498D01*
X376500D01*
X377500Y-259498D01*
Y-255500D01*
X376500Y-254500D01*
X374501D01*
X373501Y-255500D01*
X371502Y-254500D02*
X369502D01*
X370502D01*
Y-260498D01*
X371502Y-259498D01*
X362505Y-260498D02*
X364504Y-259498D01*
X366503Y-257499D01*
Y-255500D01*
X365504Y-254500D01*
X363504D01*
X362505Y-255500D01*
Y-256499D01*
X363504Y-257499D01*
X366503D01*
X350498Y-236499D02*
X351498Y-235499D01*
Y-233500D01*
X350498Y-232500D01*
X346500D01*
X345500Y-233500D01*
Y-235499D01*
X346500Y-236499D01*
X345500Y-238498D02*
Y-240497D01*
Y-239498D01*
X351498D01*
X350498Y-238498D01*
X351498Y-243496D02*
Y-247495D01*
X350498D01*
X346500Y-243496D01*
X345500D01*
X497499Y-9502D02*
X496499Y-8502D01*
X494500D01*
X493500Y-9502D01*
Y-13500D01*
X494500Y-14500D01*
X496499D01*
X497499Y-13500D01*
X499498Y-14500D02*
Y-10501D01*
X501497Y-8502D01*
X503497Y-10501D01*
Y-14500D01*
Y-11501D01*
X499498D01*
X505496Y-14500D02*
Y-8502D01*
X509495Y-14500D01*
Y-8502D01*
X511494Y-14500D02*
X513493D01*
X512494D01*
Y-8502D01*
X511494Y-9502D01*
X311590Y-259472D02*
Y-265470D01*
X315589D01*
X317588D02*
X319587D01*
X318588D01*
Y-259472D01*
X317588Y-260472D01*
X505500Y-39500D02*
Y-33502D01*
X508499D01*
X509499Y-34502D01*
Y-36501D01*
X508499Y-37501D01*
X505500D01*
X507499D02*
X509499Y-39500D01*
X515497Y-33502D02*
X511498D01*
Y-36501D01*
X513497Y-35501D01*
X514497D01*
X515497Y-36501D01*
Y-38500D01*
X514497Y-39500D01*
X512498D01*
X511498Y-38500D01*
X462500Y-23000D02*
Y-17002D01*
X465499D01*
X466499Y-18002D01*
Y-20001D01*
X465499Y-21001D01*
X462500D01*
X464499D02*
X466499Y-23000D01*
X472497Y-17002D02*
X470497Y-18002D01*
X468498Y-20001D01*
Y-22000D01*
X469498Y-23000D01*
X471497D01*
X472497Y-22000D01*
Y-21001D01*
X471497Y-20001D01*
X468498D01*
X408110Y-74970D02*
Y-68972D01*
X411109D01*
X412109Y-69972D01*
Y-71971D01*
X411109Y-72971D01*
X408110D01*
X410109D02*
X412109Y-74970D01*
X414108Y-68972D02*
X418107D01*
Y-69972D01*
X414108Y-73970D01*
Y-74970D01*
X454000Y-72000D02*
Y-66002D01*
X456999D01*
X457999Y-67002D01*
Y-69001D01*
X456999Y-70001D01*
X454000D01*
X455999D02*
X457999Y-72000D01*
X459998Y-67002D02*
X460998Y-66002D01*
X462997D01*
X463997Y-67002D01*
Y-68001D01*
X462997Y-69001D01*
X463997Y-70001D01*
Y-71000D01*
X462997Y-72000D01*
X460998D01*
X459998Y-71000D01*
Y-70001D01*
X460998Y-69001D01*
X459998Y-68001D01*
Y-67002D01*
X460998Y-69001D02*
X462997D01*
X442908Y-91480D02*
Y-85482D01*
X445907D01*
X446907Y-86482D01*
Y-88481D01*
X445907Y-89481D01*
X442908D01*
X444907D02*
X446907Y-91480D01*
X448906D02*
X450905D01*
X449906D01*
Y-85482D01*
X448906Y-86482D01*
X453904Y-91480D02*
X455904D01*
X454904D01*
Y-85482D01*
X453904Y-86482D01*
X424000Y-125000D02*
X418002D01*
Y-122001D01*
X419002Y-121001D01*
X421001D01*
X422001Y-122001D01*
Y-125000D01*
Y-123001D02*
X424000Y-121001D01*
Y-119002D02*
Y-117003D01*
Y-118002D01*
X418002D01*
X419002Y-119002D01*
X424000Y-110005D02*
Y-114004D01*
X420001Y-110005D01*
X419002D01*
X418002Y-111004D01*
Y-113004D01*
X419002Y-114004D01*
X521000Y-137000D02*
Y-131002D01*
X523999D01*
X524999Y-132002D01*
Y-134001D01*
X523999Y-135001D01*
X521000D01*
X522999D02*
X524999Y-137000D01*
X526998D02*
X528997D01*
X527998D01*
Y-131002D01*
X526998Y-132002D01*
X531996D02*
X532996Y-131002D01*
X534995D01*
X535995Y-132002D01*
Y-133001D01*
X534995Y-134001D01*
X533996D01*
X534995D01*
X535995Y-135001D01*
Y-136000D01*
X534995Y-137000D01*
X532996D01*
X531996Y-136000D01*
X379000Y-207500D02*
Y-213498D01*
X376001D01*
X375001Y-212498D01*
Y-210499D01*
X376001Y-209499D01*
X379000D01*
X377001D02*
X375001Y-207500D01*
X373002D02*
X371003D01*
X372002D01*
Y-213498D01*
X373002Y-212498D01*
X365005Y-207500D02*
Y-213498D01*
X368004Y-210499D01*
X364005D01*
X484000Y-255500D02*
Y-261498D01*
X481001D01*
X480001Y-260498D01*
Y-258499D01*
X481001Y-257499D01*
X484000D01*
X482001D02*
X480001Y-255500D01*
X478002D02*
X476003D01*
X477002D01*
Y-261498D01*
X478002Y-260498D01*
X469005Y-261498D02*
X473004D01*
Y-258499D01*
X471004Y-259499D01*
X470005D01*
X469005Y-258499D01*
Y-256500D01*
X470005Y-255500D01*
X472004D01*
X473004Y-256500D01*
X326000Y-352500D02*
X331998D01*
Y-355499D01*
X330998Y-356499D01*
X328999D01*
X327999Y-355499D01*
Y-352500D01*
Y-354499D02*
X326000Y-356499D01*
Y-358498D02*
Y-360497D01*
Y-359498D01*
X331998D01*
X330998Y-358498D01*
X331998Y-367495D02*
X330998Y-365496D01*
X328999Y-363496D01*
X327000D01*
X326000Y-364496D01*
Y-366496D01*
X327000Y-367495D01*
X327999D01*
X328999Y-366496D01*
Y-363496D01*
X292000Y-421500D02*
X297998D01*
Y-424499D01*
X296998Y-425499D01*
X294999D01*
X293999Y-424499D01*
Y-421500D01*
Y-423499D02*
X292000Y-425499D01*
Y-427498D02*
Y-429497D01*
Y-428498D01*
X297998D01*
X296998Y-427498D01*
X297998Y-432496D02*
Y-436495D01*
X296998D01*
X293000Y-432496D01*
X292000D01*
X485578Y-363000D02*
X479580D01*
Y-360001D01*
X480580Y-359001D01*
X482579D01*
X483579Y-360001D01*
Y-363000D01*
Y-361001D02*
X485578Y-359001D01*
Y-357002D02*
Y-355003D01*
Y-356002D01*
X479580D01*
X480580Y-357002D01*
Y-352004D02*
X479580Y-351004D01*
Y-349005D01*
X480580Y-348005D01*
X481579D01*
X482579Y-349005D01*
X483579Y-348005D01*
X484578D01*
X485578Y-349005D01*
Y-351004D01*
X484578Y-352004D01*
X483579D01*
X482579Y-351004D01*
X481579Y-352004D01*
X480580D01*
X482579Y-351004D02*
Y-349005D01*
X307999Y-560502D02*
X306999Y-559502D01*
X305000D01*
X304000Y-560502D01*
Y-561501D01*
X305000Y-562501D01*
X306999D01*
X307999Y-563501D01*
Y-564500D01*
X306999Y-565500D01*
X305000D01*
X304000Y-564500D01*
X313997Y-559502D02*
X309998D01*
Y-565500D01*
X313997D01*
X309998Y-562501D02*
X311997D01*
X315996Y-565500D02*
Y-559502D01*
X318995D01*
X319995Y-560502D01*
Y-562501D01*
X318995Y-563501D01*
X315996D01*
X317995D02*
X319995Y-565500D01*
X321994Y-559502D02*
Y-563501D01*
X323993Y-565500D01*
X325993Y-563501D01*
Y-559502D01*
X330991D02*
X328992D01*
X327992Y-560502D01*
Y-564500D01*
X328992Y-565500D01*
X330991D01*
X331991Y-564500D01*
Y-560502D01*
X330991Y-559502D01*
X333990Y-565500D02*
X335990D01*
X334990D01*
Y-559502D01*
X333990Y-560502D01*
X242999Y-533002D02*
X241999Y-532002D01*
X240000D01*
X239000Y-533002D01*
Y-534001D01*
X240000Y-535001D01*
X241999D01*
X242999Y-536001D01*
Y-537000D01*
X241999Y-538000D01*
X240000D01*
X239000Y-537000D01*
X248997Y-532002D02*
X244998D01*
Y-538000D01*
X248997D01*
X244998Y-535001D02*
X246997D01*
X250996Y-538000D02*
Y-532002D01*
X253995D01*
X254995Y-533002D01*
Y-535001D01*
X253995Y-536001D01*
X250996D01*
X252995D02*
X254995Y-538000D01*
X256994Y-532002D02*
Y-536001D01*
X258993Y-538000D01*
X260993Y-536001D01*
Y-532002D01*
X265991D02*
X263992D01*
X262992Y-533002D01*
Y-537000D01*
X263992Y-538000D01*
X265991D01*
X266991Y-537000D01*
Y-533002D01*
X265991Y-532002D01*
X272989Y-538000D02*
X268990D01*
X272989Y-534001D01*
Y-533002D01*
X271989Y-532002D01*
X269990D01*
X268990Y-533002D01*
X301002Y-519501D02*
X300002Y-520501D01*
Y-522500D01*
X301002Y-523500D01*
X302001D01*
X303001Y-522500D01*
Y-520501D01*
X304001Y-519501D01*
X305000D01*
X306000Y-520501D01*
Y-522500D01*
X305000Y-523500D01*
X300002Y-513503D02*
Y-517502D01*
X306000D01*
Y-513503D01*
X303001Y-517502D02*
Y-515503D01*
X306000Y-511504D02*
X300002D01*
Y-508505D01*
X301002Y-507505D01*
X303001D01*
X304001Y-508505D01*
Y-511504D01*
Y-509505D02*
X306000Y-507505D01*
X300002Y-505506D02*
X304001D01*
X306000Y-503507D01*
X304001Y-501507D01*
X300002D01*
Y-496509D02*
Y-498508D01*
X301002Y-499508D01*
X305000D01*
X306000Y-498508D01*
Y-496509D01*
X305000Y-495509D01*
X301002D01*
X300002Y-496509D01*
X301002Y-493510D02*
X300002Y-492510D01*
Y-490511D01*
X301002Y-489511D01*
X302001D01*
X303001Y-490511D01*
Y-491510D01*
Y-490511D01*
X304001Y-489511D01*
X305000D01*
X306000Y-490511D01*
Y-492510D01*
X305000Y-493510D01*
X522500Y-286500D02*
Y-283501D01*
X521501Y-282501D01*
X520501Y-283501D01*
Y-285500D01*
X519501Y-286500D01*
X518502Y-285500D01*
Y-282501D01*
X517502Y-279502D02*
X518502D01*
Y-280502D01*
Y-278502D01*
Y-279502D01*
X521501D01*
X522500Y-278502D01*
Y-275503D02*
Y-273504D01*
Y-274504D01*
X516502D01*
Y-275503D01*
X522500Y-270505D02*
Y-268506D01*
Y-269505D01*
X518502D01*
Y-270505D01*
X522500Y-265507D02*
X518502D01*
Y-262508D01*
X519501Y-261508D01*
X522500D01*
Y-259508D02*
X516502D01*
X520501D02*
X518502Y-256509D01*
X520501Y-259508D02*
X522500Y-256509D01*
Y-253510D02*
Y-251511D01*
Y-252511D01*
X516502D01*
X517502Y-253510D01*
X302002Y-457500D02*
Y-453501D01*
Y-455501D01*
X308000D01*
X302002Y-451502D02*
Y-447503D01*
Y-449503D01*
X308000D01*
X302002Y-445504D02*
X308000D01*
Y-441505D01*
Y-439506D02*
Y-437506D01*
Y-438506D01*
X302002D01*
X303002Y-439506D01*
X403030Y-11822D02*
Y-16820D01*
X404030Y-17820D01*
X406029D01*
X407029Y-16820D01*
Y-11822D01*
X413027D02*
X409028D01*
Y-14821D01*
X411027Y-13821D01*
X412027D01*
X413027Y-14821D01*
Y-16820D01*
X412027Y-17820D01*
X410028D01*
X409028Y-16820D01*
X234000Y-190002D02*
Y-195000D01*
X235000Y-196000D01*
X236999D01*
X237999Y-195000D01*
Y-190002D01*
X243997D02*
X241997Y-191002D01*
X239998Y-193001D01*
Y-195000D01*
X240998Y-196000D01*
X242997D01*
X243997Y-195000D01*
Y-194001D01*
X242997Y-193001D01*
X239998D01*
X199500Y-424502D02*
Y-429500D01*
X200500Y-430500D01*
X202499D01*
X203499Y-429500D01*
Y-424502D01*
X205498D02*
X209497D01*
Y-425502D01*
X205498Y-429500D01*
Y-430500D01*
X391502Y-240500D02*
X396500D01*
X397500Y-239500D01*
Y-237501D01*
X396500Y-236501D01*
X391502D01*
X392502Y-234502D02*
X391502Y-233502D01*
Y-231503D01*
X392502Y-230503D01*
X393501D01*
X394501Y-231503D01*
X395501Y-230503D01*
X396500D01*
X397500Y-231503D01*
Y-233502D01*
X396500Y-234502D01*
X395501D01*
X394501Y-233502D01*
X393501Y-234502D01*
X392502D01*
X394501Y-233502D02*
Y-231503D01*
X342324Y-366660D02*
Y-371658D01*
X343324Y-372658D01*
X345323D01*
X346323Y-371658D01*
Y-366660D01*
X348322Y-371658D02*
X349322Y-372658D01*
X351321D01*
X352321Y-371658D01*
Y-367660D01*
X351321Y-366660D01*
X349322D01*
X348322Y-367660D01*
Y-368659D01*
X349322Y-369659D01*
X352321D01*
X366454Y-254900D02*
Y-255900D01*
X368453Y-257899D01*
X370453Y-255900D01*
Y-254900D01*
X368453Y-257899D02*
Y-260898D01*
X372452D02*
X374451D01*
X373452D01*
Y-254900D01*
X372452Y-255900D01*
X354500Y-58500D02*
Y-64498D01*
X351501D01*
X350501Y-63498D01*
Y-61499D01*
X351501Y-60499D01*
X354500D01*
X348502Y-58500D02*
X346503D01*
X347502D01*
Y-64498D01*
X348502Y-63498D01*
X504000Y-536999D02*
Y-531001D01*
X506999D01*
X507999Y-532001D01*
Y-534000D01*
X506999Y-535000D01*
X504000D01*
X509998Y-531001D02*
Y-534000D01*
X510998Y-535000D01*
X511997Y-534000D01*
X512997Y-535000D01*
X513997Y-534000D01*
Y-531001D01*
X439500Y-535000D02*
X442499D01*
X443499Y-534000D01*
X442499Y-533001D01*
X440500D01*
X439500Y-532001D01*
X440500Y-531001D01*
X443499D01*
X448497Y-535000D02*
X446498D01*
X445498Y-534000D01*
Y-532001D01*
X446498Y-531001D01*
X448497D01*
X449497Y-532001D01*
Y-533001D01*
X445498D01*
X451496Y-531001D02*
Y-535000D01*
Y-533001D01*
X452496Y-532001D01*
X453495Y-531001D01*
X454495D01*
X457494D02*
X459493Y-535000D01*
X461493Y-531001D01*
X464492Y-535000D02*
X466491D01*
X467491Y-534000D01*
Y-532001D01*
X466491Y-531001D01*
X464492D01*
X463492Y-532001D01*
Y-534000D01*
X464492Y-535000D01*
X469490Y-536999D02*
Y-531001D01*
X472489D01*
X473489Y-532001D01*
Y-534000D01*
X472489Y-535000D01*
X469490D01*
X475488Y-531001D02*
Y-534000D01*
X476488Y-535000D01*
X477488Y-534000D01*
X478487Y-535000D01*
X479487Y-534000D01*
Y-531001D01*
X378002Y-82001D02*
X377002Y-83001D01*
Y-85000D01*
X378002Y-86000D01*
X382000D01*
X383000Y-85000D01*
Y-83001D01*
X382000Y-82001D01*
X377002Y-76003D02*
Y-80002D01*
X380001D01*
X379001Y-78003D01*
Y-77003D01*
X380001Y-76003D01*
X382000D01*
X383000Y-77003D01*
Y-79002D01*
X382000Y-80002D01*
X502499Y-121502D02*
X501499Y-120502D01*
X499500D01*
X498500Y-121502D01*
Y-122501D01*
X499500Y-123501D01*
X501499D01*
X502499Y-124501D01*
Y-125500D01*
X501499Y-126500D01*
X499500D01*
X498500Y-125500D01*
X508497Y-120502D02*
X504498D01*
Y-126500D01*
X508497D01*
X504498Y-123501D02*
X506497D01*
X510496Y-126500D02*
Y-120502D01*
X513495D01*
X514495Y-121502D01*
Y-123501D01*
X513495Y-124501D01*
X510496D01*
X512495D02*
X514495Y-126500D01*
X516494Y-120502D02*
X518493D01*
X517494D01*
Y-126500D01*
X516494D01*
X518493D01*
X521493D02*
Y-122501D01*
X523492Y-120502D01*
X525491Y-122501D01*
Y-126500D01*
Y-123501D01*
X521493D01*
X527491Y-120502D02*
Y-126500D01*
X531489D01*
X533489D02*
X535488D01*
X534488D01*
Y-120502D01*
X533489Y-121502D01*
D18*
X441600Y-557500D02*
D03*
X467000D02*
D03*
X522000Y-557000D02*
D03*
X496600D02*
D03*
X543740Y-392100D02*
D03*
Y-417500D02*
D03*
X543232Y-527229D02*
D03*
X355018D02*
D03*
X355526Y-417500D02*
D03*
Y-392100D02*
D03*
X323997Y-417102D02*
D03*
Y-442502D02*
D03*
Y-391702D02*
D03*
X551508Y-228899D02*
D03*
Y-254298D02*
D03*
Y-279699D02*
D03*
Y-305098D02*
D03*
Y-330499D02*
D03*
Y-203498D02*
D03*
X324502Y-496899D02*
D03*
Y-471499D02*
D03*
Y-522299D02*
D03*
X254002Y-555000D02*
D03*
X228602D02*
D03*
X279402D02*
D03*
X377499Y-558499D02*
D03*
X402899D02*
D03*
X352099D02*
D03*
X549500Y-29500D02*
D03*
Y-80300D02*
D03*
Y-54900D02*
D03*
X551500Y-147500D02*
D03*
Y-172901D02*
D03*
Y-122100D02*
D03*
M02*
