G04*
G04 #@! TF.GenerationSoftware,Altium Limited,Altium Designer,24.10.1 (45)*
G04*
G04 Layer_Physical_Order=3*
G04 Layer_Color=16440176*
%FSLAX44Y44*%
%MOMM*%
G71*
G04*
G04 #@! TF.SameCoordinates,C031E789-135E-4793-A04E-BF888AAD087F*
G04*
G04*
G04 #@! TF.FilePolarity,Positive*
G04*
G01*
G75*
%ADD15C,0.2540*%
G04:AMPARAMS|DCode=60|XSize=2.032mm|YSize=1.524mm|CornerRadius=0mm|HoleSize=0mm|Usage=FLASHONLY|Rotation=90.000|XOffset=0mm|YOffset=0mm|HoleType=Round|Shape=Octagon|*
%AMOCTAGOND60*
4,1,8,0.3810,1.0160,-0.3810,1.0160,-0.7620,0.6350,-0.7620,-0.6350,-0.3810,-1.0160,0.3810,-1.0160,0.7620,-0.6350,0.7620,0.6350,0.3810,1.0160,0.0*
%
%ADD60OCTAGOND60*%

%ADD61C,1.5240*%
G04:AMPARAMS|DCode=62|XSize=2.032mm|YSize=1.524mm|CornerRadius=0mm|HoleSize=0mm|Usage=FLASHONLY|Rotation=180.000|XOffset=0mm|YOffset=0mm|HoleType=Round|Shape=Octagon|*
%AMOCTAGOND62*
4,1,8,-1.0160,0.3810,-1.0160,-0.3810,-0.6350,-0.7620,0.6350,-0.7620,1.0160,-0.3810,1.0160,0.3810,0.6350,0.7620,-0.6350,0.7620,-1.0160,0.3810,0.0*
%
%ADD62OCTAGOND62*%

%ADD63C,0.6000*%
%ADD64C,0.5000*%
G36*
X565892Y-568892D02*
X528758D01*
X528232Y-567622D01*
X531062Y-564792D01*
X531504Y-564130D01*
X531659Y-563350D01*
Y-550650D01*
X531504Y-549870D01*
X531062Y-549208D01*
X527252Y-545398D01*
X526590Y-544956D01*
X525810Y-544801D01*
X518190D01*
X517410Y-544956D01*
X516748Y-545398D01*
X512938Y-549208D01*
X512496Y-549870D01*
X512341Y-550650D01*
Y-563350D01*
X512496Y-564130D01*
X512938Y-564792D01*
X515769Y-567622D01*
X515243Y-568892D01*
X503358D01*
X502831Y-567622D01*
X505662Y-564792D01*
X506104Y-564130D01*
X506259Y-563350D01*
Y-550650D01*
X506104Y-549870D01*
X505662Y-549208D01*
X501852Y-545398D01*
X501190Y-544956D01*
X500410Y-544801D01*
X492790D01*
X492010Y-544956D01*
X491348Y-545398D01*
X487538Y-549208D01*
X487096Y-549870D01*
X486941Y-550650D01*
Y-563350D01*
X487096Y-564130D01*
X487538Y-564792D01*
X490368Y-567622D01*
X489842Y-568892D01*
X474121D01*
X473635Y-567719D01*
X476062Y-565292D01*
X476504Y-564630D01*
X476659Y-563850D01*
Y-551150D01*
X476504Y-550370D01*
X476062Y-549708D01*
X472252Y-545898D01*
X471590Y-545456D01*
X470810Y-545301D01*
X463190D01*
X462410Y-545456D01*
X461748Y-545898D01*
X457938Y-549708D01*
X457496Y-550370D01*
X457341Y-551150D01*
Y-563850D01*
X457496Y-564630D01*
X457938Y-565292D01*
X460365Y-567719D01*
X459879Y-568892D01*
X448721D01*
X448235Y-567719D01*
X450662Y-565292D01*
X451104Y-564630D01*
X451259Y-563850D01*
Y-551150D01*
X451104Y-550370D01*
X450662Y-549708D01*
X446852Y-545898D01*
X446190Y-545456D01*
X445410Y-545301D01*
X437790D01*
X437010Y-545456D01*
X436348Y-545898D01*
X432538Y-549708D01*
X432096Y-550370D01*
X431941Y-551150D01*
Y-563850D01*
X432096Y-564630D01*
X432538Y-565292D01*
X434965Y-567719D01*
X434479Y-568892D01*
X411021D01*
X410535Y-567719D01*
X411962Y-566292D01*
X412404Y-565630D01*
X412559Y-564850D01*
Y-552150D01*
X412404Y-551370D01*
X411962Y-550708D01*
X408152Y-546898D01*
X407490Y-546456D01*
X406710Y-546301D01*
X399090D01*
X398310Y-546456D01*
X397648Y-546898D01*
X393838Y-550708D01*
X393396Y-551370D01*
X393241Y-552150D01*
Y-564850D01*
X393396Y-565630D01*
X393838Y-566292D01*
X395265Y-567719D01*
X394779Y-568892D01*
X385621D01*
X385135Y-567719D01*
X386562Y-566292D01*
X387004Y-565630D01*
X387159Y-564850D01*
Y-552150D01*
X387004Y-551370D01*
X386562Y-550708D01*
X382752Y-546898D01*
X382090Y-546456D01*
X381310Y-546301D01*
X373690D01*
X372910Y-546456D01*
X372248Y-546898D01*
X368438Y-550708D01*
X367996Y-551370D01*
X367841Y-552150D01*
Y-564850D01*
X367996Y-565630D01*
X368438Y-566292D01*
X369865Y-567719D01*
X369379Y-568892D01*
X360221D01*
X359735Y-567719D01*
X361162Y-566292D01*
X361604Y-565630D01*
X361759Y-564850D01*
Y-552150D01*
X361604Y-551370D01*
X361162Y-550708D01*
X357352Y-546898D01*
X356690Y-546456D01*
X355910Y-546301D01*
X348290D01*
X347510Y-546456D01*
X346848Y-546898D01*
X343038Y-550708D01*
X342596Y-551370D01*
X342441Y-552150D01*
Y-564850D01*
X342596Y-565630D01*
X343038Y-566292D01*
X344465Y-567719D01*
X343979Y-568892D01*
X3108D01*
Y-5108D01*
X565892D01*
Y-568892D01*
D02*
G37*
%LPC*%
G36*
X555850Y-19841D02*
X543150D01*
X542370Y-19996D01*
X541708Y-20438D01*
X537898Y-24248D01*
X537456Y-24910D01*
X537301Y-25690D01*
Y-33310D01*
X537456Y-34090D01*
X537898Y-34752D01*
X541708Y-38562D01*
X542370Y-39004D01*
X543150Y-39159D01*
X555850D01*
X556631Y-39004D01*
X557292Y-38562D01*
X561102Y-34752D01*
X561544Y-34090D01*
X561699Y-33310D01*
Y-25690D01*
X561544Y-24910D01*
X561102Y-24248D01*
X557292Y-20438D01*
X556631Y-19996D01*
X555850Y-19841D01*
D02*
G37*
G36*
Y-44690D02*
X550770D01*
Y-53630D01*
X562250D01*
Y-51090D01*
X562053Y-50099D01*
X561491Y-49259D01*
X557681Y-45449D01*
X556841Y-44887D01*
X555850Y-44690D01*
D02*
G37*
G36*
X548230D02*
X543150D01*
X542159Y-44887D01*
X541319Y-45449D01*
X537509Y-49259D01*
X536948Y-50099D01*
X536750Y-51090D01*
Y-53630D01*
X548230D01*
Y-44690D01*
D02*
G37*
G36*
X562250Y-56170D02*
X550770D01*
Y-65110D01*
X555850D01*
X556841Y-64913D01*
X557681Y-64351D01*
X561491Y-60541D01*
X562053Y-59701D01*
X562250Y-58710D01*
Y-56170D01*
D02*
G37*
G36*
X548230D02*
X536750D01*
Y-58710D01*
X536948Y-59701D01*
X537509Y-60541D01*
X541319Y-64351D01*
X542159Y-64913D01*
X543150Y-65110D01*
X548230D01*
Y-56170D01*
D02*
G37*
G36*
X527270Y-64604D02*
Y-68730D01*
X531396D01*
X531219Y-67838D01*
X529994Y-66006D01*
X528162Y-64781D01*
X527270Y-64604D01*
D02*
G37*
G36*
X110154Y-79002D02*
X106538D01*
Y-82618D01*
X107235Y-82480D01*
X108902Y-81366D01*
X110016Y-79699D01*
X110154Y-79002D01*
D02*
G37*
G36*
X555850Y-70641D02*
X543150D01*
X542370Y-70796D01*
X541708Y-71238D01*
X537898Y-75048D01*
X537456Y-75710D01*
X537301Y-76490D01*
Y-84110D01*
X537456Y-84890D01*
X537898Y-85552D01*
X541708Y-89362D01*
X542370Y-89804D01*
X543150Y-89959D01*
X555850D01*
X556631Y-89804D01*
X557292Y-89362D01*
X561102Y-85552D01*
X561544Y-84890D01*
X561699Y-84110D01*
Y-76490D01*
X561544Y-75710D01*
X561102Y-75048D01*
X557292Y-71238D01*
X556631Y-70796D01*
X555850Y-70641D01*
D02*
G37*
G36*
X449000Y-7166D02*
X55000D01*
X53724Y-7420D01*
X52642Y-8142D01*
X31143Y-29642D01*
X30420Y-30724D01*
X30166Y-32000D01*
Y-73319D01*
X30164Y-73340D01*
X30153Y-73410D01*
X29261Y-74744D01*
X28912Y-76500D01*
X29261Y-78256D01*
X30256Y-79744D01*
X31744Y-80739D01*
X33500Y-81088D01*
X35256Y-80739D01*
X36744Y-79744D01*
X37739Y-78256D01*
X38088Y-76500D01*
X38006Y-76086D01*
X39086Y-75006D01*
X39500Y-75088D01*
X39722Y-75044D01*
X40802Y-76124D01*
X40682Y-76730D01*
X41031Y-78486D01*
X42026Y-79974D01*
X43514Y-80969D01*
X45270Y-81318D01*
X47026Y-80969D01*
X48514Y-79974D01*
X49509Y-78486D01*
X49669Y-77680D01*
X51047Y-77262D01*
X59412Y-85627D01*
X60494Y-86350D01*
X61770Y-86604D01*
X99731D01*
X101006Y-86350D01*
X102088Y-85627D01*
X103998Y-83717D01*
Y-80831D01*
X103966Y-80858D01*
X103583Y-81213D01*
X101787Y-79417D01*
X101975Y-79223D01*
X102290Y-78853D01*
X102418Y-78677D01*
X102527Y-78508D01*
X102615Y-78345D01*
X102683Y-78189D01*
X102731Y-78039D01*
X102760Y-77895D01*
X102768Y-77757D01*
X103998Y-78987D01*
Y-77732D01*
X105268D01*
Y-76462D01*
X106523D01*
X105293Y-75232D01*
X105431Y-75223D01*
X105575Y-75195D01*
X105725Y-75147D01*
X105882Y-75078D01*
X106045Y-74990D01*
X106214Y-74882D01*
X106389Y-74754D01*
X106571Y-74606D01*
X106954Y-74251D01*
X108750Y-76047D01*
X108562Y-76241D01*
X108374Y-76462D01*
X111253D01*
X111965Y-75750D01*
X113135Y-76376D01*
X112912Y-77500D01*
X113261Y-79256D01*
X114153Y-80590D01*
X114160Y-80637D01*
X114166Y-80710D01*
Y-85000D01*
X114420Y-86276D01*
X115142Y-87358D01*
X141643Y-113857D01*
X142724Y-114580D01*
X144000Y-114834D01*
X161119D01*
X169895Y-123610D01*
X169387Y-124898D01*
X167895Y-125895D01*
X166790Y-127549D01*
X166402Y-129500D01*
X166790Y-131451D01*
X167895Y-133105D01*
X169549Y-134210D01*
X171500Y-134598D01*
X173451Y-134210D01*
X175105Y-133105D01*
X175207Y-132952D01*
X175248Y-132931D01*
X175318Y-132904D01*
X175409Y-132876D01*
X175523Y-132850D01*
X175631Y-132834D01*
X209170D01*
X209217Y-132890D01*
X209302Y-133005D01*
X209382Y-133129D01*
X209446Y-133240D01*
X209496Y-133339D01*
X209531Y-133425D01*
X209556Y-133500D01*
X209592Y-133639D01*
X209654Y-133769D01*
X209790Y-134451D01*
X210895Y-136105D01*
X212549Y-137210D01*
X214500Y-137598D01*
X216451Y-137210D01*
X218105Y-136105D01*
X219210Y-134451D01*
X219598Y-132500D01*
X219410Y-131554D01*
X220580Y-130928D01*
X221010Y-131357D01*
X222091Y-132080D01*
X223367Y-132334D01*
X250222D01*
X250607Y-133604D01*
X250006Y-134006D01*
X248781Y-135838D01*
X248604Y-136730D01*
X254000D01*
Y-139270D01*
X248604D01*
X248781Y-140162D01*
X249477Y-141202D01*
X249263Y-141739D01*
X248780Y-142446D01*
X247049Y-142790D01*
X245395Y-143895D01*
X244290Y-145549D01*
X243902Y-147500D01*
X244290Y-149451D01*
X245395Y-151105D01*
X247049Y-152210D01*
X249000Y-152598D01*
X250951Y-152210D01*
X252605Y-151105D01*
X253710Y-149451D01*
X254098Y-147500D01*
X253710Y-145549D01*
X253199Y-144784D01*
X253962Y-143641D01*
X254000Y-143649D01*
X256162Y-143219D01*
X257994Y-141994D01*
X259219Y-140162D01*
X259648Y-138000D01*
X260826Y-137408D01*
X276672Y-153254D01*
X277545Y-154128D01*
X277556Y-154135D01*
X278209Y-155039D01*
X277803Y-155780D01*
X277288Y-156551D01*
X277226Y-156862D01*
X276900Y-158502D01*
X277288Y-160453D01*
X278393Y-162107D01*
X280047Y-163212D01*
X281998Y-163600D01*
X283949Y-163212D01*
X285603Y-162107D01*
X286708Y-160453D01*
X287096Y-158502D01*
X286708Y-156551D01*
X286489Y-156224D01*
X287088Y-155104D01*
X288730D01*
X290006Y-154850D01*
X291087Y-154128D01*
X321839Y-123376D01*
X336584D01*
X336912Y-124646D01*
X335781Y-126338D01*
X335604Y-127230D01*
X341000D01*
Y-128500D01*
X342270D01*
Y-133896D01*
X343162Y-133719D01*
X344994Y-132494D01*
X345435Y-131834D01*
X374515D01*
X375838Y-132719D01*
X378000Y-133148D01*
X378676Y-133014D01*
X379172Y-134210D01*
X378895Y-134395D01*
X377790Y-136049D01*
X377402Y-138000D01*
X377790Y-139951D01*
X378895Y-141605D01*
X380549Y-142710D01*
X382500Y-143098D01*
X384451Y-142710D01*
X386105Y-141605D01*
X387210Y-139951D01*
X387598Y-138000D01*
X387210Y-136049D01*
X386105Y-134395D01*
X384451Y-133290D01*
X382500Y-132902D01*
X382034Y-132995D01*
X381539Y-131798D01*
X381994Y-131494D01*
X383219Y-129662D01*
X383396Y-128770D01*
X378000D01*
Y-126230D01*
X383396D01*
X383219Y-125338D01*
X382756Y-124646D01*
X383435Y-123376D01*
X443294D01*
X458005Y-138088D01*
X459087Y-138810D01*
X460363Y-139064D01*
X470037D01*
X470733Y-140334D01*
X470402Y-142000D01*
X470438Y-142180D01*
X470424Y-142224D01*
X470394Y-142293D01*
X470349Y-142377D01*
X470286Y-142476D01*
X470221Y-142564D01*
X464642Y-148142D01*
X463920Y-149224D01*
X463666Y-150500D01*
Y-170309D01*
X462396Y-170988D01*
X461636Y-170480D01*
X460263Y-170207D01*
X460166Y-170175D01*
X460025Y-170158D01*
X459968Y-170146D01*
X459903Y-170126D01*
X459827Y-170096D01*
X459738Y-170054D01*
X459637Y-169995D01*
X459523Y-169919D01*
X459430Y-169848D01*
X439725Y-150142D01*
X438643Y-149420D01*
X437367Y-149166D01*
X313500D01*
X312224Y-149420D01*
X311143Y-150142D01*
X249564Y-211721D01*
X249476Y-211786D01*
X249377Y-211849D01*
X249293Y-211894D01*
X249224Y-211924D01*
X249180Y-211938D01*
X249000Y-211902D01*
X247049Y-212290D01*
X245395Y-213395D01*
X244290Y-215049D01*
X243902Y-217000D01*
X244290Y-218951D01*
X245395Y-220605D01*
X247049Y-221710D01*
X249000Y-222098D01*
X250951Y-221710D01*
X251940Y-221049D01*
X252749Y-222036D01*
X249564Y-225221D01*
X249476Y-225286D01*
X249377Y-225349D01*
X249293Y-225394D01*
X249224Y-225424D01*
X249180Y-225438D01*
X249000Y-225402D01*
X247049Y-225790D01*
X245395Y-226895D01*
X244290Y-228549D01*
X243902Y-230500D01*
X244290Y-232451D01*
X245395Y-234105D01*
X247049Y-235210D01*
X249000Y-235598D01*
X250951Y-235210D01*
X252605Y-234105D01*
X253710Y-232451D01*
X254098Y-230500D01*
X254062Y-230320D01*
X254077Y-230276D01*
X254106Y-230207D01*
X254151Y-230123D01*
X254214Y-230024D01*
X254279Y-229936D01*
X278939Y-205277D01*
X279661Y-204195D01*
X279915Y-202919D01*
Y-202800D01*
X322341Y-160374D01*
X431659D01*
X445221Y-173936D01*
X445286Y-174024D01*
X445349Y-174123D01*
X445394Y-174207D01*
X445424Y-174276D01*
X445438Y-174320D01*
X445402Y-174500D01*
X445790Y-176451D01*
X446895Y-178105D01*
X446750Y-179535D01*
X443143Y-183143D01*
X442420Y-184224D01*
X442166Y-185500D01*
Y-217382D01*
X442117Y-217469D01*
X440874Y-216697D01*
Y-179091D01*
X440620Y-177815D01*
X439897Y-176733D01*
X438134Y-174970D01*
X438081Y-174895D01*
X438036Y-174819D01*
X438010Y-174765D01*
X437997Y-174730D01*
X437993Y-174714D01*
X437993Y-174709D01*
X437993Y-174708D01*
X438002Y-174593D01*
X437994Y-174521D01*
X438098Y-174000D01*
X437710Y-172049D01*
X436605Y-170395D01*
X434951Y-169290D01*
X433000Y-168902D01*
X431049Y-169290D01*
X429395Y-170395D01*
X428290Y-172049D01*
X427902Y-174000D01*
X428233Y-175666D01*
X427728Y-176588D01*
X427505Y-176841D01*
X426249Y-176736D01*
X426202Y-176665D01*
X424548Y-175560D01*
X422597Y-175172D01*
X420646Y-175560D01*
X418992Y-176665D01*
X417887Y-178319D01*
X417499Y-180270D01*
X417887Y-182221D01*
X418992Y-183875D01*
X420646Y-184980D01*
X421819Y-185213D01*
X422020Y-185699D01*
X421632Y-187650D01*
X422020Y-189601D01*
X423125Y-191255D01*
X423278Y-191357D01*
X423299Y-191398D01*
X423326Y-191467D01*
X423354Y-191558D01*
X423380Y-191673D01*
X423396Y-191781D01*
Y-213548D01*
X368567Y-268377D01*
X367352Y-268008D01*
X367219Y-267338D01*
X365994Y-265506D01*
X364162Y-264281D01*
X363270Y-264104D01*
Y-269500D01*
X362000D01*
Y-270770D01*
X356604D01*
X356782Y-271662D01*
X358006Y-273494D01*
X359838Y-274719D01*
X360508Y-274852D01*
X360877Y-276067D01*
X326468Y-310476D01*
X282965D01*
X282580Y-309206D01*
X283554Y-308555D01*
X284660Y-306901D01*
X285048Y-304950D01*
X284660Y-302999D01*
X283554Y-301345D01*
X281901Y-300240D01*
X279950Y-299852D01*
X279769Y-299888D01*
X279726Y-299873D01*
X279657Y-299844D01*
X279573Y-299799D01*
X279474Y-299736D01*
X279386Y-299671D01*
X240897Y-261182D01*
X239816Y-260460D01*
X238540Y-260206D01*
X154631D01*
X154523Y-260189D01*
X154409Y-260164D01*
X154318Y-260136D01*
X154248Y-260109D01*
X154207Y-260088D01*
X154105Y-259935D01*
X152451Y-258830D01*
X150500Y-258442D01*
X148549Y-258830D01*
X146895Y-259935D01*
X145790Y-261589D01*
X145402Y-263540D01*
X145790Y-265491D01*
X146895Y-267145D01*
X148549Y-268250D01*
X150500Y-268638D01*
X152451Y-268250D01*
X154105Y-267145D01*
X154207Y-266992D01*
X154248Y-266971D01*
X154318Y-266944D01*
X154409Y-266916D01*
X154523Y-266890D01*
X154631Y-266874D01*
X237159D01*
X268895Y-298610D01*
X268387Y-299898D01*
X266895Y-300895D01*
X265790Y-302549D01*
X265402Y-304500D01*
X265438Y-304680D01*
X265423Y-304724D01*
X265394Y-304793D01*
X265349Y-304877D01*
X265286Y-304976D01*
X265221Y-305064D01*
X264349Y-305936D01*
X258463D01*
X257767Y-304666D01*
X258098Y-303000D01*
X257710Y-301049D01*
X256605Y-299395D01*
X254951Y-298290D01*
X253000Y-297902D01*
X251049Y-298290D01*
X249395Y-299395D01*
X249293Y-299548D01*
X249252Y-299569D01*
X249182Y-299596D01*
X249091Y-299624D01*
X248977Y-299650D01*
X248869Y-299666D01*
X125000D01*
X123724Y-299920D01*
X122642Y-300643D01*
X120075Y-303210D01*
X119449Y-302792D01*
X117498Y-302404D01*
X115547Y-302792D01*
X113893Y-303897D01*
X112788Y-305551D01*
X112400Y-307502D01*
X112788Y-309453D01*
X113893Y-311107D01*
X115547Y-312212D01*
X117498Y-312600D01*
X119449Y-312212D01*
X121103Y-311107D01*
X121339Y-310753D01*
X121484Y-310640D01*
X121774Y-310582D01*
X122856Y-309860D01*
X126381Y-306334D01*
X181137D01*
X181798Y-307379D01*
X181779Y-307604D01*
X181402Y-309500D01*
X181790Y-311451D01*
X182895Y-313105D01*
X184549Y-314210D01*
X186500Y-314598D01*
X188451Y-314210D01*
X190105Y-313105D01*
X191210Y-311451D01*
X191598Y-309500D01*
X191221Y-307604D01*
X191202Y-307379D01*
X191863Y-306334D01*
X243871D01*
X244256Y-307604D01*
X243290Y-309049D01*
X242902Y-311000D01*
X243290Y-312951D01*
X244395Y-314605D01*
X246049Y-315710D01*
X246266Y-315753D01*
X246635Y-316968D01*
X225292Y-338311D01*
X224570Y-339393D01*
X224316Y-340668D01*
Y-442938D01*
X224570Y-444213D01*
X225292Y-445295D01*
X228856Y-448859D01*
Y-482500D01*
X229110Y-483776D01*
X229832Y-484857D01*
X240333Y-495358D01*
X241414Y-496080D01*
X242690Y-496334D01*
X252869D01*
X252977Y-496350D01*
X253091Y-496376D01*
X253182Y-496404D01*
X253252Y-496431D01*
X253293Y-496452D01*
X253395Y-496605D01*
X255049Y-497710D01*
X257000Y-498098D01*
X258951Y-497710D01*
X260605Y-496605D01*
X261710Y-494951D01*
X262098Y-493000D01*
X261710Y-491049D01*
X260605Y-489395D01*
X258951Y-488290D01*
X257000Y-487902D01*
X255049Y-488290D01*
X253395Y-489395D01*
X253293Y-489548D01*
X253252Y-489569D01*
X253182Y-489596D01*
X253091Y-489624D01*
X252977Y-489650D01*
X252869Y-489666D01*
X244071D01*
X241124Y-486718D01*
X241749Y-485548D01*
X242000Y-485598D01*
X243951Y-485210D01*
X245605Y-484105D01*
X246710Y-482451D01*
X247098Y-480500D01*
X246710Y-478549D01*
X245605Y-476895D01*
X243951Y-475790D01*
X242000Y-475402D01*
X241820Y-475438D01*
X241776Y-475424D01*
X241707Y-475394D01*
X241623Y-475349D01*
X241524Y-475286D01*
X241436Y-475221D01*
X240064Y-473849D01*
Y-448297D01*
X241334Y-447366D01*
X242500Y-447598D01*
X244451Y-447210D01*
X246105Y-446105D01*
X247210Y-444451D01*
X247598Y-442500D01*
X247210Y-440549D01*
X246105Y-438895D01*
X245952Y-438793D01*
X245931Y-438752D01*
X245904Y-438682D01*
X245876Y-438591D01*
X245850Y-438477D01*
X245834Y-438369D01*
Y-389889D01*
X245580Y-388614D01*
X244858Y-387532D01*
X240064Y-382738D01*
Y-375463D01*
X241334Y-374767D01*
X243000Y-375098D01*
X244951Y-374710D01*
X246605Y-373605D01*
X247710Y-371951D01*
X248098Y-370000D01*
X247710Y-368049D01*
X246605Y-366395D01*
X246276Y-366175D01*
X246271Y-366169D01*
X246180Y-366087D01*
X246172Y-366077D01*
X246161Y-366062D01*
X246146Y-366035D01*
X246126Y-365991D01*
X246103Y-365923D01*
X246080Y-365829D01*
X246064Y-365732D01*
Y-349151D01*
X258436Y-336779D01*
X258524Y-336714D01*
X258624Y-336651D01*
X258707Y-336606D01*
X258776Y-336576D01*
X258820Y-336562D01*
X259000Y-336598D01*
X260951Y-336210D01*
X261719Y-335697D01*
X261893Y-335625D01*
X262013Y-335545D01*
X262076Y-335510D01*
X262153Y-335474D01*
X262247Y-335439D01*
X262358Y-335405D01*
X262490Y-335374D01*
X262617Y-335352D01*
X262814Y-335334D01*
X285579D01*
X286855Y-335080D01*
X287937Y-334357D01*
X288001Y-334294D01*
X307332D01*
X307817Y-335467D01*
X286642Y-356642D01*
X285920Y-357724D01*
X285666Y-359000D01*
Y-451782D01*
X285920Y-453058D01*
X286589Y-454060D01*
X286402Y-455000D01*
X286790Y-456951D01*
X287895Y-458605D01*
X289549Y-459710D01*
X291500Y-460098D01*
X293451Y-459710D01*
X295105Y-458605D01*
X296210Y-456951D01*
X296598Y-455000D01*
X296210Y-453049D01*
X295105Y-451395D01*
X293451Y-450290D01*
X292334Y-450068D01*
Y-386565D01*
X293604Y-385886D01*
X294089Y-386210D01*
X296040Y-386598D01*
X297991Y-386210D01*
X299645Y-385105D01*
X300750Y-383451D01*
X301138Y-381500D01*
X300750Y-379549D01*
X299645Y-377895D01*
X299492Y-377793D01*
X299471Y-377752D01*
X299444Y-377682D01*
X299416Y-377591D01*
X299390Y-377477D01*
X299374Y-377369D01*
Y-361329D01*
X306369Y-354334D01*
X330000D01*
X331276Y-354080D01*
X332357Y-353358D01*
X396881Y-288834D01*
X515619D01*
X534243Y-307458D01*
X535324Y-308180D01*
X536600Y-308434D01*
X539301D01*
Y-308910D01*
X539456Y-309690D01*
X539898Y-310352D01*
X543708Y-314162D01*
X544370Y-314604D01*
X545150Y-314759D01*
X557850D01*
X558630Y-314604D01*
X559292Y-314162D01*
X563102Y-310352D01*
X563544Y-309690D01*
X563699Y-308910D01*
Y-301290D01*
X563544Y-300510D01*
X563102Y-299848D01*
X559292Y-296038D01*
X558630Y-295596D01*
X557850Y-295441D01*
X545150D01*
X544370Y-295596D01*
X543708Y-296038D01*
X539898Y-299848D01*
X539456Y-300510D01*
X539301Y-301290D01*
Y-301766D01*
X537981D01*
X519357Y-283143D01*
X518276Y-282420D01*
X517000Y-282166D01*
X398708D01*
X398222Y-280993D01*
X456857Y-222358D01*
X457580Y-221276D01*
X457834Y-220000D01*
Y-191861D01*
X457850Y-191753D01*
X457876Y-191639D01*
X457904Y-191548D01*
X457931Y-191478D01*
X457952Y-191437D01*
X458105Y-191335D01*
X459210Y-189681D01*
X459598Y-187730D01*
X459267Y-186064D01*
X459963Y-184794D01*
X465512D01*
X466788Y-184540D01*
X467870Y-183818D01*
X468393Y-183294D01*
X469663Y-183820D01*
Y-223371D01*
X469647Y-223479D01*
X469622Y-223594D01*
X469594Y-223684D01*
X469566Y-223754D01*
X469546Y-223795D01*
X469393Y-223897D01*
X468288Y-225551D01*
X467900Y-227502D01*
X468288Y-229453D01*
X469393Y-231107D01*
X471047Y-232212D01*
X472998Y-232600D01*
X474948Y-232212D01*
X476602Y-231107D01*
X477707Y-229453D01*
X478095Y-227502D01*
X477707Y-225551D01*
X476602Y-223897D01*
X476449Y-223795D01*
X476429Y-223754D01*
X476401Y-223685D01*
X476373Y-223593D01*
X476348Y-223479D01*
X476331Y-223371D01*
Y-209691D01*
X477602Y-209420D01*
X478143Y-210229D01*
X497623Y-229710D01*
X498704Y-230432D01*
X499980Y-230686D01*
X520648D01*
X521924Y-230432D01*
X523005Y-229710D01*
X527993Y-224722D01*
X529166Y-225208D01*
Y-232568D01*
X528049Y-232790D01*
X526395Y-233895D01*
X525290Y-235549D01*
X524902Y-237500D01*
X525290Y-239451D01*
X526395Y-241105D01*
X528049Y-242210D01*
X530000Y-242598D01*
X531951Y-242210D01*
X533436Y-241218D01*
X534706Y-241569D01*
Y-243380D01*
X534960Y-244656D01*
X535682Y-245737D01*
X539496Y-249551D01*
X539533Y-249595D01*
X539456Y-249710D01*
X539301Y-250490D01*
Y-258110D01*
X539456Y-258890D01*
X539898Y-259552D01*
X543708Y-263362D01*
X544370Y-263804D01*
X545150Y-263959D01*
X557850D01*
X558630Y-263804D01*
X559292Y-263362D01*
X563102Y-259552D01*
X563544Y-258890D01*
X563699Y-258110D01*
Y-250490D01*
X563544Y-249710D01*
X563102Y-249048D01*
X559292Y-245238D01*
X558630Y-244796D01*
X557850Y-244641D01*
X545150D01*
X544370Y-244796D01*
X544255Y-244873D01*
X544211Y-244836D01*
X541374Y-241999D01*
Y-237287D01*
X542547Y-236801D01*
X543708Y-237962D01*
X544370Y-238404D01*
X545150Y-238559D01*
X557850D01*
X558630Y-238404D01*
X559292Y-237962D01*
X563102Y-234152D01*
X563544Y-233490D01*
X563699Y-232710D01*
Y-225090D01*
X563544Y-224310D01*
X563102Y-223648D01*
X559292Y-219838D01*
X558630Y-219396D01*
X557850Y-219241D01*
X545150D01*
X544370Y-219396D01*
X543708Y-219838D01*
X542547Y-220999D01*
X541374Y-220513D01*
Y-211887D01*
X542547Y-211401D01*
X543708Y-212562D01*
X544370Y-213004D01*
X545150Y-213159D01*
X557850D01*
X558630Y-213004D01*
X559292Y-212562D01*
X563102Y-208752D01*
X563544Y-208090D01*
X563699Y-207310D01*
Y-199690D01*
X563544Y-198910D01*
X563102Y-198248D01*
X559292Y-194438D01*
X558630Y-193996D01*
X557850Y-193841D01*
X545150D01*
X544370Y-193996D01*
X543708Y-194438D01*
X542547Y-195599D01*
X541374Y-195113D01*
Y-182066D01*
X542547Y-181580D01*
X543319Y-182351D01*
X544159Y-182913D01*
X545150Y-183110D01*
X550230D01*
Y-172900D01*
Y-162690D01*
X545150D01*
X544159Y-162887D01*
X543319Y-163449D01*
X542547Y-164220D01*
X541374Y-163734D01*
Y-155887D01*
X542547Y-155401D01*
X543708Y-156562D01*
X544370Y-157004D01*
X545150Y-157159D01*
X557850D01*
X558630Y-157004D01*
X559292Y-156562D01*
X563102Y-152752D01*
X563544Y-152090D01*
X563699Y-151310D01*
Y-143690D01*
X563544Y-142910D01*
X563102Y-142248D01*
X559292Y-138438D01*
X558630Y-137996D01*
X557850Y-137841D01*
X545150D01*
X544370Y-137996D01*
X543708Y-138438D01*
X542547Y-139599D01*
X541374Y-139113D01*
Y-130487D01*
X542547Y-130001D01*
X543708Y-131162D01*
X544370Y-131604D01*
X545150Y-131759D01*
X557850D01*
X558630Y-131604D01*
X559292Y-131162D01*
X563102Y-127352D01*
X563544Y-126690D01*
X563699Y-125910D01*
Y-118290D01*
X563544Y-117510D01*
X563102Y-116848D01*
X559292Y-113038D01*
X558630Y-112596D01*
X557850Y-112441D01*
X545150D01*
X544370Y-112596D01*
X543708Y-113038D01*
X542547Y-114199D01*
X541374Y-113713D01*
Y-93119D01*
X541120Y-91844D01*
X540397Y-90762D01*
X526483Y-76847D01*
X526901Y-75469D01*
X528162Y-75219D01*
X529994Y-73994D01*
X531219Y-72162D01*
X531396Y-71270D01*
X526000D01*
Y-70000D01*
X524730D01*
Y-64604D01*
X523838Y-64781D01*
X522006Y-66006D01*
X520782Y-67838D01*
X520531Y-69099D01*
X519153Y-69517D01*
X471834Y-22199D01*
Y-21131D01*
X471850Y-21023D01*
X471876Y-20909D01*
X471904Y-20818D01*
X471931Y-20748D01*
X471952Y-20707D01*
X472105Y-20605D01*
X473210Y-18951D01*
X473598Y-17000D01*
X473210Y-15049D01*
X472105Y-13395D01*
X470451Y-12290D01*
X468500Y-11902D01*
X466549Y-12290D01*
X464895Y-13395D01*
X463790Y-15049D01*
X463402Y-17000D01*
X463747Y-18736D01*
X463189Y-19245D01*
X462700Y-19485D01*
X451357Y-8142D01*
X450276Y-7420D01*
X449000Y-7166D01*
D02*
G37*
G36*
X339730Y-129770D02*
X335604D01*
X335781Y-130662D01*
X337006Y-132494D01*
X338838Y-133719D01*
X339730Y-133896D01*
Y-129770D01*
D02*
G37*
G36*
X260000Y-149902D02*
X258049Y-150290D01*
X256395Y-151395D01*
X255290Y-153049D01*
X254902Y-155000D01*
X255290Y-156951D01*
X256395Y-158605D01*
X258049Y-159710D01*
X260000Y-160098D01*
X261951Y-159710D01*
X263605Y-158605D01*
X264710Y-156951D01*
X265098Y-155000D01*
X264710Y-153049D01*
X263605Y-151395D01*
X261951Y-150290D01*
X260000Y-149902D01*
D02*
G37*
G36*
X223500Y-155402D02*
X221549Y-155790D01*
X219895Y-156895D01*
X218790Y-158549D01*
X218402Y-160500D01*
X218790Y-162451D01*
X219895Y-164105D01*
X221549Y-165210D01*
X223500Y-165598D01*
X225451Y-165210D01*
X227105Y-164105D01*
X228210Y-162451D01*
X228598Y-160500D01*
X228210Y-158549D01*
X227105Y-156895D01*
X225451Y-155790D01*
X223500Y-155402D01*
D02*
G37*
G36*
X260000Y-161402D02*
X258049Y-161790D01*
X256395Y-162895D01*
X255290Y-164549D01*
X254902Y-166500D01*
X255290Y-168451D01*
X256395Y-170105D01*
X258049Y-171210D01*
X260000Y-171598D01*
X261951Y-171210D01*
X263605Y-170105D01*
X264710Y-168451D01*
X265098Y-166500D01*
X264710Y-164549D01*
X263605Y-162895D01*
X261951Y-161790D01*
X260000Y-161402D01*
D02*
G37*
G36*
X557850Y-162690D02*
X552770D01*
Y-171630D01*
X564250D01*
Y-169090D01*
X564053Y-168099D01*
X563491Y-167259D01*
X559681Y-163449D01*
X558841Y-162887D01*
X557850Y-162690D01*
D02*
G37*
G36*
X83730Y-168104D02*
X82838Y-168281D01*
X81006Y-169506D01*
X79781Y-171338D01*
X79604Y-172230D01*
X83730D01*
Y-168104D01*
D02*
G37*
G36*
X129270Y-168604D02*
Y-172730D01*
X133396D01*
X133219Y-171838D01*
X131994Y-170006D01*
X130162Y-168782D01*
X129270Y-168604D01*
D02*
G37*
G36*
X412000Y-163442D02*
X410049Y-163830D01*
X408395Y-164935D01*
X407290Y-166589D01*
X406902Y-168540D01*
X407290Y-170491D01*
X408395Y-172145D01*
X410049Y-173250D01*
X412000Y-173638D01*
X413951Y-173250D01*
X415605Y-172145D01*
X416710Y-170491D01*
X417098Y-168540D01*
X416710Y-166589D01*
X415605Y-164935D01*
X413951Y-163830D01*
X412000Y-163442D01*
D02*
G37*
G36*
X345500Y-165402D02*
X343549Y-165790D01*
X341895Y-166895D01*
X340790Y-168549D01*
X340402Y-170500D01*
X340790Y-172451D01*
X341895Y-174105D01*
X343549Y-175210D01*
X345500Y-175598D01*
X347451Y-175210D01*
X349105Y-174105D01*
X350210Y-172451D01*
X350598Y-170500D01*
X350210Y-168549D01*
X349105Y-166895D01*
X347451Y-165790D01*
X345500Y-165402D01*
D02*
G37*
G36*
X382500Y-166902D02*
X380549Y-167290D01*
X378895Y-168395D01*
X377790Y-170049D01*
X377402Y-172000D01*
X377790Y-173951D01*
X378895Y-175605D01*
X380549Y-176710D01*
X382500Y-177098D01*
X384451Y-176710D01*
X386105Y-175605D01*
X387210Y-173951D01*
X387598Y-172000D01*
X387210Y-170049D01*
X386105Y-168395D01*
X384451Y-167290D01*
X382500Y-166902D01*
D02*
G37*
G36*
X86270Y-168104D02*
Y-173500D01*
Y-175260D01*
X86999Y-174531D01*
X87463Y-171786D01*
X87603Y-171966D01*
X87762Y-172126D01*
X87940Y-172268D01*
X88136Y-172390D01*
X88350Y-172494D01*
X88583Y-172579D01*
X88834Y-172645D01*
X89104Y-172692D01*
X89393Y-172721D01*
X89699Y-172730D01*
X89222Y-175270D01*
X88918Y-175277D01*
X88657Y-175301D01*
X88695Y-175352D01*
X88883Y-175575D01*
X89093Y-175797D01*
X87297Y-177593D01*
X87075Y-177383D01*
X86853Y-177195D01*
X86629Y-177031D01*
X86404Y-176888D01*
X86270Y-176816D01*
Y-179485D01*
X128666Y-221881D01*
Y-250384D01*
X128640Y-250616D01*
X128581Y-250928D01*
X128499Y-251224D01*
X128395Y-251507D01*
X128269Y-251780D01*
X128117Y-252047D01*
X127939Y-252310D01*
X127793Y-252492D01*
X89143Y-291143D01*
X88420Y-292224D01*
X88166Y-293500D01*
Y-308384D01*
X88140Y-308616D01*
X88081Y-308928D01*
X87999Y-309224D01*
X87895Y-309507D01*
X87769Y-309781D01*
X87617Y-310047D01*
X87536Y-310166D01*
X59935D01*
X59494Y-309506D01*
X57662Y-308281D01*
X56770Y-308104D01*
Y-313500D01*
Y-318896D01*
X57662Y-318719D01*
X59494Y-317494D01*
X59935Y-316834D01*
X88166D01*
Y-319500D01*
X88420Y-320776D01*
X89143Y-321857D01*
X100142Y-332858D01*
X101224Y-333580D01*
X102500Y-333834D01*
X206335D01*
X206776Y-334494D01*
X207126Y-334728D01*
X206451Y-335790D01*
X204500Y-335402D01*
X202549Y-335790D01*
X200895Y-336895D01*
X199790Y-338549D01*
X199402Y-340500D01*
X199790Y-342451D01*
X200895Y-344105D01*
X202549Y-345210D01*
X204500Y-345598D01*
X206451Y-345210D01*
X208105Y-344105D01*
X209210Y-342451D01*
X209598Y-340500D01*
X209210Y-338549D01*
X208105Y-336895D01*
X207933Y-336781D01*
X208608Y-335719D01*
X209500Y-335896D01*
Y-330500D01*
Y-325104D01*
X208608Y-325281D01*
X206776Y-326506D01*
X206335Y-327166D01*
X157013D01*
X156277Y-326270D01*
X144723D01*
X143987Y-327166D01*
X103881D01*
X94834Y-318119D01*
Y-311000D01*
Y-294881D01*
X132508Y-257207D01*
X132690Y-257061D01*
X132953Y-256883D01*
X133219Y-256731D01*
X133493Y-256605D01*
X133776Y-256501D01*
X134072Y-256419D01*
X134384Y-256360D01*
X134616Y-256334D01*
X241500D01*
X242776Y-256080D01*
X243857Y-255357D01*
X247730Y-251485D01*
Y-248816D01*
X247596Y-248888D01*
X247371Y-249030D01*
X247148Y-249195D01*
X246925Y-249383D01*
X246703Y-249593D01*
X244907Y-247797D01*
X245117Y-247575D01*
X245305Y-247353D01*
X245469Y-247129D01*
X245612Y-246904D01*
X245684Y-246770D01*
X243015D01*
X240119Y-249666D01*
X135509D01*
X135398Y-249646D01*
X135365Y-249635D01*
X135354Y-249602D01*
X135334Y-249491D01*
Y-220500D01*
X135080Y-219224D01*
X134358Y-218143D01*
X94722Y-178507D01*
X95209Y-177334D01*
X123565D01*
X124006Y-177994D01*
X125838Y-179219D01*
X126730Y-179396D01*
Y-174000D01*
Y-168604D01*
X125838Y-168782D01*
X124006Y-170006D01*
X123565Y-170666D01*
X89769D01*
X88994Y-169506D01*
X87162Y-168281D01*
X86270Y-168104D01*
D02*
G37*
G36*
X83730Y-174770D02*
X79604D01*
X79781Y-175662D01*
X81006Y-177494D01*
X82838Y-178719D01*
X83730Y-178896D01*
Y-174770D01*
D02*
G37*
G36*
X133396Y-175270D02*
X129270D01*
Y-179396D01*
X130162Y-179219D01*
X131994Y-177994D01*
X133219Y-176162D01*
X133396Y-175270D01*
D02*
G37*
G36*
X564250Y-174170D02*
X552770D01*
Y-183110D01*
X557850D01*
X558841Y-182913D01*
X559681Y-182351D01*
X563491Y-178541D01*
X564053Y-177701D01*
X564250Y-176710D01*
Y-174170D01*
D02*
G37*
G36*
X249000Y-185402D02*
X247049Y-185790D01*
X245395Y-186895D01*
X244290Y-188549D01*
X243902Y-190500D01*
X244290Y-192451D01*
X245395Y-194105D01*
X247049Y-195210D01*
X249000Y-195598D01*
X250951Y-195210D01*
X252605Y-194105D01*
X253710Y-192451D01*
X254098Y-190500D01*
X253710Y-188549D01*
X252605Y-186895D01*
X250951Y-185790D01*
X249000Y-185402D01*
D02*
G37*
G36*
X343270Y-194104D02*
Y-198230D01*
X347396D01*
X347219Y-197338D01*
X345994Y-195506D01*
X344162Y-194282D01*
X343270Y-194104D01*
D02*
G37*
G36*
X340730D02*
X339838Y-194282D01*
X338006Y-195506D01*
X336781Y-197338D01*
X336604Y-198230D01*
X340730D01*
Y-194104D01*
D02*
G37*
G36*
Y-200770D02*
X340240D01*
X340730Y-201260D01*
Y-200770D01*
D02*
G37*
G36*
X347396D02*
X343270D01*
Y-204896D01*
X344162Y-204719D01*
X345994Y-203494D01*
X347219Y-201662D01*
X347396Y-200770D01*
D02*
G37*
G36*
X290498Y-214404D02*
X288547Y-214792D01*
X286893Y-215897D01*
X285788Y-217551D01*
X285400Y-219502D01*
X285788Y-221453D01*
X286893Y-223107D01*
X288547Y-224212D01*
X290498Y-224600D01*
X292449Y-224212D01*
X294103Y-223107D01*
X295208Y-221453D01*
X295596Y-219502D01*
X295208Y-217551D01*
X294103Y-215897D01*
X292449Y-214792D01*
X290498Y-214404D01*
D02*
G37*
G36*
X292000Y-225902D02*
X290049Y-226290D01*
X288395Y-227395D01*
X287290Y-229049D01*
X286902Y-231000D01*
X287290Y-232951D01*
X288395Y-234605D01*
X290049Y-235710D01*
X292000Y-236098D01*
X293951Y-235710D01*
X295605Y-234605D01*
X296710Y-232951D01*
X297098Y-231000D01*
X296710Y-229049D01*
X295605Y-227395D01*
X293951Y-226290D01*
X292000Y-225902D01*
D02*
G37*
G36*
X250270Y-243740D02*
Y-244230D01*
X250760D01*
X250270Y-243740D01*
D02*
G37*
G36*
X247730Y-240104D02*
X246838Y-240282D01*
X245006Y-241506D01*
X243781Y-243338D01*
X243604Y-244230D01*
X247730D01*
Y-240104D01*
D02*
G37*
G36*
Y-246770D02*
X247240D01*
X247730Y-247260D01*
Y-246770D01*
D02*
G37*
G36*
X254396D02*
X250270D01*
Y-250896D01*
X251162Y-250719D01*
X252994Y-249494D01*
X254219Y-247662D01*
X254396Y-246770D01*
D02*
G37*
G36*
X513750Y-261825D02*
Y-265951D01*
X517876D01*
X517698Y-265059D01*
X516474Y-263227D01*
X514641Y-262002D01*
X513750Y-261825D01*
D02*
G37*
G36*
X511210D02*
X510318Y-262002D01*
X508485Y-263227D01*
X507261Y-265059D01*
X507084Y-265951D01*
X511210D01*
Y-261825D01*
D02*
G37*
G36*
X313000Y-199166D02*
X292000D01*
X290724Y-199420D01*
X289643Y-200142D01*
X250270Y-239515D01*
Y-242184D01*
X250404Y-242112D01*
X250629Y-241970D01*
X250853Y-241805D01*
X251075Y-241617D01*
X251297Y-241407D01*
X253093Y-243203D01*
X252883Y-243425D01*
X252696Y-243647D01*
X252530Y-243871D01*
X252388Y-244096D01*
X252316Y-244230D01*
X254985D01*
X293381Y-205834D01*
X311619D01*
X325166Y-219381D01*
Y-236000D01*
X325420Y-237276D01*
X326143Y-238358D01*
X356015Y-268230D01*
X358684D01*
X358612Y-268096D01*
X358470Y-267871D01*
X358304Y-267647D01*
X358117Y-267425D01*
X357907Y-267203D01*
X359703Y-265407D01*
X359925Y-265617D01*
X360148Y-265805D01*
X360371Y-265970D01*
X360596Y-266112D01*
X360730Y-266184D01*
Y-263515D01*
X331834Y-234619D01*
Y-224515D01*
X332000Y-224379D01*
X334162Y-223949D01*
X335994Y-222724D01*
X337219Y-220892D01*
X337396Y-220000D01*
X332000D01*
Y-217460D01*
X337396D01*
X337219Y-216568D01*
X335994Y-214736D01*
X335334Y-214295D01*
Y-212116D01*
X335360Y-211884D01*
X335419Y-211572D01*
X335501Y-211276D01*
X335605Y-210993D01*
X335731Y-210720D01*
X335883Y-210453D01*
X336061Y-210190D01*
X336207Y-210008D01*
X340730Y-205485D01*
Y-202816D01*
X340596Y-202888D01*
X340371Y-203030D01*
X340148Y-203195D01*
X339925Y-203383D01*
X339703Y-203593D01*
X337907Y-201797D01*
X338117Y-201575D01*
X338304Y-201353D01*
X338470Y-201129D01*
X338612Y-200904D01*
X338684Y-200770D01*
X336015D01*
X329642Y-207142D01*
X329642Y-207143D01*
X326898Y-209887D01*
X325161Y-209946D01*
X315357Y-200142D01*
X314276Y-199420D01*
X313000Y-199166D01*
D02*
G37*
G36*
X291000Y-238402D02*
X289049Y-238790D01*
X287395Y-239895D01*
X286290Y-241549D01*
X285902Y-243500D01*
X286290Y-245451D01*
X287395Y-247105D01*
X287967Y-247487D01*
Y-249014D01*
X287393Y-249397D01*
X286288Y-251051D01*
X285900Y-253002D01*
X286288Y-254953D01*
X287393Y-256607D01*
X287251Y-258040D01*
X286525Y-258525D01*
X285420Y-260179D01*
X285032Y-262130D01*
X285420Y-264081D01*
X286525Y-265735D01*
X288179Y-266840D01*
X290130Y-267228D01*
X292081Y-266840D01*
X293734Y-265735D01*
X294840Y-264081D01*
X295228Y-262130D01*
X294840Y-260179D01*
X293734Y-258525D01*
X293876Y-257092D01*
X294603Y-256607D01*
X295708Y-254953D01*
X296096Y-253002D01*
X295708Y-251051D01*
X294603Y-249397D01*
X294031Y-249016D01*
Y-247488D01*
X294605Y-247105D01*
X295710Y-245451D01*
X296098Y-243500D01*
X295710Y-241549D01*
X294605Y-239895D01*
X292951Y-238790D01*
X291000Y-238402D01*
D02*
G37*
G36*
X360730Y-267740D02*
X360240Y-268230D01*
X360730D01*
Y-267740D01*
D02*
G37*
G36*
X107000Y-258902D02*
X105049Y-259290D01*
X103395Y-260395D01*
X102290Y-262049D01*
X101902Y-264000D01*
X102290Y-265951D01*
X103395Y-267605D01*
X105049Y-268710D01*
X107000Y-269098D01*
X108951Y-268710D01*
X110605Y-267605D01*
X111710Y-265951D01*
X112098Y-264000D01*
X111710Y-262049D01*
X110605Y-260395D01*
X108951Y-259290D01*
X107000Y-258902D01*
D02*
G37*
G36*
X533000Y-261902D02*
X531049Y-262290D01*
X529395Y-263395D01*
X528290Y-265049D01*
X527902Y-267000D01*
X528290Y-268951D01*
X529395Y-270605D01*
X531049Y-271710D01*
X533000Y-272098D01*
X534951Y-271710D01*
X536605Y-270605D01*
X537710Y-268951D01*
X538098Y-267000D01*
X537710Y-265049D01*
X536605Y-263395D01*
X534951Y-262290D01*
X533000Y-261902D01*
D02*
G37*
G36*
X517876Y-268491D02*
X513750D01*
Y-272617D01*
X514641Y-272439D01*
X516474Y-271215D01*
X517698Y-269382D01*
X517876Y-268491D01*
D02*
G37*
G36*
X511210D02*
X507084D01*
X507261Y-269382D01*
X508485Y-271215D01*
X510318Y-272439D01*
X511210Y-272617D01*
Y-268491D01*
D02*
G37*
G36*
X139817Y-268586D02*
X137866Y-268974D01*
X136212Y-270079D01*
X135107Y-271733D01*
X134719Y-273683D01*
X135107Y-275634D01*
X136212Y-277288D01*
X137866Y-278393D01*
X139817Y-278782D01*
X141767Y-278393D01*
X143421Y-277288D01*
X144526Y-275634D01*
X144914Y-273683D01*
X144526Y-271733D01*
X143421Y-270079D01*
X141767Y-268974D01*
X139817Y-268586D01*
D02*
G37*
G36*
X157770Y-269902D02*
X155819Y-270290D01*
X154165Y-271395D01*
X153060Y-273049D01*
X152672Y-275000D01*
X153060Y-276951D01*
X154165Y-278605D01*
X155819Y-279710D01*
X157770Y-280098D01*
X159721Y-279710D01*
X161375Y-278605D01*
X162480Y-276951D01*
X162868Y-275000D01*
X162480Y-273049D01*
X161375Y-271395D01*
X159721Y-270290D01*
X157770Y-269902D01*
D02*
G37*
G36*
X557850Y-270041D02*
X545150D01*
X544370Y-270196D01*
X543708Y-270638D01*
X539898Y-274448D01*
X539456Y-275110D01*
X539301Y-275890D01*
Y-283510D01*
X539456Y-284290D01*
X539898Y-284952D01*
X543708Y-288762D01*
X544370Y-289204D01*
X545150Y-289359D01*
X557850D01*
X558630Y-289204D01*
X559292Y-288762D01*
X563102Y-284952D01*
X563544Y-284290D01*
X563699Y-283510D01*
Y-275890D01*
X563544Y-275110D01*
X563102Y-274448D01*
X559292Y-270638D01*
X558630Y-270196D01*
X557850Y-270041D01*
D02*
G37*
G36*
X306000Y-284902D02*
X304049Y-285290D01*
X302395Y-286395D01*
X301290Y-288049D01*
X300902Y-290000D01*
X301290Y-291951D01*
X302395Y-293605D01*
X304049Y-294710D01*
X306000Y-295098D01*
X307951Y-294710D01*
X309605Y-293605D01*
X310710Y-291951D01*
X311098Y-290000D01*
X310710Y-288049D01*
X309605Y-286395D01*
X307951Y-285290D01*
X306000Y-284902D01*
D02*
G37*
G36*
X476500Y-293902D02*
X474549Y-294290D01*
X472895Y-295395D01*
X471790Y-297049D01*
X471402Y-299000D01*
X471790Y-300951D01*
X472895Y-302605D01*
X474549Y-303710D01*
X476500Y-304098D01*
X478451Y-303710D01*
X480105Y-302605D01*
X481210Y-300951D01*
X481598Y-299000D01*
X481210Y-297049D01*
X480105Y-295395D01*
X478451Y-294290D01*
X476500Y-293902D01*
D02*
G37*
G36*
X54230Y-308104D02*
X53338Y-308281D01*
X51506Y-309506D01*
X50282Y-311338D01*
X50104Y-312230D01*
X54230D01*
Y-308104D01*
D02*
G37*
G36*
X512000Y-303402D02*
X510049Y-303790D01*
X508395Y-304895D01*
X507290Y-306549D01*
X506902Y-308500D01*
X507290Y-310451D01*
X508395Y-312105D01*
X510049Y-313210D01*
X512000Y-313598D01*
X513951Y-313210D01*
X515605Y-312105D01*
X516710Y-310451D01*
X517098Y-308500D01*
X516710Y-306549D01*
X515605Y-304895D01*
X513951Y-303790D01*
X512000Y-303402D01*
D02*
G37*
G36*
X54230Y-314770D02*
X50104D01*
X50282Y-315662D01*
X51506Y-317494D01*
X53338Y-318719D01*
X54230Y-318896D01*
Y-314770D01*
D02*
G37*
G36*
X384768Y-316106D02*
Y-320232D01*
X388894D01*
X388716Y-319340D01*
X387492Y-317508D01*
X385659Y-316283D01*
X384768Y-316106D01*
D02*
G37*
G36*
X382228D02*
X381336Y-316283D01*
X379504Y-317508D01*
X378279Y-319340D01*
X378102Y-320232D01*
X382228D01*
Y-316106D01*
D02*
G37*
G36*
X151770Y-319604D02*
Y-323730D01*
X155896D01*
X155719Y-322838D01*
X154494Y-321006D01*
X152662Y-319781D01*
X151770Y-319604D01*
D02*
G37*
G36*
X149230D02*
X148338Y-319781D01*
X146506Y-321006D01*
X145281Y-322838D01*
X145104Y-323730D01*
X149230D01*
Y-319604D01*
D02*
G37*
G36*
X124500Y-313902D02*
X122549Y-314290D01*
X120895Y-315395D01*
X119790Y-317049D01*
X119402Y-319000D01*
X119790Y-320951D01*
X120895Y-322605D01*
X122549Y-323710D01*
X124500Y-324098D01*
X126451Y-323710D01*
X128105Y-322605D01*
X129210Y-320951D01*
X129598Y-319000D01*
X129210Y-317049D01*
X128105Y-315395D01*
X126451Y-314290D01*
X124500Y-313902D01*
D02*
G37*
G36*
X388894Y-322772D02*
X384768D01*
Y-326898D01*
X385659Y-326721D01*
X387492Y-325496D01*
X388716Y-323663D01*
X388894Y-322772D01*
D02*
G37*
G36*
X382228D02*
X378102D01*
X378279Y-323663D01*
X379504Y-325496D01*
X381336Y-326721D01*
X382228Y-326898D01*
Y-322772D01*
D02*
G37*
G36*
X557850Y-320290D02*
X552770D01*
Y-329230D01*
X564250D01*
Y-326690D01*
X564053Y-325699D01*
X563491Y-324859D01*
X559681Y-321049D01*
X558841Y-320487D01*
X557850Y-320290D01*
D02*
G37*
G36*
X212040Y-325104D02*
Y-329230D01*
X216166D01*
X215989Y-328338D01*
X214764Y-326506D01*
X212932Y-325281D01*
X212040Y-325104D01*
D02*
G37*
G36*
X550230Y-320290D02*
X545150D01*
X544159Y-320487D01*
X543319Y-321049D01*
X539509Y-324859D01*
X538947Y-325699D01*
X538750Y-326690D01*
Y-329230D01*
X550230D01*
Y-320290D01*
D02*
G37*
G36*
X216166Y-331770D02*
X212040D01*
Y-335896D01*
X212932Y-335719D01*
X214764Y-334494D01*
X215989Y-332662D01*
X216166Y-331770D01*
D02*
G37*
G36*
X564250D02*
X552770D01*
Y-340710D01*
X557850D01*
X558841Y-340513D01*
X559681Y-339951D01*
X563491Y-336141D01*
X564053Y-335301D01*
X564250Y-334310D01*
Y-331770D01*
D02*
G37*
G36*
X550230D02*
X538750D01*
Y-334310D01*
X538947Y-335301D01*
X539509Y-336141D01*
X543319Y-339951D01*
X544159Y-340513D01*
X545150Y-340710D01*
X550230D01*
Y-331770D01*
D02*
G37*
G36*
X512270Y-344604D02*
Y-348730D01*
X516396D01*
X516219Y-347838D01*
X514994Y-346006D01*
X513162Y-344781D01*
X512270Y-344604D01*
D02*
G37*
G36*
X509730D02*
X508838Y-344781D01*
X507006Y-346006D01*
X505781Y-347838D01*
X505604Y-348730D01*
X509730D01*
Y-344604D01*
D02*
G37*
G36*
X516396Y-351270D02*
X512270D01*
Y-355396D01*
X513162Y-355219D01*
X514994Y-353994D01*
X516219Y-352162D01*
X516396Y-351270D01*
D02*
G37*
G36*
X509730D02*
X505604D01*
X505781Y-352162D01*
X507006Y-353994D01*
X508838Y-355219D01*
X509730Y-355396D01*
Y-351270D01*
D02*
G37*
G36*
X111000Y-358402D02*
X109049Y-358790D01*
X107395Y-359895D01*
X106290Y-361549D01*
X105902Y-363500D01*
X106290Y-365451D01*
X107395Y-367105D01*
X109049Y-368210D01*
X111000Y-368598D01*
X112951Y-368210D01*
X114605Y-367105D01*
X115710Y-365451D01*
X116098Y-363500D01*
X115710Y-361549D01*
X114605Y-359895D01*
X112951Y-358790D01*
X111000Y-358402D01*
D02*
G37*
G36*
X499500Y-366902D02*
X497549Y-367290D01*
X495895Y-368395D01*
X494790Y-370049D01*
X494402Y-372000D01*
X494790Y-373951D01*
X495895Y-375605D01*
X497549Y-376710D01*
X499500Y-377098D01*
X501451Y-376710D01*
X503105Y-375605D01*
X504210Y-373951D01*
X504598Y-372000D01*
X504210Y-370049D01*
X503105Y-368395D01*
X501451Y-367290D01*
X499500Y-366902D01*
D02*
G37*
G36*
X436500Y-373132D02*
X434549Y-373520D01*
X432895Y-374625D01*
X431790Y-376279D01*
X431402Y-378230D01*
X431790Y-380181D01*
X432895Y-381835D01*
X434549Y-382940D01*
X436500Y-383328D01*
X438451Y-382940D01*
X440105Y-381835D01*
X441210Y-380181D01*
X441598Y-378230D01*
X441210Y-376279D01*
X440105Y-374625D01*
X438451Y-373520D01*
X436500Y-373132D01*
D02*
G37*
G36*
X330350Y-381490D02*
X325270D01*
Y-390430D01*
X336750D01*
Y-387890D01*
X336553Y-386899D01*
X335991Y-386059D01*
X332181Y-382249D01*
X331341Y-381687D01*
X330350Y-381490D01*
D02*
G37*
G36*
X322730D02*
X317650D01*
X316659Y-381687D01*
X315819Y-382249D01*
X312009Y-386059D01*
X311447Y-386899D01*
X311250Y-387890D01*
Y-390430D01*
X322730D01*
Y-381490D01*
D02*
G37*
G36*
X543714Y-382397D02*
X541203Y-382728D01*
X538862Y-383697D01*
X536853Y-385239D01*
X535311Y-387248D01*
X534342Y-389589D01*
X534011Y-392100D01*
X534342Y-394611D01*
X535311Y-396951D01*
X536853Y-398961D01*
X538862Y-400503D01*
X541203Y-401472D01*
X543714Y-401803D01*
X546225Y-401472D01*
X548565Y-400503D01*
X550575Y-398961D01*
X552117Y-396951D01*
X553086Y-394611D01*
X553417Y-392100D01*
X553086Y-389589D01*
X552117Y-387248D01*
X550575Y-385239D01*
X548565Y-383697D01*
X546225Y-382728D01*
X543714Y-382397D01*
D02*
G37*
G36*
X355500D02*
X352989Y-382728D01*
X350648Y-383697D01*
X348639Y-385239D01*
X347097Y-387248D01*
X346128Y-389589D01*
X345797Y-392100D01*
X346128Y-394611D01*
X347097Y-396951D01*
X348639Y-398961D01*
X350648Y-400503D01*
X352989Y-401472D01*
X355500Y-401803D01*
X358011Y-401472D01*
X360351Y-400503D01*
X362361Y-398961D01*
X363903Y-396951D01*
X364872Y-394611D01*
X365203Y-392100D01*
X364872Y-389589D01*
X363903Y-387248D01*
X362361Y-385239D01*
X360351Y-383697D01*
X358011Y-382728D01*
X355500Y-382397D01*
D02*
G37*
G36*
X336750Y-392970D02*
X325270D01*
Y-401910D01*
X330350D01*
X331341Y-401713D01*
X332181Y-401151D01*
X335991Y-397341D01*
X336553Y-396501D01*
X336750Y-395510D01*
Y-392970D01*
D02*
G37*
G36*
X322730D02*
X311250D01*
Y-395510D01*
X311447Y-396501D01*
X312009Y-397341D01*
X315819Y-401151D01*
X316659Y-401713D01*
X317650Y-401910D01*
X322730D01*
Y-392970D01*
D02*
G37*
G36*
X98270Y-399604D02*
Y-403730D01*
X102396D01*
X102219Y-402838D01*
X100994Y-401006D01*
X99162Y-399781D01*
X98270Y-399604D01*
D02*
G37*
G36*
X95730D02*
X94838Y-399781D01*
X93006Y-401006D01*
X91782Y-402838D01*
X91604Y-403730D01*
X95730D01*
Y-399604D01*
D02*
G37*
G36*
X425500Y-398402D02*
X423549Y-398790D01*
X421895Y-399895D01*
X420790Y-401549D01*
X420402Y-403500D01*
X420790Y-405451D01*
X421895Y-407105D01*
X423549Y-408210D01*
X425500Y-408598D01*
X427451Y-408210D01*
X429105Y-407105D01*
X429194Y-406971D01*
X430678Y-407037D01*
X431393Y-408106D01*
X433047Y-409212D01*
X434998Y-409600D01*
X436949Y-409212D01*
X438602Y-408106D01*
X439707Y-406453D01*
X440095Y-404502D01*
X439707Y-402551D01*
X438602Y-400897D01*
X436949Y-399792D01*
X434998Y-399404D01*
X433047Y-399792D01*
X431393Y-400897D01*
X431303Y-401031D01*
X429820Y-400965D01*
X429105Y-399895D01*
X427451Y-398790D01*
X425500Y-398402D01*
D02*
G37*
G36*
X102396Y-406270D02*
X98270D01*
Y-410396D01*
X99162Y-410219D01*
X100994Y-408994D01*
X102219Y-407162D01*
X102396Y-406270D01*
D02*
G37*
G36*
X95730D02*
X91604D01*
X91782Y-407162D01*
X93006Y-408994D01*
X94838Y-410219D01*
X95730Y-410396D01*
Y-406270D01*
D02*
G37*
G36*
X129770Y-411604D02*
Y-415730D01*
X133896D01*
X133719Y-414838D01*
X132494Y-413006D01*
X130662Y-411781D01*
X129770Y-411604D01*
D02*
G37*
G36*
X127230D02*
X126338Y-411781D01*
X124506Y-413006D01*
X123281Y-414838D01*
X123104Y-415730D01*
X127230D01*
Y-411604D01*
D02*
G37*
G36*
X133896Y-418270D02*
X129770D01*
Y-422396D01*
X130662Y-422219D01*
X132494Y-420994D01*
X133719Y-419162D01*
X133896Y-418270D01*
D02*
G37*
G36*
X127230D02*
X123104D01*
X123281Y-419162D01*
X124506Y-420994D01*
X126338Y-422219D01*
X127230Y-422396D01*
Y-418270D01*
D02*
G37*
G36*
X330350Y-407441D02*
X317650D01*
X316870Y-407596D01*
X316208Y-408038D01*
X312398Y-411848D01*
X311956Y-412510D01*
X311801Y-413290D01*
Y-420910D01*
X311956Y-421690D01*
X312398Y-422352D01*
X316208Y-426162D01*
X316870Y-426604D01*
X317650Y-426759D01*
X330350D01*
X331130Y-426604D01*
X331792Y-426162D01*
X335602Y-422352D01*
X336044Y-421690D01*
X336199Y-420910D01*
Y-413290D01*
X336044Y-412510D01*
X335602Y-411848D01*
X331792Y-408038D01*
X331130Y-407596D01*
X330350Y-407441D01*
D02*
G37*
G36*
X543714Y-407797D02*
X541203Y-408128D01*
X538862Y-409097D01*
X536853Y-410639D01*
X535311Y-412649D01*
X534342Y-414989D01*
X534011Y-417500D01*
X534342Y-420011D01*
X535311Y-422351D01*
X536853Y-424361D01*
X538862Y-425903D01*
X541203Y-426872D01*
X543714Y-427203D01*
X546225Y-426872D01*
X548565Y-425903D01*
X550575Y-424361D01*
X552117Y-422351D01*
X553086Y-420011D01*
X553417Y-417500D01*
X553086Y-414989D01*
X552117Y-412649D01*
X550575Y-410639D01*
X548565Y-409097D01*
X546225Y-408128D01*
X543714Y-407797D01*
D02*
G37*
G36*
X355500D02*
X352989Y-408128D01*
X350648Y-409097D01*
X348639Y-410639D01*
X347097Y-412649D01*
X346128Y-414989D01*
X345797Y-417500D01*
X346128Y-420011D01*
X347097Y-422351D01*
X348639Y-424361D01*
X350648Y-425903D01*
X352989Y-426872D01*
X355500Y-427203D01*
X358011Y-426872D01*
X360351Y-425903D01*
X362361Y-424361D01*
X363903Y-422351D01*
X364872Y-420011D01*
X365203Y-417500D01*
X364872Y-414989D01*
X363903Y-412649D01*
X362361Y-410639D01*
X360351Y-409097D01*
X358011Y-408128D01*
X355500Y-407797D01*
D02*
G37*
G36*
X255500Y-424402D02*
X253549Y-424790D01*
X251895Y-425895D01*
X250790Y-427549D01*
X250402Y-429500D01*
X250790Y-431451D01*
X251895Y-433105D01*
X253549Y-434210D01*
X255500Y-434598D01*
X257451Y-434210D01*
X259105Y-433105D01*
X260210Y-431451D01*
X260598Y-429500D01*
X260210Y-427549D01*
X259105Y-425895D01*
X257451Y-424790D01*
X255500Y-424402D01*
D02*
G37*
G36*
X330350Y-432841D02*
X317650D01*
X316870Y-432996D01*
X316208Y-433438D01*
X312398Y-437248D01*
X311956Y-437910D01*
X311801Y-438690D01*
Y-446310D01*
X311956Y-447090D01*
X312398Y-447752D01*
X316208Y-451562D01*
X316870Y-452004D01*
X317650Y-452159D01*
X330350D01*
X331130Y-452004D01*
X331792Y-451562D01*
X335602Y-447752D01*
X336044Y-447090D01*
X336199Y-446310D01*
Y-438690D01*
X336044Y-437910D01*
X335602Y-437248D01*
X331792Y-433438D01*
X331130Y-432996D01*
X330350Y-432841D01*
D02*
G37*
G36*
X434730Y-472104D02*
X433838Y-472281D01*
X432006Y-473506D01*
X431264Y-474617D01*
X429736D01*
X428994Y-473506D01*
X427162Y-472281D01*
X426270Y-472104D01*
Y-477500D01*
Y-482896D01*
X427162Y-482719D01*
X428994Y-481494D01*
X429736Y-480383D01*
X431264D01*
X432006Y-481494D01*
X433838Y-482719D01*
X434730Y-482896D01*
Y-477500D01*
Y-472104D01*
D02*
G37*
G36*
X503770D02*
Y-476230D01*
X507896D01*
X507719Y-475338D01*
X506494Y-473506D01*
X504662Y-472281D01*
X503770Y-472104D01*
D02*
G37*
G36*
X501230D02*
X500338Y-472281D01*
X498506Y-473506D01*
X497281Y-475338D01*
X497104Y-476230D01*
X501230D01*
Y-472104D01*
D02*
G37*
G36*
X437270D02*
Y-476230D01*
X441396D01*
X441218Y-475338D01*
X439994Y-473506D01*
X438162Y-472281D01*
X437270Y-472104D01*
D02*
G37*
G36*
X423730D02*
X422838Y-472281D01*
X421006Y-473506D01*
X419781Y-475338D01*
X419604Y-476230D01*
X423730D01*
Y-472104D01*
D02*
G37*
G36*
X330850Y-461841D02*
X318150D01*
X317370Y-461996D01*
X316708Y-462438D01*
X312898Y-466248D01*
X312456Y-466910D01*
X312301Y-467690D01*
Y-475310D01*
X312456Y-476090D01*
X312898Y-476752D01*
X316708Y-480562D01*
X317370Y-481004D01*
X318150Y-481159D01*
X330850D01*
X331630Y-481004D01*
X332292Y-480562D01*
X336102Y-476752D01*
X336544Y-476090D01*
X336699Y-475310D01*
Y-467690D01*
X336544Y-466910D01*
X336102Y-466248D01*
X332292Y-462438D01*
X331630Y-461996D01*
X330850Y-461841D01*
D02*
G37*
G36*
X507896Y-478770D02*
X503770D01*
Y-482896D01*
X504662Y-482719D01*
X506494Y-481494D01*
X507719Y-479662D01*
X507896Y-478770D01*
D02*
G37*
G36*
X501230D02*
X497104D01*
X497281Y-479662D01*
X498506Y-481494D01*
X500338Y-482719D01*
X501230Y-482896D01*
Y-478770D01*
D02*
G37*
G36*
X441396D02*
X437270D01*
Y-482896D01*
X438162Y-482719D01*
X439994Y-481494D01*
X441218Y-479662D01*
X441396Y-478770D01*
D02*
G37*
G36*
X423730D02*
X419604D01*
X419781Y-479662D01*
X421006Y-481494D01*
X422838Y-482719D01*
X423730Y-482896D01*
Y-478770D01*
D02*
G37*
G36*
X356262Y-491748D02*
Y-500558D01*
X365073D01*
X364891Y-499176D01*
X363867Y-496704D01*
X362238Y-494582D01*
X360116Y-492953D01*
X357644Y-491930D01*
X356262Y-491748D01*
D02*
G37*
G36*
X353722D02*
X352340Y-491930D01*
X349868Y-492953D01*
X347746Y-494582D01*
X346117Y-496704D01*
X345093Y-499176D01*
X344911Y-500558D01*
X353722D01*
Y-491748D01*
D02*
G37*
G36*
X330850Y-487241D02*
X318150D01*
X317370Y-487396D01*
X316708Y-487838D01*
X312898Y-491648D01*
X312456Y-492310D01*
X312301Y-493090D01*
Y-500710D01*
X312456Y-501490D01*
X312898Y-502152D01*
X316708Y-505962D01*
X317370Y-506404D01*
X318150Y-506559D01*
X330850D01*
X331630Y-506404D01*
X332292Y-505962D01*
X336102Y-502152D01*
X336544Y-501490D01*
X336699Y-500710D01*
Y-493090D01*
X336544Y-492310D01*
X336102Y-491648D01*
X332292Y-487838D01*
X331630Y-487396D01*
X330850Y-487241D01*
D02*
G37*
G36*
X75000Y-499402D02*
X73049Y-499790D01*
X71395Y-500895D01*
X70290Y-502549D01*
X69902Y-504500D01*
X70290Y-506451D01*
X71395Y-508105D01*
X73049Y-509210D01*
X75000Y-509598D01*
X76951Y-509210D01*
X78605Y-508105D01*
X79710Y-506451D01*
X80098Y-504500D01*
X79710Y-502549D01*
X78605Y-500895D01*
X76951Y-499790D01*
X75000Y-499402D01*
D02*
G37*
G36*
X543206Y-492125D02*
X540695Y-492456D01*
X538354Y-493425D01*
X536345Y-494967D01*
X534803Y-496977D01*
X533834Y-499317D01*
X533503Y-501828D01*
X533834Y-504339D01*
X534803Y-506679D01*
X536345Y-508689D01*
X538354Y-510231D01*
X540695Y-511200D01*
X543206Y-511531D01*
X545717Y-511200D01*
X548058Y-510231D01*
X550067Y-508689D01*
X551609Y-506679D01*
X552578Y-504339D01*
X552909Y-501828D01*
X552578Y-499317D01*
X551609Y-496977D01*
X550067Y-494967D01*
X548058Y-493425D01*
X545717Y-492456D01*
X543206Y-492125D01*
D02*
G37*
G36*
X365073Y-503098D02*
X356262D01*
Y-511908D01*
X357644Y-511726D01*
X360116Y-510703D01*
X362238Y-509074D01*
X363867Y-506952D01*
X364891Y-504480D01*
X365073Y-503098D01*
D02*
G37*
G36*
X353722D02*
X344911D01*
X345093Y-504480D01*
X346117Y-506952D01*
X347746Y-509074D01*
X349868Y-510703D01*
X352340Y-511726D01*
X353722Y-511908D01*
Y-503098D01*
D02*
G37*
G36*
X30353Y-502362D02*
X28402Y-502750D01*
X26748Y-503855D01*
X25643Y-505509D01*
X25255Y-507460D01*
X25643Y-509411D01*
X26748Y-511065D01*
X28402Y-512170D01*
X30353Y-512558D01*
X32304Y-512170D01*
X33958Y-511065D01*
X35063Y-509411D01*
X35451Y-507460D01*
X35063Y-505509D01*
X33958Y-503855D01*
X32304Y-502750D01*
X30353Y-502362D01*
D02*
G37*
G36*
X60000Y-505902D02*
X58049Y-506290D01*
X56395Y-507395D01*
X55290Y-509049D01*
X54902Y-511000D01*
X55290Y-512951D01*
X56395Y-514605D01*
X58049Y-515710D01*
X60000Y-516098D01*
X61951Y-515710D01*
X63605Y-514605D01*
X64710Y-512951D01*
X65098Y-511000D01*
X64710Y-509049D01*
X63605Y-507395D01*
X61951Y-506290D01*
X60000Y-505902D01*
D02*
G37*
G36*
X356262Y-517147D02*
Y-525958D01*
X365073D01*
X364891Y-524576D01*
X363867Y-522104D01*
X362238Y-519982D01*
X360116Y-518353D01*
X357644Y-517329D01*
X356262Y-517147D01*
D02*
G37*
G36*
X353722D02*
X352340Y-517329D01*
X349868Y-518353D01*
X347746Y-519982D01*
X346117Y-522104D01*
X345093Y-524576D01*
X344911Y-525958D01*
X353722D01*
Y-517147D01*
D02*
G37*
G36*
X330850Y-512641D02*
X318150D01*
X317370Y-512796D01*
X316708Y-513238D01*
X312898Y-517048D01*
X312456Y-517710D01*
X312301Y-518490D01*
Y-526110D01*
X312456Y-526890D01*
X312898Y-527552D01*
X316708Y-531362D01*
X317370Y-531804D01*
X318150Y-531959D01*
X330850D01*
X331630Y-531804D01*
X332292Y-531362D01*
X336102Y-527552D01*
X336544Y-526890D01*
X336699Y-526110D01*
Y-518490D01*
X336544Y-517710D01*
X336102Y-517048D01*
X332292Y-513238D01*
X331630Y-512796D01*
X330850Y-512641D01*
D02*
G37*
G36*
X543206Y-517525D02*
X540695Y-517856D01*
X538354Y-518825D01*
X536345Y-520367D01*
X534803Y-522377D01*
X533834Y-524717D01*
X533503Y-527228D01*
X533834Y-529739D01*
X534803Y-532080D01*
X536345Y-534089D01*
X538354Y-535631D01*
X540695Y-536600D01*
X543206Y-536931D01*
X545717Y-536600D01*
X548058Y-535631D01*
X550067Y-534089D01*
X551609Y-532080D01*
X552578Y-529739D01*
X552909Y-527228D01*
X552578Y-524717D01*
X551609Y-522377D01*
X550067Y-520367D01*
X548058Y-518825D01*
X545717Y-517856D01*
X543206Y-517525D01*
D02*
G37*
G36*
X365073Y-528498D02*
X356262D01*
Y-537309D01*
X357644Y-537127D01*
X360116Y-536103D01*
X362238Y-534474D01*
X363867Y-532352D01*
X364891Y-529880D01*
X365073Y-528498D01*
D02*
G37*
G36*
X353722D02*
X344911D01*
X345093Y-529880D01*
X346117Y-532352D01*
X347746Y-534474D01*
X349868Y-536103D01*
X352340Y-537127D01*
X353722Y-537309D01*
Y-528498D01*
D02*
G37*
G36*
X196000Y-537402D02*
X194049Y-537790D01*
X192395Y-538895D01*
X191290Y-540549D01*
X190902Y-542500D01*
X191290Y-544451D01*
X192395Y-546105D01*
X194049Y-547210D01*
X196000Y-547598D01*
X197951Y-547210D01*
X199605Y-546105D01*
X200710Y-544451D01*
X201098Y-542500D01*
X200710Y-540549D01*
X199605Y-538895D01*
X197951Y-537790D01*
X196000Y-537402D01*
D02*
G37*
G36*
X97000Y-538902D02*
X95049Y-539290D01*
X93395Y-540395D01*
X92290Y-542049D01*
X91902Y-544000D01*
X92290Y-545951D01*
X93395Y-547605D01*
X95049Y-548710D01*
X97000Y-549098D01*
X98951Y-548710D01*
X100605Y-547605D01*
X101710Y-545951D01*
X102098Y-544000D01*
X101710Y-542049D01*
X100605Y-540395D01*
X98951Y-539290D01*
X97000Y-538902D01*
D02*
G37*
G36*
X124498Y-544903D02*
X122547Y-545291D01*
X120893Y-546397D01*
X119788Y-548050D01*
X119400Y-550001D01*
X119788Y-551952D01*
X120893Y-553606D01*
X122547Y-554711D01*
X124498Y-555099D01*
X126449Y-554711D01*
X128103Y-553606D01*
X129208Y-551952D01*
X129596Y-550001D01*
X129208Y-548050D01*
X128103Y-546397D01*
X126449Y-545291D01*
X124498Y-544903D01*
D02*
G37*
G36*
X105000Y-548902D02*
X103049Y-549290D01*
X101395Y-550395D01*
X100290Y-552049D01*
X99902Y-554000D01*
X100290Y-555951D01*
X101395Y-557605D01*
X103049Y-558710D01*
X105000Y-559098D01*
X106951Y-558710D01*
X108605Y-557605D01*
X109710Y-555951D01*
X110098Y-554000D01*
X109710Y-552049D01*
X108605Y-550395D01*
X106951Y-549290D01*
X105000Y-548902D01*
D02*
G37*
G36*
X165270Y-555604D02*
Y-559730D01*
X169396D01*
X169219Y-558838D01*
X167994Y-557006D01*
X166162Y-555781D01*
X165270Y-555604D01*
D02*
G37*
G36*
X162730D02*
X161838Y-555781D01*
X160006Y-557006D01*
X158781Y-558838D01*
X158604Y-559730D01*
X162730D01*
Y-555604D01*
D02*
G37*
G36*
X52500Y-547402D02*
X50549Y-547790D01*
X48895Y-548895D01*
X47790Y-550549D01*
X47402Y-552500D01*
X47790Y-554451D01*
X48895Y-556105D01*
X50549Y-557210D01*
X50672Y-557506D01*
X49781Y-558838D01*
X49604Y-559730D01*
X60396D01*
X60219Y-558838D01*
X58994Y-557006D01*
X57636Y-556099D01*
X57125Y-554578D01*
X57210Y-554451D01*
X57598Y-552500D01*
X57210Y-550549D01*
X56105Y-548895D01*
X54451Y-547790D01*
X52500Y-547402D01*
D02*
G37*
G36*
X142000Y-555902D02*
X140049Y-556290D01*
X138395Y-557395D01*
X137290Y-559049D01*
X136902Y-561000D01*
X137290Y-562951D01*
X138395Y-564605D01*
X140049Y-565710D01*
X142000Y-566098D01*
X143951Y-565710D01*
X145605Y-564605D01*
X146710Y-562951D01*
X147098Y-561000D01*
X146710Y-559049D01*
X145605Y-557395D01*
X143951Y-556290D01*
X142000Y-555902D01*
D02*
G37*
G36*
X169396Y-562270D02*
X165270D01*
Y-566396D01*
X166162Y-566219D01*
X167994Y-564994D01*
X169219Y-563162D01*
X169396Y-562270D01*
D02*
G37*
G36*
X162730D02*
X158604D01*
X158781Y-563162D01*
X160006Y-564994D01*
X161838Y-566219D01*
X162730Y-566396D01*
Y-562270D01*
D02*
G37*
G36*
X60396D02*
X56270D01*
Y-566396D01*
X57162Y-566219D01*
X58994Y-564994D01*
X60219Y-563162D01*
X60396Y-562270D01*
D02*
G37*
G36*
X53730D02*
X49604D01*
X49781Y-563162D01*
X51006Y-564994D01*
X52838Y-566219D01*
X53730Y-566396D01*
Y-562270D01*
D02*
G37*
G36*
X283210Y-542801D02*
X275590D01*
X274810Y-542956D01*
X274148Y-543398D01*
X270338Y-547208D01*
X269896Y-547870D01*
X269741Y-548650D01*
Y-561350D01*
X269896Y-562131D01*
X270338Y-562792D01*
X274148Y-566602D01*
X274810Y-567044D01*
X275590Y-567199D01*
X283210D01*
X283991Y-567044D01*
X284652Y-566602D01*
X288462Y-562792D01*
X288904Y-562131D01*
X289059Y-561350D01*
Y-548650D01*
X288904Y-547870D01*
X288462Y-547208D01*
X284652Y-543398D01*
X283991Y-542956D01*
X283210Y-542801D01*
D02*
G37*
G36*
X257810D02*
X250190D01*
X249410Y-542956D01*
X248748Y-543398D01*
X244938Y-547208D01*
X244496Y-547870D01*
X244341Y-548650D01*
Y-561350D01*
X244496Y-562131D01*
X244938Y-562792D01*
X248748Y-566602D01*
X249410Y-567044D01*
X250190Y-567199D01*
X257810D01*
X258591Y-567044D01*
X259252Y-566602D01*
X263062Y-562792D01*
X263504Y-562131D01*
X263659Y-561350D01*
Y-548650D01*
X263504Y-547870D01*
X263062Y-547208D01*
X259252Y-543398D01*
X258591Y-542956D01*
X257810Y-542801D01*
D02*
G37*
G36*
X232410D02*
X224790D01*
X224010Y-542956D01*
X223348Y-543398D01*
X219538Y-547208D01*
X219096Y-547870D01*
X218941Y-548650D01*
Y-561350D01*
X219096Y-562131D01*
X219538Y-562792D01*
X223348Y-566602D01*
X224010Y-567044D01*
X224790Y-567199D01*
X232410D01*
X233191Y-567044D01*
X233852Y-566602D01*
X237662Y-562792D01*
X238104Y-562131D01*
X238259Y-561350D01*
Y-548650D01*
X238104Y-547870D01*
X237662Y-547208D01*
X233852Y-543398D01*
X233191Y-542956D01*
X232410Y-542801D01*
D02*
G37*
%LPD*%
G36*
X470442Y-19313D02*
X470301Y-19498D01*
X470177Y-19698D01*
X470069Y-19913D01*
X469977Y-20143D01*
X469903Y-20388D01*
X469845Y-20648D01*
X469803Y-20923D01*
X469778Y-21213D01*
X469770Y-21518D01*
X467230D01*
X467222Y-21213D01*
X467197Y-20923D01*
X467155Y-20648D01*
X467097Y-20388D01*
X467023Y-20143D01*
X466931Y-19913D01*
X466823Y-19698D01*
X466699Y-19498D01*
X466558Y-19313D01*
X466400Y-19142D01*
X470600D01*
X470442Y-19313D01*
D02*
G37*
G36*
X371858Y-34100D02*
X371687Y-33942D01*
X371502Y-33801D01*
X371302Y-33677D01*
X371087Y-33569D01*
X370857Y-33477D01*
X370612Y-33403D01*
X370352Y-33345D01*
X370077Y-33303D01*
X369787Y-33278D01*
X369482Y-33270D01*
Y-30730D01*
X369787Y-30722D01*
X370077Y-30697D01*
X370352Y-30655D01*
X370612Y-30597D01*
X370857Y-30522D01*
X371087Y-30431D01*
X371302Y-30323D01*
X371502Y-30199D01*
X371687Y-30058D01*
X371858Y-29900D01*
Y-34100D01*
D02*
G37*
G36*
X516666Y-103381D02*
Y-106769D01*
X515493Y-107254D01*
X472111Y-63872D01*
X471029Y-63150D01*
X469753Y-62896D01*
X386426D01*
X385270Y-62666D01*
X297970D01*
X297834Y-62500D01*
Y-41000D01*
X297580Y-39724D01*
X296857Y-38642D01*
X289182Y-30967D01*
X289669Y-29794D01*
X322006D01*
X322391Y-31064D01*
X321895Y-31395D01*
X320790Y-33049D01*
X320402Y-35000D01*
X320790Y-36951D01*
X321895Y-38605D01*
X323549Y-39710D01*
X325500Y-40098D01*
X327451Y-39710D01*
X329105Y-38605D01*
X330210Y-36951D01*
X330598Y-35000D01*
X330210Y-33049D01*
X329413Y-31857D01*
X329773Y-30558D01*
X329873Y-30433D01*
X330149Y-30364D01*
X334142Y-34358D01*
X335224Y-35080D01*
X336500Y-35334D01*
X369565D01*
X370006Y-35994D01*
X371838Y-37219D01*
X372730Y-37396D01*
Y-32000D01*
X374000D01*
Y-30730D01*
X379396D01*
X379219Y-29838D01*
X377994Y-28006D01*
X376162Y-26781D01*
X374868Y-26524D01*
X374993Y-25254D01*
X438539D01*
X516666Y-103381D01*
D02*
G37*
G36*
X262157Y-40391D02*
X262075Y-40513D01*
X262003Y-40653D01*
X261941Y-40812D01*
X261888Y-40990D01*
X261845Y-41186D01*
X261811Y-41400D01*
X261787Y-41634D01*
X261768Y-42156D01*
X259228D01*
X259223Y-41885D01*
X259185Y-41400D01*
X259151Y-41186D01*
X259108Y-40990D01*
X259055Y-40812D01*
X258993Y-40653D01*
X258921Y-40513D01*
X258839Y-40391D01*
X258748Y-40288D01*
X262248D01*
X262157Y-40391D01*
D02*
G37*
G36*
X273243Y-46491D02*
X273105Y-46500D01*
X272961Y-46528D01*
X272811Y-46577D01*
X272655Y-46645D01*
X272492Y-46733D01*
X272323Y-46841D01*
X272147Y-46969D01*
X271965Y-47117D01*
X271583Y-47473D01*
X269786Y-45677D01*
X269974Y-45482D01*
X270290Y-45112D01*
X270418Y-44937D01*
X270526Y-44767D01*
X270614Y-44605D01*
X270683Y-44448D01*
X270731Y-44298D01*
X270759Y-44154D01*
X270768Y-44016D01*
X273243Y-46491D01*
D02*
G37*
G36*
X251007Y-44209D02*
X251377Y-44524D01*
X251553Y-44653D01*
X251722Y-44761D01*
X251885Y-44849D01*
X252041Y-44917D01*
X252191Y-44966D01*
X252335Y-44994D01*
X252473Y-45003D01*
X249998Y-47477D01*
X249989Y-47340D01*
X249961Y-47196D01*
X249912Y-47046D01*
X249844Y-46889D01*
X249756Y-46726D01*
X249648Y-46557D01*
X249520Y-46382D01*
X249372Y-46200D01*
X249017Y-45817D01*
X250813Y-44021D01*
X251007Y-44209D01*
D02*
G37*
G36*
X204106Y-48770D02*
X203641Y-48788D01*
X203263Y-48842D01*
X202972Y-48932D01*
X202768Y-49057D01*
X202650Y-49219D01*
X202619Y-49417D01*
X202675Y-49650D01*
X202817Y-49920D01*
X203046Y-50225D01*
X203362Y-50566D01*
X199770D01*
X199403Y-50225D01*
X199022Y-49920D01*
X198625Y-49650D01*
X198214Y-49417D01*
X197788Y-49219D01*
X197347Y-49057D01*
X196891Y-48932D01*
X196420Y-48842D01*
X195935Y-48788D01*
X195434Y-48770D01*
X198500Y-46230D01*
X204106Y-48770D01*
D02*
G37*
G36*
X153106D02*
X152641Y-48788D01*
X152263Y-48842D01*
X151972Y-48932D01*
X151768Y-49057D01*
X151650Y-49219D01*
X151619Y-49417D01*
X151675Y-49650D01*
X151817Y-49920D01*
X152046Y-50225D01*
X152362Y-50566D01*
X148770D01*
X148403Y-50225D01*
X148022Y-49920D01*
X147625Y-49650D01*
X147214Y-49417D01*
X146788Y-49219D01*
X146347Y-49057D01*
X145891Y-48932D01*
X145420Y-48842D01*
X144935Y-48788D01*
X144434Y-48770D01*
X147500Y-46230D01*
X153106Y-48770D01*
D02*
G37*
G36*
X282362Y-59996D02*
X282222Y-59999D01*
X282076Y-60022D01*
X281924Y-60066D01*
X281766Y-60130D01*
X281602Y-60215D01*
X281432Y-60320D01*
X281256Y-60446D01*
X281073Y-60592D01*
X280690Y-60946D01*
X278989Y-59056D01*
X279177Y-58861D01*
X279496Y-58492D01*
X279626Y-58317D01*
X279737Y-58150D01*
X279828Y-57989D01*
X279901Y-57835D01*
X279954Y-57687D01*
X279987Y-57546D01*
X280001Y-57412D01*
X282362Y-59996D01*
D02*
G37*
G36*
X287004Y-64277D02*
X287060Y-64372D01*
X287143Y-64456D01*
X287254Y-64529D01*
X287391Y-64590D01*
X287556Y-64640D01*
X287748Y-64680D01*
X287967Y-64708D01*
X288214Y-64724D01*
X288487Y-64730D01*
X288000Y-67270D01*
X285098Y-66929D01*
X286976Y-64171D01*
X287004Y-64277D01*
D02*
G37*
G36*
X64775Y-66117D02*
X64813Y-66602D01*
X64847Y-66816D01*
X64890Y-67012D01*
X64943Y-67190D01*
X65005Y-67349D01*
X65077Y-67489D01*
X65159Y-67611D01*
X65250Y-67715D01*
X61750D01*
X61841Y-67611D01*
X61923Y-67489D01*
X61995Y-67349D01*
X62057Y-67190D01*
X62110Y-67012D01*
X62153Y-66816D01*
X62187Y-66602D01*
X62211Y-66368D01*
X62230Y-65847D01*
X64770D01*
X64775Y-66117D01*
D02*
G37*
G36*
X100775Y-67117D02*
X100813Y-67602D01*
X100847Y-67816D01*
X100890Y-68012D01*
X100943Y-68190D01*
X101005Y-68349D01*
X101077Y-68489D01*
X101159Y-68611D01*
X101250Y-68715D01*
X97750D01*
X97841Y-68611D01*
X97923Y-68489D01*
X97995Y-68349D01*
X98057Y-68190D01*
X98110Y-68012D01*
X98153Y-67816D01*
X98187Y-67602D01*
X98211Y-67369D01*
X98230Y-66847D01*
X100770D01*
X100775Y-67117D01*
D02*
G37*
G36*
X211773Y-67119D02*
X211811Y-67604D01*
X211845Y-67818D01*
X211888Y-68014D01*
X211941Y-68192D01*
X212003Y-68351D01*
X212075Y-68492D01*
X212157Y-68613D01*
X212248Y-68717D01*
X208748D01*
X208839Y-68613D01*
X208921Y-68492D01*
X208993Y-68351D01*
X209055Y-68192D01*
X209108Y-68014D01*
X209151Y-67818D01*
X209185Y-67604D01*
X209209Y-67371D01*
X209228Y-66849D01*
X211768D01*
X211773Y-67119D01*
D02*
G37*
G36*
X232263Y-52478D02*
X232300Y-52661D01*
X233022Y-53743D01*
X252868Y-73588D01*
X252981Y-73725D01*
X253025Y-73787D01*
X253056Y-73835D01*
X253063Y-73857D01*
X253081Y-73888D01*
X253092Y-73913D01*
X253094Y-73916D01*
X253261Y-74756D01*
X254256Y-76244D01*
X255744Y-77239D01*
X257500Y-77588D01*
X259256Y-77239D01*
X260590Y-76347D01*
X260637Y-76340D01*
X260710Y-76334D01*
X263299D01*
X263708Y-77604D01*
X262752Y-79033D01*
X262614Y-79730D01*
X267500D01*
Y-82270D01*
X266245D01*
X267475Y-83500D01*
X267337Y-83509D01*
X267194Y-83537D01*
X267043Y-83585D01*
X266887Y-83654D01*
X266724Y-83742D01*
X266555Y-83850D01*
X266379Y-83978D01*
X266197Y-84126D01*
X265815Y-84481D01*
X264019Y-82685D01*
X264206Y-82491D01*
X264395Y-82270D01*
X261515D01*
X259349Y-84436D01*
X256696D01*
X255856Y-83166D01*
X256088Y-82000D01*
X255739Y-80244D01*
X254744Y-78756D01*
X253256Y-77761D01*
X251500Y-77412D01*
X249840Y-77742D01*
X249570Y-77530D01*
X248979Y-76745D01*
X249279Y-76296D01*
X249628Y-74540D01*
X249279Y-72784D01*
X248284Y-71296D01*
X246796Y-70301D01*
X245040Y-69952D01*
X243284Y-70301D01*
X241796Y-71296D01*
X240801Y-72784D01*
X240557Y-74014D01*
X240118Y-74718D01*
X239282Y-75166D01*
X220334D01*
X220134Y-74866D01*
X218466Y-73752D01*
X217770Y-73614D01*
Y-78500D01*
X216500D01*
Y-79770D01*
X211614D01*
X211752Y-80467D01*
X212866Y-82134D01*
X214534Y-83248D01*
X216238Y-83587D01*
X216452Y-84415D01*
X216474Y-84840D01*
X214895Y-85895D01*
X213790Y-87549D01*
X213402Y-89500D01*
X213790Y-91451D01*
X214895Y-93105D01*
X216549Y-94210D01*
X218500Y-94598D01*
X220451Y-94210D01*
X221693Y-93380D01*
X222919Y-93735D01*
X223083Y-93862D01*
X223261Y-94756D01*
X224256Y-96244D01*
X225744Y-97239D01*
X227500Y-97588D01*
X229256Y-97239D01*
X230590Y-96347D01*
X230637Y-96340D01*
X230710Y-96334D01*
X236119D01*
X245588Y-105803D01*
X245102Y-106976D01*
X225182D01*
X224515Y-106530D01*
X223239Y-106276D01*
X188491D01*
X177834Y-95619D01*
Y-81542D01*
X179104Y-80811D01*
X180500Y-81088D01*
X182256Y-80739D01*
X183744Y-79744D01*
X184739Y-78256D01*
X185088Y-76500D01*
X185067Y-76393D01*
X185953Y-75393D01*
X186936Y-75404D01*
X187812Y-76422D01*
X187680Y-77088D01*
X188029Y-78844D01*
X189024Y-80332D01*
X190512Y-81327D01*
X192268Y-81676D01*
X194024Y-81327D01*
X195512Y-80332D01*
X196507Y-78844D01*
X196856Y-77088D01*
X196507Y-75332D01*
X195512Y-73844D01*
X194024Y-72849D01*
X192268Y-72500D01*
X191943Y-72564D01*
X190892Y-71479D01*
X191086Y-70502D01*
X190737Y-68746D01*
X189742Y-67258D01*
X188254Y-66263D01*
X186498Y-65914D01*
X184742Y-66263D01*
X183254Y-67258D01*
X182259Y-68746D01*
X181910Y-70502D01*
X181992Y-70914D01*
X180912Y-71994D01*
X180500Y-71912D01*
X180086Y-71994D01*
X179006Y-70914D01*
X179088Y-70500D01*
X178739Y-68744D01*
X177744Y-67256D01*
X176256Y-66261D01*
X174500Y-65912D01*
X172744Y-66261D01*
X171256Y-67256D01*
X170261Y-68744D01*
X169912Y-70500D01*
X170261Y-72256D01*
X171153Y-73590D01*
X171160Y-73637D01*
X171166Y-73710D01*
Y-97000D01*
X171420Y-98276D01*
X172143Y-99358D01*
X181913Y-109128D01*
X181455Y-110466D01*
X180768Y-110553D01*
X166938Y-96723D01*
X165856Y-96000D01*
X164580Y-95746D01*
X149881D01*
X143642Y-89507D01*
X144128Y-88334D01*
X156000D01*
X157276Y-88080D01*
X158357Y-87358D01*
X164858Y-80857D01*
X165580Y-79776D01*
X165834Y-78500D01*
Y-74334D01*
X166134Y-74134D01*
X167248Y-72467D01*
X167386Y-71770D01*
X162500D01*
Y-70500D01*
X161230D01*
Y-65614D01*
X160534Y-65753D01*
X158867Y-66866D01*
X157602Y-66473D01*
Y-54268D01*
X157348Y-52992D01*
X156755Y-52104D01*
X157127Y-50834D01*
X195884D01*
X196116Y-50860D01*
X196428Y-50919D01*
X196724Y-51001D01*
X197007Y-51105D01*
X197281Y-51231D01*
X197547Y-51383D01*
X197810Y-51561D01*
X197992Y-51707D01*
X207164Y-60879D01*
Y-67321D01*
X207162Y-67342D01*
X207151Y-67412D01*
X206259Y-68746D01*
X205910Y-70502D01*
X206199Y-71955D01*
X205626Y-72775D01*
X205271Y-73065D01*
X204500Y-72912D01*
X202744Y-73261D01*
X201256Y-74255D01*
X200261Y-75744D01*
X199912Y-77500D01*
X200261Y-79256D01*
X201256Y-80744D01*
X202744Y-81739D01*
X204500Y-82088D01*
X206256Y-81739D01*
X207744Y-80744D01*
X208739Y-79256D01*
X209088Y-77500D01*
X208799Y-76047D01*
X209372Y-75227D01*
X209727Y-74937D01*
X210498Y-75090D01*
X211295Y-74932D01*
X212059Y-76075D01*
X211752Y-76534D01*
X211614Y-77230D01*
X215230D01*
Y-73363D01*
X214614Y-72442D01*
X214737Y-72258D01*
X215086Y-70502D01*
X214737Y-68746D01*
X213845Y-67412D01*
X213838Y-67365D01*
X213832Y-67292D01*
Y-59498D01*
X213578Y-58222D01*
X212855Y-57140D01*
X207722Y-52007D01*
X208209Y-50834D01*
X230619D01*
X232263Y-52478D01*
D02*
G37*
G36*
X255633Y-69835D02*
X256005Y-70143D01*
X256182Y-70264D01*
X256353Y-70363D01*
X256518Y-70440D01*
X256677Y-70495D01*
X256829Y-70528D01*
X256977Y-70540D01*
X257118Y-70529D01*
X255022Y-73333D01*
X254997Y-73211D01*
X254954Y-73081D01*
X254892Y-72943D01*
X254812Y-72797D01*
X254714Y-72643D01*
X254597Y-72480D01*
X254309Y-72130D01*
X254137Y-71943D01*
X253947Y-71748D01*
X255439Y-69648D01*
X255633Y-69835D01*
D02*
G37*
G36*
X176159Y-72389D02*
X176077Y-72511D01*
X176005Y-72651D01*
X175943Y-72810D01*
X175890Y-72988D01*
X175847Y-73184D01*
X175813Y-73398D01*
X175789Y-73632D01*
X175770Y-74153D01*
X173230D01*
X173225Y-73883D01*
X173187Y-73398D01*
X173153Y-73184D01*
X173110Y-72988D01*
X173057Y-72810D01*
X172995Y-72651D01*
X172923Y-72511D01*
X172841Y-72389D01*
X172750Y-72285D01*
X176250D01*
X176159Y-72389D01*
D02*
G37*
G36*
X164159D02*
X164077Y-72511D01*
X164005Y-72651D01*
X163943Y-72810D01*
X163890Y-72988D01*
X163847Y-73184D01*
X163813Y-73398D01*
X163789Y-73632D01*
X163770Y-74153D01*
X161230D01*
X161225Y-73883D01*
X161187Y-73398D01*
X161153Y-73184D01*
X161110Y-72988D01*
X161057Y-72810D01*
X160995Y-72651D01*
X160923Y-72511D01*
X160841Y-72389D01*
X160750Y-72285D01*
X164250D01*
X164159Y-72389D01*
D02*
G37*
G36*
X125157Y-72391D02*
X125075Y-72513D01*
X125003Y-72653D01*
X124941Y-72812D01*
X124888Y-72990D01*
X124845Y-73186D01*
X124811Y-73401D01*
X124787Y-73634D01*
X124768Y-74156D01*
X122228D01*
X122223Y-73886D01*
X122185Y-73401D01*
X122151Y-73186D01*
X122108Y-72990D01*
X122055Y-72812D01*
X121993Y-72653D01*
X121921Y-72513D01*
X121839Y-72391D01*
X121748Y-72288D01*
X125248D01*
X125157Y-72391D01*
D02*
G37*
G36*
X34775Y-73117D02*
X34813Y-73602D01*
X34847Y-73816D01*
X34890Y-74012D01*
X34943Y-74190D01*
X35005Y-74349D01*
X35077Y-74489D01*
X35159Y-74611D01*
X35250Y-74715D01*
X31750D01*
X31841Y-74611D01*
X31923Y-74489D01*
X31995Y-74349D01*
X32057Y-74190D01*
X32110Y-74012D01*
X32153Y-73816D01*
X32187Y-73602D01*
X32211Y-73369D01*
X32230Y-72847D01*
X34770D01*
X34775Y-73117D01*
D02*
G37*
G36*
X259389Y-71341D02*
X259511Y-71423D01*
X259651Y-71495D01*
X259810Y-71557D01*
X259988Y-71610D01*
X260184Y-71653D01*
X260398Y-71687D01*
X260631Y-71711D01*
X261153Y-71730D01*
Y-74270D01*
X260883Y-74275D01*
X260398Y-74313D01*
X260184Y-74347D01*
X259988Y-74390D01*
X259810Y-74443D01*
X259651Y-74505D01*
X259511Y-74577D01*
X259389Y-74659D01*
X259285Y-74750D01*
Y-71250D01*
X259389Y-71341D01*
D02*
G37*
G36*
X155543Y-73349D02*
X155581Y-73833D01*
X155615Y-74048D01*
X155658Y-74244D01*
X155711Y-74422D01*
X155773Y-74581D01*
X155845Y-74721D01*
X155927Y-74843D01*
X156018Y-74946D01*
X152518D01*
X152609Y-74843D01*
X152691Y-74721D01*
X152763Y-74581D01*
X152825Y-74422D01*
X152878Y-74244D01*
X152921Y-74048D01*
X152955Y-73833D01*
X152979Y-73600D01*
X152998Y-73078D01*
X155538D01*
X155543Y-73349D01*
D02*
G37*
G36*
X79181Y-15104D02*
X61143Y-33142D01*
X60420Y-34224D01*
X60166Y-35500D01*
Y-66319D01*
X60164Y-66340D01*
X60153Y-66409D01*
X59261Y-67744D01*
X58912Y-69500D01*
X59261Y-71256D01*
X60256Y-72744D01*
X61744Y-73739D01*
X63500Y-74088D01*
X64275Y-73934D01*
X64632Y-74227D01*
X65201Y-75044D01*
X64912Y-76500D01*
X65261Y-78256D01*
X65535Y-78666D01*
X64856Y-79936D01*
X63151D01*
X55620Y-72405D01*
X56248Y-71466D01*
X56386Y-70770D01*
X46590D01*
X45783Y-71890D01*
X44865Y-72003D01*
X43968Y-71106D01*
X44088Y-70500D01*
X43739Y-68744D01*
X42744Y-67256D01*
X41256Y-66261D01*
X39500Y-65912D01*
X38104Y-66190D01*
X36834Y-65458D01*
Y-33381D01*
X56381Y-13834D01*
X78655D01*
X79181Y-15104D01*
D02*
G37*
G36*
X218389Y-76841D02*
X218511Y-76923D01*
X218651Y-76995D01*
X218810Y-77057D01*
X218988Y-77110D01*
X219184Y-77153D01*
X219398Y-77187D01*
X219632Y-77211D01*
X220153Y-77230D01*
Y-79770D01*
X219883Y-79775D01*
X219398Y-79813D01*
X219184Y-79847D01*
X218988Y-79890D01*
X218810Y-79943D01*
X218651Y-80005D01*
X218511Y-80077D01*
X218389Y-80159D01*
X218285Y-80250D01*
Y-76750D01*
X218389Y-76841D01*
D02*
G37*
G36*
X131541Y-77961D02*
X131493Y-78078D01*
X131451Y-78214D01*
X131414Y-78370D01*
X131383Y-78546D01*
X131338Y-78958D01*
X131315Y-79448D01*
X131312Y-79723D01*
X128772Y-80395D01*
X128766Y-80125D01*
X128719Y-79647D01*
X128677Y-79440D01*
X128624Y-79252D01*
X128559Y-79086D01*
X128481Y-78940D01*
X128392Y-78815D01*
X128291Y-78710D01*
X128179Y-78626D01*
X131595Y-77864D01*
X131541Y-77961D01*
D02*
G37*
G36*
X119159Y-79389D02*
X119077Y-79510D01*
X119005Y-79651D01*
X118943Y-79810D01*
X118890Y-79987D01*
X118847Y-80183D01*
X118813Y-80398D01*
X118789Y-80631D01*
X118770Y-81153D01*
X116230D01*
X116225Y-80883D01*
X116187Y-80398D01*
X116153Y-80183D01*
X116110Y-79987D01*
X116057Y-79810D01*
X115995Y-79651D01*
X115923Y-79510D01*
X115841Y-79389D01*
X115750Y-79285D01*
X119250D01*
X119159Y-79389D01*
D02*
G37*
G36*
X222593Y-87203D02*
X222383Y-87425D01*
X222195Y-87647D01*
X222030Y-87871D01*
X221888Y-88096D01*
X221767Y-88322D01*
X221669Y-88549D01*
X221593Y-88778D01*
X221540Y-89007D01*
X221509Y-89238D01*
X221500Y-89470D01*
X218530Y-86500D01*
X218762Y-86491D01*
X218993Y-86460D01*
X219222Y-86407D01*
X219450Y-86331D01*
X219678Y-86233D01*
X219904Y-86112D01*
X220129Y-85970D01*
X220352Y-85805D01*
X220575Y-85617D01*
X220797Y-85407D01*
X222593Y-87203D01*
D02*
G37*
G36*
X270973Y-91502D02*
X270835Y-91511D01*
X270691Y-91539D01*
X270541Y-91588D01*
X270385Y-91656D01*
X270222Y-91744D01*
X270053Y-91852D01*
X269877Y-91980D01*
X269695Y-92128D01*
X269313Y-92484D01*
X267516Y-90688D01*
X267704Y-90493D01*
X268020Y-90123D01*
X268148Y-89948D01*
X268256Y-89778D01*
X268344Y-89616D01*
X268412Y-89459D01*
X268461Y-89309D01*
X268489Y-89165D01*
X268498Y-89027D01*
X270973Y-91502D01*
D02*
G37*
G36*
X290813Y-90558D02*
X290998Y-90699D01*
X291198Y-90823D01*
X291413Y-90931D01*
X291643Y-91023D01*
X291888Y-91097D01*
X292148Y-91155D01*
X292423Y-91197D01*
X292713Y-91222D01*
X293018Y-91230D01*
Y-93770D01*
X292713Y-93778D01*
X292423Y-93803D01*
X292148Y-93845D01*
X291888Y-93903D01*
X291643Y-93977D01*
X291413Y-94069D01*
X291198Y-94177D01*
X290998Y-94301D01*
X290813Y-94442D01*
X290642Y-94600D01*
Y-90400D01*
X290813Y-90558D01*
D02*
G37*
G36*
X229389Y-91341D02*
X229511Y-91423D01*
X229651Y-91495D01*
X229810Y-91557D01*
X229988Y-91610D01*
X230184Y-91653D01*
X230398Y-91687D01*
X230631Y-91711D01*
X231153Y-91730D01*
Y-94270D01*
X230883Y-94275D01*
X230398Y-94313D01*
X230184Y-94347D01*
X229988Y-94390D01*
X229810Y-94443D01*
X229651Y-94505D01*
X229511Y-94577D01*
X229389Y-94659D01*
X229285Y-94750D01*
Y-91250D01*
X229389Y-91341D01*
D02*
G37*
G36*
X284470Y-104500D02*
X284238Y-104509D01*
X284007Y-104540D01*
X283778Y-104593D01*
X283549Y-104669D01*
X283322Y-104767D01*
X283096Y-104888D01*
X282871Y-105030D01*
X282647Y-105196D01*
X282425Y-105383D01*
X282203Y-105593D01*
X280407Y-103797D01*
X280617Y-103575D01*
X280805Y-103352D01*
X280970Y-103129D01*
X281112Y-102904D01*
X281233Y-102678D01*
X281331Y-102451D01*
X281407Y-102222D01*
X281460Y-101993D01*
X281491Y-101762D01*
X281500Y-101530D01*
X284470Y-104500D01*
D02*
G37*
G36*
X294470Y-107500D02*
X294238Y-107509D01*
X294007Y-107540D01*
X293778Y-107593D01*
X293549Y-107669D01*
X293322Y-107767D01*
X293096Y-107888D01*
X292871Y-108030D01*
X292647Y-108195D01*
X292425Y-108383D01*
X292203Y-108593D01*
X290407Y-106797D01*
X290617Y-106575D01*
X290805Y-106353D01*
X290970Y-106129D01*
X291112Y-105904D01*
X291233Y-105678D01*
X291331Y-105450D01*
X291407Y-105222D01*
X291460Y-104993D01*
X291491Y-104762D01*
X291500Y-104530D01*
X294470Y-107500D01*
D02*
G37*
G36*
X477778Y-114787D02*
X477803Y-115077D01*
X477845Y-115352D01*
X477903Y-115612D01*
X477977Y-115857D01*
X478069Y-116087D01*
X478177Y-116302D01*
X478301Y-116502D01*
X478442Y-116687D01*
X478600Y-116858D01*
X474400D01*
X474558Y-116687D01*
X474699Y-116502D01*
X474823Y-116302D01*
X474931Y-116087D01*
X475023Y-115857D01*
X475097Y-115612D01*
X475155Y-115352D01*
X475197Y-115077D01*
X475222Y-114787D01*
X475230Y-114482D01*
X477770D01*
X477778Y-114787D01*
D02*
G37*
G36*
X464855Y-117602D02*
X464685Y-117445D01*
X464500Y-117303D01*
X464300Y-117179D01*
X464085Y-117071D01*
X463854Y-116980D01*
X463609Y-116905D01*
X463349Y-116847D01*
X463074Y-116805D01*
X462785Y-116781D01*
X462480Y-116772D01*
Y-114232D01*
X462785Y-114224D01*
X463074Y-114199D01*
X463349Y-114158D01*
X463609Y-114100D01*
X463854Y-114025D01*
X464085Y-113933D01*
X464300Y-113826D01*
X464500Y-113701D01*
X464685Y-113560D01*
X464855Y-113402D01*
Y-117602D01*
D02*
G37*
G36*
X483593Y-126703D02*
X483383Y-126925D01*
X483195Y-127147D01*
X483031Y-127371D01*
X482888Y-127596D01*
X482767Y-127822D01*
X482669Y-128049D01*
X482593Y-128278D01*
X482540Y-128507D01*
X482509Y-128738D01*
X482500Y-128970D01*
X479530Y-126000D01*
X479762Y-125991D01*
X479993Y-125960D01*
X480222Y-125907D01*
X480451Y-125831D01*
X480678Y-125733D01*
X480904Y-125612D01*
X481129Y-125470D01*
X481353Y-125304D01*
X481575Y-125117D01*
X481797Y-124907D01*
X483593Y-126703D01*
D02*
G37*
G36*
X376680Y-130194D02*
X376500Y-130113D01*
X376306Y-130041D01*
X376097Y-129978D01*
X375874Y-129923D01*
X375386Y-129838D01*
X375120Y-129808D01*
X374239Y-129770D01*
X373212Y-127230D01*
X373522Y-127220D01*
X373808Y-127190D01*
X374072Y-127140D01*
X374313Y-127071D01*
X374531Y-126981D01*
X374727Y-126872D01*
X374899Y-126742D01*
X375049Y-126593D01*
X375176Y-126423D01*
X375280Y-126234D01*
X376680Y-130194D01*
D02*
G37*
G36*
X343313Y-126558D02*
X343498Y-126699D01*
X343698Y-126823D01*
X343913Y-126931D01*
X344143Y-127022D01*
X344388Y-127097D01*
X344648Y-127155D01*
X344923Y-127197D01*
X345213Y-127222D01*
X345518Y-127230D01*
Y-129770D01*
X345213Y-129778D01*
X344923Y-129803D01*
X344648Y-129845D01*
X344388Y-129903D01*
X344143Y-129978D01*
X343913Y-130069D01*
X343698Y-130177D01*
X343498Y-130301D01*
X343313Y-130442D01*
X343142Y-130600D01*
Y-126400D01*
X343313Y-126558D01*
D02*
G37*
G36*
X173813Y-127558D02*
X173998Y-127699D01*
X174198Y-127823D01*
X174413Y-127931D01*
X174643Y-128022D01*
X174888Y-128097D01*
X175148Y-128155D01*
X175423Y-128197D01*
X175713Y-128222D01*
X176018Y-128230D01*
Y-130770D01*
X175713Y-130778D01*
X175423Y-130803D01*
X175148Y-130845D01*
X174888Y-130903D01*
X174643Y-130977D01*
X174413Y-131069D01*
X174198Y-131177D01*
X173998Y-131301D01*
X173813Y-131442D01*
X173642Y-131600D01*
Y-127400D01*
X173813Y-127558D01*
D02*
G37*
G36*
X279313Y-128058D02*
X279498Y-128199D01*
X279698Y-128323D01*
X279913Y-128431D01*
X280143Y-128523D01*
X280388Y-128597D01*
X280648Y-128655D01*
X280923Y-128697D01*
X281213Y-128722D01*
X281518Y-128730D01*
Y-131270D01*
X281213Y-131278D01*
X280923Y-131303D01*
X280648Y-131345D01*
X280388Y-131403D01*
X280143Y-131477D01*
X279913Y-131569D01*
X279698Y-131677D01*
X279498Y-131801D01*
X279313Y-131942D01*
X279142Y-132100D01*
Y-127900D01*
X279313Y-128058D01*
D02*
G37*
G36*
X211804Y-128931D02*
X212028Y-129114D01*
X212252Y-129269D01*
X212475Y-129397D01*
X212698Y-129496D01*
X212921Y-129569D01*
X213144Y-129613D01*
X213366Y-129630D01*
X213587Y-129619D01*
X213809Y-129581D01*
X211567Y-133133D01*
X211513Y-132920D01*
X211441Y-132706D01*
X211352Y-132492D01*
X211245Y-132277D01*
X211121Y-132061D01*
X210979Y-131845D01*
X210820Y-131627D01*
X210450Y-131190D01*
X210238Y-130971D01*
X211580Y-128720D01*
X211804Y-128931D01*
D02*
G37*
G36*
X286593Y-143203D02*
X286383Y-143425D01*
X286196Y-143647D01*
X286030Y-143871D01*
X285888Y-144096D01*
X285767Y-144322D01*
X285669Y-144550D01*
X285593Y-144778D01*
X285540Y-145007D01*
X285509Y-145238D01*
X285500Y-145470D01*
X282530Y-142500D01*
X282762Y-142491D01*
X282993Y-142460D01*
X283222Y-142407D01*
X283451Y-142331D01*
X283678Y-142233D01*
X283904Y-142112D01*
X284129Y-141970D01*
X284352Y-141805D01*
X284575Y-141617D01*
X284797Y-141407D01*
X286593Y-143203D01*
D02*
G37*
G36*
X475470Y-145000D02*
X475238Y-145009D01*
X475008Y-145040D01*
X474778Y-145093D01*
X474549Y-145169D01*
X474322Y-145267D01*
X474096Y-145388D01*
X473871Y-145530D01*
X473647Y-145695D01*
X473425Y-145883D01*
X473203Y-146093D01*
X471407Y-144297D01*
X471617Y-144075D01*
X471805Y-143853D01*
X471970Y-143629D01*
X472112Y-143404D01*
X472233Y-143178D01*
X472331Y-142950D01*
X472407Y-142722D01*
X472460Y-142493D01*
X472491Y-142262D01*
X472500Y-142030D01*
X475470Y-145000D01*
D02*
G37*
G36*
X503997Y-121098D02*
X505663Y-120767D01*
X506933Y-121463D01*
Y-153798D01*
X506430Y-154551D01*
X506176Y-155826D01*
Y-170934D01*
X504906Y-171613D01*
X503662Y-170781D01*
X502770Y-170604D01*
Y-176000D01*
Y-181396D01*
X503662Y-181219D01*
X504906Y-180387D01*
X506176Y-181066D01*
Y-191798D01*
X506160Y-191906D01*
X506134Y-192021D01*
X506107Y-192112D01*
X506079Y-192181D01*
X506059Y-192222D01*
X505906Y-192325D01*
X504800Y-193978D01*
X504412Y-195929D01*
X504487Y-196305D01*
X503433Y-197516D01*
X502047Y-197792D01*
X500393Y-198897D01*
X499449Y-200310D01*
X498059Y-200715D01*
X492914Y-195571D01*
Y-162528D01*
X500085Y-155358D01*
X500808Y-154276D01*
X501062Y-153000D01*
Y-121463D01*
X502332Y-120767D01*
X503997Y-121098D01*
D02*
G37*
G36*
X533422Y-170736D02*
X533429Y-171040D01*
X533485Y-171609D01*
X533534Y-171874D01*
X533598Y-172125D01*
X533675Y-172363D01*
X533767Y-172588D01*
X533872Y-172799D01*
X533992Y-172998D01*
X534126Y-173183D01*
X529960Y-172648D01*
X530135Y-172500D01*
X530291Y-172334D01*
X530430Y-172151D01*
X530550Y-171950D01*
X530651Y-171731D01*
X530734Y-171495D01*
X530799Y-171241D01*
X530845Y-170970D01*
X530872Y-170681D01*
X530882Y-170375D01*
X533422Y-170736D01*
D02*
G37*
G36*
X448425Y-170617D02*
X448647Y-170805D01*
X448871Y-170970D01*
X449096Y-171112D01*
X449322Y-171233D01*
X449549Y-171331D01*
X449778Y-171407D01*
X450008Y-171460D01*
X450238Y-171491D01*
X450470Y-171500D01*
X447500Y-174470D01*
X447491Y-174238D01*
X447460Y-174007D01*
X447407Y-173778D01*
X447331Y-173549D01*
X447233Y-173322D01*
X447112Y-173096D01*
X446970Y-172871D01*
X446805Y-172647D01*
X446617Y-172425D01*
X446407Y-172203D01*
X448203Y-170407D01*
X448425Y-170617D01*
D02*
G37*
G36*
X457893Y-171220D02*
X458115Y-171409D01*
X458337Y-171579D01*
X458560Y-171728D01*
X458784Y-171857D01*
X459009Y-171966D01*
X459235Y-172055D01*
X459462Y-172123D01*
X459690Y-172171D01*
X459918Y-172199D01*
X456700Y-174897D01*
X456710Y-174667D01*
X456696Y-174437D01*
X456658Y-174208D01*
X456595Y-173980D01*
X456507Y-173753D01*
X456395Y-173527D01*
X456259Y-173302D01*
X456098Y-173077D01*
X455912Y-172854D01*
X455702Y-172631D01*
X457673Y-171010D01*
X457893Y-171220D01*
D02*
G37*
G36*
X435951Y-174648D02*
X435957Y-174876D01*
X435989Y-175103D01*
X436045Y-175330D01*
X436128Y-175556D01*
X436236Y-175782D01*
X436370Y-176007D01*
X436529Y-176231D01*
X436713Y-176455D01*
X436923Y-176678D01*
X434867Y-178213D01*
X434646Y-178003D01*
X434205Y-177641D01*
X433983Y-177488D01*
X433761Y-177355D01*
X433538Y-177241D01*
X433314Y-177147D01*
X433090Y-177071D01*
X432865Y-177015D01*
X432640Y-176978D01*
X435971Y-174419D01*
X435951Y-174648D01*
D02*
G37*
G36*
X424910Y-178328D02*
X425095Y-178469D01*
X425295Y-178593D01*
X425510Y-178701D01*
X425740Y-178792D01*
X425985Y-178867D01*
X426245Y-178925D01*
X426520Y-178967D01*
X426810Y-178992D01*
X427115Y-179000D01*
Y-181540D01*
X426810Y-181548D01*
X426520Y-181573D01*
X426245Y-181615D01*
X425985Y-181673D01*
X425740Y-181747D01*
X425510Y-181839D01*
X425295Y-181947D01*
X425095Y-182071D01*
X424910Y-182212D01*
X424739Y-182370D01*
Y-178170D01*
X424910Y-178328D01*
D02*
G37*
G36*
X527618Y-180547D02*
X527647Y-180835D01*
X527695Y-181103D01*
X527763Y-181352D01*
X527850Y-181580D01*
X527956Y-181788D01*
X528082Y-181977D01*
X528227Y-182146D01*
X528392Y-182295D01*
X528575Y-182425D01*
X524479Y-183351D01*
X524591Y-183162D01*
X524691Y-182960D01*
X524779Y-182746D01*
X524856Y-182518D01*
X524921Y-182278D01*
X524974Y-182024D01*
X525015Y-181758D01*
X525062Y-181187D01*
X525068Y-180882D01*
X527608Y-180240D01*
X527618Y-180547D01*
D02*
G37*
G36*
X428672Y-189962D02*
X428531Y-190147D01*
X428407Y-190348D01*
X428299Y-190563D01*
X428208Y-190793D01*
X428133Y-191038D01*
X428075Y-191298D01*
X428033Y-191573D01*
X428008Y-191863D01*
X428000Y-192168D01*
X425460D01*
X425452Y-191863D01*
X425427Y-191573D01*
X425385Y-191298D01*
X425327Y-191038D01*
X425252Y-190793D01*
X425161Y-190563D01*
X425053Y-190348D01*
X424929Y-190147D01*
X424788Y-189962D01*
X424630Y-189792D01*
X428830D01*
X428672Y-189962D01*
D02*
G37*
G36*
X456442Y-190043D02*
X456301Y-190228D01*
X456177Y-190428D01*
X456069Y-190643D01*
X455978Y-190873D01*
X455903Y-191118D01*
X455845Y-191378D01*
X455803Y-191653D01*
X455778Y-191943D01*
X455770Y-192248D01*
X453230D01*
X453222Y-191943D01*
X453197Y-191653D01*
X453155Y-191378D01*
X453097Y-191118D01*
X453022Y-190873D01*
X452931Y-190643D01*
X452823Y-190428D01*
X452699Y-190228D01*
X452558Y-190043D01*
X452400Y-189872D01*
X456600D01*
X456442Y-190043D01*
D02*
G37*
G36*
X510789Y-191716D02*
X510814Y-192006D01*
X510855Y-192281D01*
X510913Y-192541D01*
X510988Y-192786D01*
X511079Y-193016D01*
X511187Y-193231D01*
X511312Y-193431D01*
X511453Y-193617D01*
X511610Y-193787D01*
X507410D01*
X507568Y-193617D01*
X507709Y-193431D01*
X507834Y-193231D01*
X507942Y-193016D01*
X508033Y-192786D01*
X508108Y-192541D01*
X508166Y-192281D01*
X508207Y-192006D01*
X508232Y-191716D01*
X508240Y-191411D01*
X510780D01*
X510789Y-191716D01*
D02*
G37*
G36*
X525517Y-200478D02*
X525290Y-200455D01*
X525063Y-200457D01*
X524837Y-200485D01*
X524611Y-200539D01*
X524385Y-200619D01*
X524160Y-200725D01*
X523935Y-200857D01*
X523711Y-201015D01*
X523487Y-201199D01*
X523264Y-201409D01*
X521772Y-199309D01*
X521982Y-199089D01*
X522346Y-198648D01*
X522500Y-198428D01*
X522635Y-198206D01*
X522752Y-197985D01*
X522849Y-197763D01*
X522928Y-197540D01*
X522988Y-197318D01*
X523029Y-197095D01*
X525517Y-200478D01*
D02*
G37*
G36*
X506310Y-200560D02*
X506495Y-200701D01*
X506695Y-200825D01*
X506910Y-200933D01*
X507141Y-201025D01*
X507385Y-201099D01*
X507645Y-201157D01*
X507920Y-201199D01*
X508210Y-201224D01*
X508515Y-201232D01*
Y-203772D01*
X508210Y-203780D01*
X507920Y-203805D01*
X507645Y-203847D01*
X507385Y-203905D01*
X507141Y-203980D01*
X506910Y-204071D01*
X506695Y-204179D01*
X506495Y-204303D01*
X506310Y-204444D01*
X506140Y-204602D01*
Y-200402D01*
X506310Y-200560D01*
D02*
G37*
G36*
X528172Y-207827D02*
X528031Y-208012D01*
X527907Y-208212D01*
X527799Y-208427D01*
X527707Y-208657D01*
X527633Y-208902D01*
X527575Y-209162D01*
X527533Y-209437D01*
X527508Y-209727D01*
X527500Y-210032D01*
X524960D01*
X524952Y-209727D01*
X524927Y-209437D01*
X524885Y-209162D01*
X524827Y-208902D01*
X524753Y-208657D01*
X524661Y-208427D01*
X524553Y-208212D01*
X524429Y-208012D01*
X524288Y-207827D01*
X524130Y-207657D01*
X528330D01*
X528172Y-207827D01*
D02*
G37*
G36*
X509358Y-214100D02*
X509187Y-213942D01*
X509002Y-213801D01*
X508802Y-213677D01*
X508587Y-213569D01*
X508357Y-213477D01*
X508112Y-213403D01*
X507852Y-213345D01*
X507577Y-213303D01*
X507287Y-213278D01*
X506982Y-213270D01*
Y-210730D01*
X507287Y-210722D01*
X507577Y-210697D01*
X507852Y-210655D01*
X508112Y-210597D01*
X508357Y-210522D01*
X508587Y-210431D01*
X508802Y-210323D01*
X509002Y-210199D01*
X509187Y-210058D01*
X509358Y-209900D01*
Y-214100D01*
D02*
G37*
G36*
X253093Y-214703D02*
X252883Y-214925D01*
X252696Y-215147D01*
X252530Y-215371D01*
X252388Y-215596D01*
X252267Y-215822D01*
X252169Y-216049D01*
X252093Y-216278D01*
X252040Y-216507D01*
X252009Y-216738D01*
X252000Y-216970D01*
X249030Y-214000D01*
X249262Y-213991D01*
X249493Y-213960D01*
X249722Y-213907D01*
X249951Y-213831D01*
X250178Y-213733D01*
X250404Y-213612D01*
X250629Y-213470D01*
X250853Y-213305D01*
X251075Y-213117D01*
X251297Y-212907D01*
X253093Y-214703D01*
D02*
G37*
G36*
X474276Y-223289D02*
X474301Y-223579D01*
X474342Y-223854D01*
X474400Y-224114D01*
X474475Y-224359D01*
X474566Y-224589D01*
X474674Y-224804D01*
X474799Y-225004D01*
X474940Y-225189D01*
X475098Y-225360D01*
X470897D01*
X471055Y-225189D01*
X471196Y-225004D01*
X471321Y-224804D01*
X471429Y-224589D01*
X471520Y-224359D01*
X471595Y-224114D01*
X471653Y-223854D01*
X471694Y-223579D01*
X471719Y-223289D01*
X471727Y-222984D01*
X474268D01*
X474276Y-223289D01*
D02*
G37*
G36*
X253093Y-228203D02*
X252883Y-228425D01*
X252696Y-228647D01*
X252530Y-228871D01*
X252388Y-229096D01*
X252267Y-229322D01*
X252169Y-229550D01*
X252093Y-229778D01*
X252040Y-230007D01*
X252009Y-230238D01*
X252000Y-230470D01*
X249030Y-227500D01*
X249262Y-227491D01*
X249493Y-227460D01*
X249722Y-227407D01*
X249951Y-227331D01*
X250178Y-227233D01*
X250404Y-227112D01*
X250629Y-226970D01*
X250853Y-226805D01*
X251075Y-226617D01*
X251297Y-226407D01*
X253093Y-228203D01*
D02*
G37*
G36*
X533398Y-234898D02*
X533228Y-235072D01*
X532847Y-235525D01*
X532763Y-235652D01*
X532700Y-235768D01*
X532658Y-235872D01*
X532637Y-235963D01*
X532638Y-236044D01*
X532660Y-236112D01*
X530015Y-234500D01*
X530064Y-234488D01*
X530134Y-234450D01*
X530225Y-234387D01*
X530338Y-234298D01*
X530807Y-233880D01*
X531470Y-233234D01*
X533398Y-234898D01*
D02*
G37*
G36*
X542725Y-246251D02*
X543061Y-246533D01*
X543378Y-246760D01*
X543677Y-246934D01*
X543958Y-247053D01*
X544220Y-247118D01*
X544464Y-247128D01*
X544690Y-247084D01*
X544897Y-246986D01*
X545086Y-246834D01*
X541494Y-250426D01*
X541646Y-250237D01*
X541744Y-250030D01*
X541788Y-249804D01*
X541778Y-249560D01*
X541713Y-249298D01*
X541594Y-249017D01*
X541420Y-248718D01*
X541193Y-248401D01*
X540911Y-248065D01*
X540574Y-247710D01*
X542370Y-245914D01*
X542725Y-246251D01*
D02*
G37*
G36*
X152813Y-261598D02*
X152998Y-261739D01*
X153198Y-261863D01*
X153413Y-261971D01*
X153643Y-262062D01*
X153888Y-262137D01*
X154148Y-262195D01*
X154423Y-262237D01*
X154713Y-262262D01*
X155018Y-262270D01*
Y-264810D01*
X154713Y-264818D01*
X154423Y-264843D01*
X154148Y-264885D01*
X153888Y-264943D01*
X153643Y-265017D01*
X153413Y-265109D01*
X153198Y-265217D01*
X152998Y-265341D01*
X152813Y-265482D01*
X152642Y-265640D01*
Y-261440D01*
X152813Y-261598D01*
D02*
G37*
G36*
X277875Y-301067D02*
X278097Y-301254D01*
X278321Y-301419D01*
X278546Y-301562D01*
X278772Y-301682D01*
X278999Y-301781D01*
X279228Y-301856D01*
X279457Y-301910D01*
X279688Y-301941D01*
X279920Y-301950D01*
X276950Y-304920D01*
X276941Y-304688D01*
X276910Y-304457D01*
X276856Y-304228D01*
X276781Y-303999D01*
X276682Y-303772D01*
X276562Y-303546D01*
X276419Y-303321D01*
X276254Y-303097D01*
X276067Y-302875D01*
X275857Y-302653D01*
X277653Y-300857D01*
X277875Y-301067D01*
D02*
G37*
G36*
X250858Y-305100D02*
X250687Y-304942D01*
X250502Y-304801D01*
X250302Y-304677D01*
X250087Y-304569D01*
X249857Y-304478D01*
X249612Y-304403D01*
X249352Y-304345D01*
X249077Y-304303D01*
X248787Y-304278D01*
X248482Y-304270D01*
Y-301730D01*
X248787Y-301722D01*
X249077Y-301697D01*
X249352Y-301655D01*
X249612Y-301597D01*
X249857Y-301523D01*
X250087Y-301431D01*
X250302Y-301323D01*
X250502Y-301199D01*
X250687Y-301058D01*
X250858Y-300900D01*
Y-305100D01*
D02*
G37*
G36*
X122669Y-307127D02*
X119917Y-309276D01*
X119641Y-305402D01*
X119762Y-305501D01*
X119895Y-305565D01*
X120041Y-305594D01*
X120199Y-305587D01*
X120370Y-305544D01*
X120553Y-305466D01*
X120748Y-305352D01*
X120955Y-305202D01*
X121175Y-305018D01*
X121407Y-304797D01*
X122669Y-307127D01*
D02*
G37*
G36*
X541404Y-307640D02*
X541378Y-307399D01*
X541301Y-307183D01*
X541172Y-306992D01*
X540992Y-306827D01*
X540761Y-306688D01*
X540478Y-306573D01*
X540144Y-306484D01*
X539758Y-306421D01*
X539321Y-306383D01*
X538833Y-306370D01*
Y-303830D01*
X539321Y-303817D01*
X539758Y-303779D01*
X540144Y-303716D01*
X540478Y-303627D01*
X540761Y-303512D01*
X540992Y-303373D01*
X541172Y-303208D01*
X541301Y-303017D01*
X541378Y-302801D01*
X541404Y-302560D01*
Y-307640D01*
D02*
G37*
G36*
X270470Y-307500D02*
X270238Y-307509D01*
X270007Y-307540D01*
X269778Y-307593D01*
X269550Y-307669D01*
X269322Y-307767D01*
X269096Y-307888D01*
X268871Y-308030D01*
X268647Y-308195D01*
X268425Y-308383D01*
X268203Y-308593D01*
X266407Y-306797D01*
X266617Y-306575D01*
X266805Y-306353D01*
X266970Y-306129D01*
X267112Y-305904D01*
X267233Y-305678D01*
X267331Y-305450D01*
X267407Y-305222D01*
X267460Y-304993D01*
X267491Y-304762D01*
X267500Y-304530D01*
X270470Y-307500D01*
D02*
G37*
G36*
X252764Y-310540D02*
X252449Y-310549D01*
X252164Y-310578D01*
X251909Y-310625D01*
X251684Y-310690D01*
X251488Y-310775D01*
X251323Y-310878D01*
X251188Y-311001D01*
X251082Y-311142D01*
X251007Y-311301D01*
X250961Y-311480D01*
X248771Y-308101D01*
X252251Y-308000D01*
X252764Y-310540D01*
D02*
G37*
G36*
X261603Y-329966D02*
X261762Y-330126D01*
X261940Y-330268D01*
X262136Y-330390D01*
X262350Y-330494D01*
X262583Y-330579D01*
X262834Y-330645D01*
X263104Y-330692D01*
X263393Y-330721D01*
X263699Y-330730D01*
X263222Y-333270D01*
X262918Y-333277D01*
X262348Y-333329D01*
X262083Y-333375D01*
X261830Y-333434D01*
X261591Y-333507D01*
X261364Y-333592D01*
X261151Y-333691D01*
X260950Y-333803D01*
X260763Y-333928D01*
X261462Y-329786D01*
X261603Y-329966D01*
D02*
G37*
G36*
X258970Y-334500D02*
X258738Y-334509D01*
X258507Y-334540D01*
X258278Y-334593D01*
X258050Y-334669D01*
X257822Y-334767D01*
X257596Y-334888D01*
X257371Y-335030D01*
X257148Y-335196D01*
X256925Y-335383D01*
X256703Y-335593D01*
X254907Y-333797D01*
X255117Y-333575D01*
X255305Y-333353D01*
X255470Y-333129D01*
X255612Y-332904D01*
X255733Y-332678D01*
X255831Y-332450D01*
X255907Y-332222D01*
X255960Y-331993D01*
X255991Y-331762D01*
X256000Y-331530D01*
X258970Y-334500D01*
D02*
G37*
G36*
X244009Y-365677D02*
X244036Y-365967D01*
X244081Y-366239D01*
X244144Y-366495D01*
X244225Y-366734D01*
X244324Y-366956D01*
X244440Y-367161D01*
X244575Y-367350D01*
X244728Y-367522D01*
X244899Y-367677D01*
X240716Y-368055D01*
X240857Y-367874D01*
X240984Y-367678D01*
X241095Y-367469D01*
X241192Y-367247D01*
X241274Y-367011D01*
X241341Y-366761D01*
X241393Y-366497D01*
X241430Y-366220D01*
X241453Y-365930D01*
X241460Y-365625D01*
X244000Y-365372D01*
X244009Y-365677D01*
D02*
G37*
G36*
X297318Y-377287D02*
X297343Y-377577D01*
X297385Y-377852D01*
X297443Y-378112D01*
X297518Y-378357D01*
X297609Y-378587D01*
X297717Y-378802D01*
X297841Y-379002D01*
X297982Y-379187D01*
X298140Y-379358D01*
X293940D01*
X294098Y-379187D01*
X294239Y-379002D01*
X294363Y-378802D01*
X294471Y-378587D01*
X294562Y-378357D01*
X294637Y-378112D01*
X294695Y-377852D01*
X294737Y-377577D01*
X294762Y-377287D01*
X294770Y-376982D01*
X297310D01*
X297318Y-377287D01*
D02*
G37*
G36*
X243778Y-438287D02*
X243803Y-438577D01*
X243845Y-438852D01*
X243903Y-439112D01*
X243978Y-439357D01*
X244069Y-439587D01*
X244177Y-439802D01*
X244301Y-440002D01*
X244442Y-440187D01*
X244600Y-440358D01*
X240400D01*
X240558Y-440187D01*
X240699Y-440002D01*
X240823Y-439802D01*
X240931Y-439587D01*
X241022Y-439357D01*
X241097Y-439112D01*
X241155Y-438852D01*
X241197Y-438577D01*
X241222Y-438287D01*
X241230Y-437982D01*
X243770D01*
X243778Y-438287D01*
D02*
G37*
G36*
X239925Y-476617D02*
X240147Y-476805D01*
X240371Y-476970D01*
X240596Y-477112D01*
X240822Y-477233D01*
X241049Y-477331D01*
X241278Y-477407D01*
X241507Y-477460D01*
X241738Y-477491D01*
X241970Y-477500D01*
X239000Y-480470D01*
X238991Y-480238D01*
X238960Y-480007D01*
X238907Y-479778D01*
X238831Y-479549D01*
X238733Y-479322D01*
X238612Y-479096D01*
X238470Y-478871D01*
X238305Y-478647D01*
X238117Y-478425D01*
X237907Y-478203D01*
X239703Y-476407D01*
X239925Y-476617D01*
D02*
G37*
G36*
X254858Y-495100D02*
X254687Y-494942D01*
X254502Y-494801D01*
X254302Y-494677D01*
X254087Y-494569D01*
X253857Y-494478D01*
X253612Y-494403D01*
X253352Y-494345D01*
X253077Y-494303D01*
X252787Y-494278D01*
X252482Y-494270D01*
Y-491730D01*
X252787Y-491722D01*
X253077Y-491697D01*
X253352Y-491655D01*
X253612Y-491597D01*
X253857Y-491522D01*
X254087Y-491431D01*
X254302Y-491323D01*
X254502Y-491199D01*
X254687Y-491058D01*
X254858Y-490900D01*
Y-495100D01*
D02*
G37*
%LPC*%
G36*
X379396Y-33270D02*
X375270D01*
Y-37396D01*
X376162Y-37219D01*
X377994Y-35994D01*
X379219Y-34162D01*
X379396Y-33270D01*
D02*
G37*
G36*
X431500Y-49902D02*
X429549Y-50290D01*
X427895Y-51395D01*
X426790Y-53049D01*
X426402Y-55000D01*
X426790Y-56951D01*
X427895Y-58605D01*
X429549Y-59710D01*
X431500Y-60098D01*
X433451Y-59710D01*
X435105Y-58605D01*
X436210Y-56951D01*
X436598Y-55000D01*
X436210Y-53049D01*
X435105Y-51395D01*
X433451Y-50290D01*
X431500Y-49902D01*
D02*
G37*
G36*
X163770Y-65614D02*
Y-69230D01*
X167386D01*
X167248Y-68534D01*
X166134Y-66866D01*
X164467Y-65753D01*
X163770Y-65614D01*
D02*
G37*
G36*
X198500Y-62412D02*
X196744Y-62761D01*
X195256Y-63756D01*
X194261Y-65244D01*
X193912Y-67000D01*
X194261Y-68756D01*
X195256Y-70244D01*
X196744Y-71239D01*
X198500Y-71588D01*
X200256Y-71239D01*
X201744Y-70244D01*
X202739Y-68756D01*
X203088Y-67000D01*
X202739Y-65244D01*
X201744Y-63756D01*
X200256Y-62761D01*
X198500Y-62412D01*
D02*
G37*
G36*
X52770Y-64614D02*
Y-68230D01*
X56386D01*
X56248Y-67533D01*
X55134Y-65866D01*
X53467Y-64752D01*
X52770Y-64614D01*
D02*
G37*
G36*
X50230D02*
X49534Y-64752D01*
X47867Y-65866D01*
X46753Y-67533D01*
X46614Y-68230D01*
X50230D01*
Y-64614D01*
D02*
G37*
G36*
X500230Y-170604D02*
X499338Y-170781D01*
X497506Y-172006D01*
X496282Y-173838D01*
X496104Y-174730D01*
X500230D01*
Y-170604D01*
D02*
G37*
G36*
Y-177270D02*
X496104D01*
X496282Y-178162D01*
X497506Y-179994D01*
X499338Y-181219D01*
X500230Y-181396D01*
Y-177270D01*
D02*
G37*
%LPD*%
G36*
X125858Y-176100D02*
X125687Y-175942D01*
X125502Y-175801D01*
X125302Y-175677D01*
X125087Y-175569D01*
X124857Y-175478D01*
X124612Y-175403D01*
X124352Y-175345D01*
X124077Y-175303D01*
X123787Y-175278D01*
X123482Y-175270D01*
Y-172730D01*
X123787Y-172722D01*
X124077Y-172697D01*
X124352Y-172655D01*
X124612Y-172597D01*
X124857Y-172523D01*
X125087Y-172431D01*
X125302Y-172323D01*
X125502Y-172199D01*
X125687Y-172058D01*
X125858Y-171900D01*
Y-176100D01*
D02*
G37*
G36*
X133295Y-249673D02*
X133372Y-250104D01*
X133499Y-250485D01*
X133676Y-250816D01*
X133905Y-251095D01*
X134184Y-251324D01*
X134515Y-251501D01*
X134896Y-251628D01*
X135327Y-251705D01*
X135810Y-251730D01*
X135066Y-254270D01*
X134565Y-254288D01*
X134080Y-254342D01*
X133609Y-254432D01*
X133153Y-254557D01*
X132712Y-254719D01*
X132286Y-254917D01*
X131875Y-255150D01*
X131478Y-255420D01*
X131097Y-255725D01*
X130730Y-256066D01*
X128934Y-254270D01*
X129275Y-253903D01*
X129580Y-253522D01*
X129850Y-253125D01*
X130083Y-252714D01*
X130281Y-252288D01*
X130443Y-251847D01*
X130568Y-251391D01*
X130658Y-250920D01*
X130712Y-250434D01*
X130730Y-249934D01*
X133270Y-249190D01*
X133295Y-249673D01*
D02*
G37*
G36*
X57813Y-311558D02*
X57998Y-311699D01*
X58198Y-311823D01*
X58413Y-311931D01*
X58643Y-312022D01*
X58888Y-312097D01*
X59148Y-312155D01*
X59423Y-312197D01*
X59713Y-312222D01*
X60018Y-312230D01*
Y-314770D01*
X59713Y-314778D01*
X59423Y-314803D01*
X59148Y-314845D01*
X58888Y-314903D01*
X58643Y-314977D01*
X58413Y-315069D01*
X58198Y-315177D01*
X57998Y-315301D01*
X57813Y-315442D01*
X57642Y-315600D01*
Y-311400D01*
X57813Y-311558D01*
D02*
G37*
G36*
X92770Y-311000D02*
X90230Y-316606D01*
X90217Y-315705D01*
X90177Y-315034D01*
X90147Y-314784D01*
X90111Y-314592D01*
X90067Y-314457D01*
X90017Y-314380D01*
X89961Y-314360D01*
X89898Y-314398D01*
X88434Y-312270D01*
X88775Y-311903D01*
X89080Y-311522D01*
X89350Y-311125D01*
X89583Y-310714D01*
X89781Y-310288D01*
X89943Y-309847D01*
X90068Y-309391D01*
X90158Y-308920D01*
X90212Y-308435D01*
X90230Y-307934D01*
X92770Y-311000D01*
D02*
G37*
G36*
X208628Y-332600D02*
X208457Y-332442D01*
X208272Y-332301D01*
X208072Y-332177D01*
X207857Y-332069D01*
X207627Y-331978D01*
X207382Y-331903D01*
X207122Y-331845D01*
X206847Y-331803D01*
X206557Y-331778D01*
X206252Y-331770D01*
Y-329230D01*
X206557Y-329222D01*
X206847Y-329197D01*
X207122Y-329155D01*
X207382Y-329097D01*
X207627Y-329022D01*
X207857Y-328931D01*
X208072Y-328823D01*
X208272Y-328699D01*
X208457Y-328558D01*
X208628Y-328400D01*
Y-332600D01*
D02*
G37*
G36*
X334725Y-208597D02*
X334420Y-208978D01*
X334150Y-209375D01*
X333917Y-209786D01*
X333719Y-210212D01*
X333557Y-210653D01*
X333432Y-211109D01*
X333342Y-211580D01*
X333288Y-212066D01*
X333270Y-212566D01*
X331624Y-214212D01*
X333270D01*
X333278Y-214517D01*
X333303Y-214807D01*
X333345Y-215082D01*
X333403Y-215342D01*
X333478Y-215587D01*
X333569Y-215817D01*
X333677Y-216032D01*
X333801Y-216232D01*
X333942Y-216417D01*
X334100Y-216588D01*
X329900D01*
X330058Y-216417D01*
X330199Y-216232D01*
X330323Y-216032D01*
X330431Y-215817D01*
X330522Y-215587D01*
X330597Y-215342D01*
X330655Y-215082D01*
X330697Y-214807D01*
X330714Y-214609D01*
X330677Y-214245D01*
X330610Y-213930D01*
X330517Y-213694D01*
X330397Y-213534D01*
X330251Y-213452D01*
X330077Y-213447D01*
X329878Y-213520D01*
X329651Y-213670D01*
X329398Y-213898D01*
X331102Y-208602D01*
X335066Y-208230D01*
X334725Y-208597D01*
D02*
G37*
D15*
X249000Y-217000D02*
X313500Y-152500D01*
X249000Y-230500D02*
X276581Y-202919D01*
X313500Y-152500D02*
X437367D01*
X130042Y-80623D02*
Y-76502D01*
X328500Y-236000D02*
Y-218000D01*
X257500Y-73000D02*
X276080D01*
X256994D02*
X257500D01*
X532500Y-234000D02*
Y-192758D01*
X530662Y-235838D02*
X532500Y-234000D01*
X530662Y-236838D02*
Y-235838D01*
X536600Y-305100D02*
X551500D01*
X548960Y-254300D02*
X551500D01*
X538040Y-243380D02*
X548960Y-254300D01*
X518730Y-213637D02*
Y-204147D01*
X527190Y-220810D02*
Y-214110D01*
X520648Y-227352D02*
X527190Y-220810D01*
X526230Y-213150D02*
X527190Y-214110D01*
X532152Y-174659D02*
Y-93652D01*
X449000Y-10500D02*
X532152Y-93652D01*
X426730Y-214929D02*
Y-187650D01*
X236730Y-475230D02*
X242000Y-480500D01*
X236730Y-475230D02*
Y-445597D01*
X232190Y-441057D02*
X236730Y-445597D01*
X242500Y-442500D02*
Y-389889D01*
X232190Y-441057D02*
Y-342549D01*
X227650Y-442938D02*
X232190Y-447478D01*
X236730Y-384119D02*
Y-344430D01*
Y-384119D02*
X242500Y-389889D01*
X242730Y-369730D02*
X243000Y-370000D01*
X242730Y-369730D02*
Y-347770D01*
X433000Y-174551D02*
Y-174000D01*
X437540Y-218381D02*
Y-179091D01*
X433000Y-174551D02*
X437540Y-179091D01*
X433000Y-216500D02*
Y-184500D01*
X422597Y-180270D02*
X428770D01*
X433000Y-184500D01*
X445500Y-220000D02*
Y-185500D01*
X433040Y-157040D02*
X450500Y-174500D01*
X445500Y-185500D02*
X449540Y-181460D01*
X467000Y-150500D02*
X475500Y-142000D01*
X479230Y-135730D02*
X484000Y-140500D01*
X460363Y-135730D02*
X479230D01*
X484000Y-145500D02*
Y-140500D01*
X472998Y-156503D02*
X484000Y-145500D01*
X497727Y-153000D02*
Y-107045D01*
X489580Y-161147D02*
X497727Y-153000D01*
X493187Y-150500D02*
Y-108926D01*
X485040Y-158647D02*
X493187Y-150500D01*
X480500Y-207872D02*
X499980Y-227352D01*
X480500Y-155500D02*
X488647Y-147353D01*
Y-110806D01*
X469921Y-98500D02*
X483750Y-112330D01*
X479500Y-129000D02*
X483750Y-124750D01*
X471801Y-93960D02*
X488647Y-110806D01*
X472500Y-107500D02*
X476500Y-111500D01*
Y-119000D02*
Y-111500D01*
X483750Y-124750D02*
Y-112330D01*
X307500Y-107500D02*
X472500D01*
X223367Y-129000D02*
X257133D01*
X33500Y-32000D02*
X55000Y-10500D01*
X449000D01*
X514097Y-218270D02*
X518730Y-213637D01*
X499980Y-227352D02*
X520648D01*
X223239Y-109610D02*
X223939Y-110310D01*
X221358Y-114150D02*
X222208Y-115000D01*
X219478Y-118690D02*
X221788Y-121000D01*
X294500Y-62500D02*
Y-41000D01*
X147500Y-47500D02*
X198500D01*
X210498Y-59498D01*
X147500Y-47500D02*
X154268Y-54268D01*
X107000Y-47500D02*
X147500D01*
X395500Y-285500D02*
X517000D01*
X536600Y-305100D01*
X257133Y-129000D02*
X279903Y-151770D01*
X117498Y-307502D02*
X120498D01*
X227650Y-442938D02*
Y-340668D01*
X210498Y-70502D02*
Y-59498D01*
X198500Y-47500D02*
X232000D01*
X249000Y-44005D02*
Y-36000D01*
X254000Y-31000D01*
X249000Y-44005D02*
X252498Y-47502D01*
X218500Y-89500D02*
X223000Y-85000D01*
X227500Y-93000D02*
X237500D01*
X250270Y-105770D01*
X520000Y-188262D02*
X522985Y-191248D01*
X520000Y-188262D02*
Y-102000D01*
X530000Y-237500D02*
X530662Y-236838D01*
X320960Y-157040D02*
X433040D01*
X276581Y-202919D02*
Y-201419D01*
X320960Y-157040D01*
X292000Y-202500D02*
X313000D01*
X249000Y-245500D02*
X292000Y-202500D01*
X285000Y-130000D02*
X307500Y-107500D01*
X266823Y-110310D02*
X281730Y-95403D01*
Y-87903D01*
X264942Y-105770D02*
X277190Y-93522D01*
Y-86022D01*
X278000Y-121000D02*
X294500Y-104500D01*
X221788Y-121000D02*
X278000D01*
X250270Y-105770D02*
X264942D01*
X223939Y-110310D02*
X266823D01*
X222208Y-115000D02*
X271000D01*
X305500Y-92500D02*
X311500Y-98500D01*
X271000Y-115000D02*
X284500Y-101500D01*
X288500Y-92500D02*
X305500D01*
X259000Y-331500D02*
X259500Y-332000D01*
X242730Y-347770D02*
X259000Y-331500D01*
X227650Y-340668D02*
X254508Y-313810D01*
X248000Y-311000D02*
X249730Y-309270D01*
X265730D01*
X150500Y-263540D02*
X238540D01*
X265730Y-309270D02*
X270500Y-304500D01*
X120498Y-307502D02*
X125000Y-303000D01*
X253000D01*
X102500Y-330500D02*
X210770D01*
X91500Y-319500D02*
X102500Y-330500D01*
X91500Y-293500D02*
X132000Y-253000D01*
X241500D01*
X249000Y-245500D01*
X91500Y-311000D02*
Y-293500D01*
Y-319500D02*
Y-311000D01*
X89000Y-313500D02*
X91500Y-311000D01*
X55500Y-313500D02*
X89000D01*
X276080Y-73000D02*
X278389Y-75310D01*
X254000Y-31000D02*
X284500D01*
X294500Y-41000D01*
X445500Y-17000D02*
X525460Y-96960D01*
X63500Y-35500D02*
X82000Y-17000D01*
X445500D01*
X239920Y-32239D02*
X250239Y-21920D01*
X439920D01*
X520000Y-102000D01*
X244460Y-34120D02*
X252120Y-26460D01*
X259447Y-57812D02*
X273268Y-43991D01*
X250108Y-53272D02*
X254888D01*
X260498Y-47662D01*
Y-38502D01*
X248227Y-57812D02*
X259447D01*
X252120Y-26460D02*
X330960D01*
X336500Y-32000D01*
X374000D01*
X174500Y-97000D02*
Y-70500D01*
X154268Y-76732D02*
Y-54268D01*
X162500Y-78500D02*
Y-70500D01*
X156000Y-85000D02*
X162500Y-78500D01*
X140840Y-85000D02*
X156000D01*
X118268Y-64732D02*
X127072D01*
X135730Y-79890D02*
X140840Y-85000D01*
X135730Y-79890D02*
Y-73390D01*
X127072Y-64732D02*
X135730Y-73390D01*
X129498Y-76502D02*
X130042D01*
X123498Y-80998D02*
Y-70502D01*
X117500Y-85000D02*
Y-77500D01*
X99500Y-55000D02*
X107000Y-47500D01*
X33500Y-76500D02*
Y-32000D01*
X99500Y-70500D02*
Y-55000D01*
X63500Y-69500D02*
Y-35500D01*
X148500Y-99080D02*
X164580D01*
X147000Y-104500D02*
X163110D01*
X123498Y-80998D02*
X147000Y-104500D01*
X117500Y-85000D02*
X144000Y-111500D01*
X162500D02*
X174930Y-123930D01*
X144000Y-111500D02*
X162500D01*
X130042Y-80623D02*
X148500Y-99080D01*
X311500Y-98500D02*
X469921D01*
X468500Y-23579D02*
Y-17000D01*
Y-23579D02*
X538040Y-93119D01*
X444675Y-120042D02*
X460363Y-135730D01*
X51500Y-73000D02*
X61770Y-83270D01*
X51500Y-73000D02*
Y-69500D01*
X267500Y-92500D02*
X270998Y-89002D01*
X223000Y-85000D02*
X236500D01*
X244000Y-92500D01*
X267500D01*
X260730Y-87770D02*
X267500Y-81000D01*
X249110Y-87770D02*
X260730D01*
X247920Y-86580D02*
X249110Y-87770D01*
X247920Y-86580D02*
X247920D01*
X239840Y-78500D02*
X247920Y-86580D01*
X216500Y-78500D02*
X239840D01*
X85500Y-174000D02*
X128000D01*
X472998Y-227502D02*
Y-156503D01*
X132000Y-253000D02*
Y-220500D01*
X85000Y-173500D02*
X85500Y-174000D01*
X132000Y-220500D01*
X480500Y-207872D02*
Y-155500D01*
X515460Y-192463D02*
X516000Y-193003D01*
X515460Y-192463D02*
Y-111937D01*
X504478Y-218270D02*
X514097D01*
X485040Y-198832D02*
Y-158647D01*
X489580Y-196952D02*
Y-161147D01*
X485040Y-198832D02*
X504478Y-218270D01*
X489580Y-196952D02*
X504628Y-212000D01*
X511500D01*
X503997Y-202502D02*
X512077D01*
X525460Y-177598D02*
X526338Y-178476D01*
X525460Y-177598D02*
Y-96960D01*
X538040Y-243380D02*
Y-93119D01*
X531770Y-175040D02*
X532152Y-174659D01*
X526230Y-213150D02*
Y-205514D01*
X531012Y-191270D02*
X532500Y-192758D01*
X526338Y-184315D02*
Y-178476D01*
X518730Y-204147D02*
X525360Y-197518D01*
X512077Y-202502D02*
X516000Y-198580D01*
Y-193003D01*
X525360Y-197518D02*
X525999D01*
X522985Y-191248D02*
X528596D01*
X528619Y-191270D01*
X531012D01*
X526338Y-184315D02*
X527000Y-184978D01*
X454500Y-220000D02*
Y-187730D01*
X465512Y-181460D02*
X467000Y-179972D01*
X449540Y-181460D02*
X465512D01*
X459686Y-175190D02*
Y-174818D01*
X467000Y-179972D02*
Y-150500D01*
X437367Y-152500D02*
X459686Y-174818D01*
X232190Y-342549D02*
X256389Y-318350D01*
X236730Y-344430D02*
X258270Y-322890D01*
X334540Y-330960D02*
X445500Y-220000D01*
X327849Y-313810D02*
X426730Y-214929D01*
X259500Y-332000D02*
X285579D01*
X331150Y-318350D02*
X433000Y-216500D01*
X285579Y-332000D02*
X286619Y-330960D01*
X289000Y-359000D02*
X312000Y-336000D01*
X338500D01*
X304988Y-351000D02*
X330000D01*
X256389Y-318350D02*
X331150D01*
X330000Y-351000D02*
X395500Y-285500D01*
X258270Y-322890D02*
X333031D01*
X254508Y-313810D02*
X327849D01*
X338500Y-336000D02*
X454500Y-220000D01*
X286619Y-330960D02*
X334540D01*
X333031Y-322890D02*
X437540Y-218381D01*
X291500Y-455000D02*
Y-454282D01*
X289000Y-451782D02*
X291500Y-454282D01*
X296040Y-381500D02*
Y-359948D01*
X304988Y-351000D01*
X289000Y-451782D02*
Y-359000D01*
X232190Y-482500D02*
X242690Y-493000D01*
X232190Y-482500D02*
Y-447478D01*
X242690Y-493000D02*
X257000D01*
X239920Y-49505D02*
Y-32239D01*
Y-49505D02*
X248227Y-57812D01*
X235380Y-51385D02*
X256994Y-73000D01*
X232000Y-47500D02*
X235380Y-50880D01*
Y-51385D02*
Y-50880D01*
X244460Y-47625D02*
X250108Y-53272D01*
X244460Y-47625D02*
Y-34120D01*
X284498Y-64998D02*
X285500Y-66000D01*
X467873Y-70770D02*
X510267Y-113165D01*
X291498Y-65502D02*
X294500Y-62500D01*
X510267Y-155069D02*
Y-113165D01*
X469753Y-66230D02*
X515460Y-111937D01*
X284498Y-64998D02*
Y-64502D01*
X317292Y-70610D02*
X317452Y-70770D01*
X467873D01*
X465992Y-75310D02*
X497727Y-107045D01*
X509510Y-155826D02*
X510267Y-155069D01*
X282340Y-57500D02*
X282500D01*
X385270Y-66230D02*
X469753D01*
X276270Y-66770D02*
X280110Y-70610D01*
X317292D01*
X285500Y-66000D02*
X385270D01*
X509510Y-195929D02*
Y-155826D01*
X321381Y-93960D02*
X471801D01*
X283212Y-80000D02*
X464262D01*
X277190Y-86022D02*
X283212Y-80000D01*
X464262D02*
X493187Y-108926D01*
X285093Y-84540D02*
X311961D01*
X321381Y-93960D01*
X281730Y-87903D02*
X285093Y-84540D01*
X278389Y-75310D02*
X465992D01*
X276270Y-66770D02*
Y-63570D01*
X282340Y-57500D01*
X105268Y-77732D02*
X118268Y-64732D01*
X99731Y-83270D02*
X105268Y-77732D01*
X61770Y-83270D02*
X99731D01*
X313000Y-202500D02*
X328500Y-218000D01*
X282500Y-145500D02*
X312500Y-115500D01*
X377000Y-128500D02*
X378000Y-127500D01*
X312500Y-115500D02*
X312502Y-115502D01*
X466997D01*
X341000Y-128500D02*
X377000D01*
X279950Y-304950D02*
Y-304950D01*
X238540Y-263540D02*
X279950Y-304950D01*
X332000Y-209500D02*
X342000Y-199500D01*
X332000Y-218730D02*
Y-209500D01*
X328500Y-218000D02*
Y-213000D01*
Y-236000D02*
X362000Y-269500D01*
X328500Y-213000D02*
X332000Y-209500D01*
X277000Y-130000D02*
X285000D01*
X187110Y-109610D02*
X223239D01*
X174500Y-97000D02*
X187110Y-109610D01*
X164580Y-99080D02*
X179650Y-114150D01*
X221358D01*
X177300Y-118690D02*
X219478D01*
X163110Y-104500D02*
X177300Y-118690D01*
X288730Y-151770D02*
X320458Y-120042D01*
X279903Y-151770D02*
X288730D01*
X320458Y-120042D02*
X444675D01*
X213564Y-132500D02*
X214500D01*
X210564Y-129500D02*
X213564Y-132500D01*
X171500Y-129500D02*
X210564D01*
X174930Y-123930D02*
X218297D01*
X223367Y-129000D01*
D60*
X467000Y-557500D02*
D03*
X441600D02*
D03*
X496600Y-557000D02*
D03*
X522000D02*
D03*
X228600Y-555000D02*
D03*
X254000D02*
D03*
X279400D02*
D03*
X402900Y-558500D02*
D03*
X377500D02*
D03*
X352100D02*
D03*
D61*
X543714Y-417500D02*
D03*
Y-392100D02*
D03*
X543206Y-527228D02*
D03*
Y-501828D02*
D03*
X354992D02*
D03*
Y-527228D02*
D03*
X355500Y-392100D02*
D03*
Y-417500D02*
D03*
D62*
X324000Y-442500D02*
D03*
Y-417100D02*
D03*
Y-391700D02*
D03*
X551500Y-330500D02*
D03*
Y-305100D02*
D03*
Y-279700D02*
D03*
Y-254300D02*
D03*
Y-228900D02*
D03*
Y-203500D02*
D03*
X324500Y-471500D02*
D03*
Y-496900D02*
D03*
Y-522300D02*
D03*
X549500Y-29500D02*
D03*
Y-54900D02*
D03*
Y-80300D02*
D03*
X551500Y-172900D02*
D03*
Y-147500D02*
D03*
Y-122100D02*
D03*
D63*
X249000Y-217000D02*
D03*
Y-230500D02*
D03*
X499500Y-372000D02*
D03*
X382500Y-172000D02*
D03*
X512000Y-308500D02*
D03*
X503997Y-116000D02*
D03*
X139817Y-273683D02*
D03*
X30353Y-507460D02*
D03*
X60000Y-511000D02*
D03*
X75000Y-504500D02*
D03*
X97000Y-544000D02*
D03*
X150500Y-263540D02*
D03*
X157770Y-275000D02*
D03*
X242500Y-442500D02*
D03*
X243000Y-370000D02*
D03*
X426730Y-187650D02*
D03*
X422597Y-180270D02*
D03*
X433000Y-174000D02*
D03*
X242000Y-480500D02*
D03*
X257000Y-493000D02*
D03*
X291500Y-455000D02*
D03*
X475500Y-142000D02*
D03*
X450500Y-174500D02*
D03*
X479500Y-129000D02*
D03*
X476500Y-119000D02*
D03*
X282500Y-145500D02*
D03*
X249000Y-147500D02*
D03*
X260000Y-155000D02*
D03*
X107000Y-264000D02*
D03*
X223500Y-160500D02*
D03*
X290998Y-253002D02*
D03*
X291000Y-243500D02*
D03*
X511500Y-212000D02*
D03*
X472998Y-227502D02*
D03*
X111000Y-363500D02*
D03*
X261000Y-99500D02*
D03*
X171500Y-129500D02*
D03*
X186500Y-309500D02*
D03*
X196000Y-542500D02*
D03*
X124500Y-319000D02*
D03*
X255500Y-429500D02*
D03*
X281998Y-158502D02*
D03*
X364000Y-87000D02*
D03*
X466997Y-115502D02*
D03*
X117498Y-307502D02*
D03*
X218500Y-89500D02*
D03*
X412000Y-168540D02*
D03*
X530000Y-237500D02*
D03*
X533000Y-267000D02*
D03*
X249000Y-190500D02*
D03*
X502500Y-477500D02*
D03*
X511000Y-350000D02*
D03*
X436500Y-378230D02*
D03*
X290498Y-219502D02*
D03*
X292000Y-231000D02*
D03*
X249000Y-245500D02*
D03*
X254000Y-138000D02*
D03*
X294500Y-104500D02*
D03*
X260000Y-166500D02*
D03*
X325500Y-35000D02*
D03*
X284500Y-101500D02*
D03*
X288500Y-92500D02*
D03*
X128000Y-174000D02*
D03*
X85000Y-173500D02*
D03*
X259000Y-331500D02*
D03*
X248000Y-311000D02*
D03*
X253000Y-303000D02*
D03*
X270500Y-304500D02*
D03*
X210770Y-330500D02*
D03*
X204500Y-340500D02*
D03*
X55500Y-313500D02*
D03*
X142000Y-561000D02*
D03*
X362000Y-269500D02*
D03*
X374000Y-32000D02*
D03*
X150500Y-325000D02*
D03*
X55000Y-561000D02*
D03*
X52500Y-552500D02*
D03*
X97000Y-405000D02*
D03*
X128500Y-417000D02*
D03*
X164000Y-561000D02*
D03*
X105000Y-554000D02*
D03*
X124498Y-550001D02*
D03*
X512480Y-267221D02*
D03*
X501500Y-176000D02*
D03*
X431500Y-55000D02*
D03*
X468500Y-17000D02*
D03*
X382500Y-138000D02*
D03*
X378000Y-127500D02*
D03*
X526000Y-70000D02*
D03*
X383498Y-321502D02*
D03*
X503997Y-202502D02*
D03*
X531770Y-175040D02*
D03*
X526230Y-205514D02*
D03*
X509510Y-195929D02*
D03*
X525999Y-197518D02*
D03*
X527000Y-184978D02*
D03*
X454500Y-187730D02*
D03*
X459686Y-175190D02*
D03*
X436000Y-477500D02*
D03*
X425000D02*
D03*
X306000Y-290000D02*
D03*
X434998Y-404502D02*
D03*
X425500Y-403500D02*
D03*
X296040Y-381500D02*
D03*
X476500Y-299000D02*
D03*
X342000Y-199500D02*
D03*
X341000Y-128500D02*
D03*
X345500Y-170500D02*
D03*
X332000Y-218730D02*
D03*
X279950Y-304950D02*
D03*
X290130Y-262130D02*
D03*
X277000Y-130000D02*
D03*
X214500Y-132500D02*
D03*
D64*
X186498Y-70502D02*
D03*
X105268Y-77732D02*
D03*
X154268Y-76732D02*
D03*
X216500Y-78500D02*
D03*
X260498Y-38502D02*
D03*
X204500Y-77500D02*
D03*
X33500Y-76500D02*
D03*
X45270Y-76730D02*
D03*
X210498Y-70502D02*
D03*
X227500Y-93000D02*
D03*
X252498Y-47502D02*
D03*
X245040Y-74540D02*
D03*
X251500Y-82000D02*
D03*
X270998Y-89002D02*
D03*
X257500Y-73000D02*
D03*
X263420Y-62000D02*
D03*
X270500Y-66500D02*
D03*
X267500Y-81000D02*
D03*
X267498Y-39502D02*
D03*
X273268Y-43991D02*
D03*
X285498Y-44502D02*
D03*
X198500Y-67000D02*
D03*
X162500Y-70500D02*
D03*
X174500D02*
D03*
X180500Y-76500D02*
D03*
X192268Y-77088D02*
D03*
X148498Y-70502D02*
D03*
X123498Y-70502D02*
D03*
X136000Y-65500D02*
D03*
X141500Y-77500D02*
D03*
X129498Y-76502D02*
D03*
X117500Y-77500D02*
D03*
X39500Y-70500D02*
D03*
X99500D02*
D03*
X75500D02*
D03*
X51500Y-69500D02*
D03*
X63500D02*
D03*
X69500Y-76500D02*
D03*
X81500Y-77500D02*
D03*
X87499Y-69502D02*
D03*
X92500Y-77500D02*
D03*
X284498Y-64502D02*
D03*
X282500Y-57500D02*
D03*
M02*
