G04*
G04 #@! TF.GenerationSoftware,Altium Limited,Altium Designer,24.10.1 (45)*
G04*
G04 Layer_Color=2752767*
%FSLAX44Y44*%
%MOMM*%
G71*
G04*
G04 #@! TF.SameCoordinates,C031E789-135E-4793-A04E-BF888AAD087F*
G04*
G04*
G04 #@! TF.FilePolarity,Positive*
G04*
G01*
G75*
%ADD82C,0.1270*%
%ADD83C,0.1693*%
D82*
X461920Y-562580D02*
Y-552420D01*
X472080D01*
Y-562580D01*
X461920D01*
X436520D02*
Y-552420D01*
X446680D01*
Y-562580D01*
X436520D01*
X491520Y-562080D02*
Y-551920D01*
X501680D01*
Y-562080D01*
X491520D01*
X516920D02*
Y-551920D01*
X527080D01*
Y-562080D01*
X516920D01*
X543714Y-422580D02*
X538634Y-412420D01*
X548794D01*
X543714Y-422580D01*
Y-397180D02*
X538634Y-387020D01*
X548794D01*
X543714Y-397180D01*
X543206Y-532308D02*
X538126Y-522148D01*
X548286D01*
X543206Y-532308D01*
Y-506908D02*
X538126Y-496748D01*
X548286D01*
X543206Y-506908D01*
X354992D02*
X349912Y-496748D01*
X360072D01*
X354992Y-506908D01*
Y-532308D02*
X349912Y-522148D01*
X360072D01*
X354992Y-532308D01*
X355500Y-397180D02*
X350420Y-387020D01*
X360580D01*
X355500Y-397180D01*
Y-422580D02*
X350420Y-412420D01*
X360580D01*
X355500Y-422580D01*
X318920Y-447580D02*
Y-437420D01*
X329080D01*
Y-447580D01*
X318920D01*
Y-422180D02*
Y-412020D01*
X329080D01*
Y-422180D01*
X318920D01*
Y-396780D02*
Y-386620D01*
X329080D01*
Y-396780D01*
X318920D01*
X546420Y-335580D02*
Y-325420D01*
X556580D01*
Y-335580D01*
X546420D01*
Y-310180D02*
Y-300020D01*
X556580D01*
Y-310180D01*
X546420D01*
Y-284780D02*
Y-274620D01*
X556580D01*
Y-284780D01*
X546420D01*
Y-259380D02*
Y-249220D01*
X556580D01*
Y-259380D01*
X546420D01*
Y-233980D02*
Y-223820D01*
X556580D01*
Y-233980D01*
X546420D01*
Y-208580D02*
Y-198420D01*
X556580D01*
Y-208580D01*
X546420D01*
X319420Y-476580D02*
Y-466420D01*
X329580D01*
Y-476580D01*
X319420D01*
Y-501980D02*
Y-491820D01*
X329580D01*
Y-501980D01*
X319420D01*
Y-527380D02*
Y-517220D01*
X329580D01*
Y-527380D01*
X319420D01*
X223520Y-560080D02*
Y-549920D01*
X233680D01*
Y-560080D01*
X223520D01*
X248920D02*
Y-549920D01*
X259080D01*
Y-560080D01*
X248920D01*
X274320D02*
Y-549920D01*
X284480D01*
Y-560080D01*
X274320D01*
X397820Y-563580D02*
Y-553420D01*
X407980D01*
Y-563580D01*
X397820D01*
X372420D02*
Y-553420D01*
X382580D01*
Y-563580D01*
X372420D01*
X347020D02*
Y-553420D01*
X357180D01*
Y-563580D01*
X347020D01*
X544420Y-34580D02*
Y-24420D01*
X554580D01*
Y-34580D01*
X544420D01*
Y-59980D02*
Y-49820D01*
X554580D01*
Y-59980D01*
X544420D01*
Y-85380D02*
Y-75220D01*
X554580D01*
Y-85380D01*
X544420D01*
X546420Y-177980D02*
Y-167820D01*
X556580D01*
Y-177980D01*
X546420D01*
Y-152580D02*
Y-142420D01*
X556580D01*
Y-152580D01*
X546420D01*
Y-127180D02*
Y-117020D01*
X556580D01*
Y-127180D01*
X546420D01*
X249000Y-222080D02*
X251540Y-219540D01*
X254080D01*
X251540Y-217000D01*
X254080Y-214460D01*
X251540D01*
X249000Y-211920D01*
X246460Y-214460D01*
X243920D01*
X246460Y-217000D01*
X243920Y-219540D01*
X246460D01*
X249000Y-222080D01*
Y-235580D02*
X251540Y-233040D01*
X254080D01*
X251540Y-230500D01*
X254080Y-227960D01*
X251540D01*
X249000Y-225420D01*
X246460Y-227960D01*
X243920D01*
X246460Y-230500D01*
X243920Y-233040D01*
X246460D01*
X249000Y-235580D01*
X499500Y-377080D02*
X502040Y-374540D01*
X504580D01*
X502040Y-372000D01*
X504580Y-369460D01*
X502040D01*
X499500Y-366920D01*
X496960Y-369460D01*
X494420D01*
X496960Y-372000D01*
X494420Y-374540D01*
X496960D01*
X499500Y-377080D01*
X382500Y-177080D02*
X385040Y-174540D01*
X387580D01*
X385040Y-172000D01*
X387580Y-169460D01*
X385040D01*
X382500Y-166920D01*
X379960Y-169460D01*
X377420D01*
X379960Y-172000D01*
X377420Y-174540D01*
X379960D01*
X382500Y-177080D01*
X512000Y-313580D02*
X514540Y-311040D01*
X517080D01*
X514540Y-308500D01*
X517080Y-305960D01*
X514540D01*
X512000Y-303420D01*
X509460Y-305960D01*
X506920D01*
X509460Y-308500D01*
X506920Y-311040D01*
X509460D01*
X512000Y-313580D01*
X503997Y-121080D02*
X506537Y-118540D01*
X509077D01*
X506537Y-116000D01*
X509077Y-113460D01*
X506537D01*
X503997Y-110920D01*
X501457Y-113460D01*
X498917D01*
X501457Y-116000D01*
X498917Y-118540D01*
X501457D01*
X503997Y-121080D01*
X139817Y-278764D02*
X142357Y-276224D01*
X144896D01*
X142357Y-273683D01*
X144896Y-271143D01*
X142357D01*
X139817Y-268603D01*
X137276Y-271143D01*
X134736D01*
X137276Y-273683D01*
X134736Y-276224D01*
X137276D01*
X139817Y-278764D01*
X30353Y-512540D02*
X32893Y-510000D01*
X35433D01*
X32893Y-507460D01*
X35433Y-504920D01*
X32893D01*
X30353Y-502380D01*
X27813Y-504920D01*
X25273D01*
X27813Y-507460D01*
X25273Y-510000D01*
X27813D01*
X30353Y-512540D01*
X60000Y-516080D02*
X62540Y-513540D01*
X65080D01*
X62540Y-511000D01*
X65080Y-508460D01*
X62540D01*
X60000Y-505920D01*
X57460Y-508460D01*
X54920D01*
X57460Y-511000D01*
X54920Y-513540D01*
X57460D01*
X60000Y-516080D01*
X75000Y-509580D02*
X77540Y-507040D01*
X80080D01*
X77540Y-504500D01*
X80080Y-501960D01*
X77540D01*
X75000Y-499420D01*
X72460Y-501960D01*
X69920D01*
X72460Y-504500D01*
X69920Y-507040D01*
X72460D01*
X75000Y-509580D01*
X97000Y-549080D02*
X99540Y-546540D01*
X102080D01*
X99540Y-544000D01*
X102080Y-541460D01*
X99540D01*
X97000Y-538920D01*
X94460Y-541460D01*
X91920D01*
X94460Y-544000D01*
X91920Y-546540D01*
X94460D01*
X97000Y-549080D01*
X150500Y-268620D02*
X153040Y-266080D01*
X155580D01*
X153040Y-263540D01*
X155580Y-261000D01*
X153040D01*
X150500Y-258460D01*
X147960Y-261000D01*
X145420D01*
X147960Y-263540D01*
X145420Y-266080D01*
X147960D01*
X150500Y-268620D01*
X157770Y-280080D02*
X160310Y-277540D01*
X162850D01*
X160310Y-275000D01*
X162850Y-272460D01*
X160310D01*
X157770Y-269920D01*
X155230Y-272460D01*
X152690D01*
X155230Y-275000D01*
X152690Y-277540D01*
X155230D01*
X157770Y-280080D01*
X242500Y-447580D02*
X245040Y-445040D01*
X247580D01*
X245040Y-442500D01*
X247580Y-439960D01*
X245040D01*
X242500Y-437420D01*
X239960Y-439960D01*
X237420D01*
X239960Y-442500D01*
X237420Y-445040D01*
X239960D01*
X242500Y-447580D01*
X243000Y-375080D02*
X245540Y-372540D01*
X248080D01*
X245540Y-370000D01*
X248080Y-367460D01*
X245540D01*
X243000Y-364920D01*
X240460Y-367460D01*
X237920D01*
X240460Y-370000D01*
X237920Y-372540D01*
X240460D01*
X243000Y-375080D01*
X426730Y-192730D02*
X429270Y-190190D01*
X431810D01*
X429270Y-187650D01*
X431810Y-185110D01*
X429270D01*
X426730Y-182570D01*
X424190Y-185110D01*
X421650D01*
X424190Y-187650D01*
X421650Y-190190D01*
X424190D01*
X426730Y-192730D01*
X422597Y-185350D02*
X425137Y-182810D01*
X427677D01*
X425137Y-180270D01*
X427677Y-177730D01*
X425137D01*
X422597Y-175190D01*
X420057Y-177730D01*
X417517D01*
X420057Y-180270D01*
X417517Y-182810D01*
X420057D01*
X422597Y-185350D01*
X433000Y-179080D02*
X435540Y-176540D01*
X438080D01*
X435540Y-174000D01*
X438080Y-171460D01*
X435540D01*
X433000Y-168920D01*
X430460Y-171460D01*
X427920D01*
X430460Y-174000D01*
X427920Y-176540D01*
X430460D01*
X433000Y-179080D01*
X242000Y-485580D02*
X244540Y-483040D01*
X247080D01*
X244540Y-480500D01*
X247080Y-477960D01*
X244540D01*
X242000Y-475420D01*
X239460Y-477960D01*
X236920D01*
X239460Y-480500D01*
X236920Y-483040D01*
X239460D01*
X242000Y-485580D01*
X257000Y-498080D02*
X259540Y-495540D01*
X262080D01*
X259540Y-493000D01*
X262080Y-490460D01*
X259540D01*
X257000Y-487920D01*
X254460Y-490460D01*
X251920D01*
X254460Y-493000D01*
X251920Y-495540D01*
X254460D01*
X257000Y-498080D01*
X291500Y-460080D02*
X294040Y-457540D01*
X296580D01*
X294040Y-455000D01*
X296580Y-452460D01*
X294040D01*
X291500Y-449920D01*
X288960Y-452460D01*
X286420D01*
X288960Y-455000D01*
X286420Y-457540D01*
X288960D01*
X291500Y-460080D01*
X475500Y-147080D02*
X478040Y-144540D01*
X480580D01*
X478040Y-142000D01*
X480580Y-139460D01*
X478040D01*
X475500Y-136920D01*
X472960Y-139460D01*
X470420D01*
X472960Y-142000D01*
X470420Y-144540D01*
X472960D01*
X475500Y-147080D01*
X450500Y-179580D02*
X453040Y-177040D01*
X455580D01*
X453040Y-174500D01*
X455580Y-171960D01*
X453040D01*
X450500Y-169420D01*
X447960Y-171960D01*
X445420D01*
X447960Y-174500D01*
X445420Y-177040D01*
X447960D01*
X450500Y-179580D01*
X479500Y-134080D02*
X482040Y-131540D01*
X484580D01*
X482040Y-129000D01*
X484580Y-126460D01*
X482040D01*
X479500Y-123920D01*
X476960Y-126460D01*
X474420D01*
X476960Y-129000D01*
X474420Y-131540D01*
X476960D01*
X479500Y-134080D01*
X476500Y-124080D02*
X479040Y-121540D01*
X481580D01*
X479040Y-119000D01*
X481580Y-116460D01*
X479040D01*
X476500Y-113920D01*
X473960Y-116460D01*
X471420D01*
X473960Y-119000D01*
X471420Y-121540D01*
X473960D01*
X476500Y-124080D01*
X282500Y-150580D02*
X285040Y-148040D01*
X287580D01*
X285040Y-145500D01*
X287580Y-142960D01*
X285040D01*
X282500Y-140420D01*
X279960Y-142960D01*
X277420D01*
X279960Y-145500D01*
X277420Y-148040D01*
X279960D01*
X282500Y-150580D01*
X249000Y-152580D02*
X251540Y-150040D01*
X254080D01*
X251540Y-147500D01*
X254080Y-144960D01*
X251540D01*
X249000Y-142420D01*
X246460Y-144960D01*
X243920D01*
X246460Y-147500D01*
X243920Y-150040D01*
X246460D01*
X249000Y-152580D01*
X260000Y-160080D02*
X262540Y-157540D01*
X265080D01*
X262540Y-155000D01*
X265080Y-152460D01*
X262540D01*
X260000Y-149920D01*
X257460Y-152460D01*
X254920D01*
X257460Y-155000D01*
X254920Y-157540D01*
X257460D01*
X260000Y-160080D01*
X107000Y-269080D02*
X109540Y-266540D01*
X112080D01*
X109540Y-264000D01*
X112080Y-261460D01*
X109540D01*
X107000Y-258920D01*
X104460Y-261460D01*
X101920D01*
X104460Y-264000D01*
X101920Y-266540D01*
X104460D01*
X107000Y-269080D01*
X223500Y-165580D02*
X226040Y-163040D01*
X228580D01*
X226040Y-160500D01*
X228580Y-157960D01*
X226040D01*
X223500Y-155420D01*
X220960Y-157960D01*
X218420D01*
X220960Y-160500D01*
X218420Y-163040D01*
X220960D01*
X223500Y-165580D01*
X290998Y-258082D02*
X293538Y-255542D01*
X296078D01*
X293538Y-253002D01*
X296078Y-250462D01*
X293538D01*
X290998Y-247922D01*
X288458Y-250462D01*
X285918D01*
X288458Y-253002D01*
X285918Y-255542D01*
X288458D01*
X290998Y-258082D01*
X291000Y-248580D02*
X293540Y-246040D01*
X296080D01*
X293540Y-243500D01*
X296080Y-240960D01*
X293540D01*
X291000Y-238420D01*
X288460Y-240960D01*
X285920D01*
X288460Y-243500D01*
X285920Y-246040D01*
X288460D01*
X291000Y-248580D01*
X511500Y-217080D02*
X514040Y-214540D01*
X516580D01*
X514040Y-212000D01*
X516580Y-209460D01*
X514040D01*
X511500Y-206920D01*
X508960Y-209460D01*
X506420D01*
X508960Y-212000D01*
X506420Y-214540D01*
X508960D01*
X511500Y-217080D01*
X472998Y-232582D02*
X475537Y-230042D01*
X478078D01*
X475537Y-227502D01*
X478078Y-224962D01*
X475537D01*
X472998Y-222422D01*
X470457Y-224962D01*
X467918D01*
X470457Y-227502D01*
X467918Y-230042D01*
X470457D01*
X472998Y-232582D01*
X111000Y-368580D02*
X113540Y-366040D01*
X116080D01*
X113540Y-363500D01*
X116080Y-360960D01*
X113540D01*
X111000Y-358420D01*
X108460Y-360960D01*
X105920D01*
X108460Y-363500D01*
X105920Y-366040D01*
X108460D01*
X111000Y-368580D01*
X261000Y-104580D02*
X263540Y-102040D01*
X266080D01*
X263540Y-99500D01*
X266080Y-96960D01*
X263540D01*
X261000Y-94420D01*
X258460Y-96960D01*
X255920D01*
X258460Y-99500D01*
X255920Y-102040D01*
X258460D01*
X261000Y-104580D01*
X171500Y-134580D02*
X174040Y-132040D01*
X176580D01*
X174040Y-129500D01*
X176580Y-126960D01*
X174040D01*
X171500Y-124420D01*
X168960Y-126960D01*
X166420D01*
X168960Y-129500D01*
X166420Y-132040D01*
X168960D01*
X171500Y-134580D01*
X186500Y-314580D02*
X189040Y-312040D01*
X191580D01*
X189040Y-309500D01*
X191580Y-306960D01*
X189040D01*
X186500Y-304420D01*
X183960Y-306960D01*
X181420D01*
X183960Y-309500D01*
X181420Y-312040D01*
X183960D01*
X186500Y-314580D01*
X196000Y-547580D02*
X198540Y-545040D01*
X201080D01*
X198540Y-542500D01*
X201080Y-539960D01*
X198540D01*
X196000Y-537420D01*
X193460Y-539960D01*
X190920D01*
X193460Y-542500D01*
X190920Y-545040D01*
X193460D01*
X196000Y-547580D01*
X124500Y-324080D02*
X127040Y-321540D01*
X129580D01*
X127040Y-319000D01*
X129580Y-316460D01*
X127040D01*
X124500Y-313920D01*
X121960Y-316460D01*
X119420D01*
X121960Y-319000D01*
X119420Y-321540D01*
X121960D01*
X124500Y-324080D01*
X255500Y-434580D02*
X258040Y-432040D01*
X260580D01*
X258040Y-429500D01*
X260580Y-426960D01*
X258040D01*
X255500Y-424420D01*
X252960Y-426960D01*
X250420D01*
X252960Y-429500D01*
X250420Y-432040D01*
X252960D01*
X255500Y-434580D01*
X281998Y-163582D02*
X284538Y-161042D01*
X287078D01*
X284538Y-158502D01*
X287078Y-155962D01*
X284538D01*
X281998Y-153422D01*
X279458Y-155962D01*
X276918D01*
X279458Y-158502D01*
X276918Y-161042D01*
X279458D01*
X281998Y-163582D01*
X364000Y-92080D02*
X366540Y-89540D01*
X369080D01*
X366540Y-87000D01*
X369080Y-84460D01*
X366540D01*
X364000Y-81920D01*
X361460Y-84460D01*
X358920D01*
X361460Y-87000D01*
X358920Y-89540D01*
X361460D01*
X364000Y-92080D01*
X466997Y-120582D02*
X469538Y-118042D01*
X472077D01*
X469538Y-115502D01*
X472077Y-112962D01*
X469538D01*
X466997Y-110422D01*
X464458Y-112962D01*
X461917D01*
X464458Y-115502D01*
X461917Y-118042D01*
X464458D01*
X466997Y-120582D01*
X117498Y-312582D02*
X120038Y-310042D01*
X122578D01*
X120038Y-307502D01*
X122578Y-304962D01*
X120038D01*
X117498Y-302422D01*
X114958Y-304962D01*
X112418D01*
X114958Y-307502D01*
X112418Y-310042D01*
X114958D01*
X117498Y-312582D01*
X218500Y-94580D02*
X221040Y-92040D01*
X223580D01*
X221040Y-89500D01*
X223580Y-86960D01*
X221040D01*
X218500Y-84420D01*
X215960Y-86960D01*
X213420D01*
X215960Y-89500D01*
X213420Y-92040D01*
X215960D01*
X218500Y-94580D01*
X412000Y-173620D02*
X414540Y-171080D01*
X417080D01*
X414540Y-168540D01*
X417080Y-166000D01*
X414540D01*
X412000Y-163460D01*
X409460Y-166000D01*
X406920D01*
X409460Y-168540D01*
X406920Y-171080D01*
X409460D01*
X412000Y-173620D01*
X530000Y-242580D02*
X532540Y-240040D01*
X535080D01*
X532540Y-237500D01*
X535080Y-234960D01*
X532540D01*
X530000Y-232420D01*
X527460Y-234960D01*
X524920D01*
X527460Y-237500D01*
X524920Y-240040D01*
X527460D01*
X530000Y-242580D01*
X533000Y-272080D02*
X535540Y-269540D01*
X538080D01*
X535540Y-267000D01*
X538080Y-264460D01*
X535540D01*
X533000Y-261920D01*
X530460Y-264460D01*
X527920D01*
X530460Y-267000D01*
X527920Y-269540D01*
X530460D01*
X533000Y-272080D01*
X249000Y-195580D02*
X251540Y-193040D01*
X254080D01*
X251540Y-190500D01*
X254080Y-187960D01*
X251540D01*
X249000Y-185420D01*
X246460Y-187960D01*
X243920D01*
X246460Y-190500D01*
X243920Y-193040D01*
X246460D01*
X249000Y-195580D01*
X502500Y-482580D02*
X505040Y-480040D01*
X507580D01*
X505040Y-477500D01*
X507580Y-474960D01*
X505040D01*
X502500Y-472420D01*
X499960Y-474960D01*
X497420D01*
X499960Y-477500D01*
X497420Y-480040D01*
X499960D01*
X502500Y-482580D01*
X511000Y-355080D02*
X513540Y-352540D01*
X516080D01*
X513540Y-350000D01*
X516080Y-347460D01*
X513540D01*
X511000Y-344920D01*
X508460Y-347460D01*
X505920D01*
X508460Y-350000D01*
X505920Y-352540D01*
X508460D01*
X511000Y-355080D01*
X436500Y-383310D02*
X439040Y-380770D01*
X441580D01*
X439040Y-378230D01*
X441580Y-375690D01*
X439040D01*
X436500Y-373150D01*
X433960Y-375690D01*
X431420D01*
X433960Y-378230D01*
X431420Y-380770D01*
X433960D01*
X436500Y-383310D01*
X290498Y-224582D02*
X293038Y-222042D01*
X295578D01*
X293038Y-219502D01*
X295578Y-216962D01*
X293038D01*
X290498Y-214422D01*
X287958Y-216962D01*
X285418D01*
X287958Y-219502D01*
X285418Y-222042D01*
X287958D01*
X290498Y-224582D01*
X292000Y-236080D02*
X294540Y-233540D01*
X297080D01*
X294540Y-231000D01*
X297080Y-228460D01*
X294540D01*
X292000Y-225920D01*
X289460Y-228460D01*
X286920D01*
X289460Y-231000D01*
X286920Y-233540D01*
X289460D01*
X292000Y-236080D01*
X249000Y-250580D02*
X251540Y-248040D01*
X254080D01*
X251540Y-245500D01*
X254080Y-242960D01*
X251540D01*
X249000Y-240420D01*
X246460Y-242960D01*
X243920D01*
X246460Y-245500D01*
X243920Y-248040D01*
X246460D01*
X249000Y-250580D01*
X254000Y-143080D02*
X256540Y-140540D01*
X259080D01*
X256540Y-138000D01*
X259080Y-135460D01*
X256540D01*
X254000Y-132920D01*
X251460Y-135460D01*
X248920D01*
X251460Y-138000D01*
X248920Y-140540D01*
X251460D01*
X254000Y-143080D01*
X294500Y-109580D02*
X297040Y-107040D01*
X299580D01*
X297040Y-104500D01*
X299580Y-101960D01*
X297040D01*
X294500Y-99420D01*
X291960Y-101960D01*
X289420D01*
X291960Y-104500D01*
X289420Y-107040D01*
X291960D01*
X294500Y-109580D01*
X260000Y-171580D02*
X262540Y-169040D01*
X265080D01*
X262540Y-166500D01*
X265080Y-163960D01*
X262540D01*
X260000Y-161420D01*
X257460Y-163960D01*
X254920D01*
X257460Y-166500D01*
X254920Y-169040D01*
X257460D01*
X260000Y-171580D01*
X325500Y-40080D02*
X328040Y-37540D01*
X330580D01*
X328040Y-35000D01*
X330580Y-32460D01*
X328040D01*
X325500Y-29920D01*
X322960Y-32460D01*
X320420D01*
X322960Y-35000D01*
X320420Y-37540D01*
X322960D01*
X325500Y-40080D01*
X284500Y-106580D02*
X287040Y-104040D01*
X289580D01*
X287040Y-101500D01*
X289580Y-98960D01*
X287040D01*
X284500Y-96420D01*
X281960Y-98960D01*
X279420D01*
X281960Y-101500D01*
X279420Y-104040D01*
X281960D01*
X284500Y-106580D01*
X288500Y-97580D02*
X291040Y-95040D01*
X293580D01*
X291040Y-92500D01*
X293580Y-89960D01*
X291040D01*
X288500Y-87420D01*
X285960Y-89960D01*
X283420D01*
X285960Y-92500D01*
X283420Y-95040D01*
X285960D01*
X288500Y-97580D01*
X128000Y-179080D02*
X130540Y-176540D01*
X133080D01*
X130540Y-174000D01*
X133080Y-171460D01*
X130540D01*
X128000Y-168920D01*
X125460Y-171460D01*
X122920D01*
X125460Y-174000D01*
X122920Y-176540D01*
X125460D01*
X128000Y-179080D01*
X85000Y-178580D02*
X87540Y-176040D01*
X90080D01*
X87540Y-173500D01*
X90080Y-170960D01*
X87540D01*
X85000Y-168420D01*
X82460Y-170960D01*
X79920D01*
X82460Y-173500D01*
X79920Y-176040D01*
X82460D01*
X85000Y-178580D01*
X259000Y-336580D02*
X261540Y-334040D01*
X264080D01*
X261540Y-331500D01*
X264080Y-328960D01*
X261540D01*
X259000Y-326420D01*
X256460Y-328960D01*
X253920D01*
X256460Y-331500D01*
X253920Y-334040D01*
X256460D01*
X259000Y-336580D01*
X248000Y-316080D02*
X250540Y-313540D01*
X253080D01*
X250540Y-311000D01*
X253080Y-308460D01*
X250540D01*
X248000Y-305920D01*
X245460Y-308460D01*
X242920D01*
X245460Y-311000D01*
X242920Y-313540D01*
X245460D01*
X248000Y-316080D01*
X253000Y-308080D02*
X255540Y-305540D01*
X258080D01*
X255540Y-303000D01*
X258080Y-300460D01*
X255540D01*
X253000Y-297920D01*
X250460Y-300460D01*
X247920D01*
X250460Y-303000D01*
X247920Y-305540D01*
X250460D01*
X253000Y-308080D01*
X270500Y-309580D02*
X273040Y-307040D01*
X275580D01*
X273040Y-304500D01*
X275580Y-301960D01*
X273040D01*
X270500Y-299420D01*
X267960Y-301960D01*
X265420D01*
X267960Y-304500D01*
X265420Y-307040D01*
X267960D01*
X270500Y-309580D01*
X210770Y-335580D02*
X213310Y-333040D01*
X215850D01*
X213310Y-330500D01*
X215850Y-327960D01*
X213310D01*
X210770Y-325420D01*
X208230Y-327960D01*
X205690D01*
X208230Y-330500D01*
X205690Y-333040D01*
X208230D01*
X210770Y-335580D01*
X204500Y-345580D02*
X207040Y-343040D01*
X209580D01*
X207040Y-340500D01*
X209580Y-337960D01*
X207040D01*
X204500Y-335420D01*
X201960Y-337960D01*
X199420D01*
X201960Y-340500D01*
X199420Y-343040D01*
X201960D01*
X204500Y-345580D01*
X55500Y-318580D02*
X58040Y-316040D01*
X60580D01*
X58040Y-313500D01*
X60580Y-310960D01*
X58040D01*
X55500Y-308420D01*
X52960Y-310960D01*
X50420D01*
X52960Y-313500D01*
X50420Y-316040D01*
X52960D01*
X55500Y-318580D01*
X142000Y-566080D02*
X144540Y-563540D01*
X147080D01*
X144540Y-561000D01*
X147080Y-558460D01*
X144540D01*
X142000Y-555920D01*
X139460Y-558460D01*
X136920D01*
X139460Y-561000D01*
X136920Y-563540D01*
X139460D01*
X142000Y-566080D01*
X362000Y-274580D02*
X364540Y-272040D01*
X367080D01*
X364540Y-269500D01*
X367080Y-266960D01*
X364540D01*
X362000Y-264420D01*
X359460Y-266960D01*
X356920D01*
X359460Y-269500D01*
X356920Y-272040D01*
X359460D01*
X362000Y-274580D01*
X374000Y-37080D02*
X376540Y-34540D01*
X379080D01*
X376540Y-32000D01*
X379080Y-29460D01*
X376540D01*
X374000Y-26920D01*
X371460Y-29460D01*
X368920D01*
X371460Y-32000D01*
X368920Y-34540D01*
X371460D01*
X374000Y-37080D01*
X150500Y-330080D02*
X153040Y-327540D01*
X155580D01*
X153040Y-325000D01*
X155580Y-322460D01*
X153040D01*
X150500Y-319920D01*
X147960Y-322460D01*
X145420D01*
X147960Y-325000D01*
X145420Y-327540D01*
X147960D01*
X150500Y-330080D01*
X55000Y-566080D02*
X57540Y-563540D01*
X60080D01*
X57540Y-561000D01*
X60080Y-558460D01*
X57540D01*
X55000Y-555920D01*
X52460Y-558460D01*
X49920D01*
X52460Y-561000D01*
X49920Y-563540D01*
X52460D01*
X55000Y-566080D01*
X52500Y-557580D02*
X55040Y-555040D01*
X57580D01*
X55040Y-552500D01*
X57580Y-549960D01*
X55040D01*
X52500Y-547420D01*
X49960Y-549960D01*
X47420D01*
X49960Y-552500D01*
X47420Y-555040D01*
X49960D01*
X52500Y-557580D01*
X97000Y-410080D02*
X99540Y-407540D01*
X102080D01*
X99540Y-405000D01*
X102080Y-402460D01*
X99540D01*
X97000Y-399920D01*
X94460Y-402460D01*
X91920D01*
X94460Y-405000D01*
X91920Y-407540D01*
X94460D01*
X97000Y-410080D01*
X128500Y-422080D02*
X131040Y-419540D01*
X133580D01*
X131040Y-417000D01*
X133580Y-414460D01*
X131040D01*
X128500Y-411920D01*
X125960Y-414460D01*
X123420D01*
X125960Y-417000D01*
X123420Y-419540D01*
X125960D01*
X128500Y-422080D01*
X164000Y-566080D02*
X166540Y-563540D01*
X169080D01*
X166540Y-561000D01*
X169080Y-558460D01*
X166540D01*
X164000Y-555920D01*
X161460Y-558460D01*
X158920D01*
X161460Y-561000D01*
X158920Y-563540D01*
X161460D01*
X164000Y-566080D01*
X105000Y-559080D02*
X107540Y-556540D01*
X110080D01*
X107540Y-554000D01*
X110080Y-551460D01*
X107540D01*
X105000Y-548920D01*
X102460Y-551460D01*
X99920D01*
X102460Y-554000D01*
X99920Y-556540D01*
X102460D01*
X105000Y-559080D01*
X124498Y-555081D02*
X127038Y-552541D01*
X129578D01*
X127038Y-550001D01*
X129578Y-547461D01*
X127038D01*
X124498Y-544921D01*
X121958Y-547461D01*
X119418D01*
X121958Y-550001D01*
X119418Y-552541D01*
X121958D01*
X124498Y-555081D01*
X512480Y-272301D02*
X515020Y-269761D01*
X517560D01*
X515020Y-267221D01*
X517560Y-264681D01*
X515020D01*
X512480Y-262141D01*
X509940Y-264681D01*
X507400D01*
X509940Y-267221D01*
X507400Y-269761D01*
X509940D01*
X512480Y-272301D01*
X501500Y-181080D02*
X504040Y-178540D01*
X506580D01*
X504040Y-176000D01*
X506580Y-173460D01*
X504040D01*
X501500Y-170920D01*
X498960Y-173460D01*
X496420D01*
X498960Y-176000D01*
X496420Y-178540D01*
X498960D01*
X501500Y-181080D01*
X431500Y-60080D02*
X434040Y-57540D01*
X436580D01*
X434040Y-55000D01*
X436580Y-52460D01*
X434040D01*
X431500Y-49920D01*
X428960Y-52460D01*
X426420D01*
X428960Y-55000D01*
X426420Y-57540D01*
X428960D01*
X431500Y-60080D01*
X468500Y-22080D02*
X471040Y-19540D01*
X473580D01*
X471040Y-17000D01*
X473580Y-14460D01*
X471040D01*
X468500Y-11920D01*
X465960Y-14460D01*
X463420D01*
X465960Y-17000D01*
X463420Y-19540D01*
X465960D01*
X468500Y-22080D01*
X382500Y-143080D02*
X385040Y-140540D01*
X387580D01*
X385040Y-138000D01*
X387580Y-135460D01*
X385040D01*
X382500Y-132920D01*
X379960Y-135460D01*
X377420D01*
X379960Y-138000D01*
X377420Y-140540D01*
X379960D01*
X382500Y-143080D01*
X378000Y-132580D02*
X380540Y-130040D01*
X383080D01*
X380540Y-127500D01*
X383080Y-124960D01*
X380540D01*
X378000Y-122420D01*
X375460Y-124960D01*
X372920D01*
X375460Y-127500D01*
X372920Y-130040D01*
X375460D01*
X378000Y-132580D01*
X526000Y-75080D02*
X528540Y-72540D01*
X531080D01*
X528540Y-70000D01*
X531080Y-67460D01*
X528540D01*
X526000Y-64920D01*
X523460Y-67460D01*
X520920D01*
X523460Y-70000D01*
X520920Y-72540D01*
X523460D01*
X526000Y-75080D01*
X383498Y-326582D02*
X386038Y-324042D01*
X388578D01*
X386038Y-321502D01*
X388578Y-318962D01*
X386038D01*
X383498Y-316422D01*
X380958Y-318962D01*
X378418D01*
X380958Y-321502D01*
X378418Y-324042D01*
X380958D01*
X383498Y-326582D01*
X503997Y-207582D02*
X506537Y-205042D01*
X509077D01*
X506537Y-202502D01*
X509077Y-199962D01*
X506537D01*
X503997Y-197422D01*
X501457Y-199962D01*
X498917D01*
X501457Y-202502D01*
X498917Y-205042D01*
X501457D01*
X503997Y-207582D01*
X531770Y-180121D02*
X534310Y-177581D01*
X536850D01*
X534310Y-175040D01*
X536850Y-172500D01*
X534310D01*
X531770Y-169960D01*
X529230Y-172500D01*
X526690D01*
X529230Y-175040D01*
X526690Y-177581D01*
X529230D01*
X531770Y-180121D01*
X526230Y-210594D02*
X528770Y-208054D01*
X531310D01*
X528770Y-205514D01*
X531310Y-202974D01*
X528770D01*
X526230Y-200434D01*
X523690Y-202974D01*
X521150D01*
X523690Y-205514D01*
X521150Y-208054D01*
X523690D01*
X526230Y-210594D01*
X509510Y-201009D02*
X512050Y-198469D01*
X514590D01*
X512050Y-195929D01*
X514590Y-193389D01*
X512050D01*
X509510Y-190849D01*
X506970Y-193389D01*
X504430D01*
X506970Y-195929D01*
X504430Y-198469D01*
X506970D01*
X509510Y-201009D01*
X525999Y-202598D02*
X528539Y-200058D01*
X531079D01*
X528539Y-197518D01*
X531079Y-194977D01*
X528539D01*
X525999Y-192437D01*
X523459Y-194977D01*
X520919D01*
X523459Y-197518D01*
X520919Y-200058D01*
X523459D01*
X525999Y-202598D01*
X527000Y-190058D02*
X529540Y-187518D01*
X532080D01*
X529540Y-184978D01*
X532080Y-182438D01*
X529540D01*
X527000Y-179898D01*
X524460Y-182438D01*
X521920D01*
X524460Y-184978D01*
X521920Y-187518D01*
X524460D01*
X527000Y-190058D01*
X454500Y-192810D02*
X457040Y-190270D01*
X459580D01*
X457040Y-187730D01*
X459580Y-185190D01*
X457040D01*
X454500Y-182650D01*
X451960Y-185190D01*
X449420D01*
X451960Y-187730D01*
X449420Y-190270D01*
X451960D01*
X454500Y-192810D01*
X459686Y-180270D02*
X462225Y-177730D01*
X464766D01*
X462225Y-175190D01*
X464766Y-172650D01*
X462225D01*
X459686Y-170110D01*
X457146Y-172650D01*
X454605D01*
X457146Y-175190D01*
X454605Y-177730D01*
X457146D01*
X459686Y-180270D01*
X436000Y-482580D02*
X438540Y-480040D01*
X441080D01*
X438540Y-477500D01*
X441080Y-474960D01*
X438540D01*
X436000Y-472420D01*
X433460Y-474960D01*
X430920D01*
X433460Y-477500D01*
X430920Y-480040D01*
X433460D01*
X436000Y-482580D01*
X425000D02*
X427540Y-480040D01*
X430080D01*
X427540Y-477500D01*
X430080Y-474960D01*
X427540D01*
X425000Y-472420D01*
X422460Y-474960D01*
X419920D01*
X422460Y-477500D01*
X419920Y-480040D01*
X422460D01*
X425000Y-482580D01*
X306000Y-295080D02*
X308540Y-292540D01*
X311080D01*
X308540Y-290000D01*
X311080Y-287460D01*
X308540D01*
X306000Y-284920D01*
X303460Y-287460D01*
X300920D01*
X303460Y-290000D01*
X300920Y-292540D01*
X303460D01*
X306000Y-295080D01*
X434998Y-409582D02*
X437538Y-407042D01*
X440078D01*
X437538Y-404502D01*
X440078Y-401962D01*
X437538D01*
X434998Y-399422D01*
X432458Y-401962D01*
X429918D01*
X432458Y-404502D01*
X429918Y-407042D01*
X432458D01*
X434998Y-409582D01*
X425500Y-408580D02*
X428040Y-406040D01*
X430580D01*
X428040Y-403500D01*
X430580Y-400960D01*
X428040D01*
X425500Y-398420D01*
X422960Y-400960D01*
X420420D01*
X422960Y-403500D01*
X420420Y-406040D01*
X422960D01*
X425500Y-408580D01*
X296040Y-386580D02*
X298580Y-384040D01*
X301120D01*
X298580Y-381500D01*
X301120Y-378960D01*
X298580D01*
X296040Y-376420D01*
X293500Y-378960D01*
X290960D01*
X293500Y-381500D01*
X290960Y-384040D01*
X293500D01*
X296040Y-386580D01*
X476500Y-304080D02*
X479040Y-301540D01*
X481580D01*
X479040Y-299000D01*
X481580Y-296460D01*
X479040D01*
X476500Y-293920D01*
X473960Y-296460D01*
X471420D01*
X473960Y-299000D01*
X471420Y-301540D01*
X473960D01*
X476500Y-304080D01*
X342000Y-204580D02*
X344540Y-202040D01*
X347080D01*
X344540Y-199500D01*
X347080Y-196960D01*
X344540D01*
X342000Y-194420D01*
X339460Y-196960D01*
X336920D01*
X339460Y-199500D01*
X336920Y-202040D01*
X339460D01*
X342000Y-204580D01*
X341000Y-133580D02*
X343540Y-131040D01*
X346080D01*
X343540Y-128500D01*
X346080Y-125960D01*
X343540D01*
X341000Y-123420D01*
X338460Y-125960D01*
X335920D01*
X338460Y-128500D01*
X335920Y-131040D01*
X338460D01*
X341000Y-133580D01*
X345500Y-175580D02*
X348040Y-173040D01*
X350580D01*
X348040Y-170500D01*
X350580Y-167960D01*
X348040D01*
X345500Y-165420D01*
X342960Y-167960D01*
X340420D01*
X342960Y-170500D01*
X340420Y-173040D01*
X342960D01*
X345500Y-175580D01*
X332000Y-223810D02*
X334540Y-221270D01*
X337080D01*
X334540Y-218730D01*
X337080Y-216190D01*
X334540D01*
X332000Y-213650D01*
X329460Y-216190D01*
X326920D01*
X329460Y-218730D01*
X326920Y-221270D01*
X329460D01*
X332000Y-223810D01*
X279950Y-310030D02*
X282490Y-307490D01*
X285030D01*
X282490Y-304950D01*
X285030Y-302410D01*
X282490D01*
X279950Y-299870D01*
X277410Y-302410D01*
X274870D01*
X277410Y-304950D01*
X274870Y-307490D01*
X277410D01*
X279950Y-310030D01*
X290130Y-267210D02*
X292670Y-264670D01*
X295210D01*
X292670Y-262130D01*
X295210Y-259590D01*
X292670D01*
X290130Y-257050D01*
X287590Y-259590D01*
X285050D01*
X287590Y-262130D01*
X285050Y-264670D01*
X287590D01*
X290130Y-267210D01*
X277000Y-135080D02*
X279540Y-132540D01*
X282080D01*
X279540Y-130000D01*
X282080Y-127460D01*
X279540D01*
X277000Y-124920D01*
X274460Y-127460D01*
X271920D01*
X274460Y-130000D01*
X271920Y-132540D01*
X274460D01*
X277000Y-135080D01*
X214500Y-137580D02*
X217040Y-135040D01*
X219580D01*
X217040Y-132500D01*
X219580Y-129960D01*
X217040D01*
X214500Y-127420D01*
X211960Y-129960D01*
X209420D01*
X211960Y-132500D01*
X209420Y-135040D01*
X211960D01*
X214500Y-137580D01*
D83*
X191578Y-70502D02*
G03*
X191578Y-70502I-5080J0D01*
G01*
X110348Y-77732D02*
G03*
X110348Y-77732I-5080J0D01*
G01*
X159348Y-76732D02*
G03*
X159348Y-76732I-5080J0D01*
G01*
X221580Y-78500D02*
G03*
X221580Y-78500I-5080J0D01*
G01*
X265578Y-38502D02*
G03*
X265578Y-38502I-5080J0D01*
G01*
X209580Y-77500D02*
G03*
X209580Y-77500I-5080J0D01*
G01*
X38580Y-76500D02*
G03*
X38580Y-76500I-5080J0D01*
G01*
X50350Y-76730D02*
G03*
X50350Y-76730I-5080J0D01*
G01*
X215578Y-70502D02*
G03*
X215578Y-70502I-5080J0D01*
G01*
X232580Y-93000D02*
G03*
X232580Y-93000I-5080J0D01*
G01*
X257578Y-47502D02*
G03*
X257578Y-47502I-5080J0D01*
G01*
X250120Y-74540D02*
G03*
X250120Y-74540I-5080J0D01*
G01*
X256580Y-82000D02*
G03*
X256580Y-82000I-5080J0D01*
G01*
X276078Y-89002D02*
G03*
X276078Y-89002I-5080J0D01*
G01*
X262580Y-73000D02*
G03*
X262580Y-73000I-5080J0D01*
G01*
X268500Y-62000D02*
G03*
X268500Y-62000I-5080J0D01*
G01*
X275580Y-66500D02*
G03*
X275580Y-66500I-5080J0D01*
G01*
X272580Y-81000D02*
G03*
X272580Y-81000I-5080J0D01*
G01*
X272578Y-39502D02*
G03*
X272578Y-39502I-5080J0D01*
G01*
X278348Y-43991D02*
G03*
X278348Y-43991I-5080J0D01*
G01*
X290578Y-44502D02*
G03*
X290578Y-44502I-5080J0D01*
G01*
X203580Y-67000D02*
G03*
X203580Y-67000I-5080J0D01*
G01*
X167580Y-70500D02*
G03*
X167580Y-70500I-5080J0D01*
G01*
X179580D02*
G03*
X179580Y-70500I-5080J0D01*
G01*
X185580Y-76500D02*
G03*
X185580Y-76500I-5080J0D01*
G01*
X197348Y-77088D02*
G03*
X197348Y-77088I-5080J0D01*
G01*
X153578Y-70502D02*
G03*
X153578Y-70502I-5080J0D01*
G01*
X128578Y-70502D02*
G03*
X128578Y-70502I-5080J0D01*
G01*
X141080Y-65500D02*
G03*
X141080Y-65500I-5080J0D01*
G01*
X146580Y-77500D02*
G03*
X146580Y-77500I-5080J0D01*
G01*
X134578Y-76502D02*
G03*
X134578Y-76502I-5080J0D01*
G01*
X122580Y-77500D02*
G03*
X122580Y-77500I-5080J0D01*
G01*
X44580Y-70500D02*
G03*
X44580Y-70500I-5080J0D01*
G01*
X104580D02*
G03*
X104580Y-70500I-5080J0D01*
G01*
X80580D02*
G03*
X80580Y-70500I-5080J0D01*
G01*
X56580Y-69500D02*
G03*
X56580Y-69500I-5080J0D01*
G01*
X68580D02*
G03*
X68580Y-69500I-5080J0D01*
G01*
X74580Y-76500D02*
G03*
X74580Y-76500I-5080J0D01*
G01*
X86580Y-77500D02*
G03*
X86580Y-77500I-5080J0D01*
G01*
X92578Y-69502D02*
G03*
X92578Y-69502I-5080J0D01*
G01*
X97580Y-77500D02*
G03*
X97580Y-77500I-5080J0D01*
G01*
X289578Y-64502D02*
G03*
X289578Y-64502I-5080J0D01*
G01*
X287580Y-57500D02*
G03*
X287580Y-57500I-5080J0D01*
G01*
M02*
