G04*
G04 #@! TF.GenerationSoftware,Altium Limited,Altium Designer,24.10.1 (45)*
G04*
G04 Layer_Color=32768*
%FSLAX44Y44*%
%MOMM*%
G71*
G04*
G04 #@! TF.SameCoordinates,C031E789-135E-4793-A04E-BF888AAD087F*
G04*
G04*
G04 #@! TF.FilePolarity,Positive*
G04*
G01*
G75*
%ADD80C,0.1000*%
D80*
X431000Y-521500D02*
Y-502500D01*
X397500Y-521500D02*
Y-502500D01*
X431000D01*
X397500Y-521500D02*
X431000D01*
X409000Y-512000D02*
X419000D01*
X414000Y-517000D02*
Y-507000D01*
X352000Y-473500D02*
X371000D01*
X352000Y-440000D02*
X371000D01*
Y-473500D02*
Y-440000D01*
X352000Y-473500D02*
Y-440000D01*
X361500Y-461500D02*
Y-451500D01*
X356500Y-456500D02*
X366500D01*
X510078Y-525500D02*
Y-506500D01*
X476578Y-525500D02*
Y-506500D01*
X510078D01*
X476578Y-525500D02*
X510078D01*
X488078Y-516000D02*
X498078D01*
X493078Y-521000D02*
Y-511000D01*
X384000Y-413000D02*
Y-394000D01*
X417500Y-413000D02*
Y-394000D01*
X384000Y-413000D02*
X417500D01*
X384000Y-394000D02*
X417500D01*
X396000Y-403500D02*
X406000D01*
X401000Y-408500D02*
Y-398500D01*
X164671Y-224050D02*
Y-214050D01*
X159671Y-219050D02*
X169671D01*
X144671Y-209550D02*
X184671D01*
X144671Y-228550D02*
X184671D01*
Y-209550D01*
X144671Y-228550D02*
Y-209550D01*
X422500Y-52500D02*
X432500D01*
X427500Y-57500D02*
Y-47500D01*
X418000Y-72500D02*
Y-32500D01*
X437000Y-72500D02*
Y-32500D01*
X418000D02*
X437000D01*
X418000Y-72500D02*
X437000D01*
X164500Y-462800D02*
Y-452800D01*
X159500Y-457800D02*
X169500D01*
X144501Y-448300D02*
X184500D01*
X144501Y-467300D02*
X184500D01*
Y-448300D01*
X144501Y-467300D02*
Y-448300D01*
X419500Y-241500D02*
X429500D01*
X424500Y-246500D02*
Y-236500D01*
X415000Y-261500D02*
Y-221500D01*
X434000Y-261500D02*
Y-221500D01*
X415000D02*
X434000D01*
X415000Y-261500D02*
X434000D01*
X76000Y-224000D02*
Y-214000D01*
X71000Y-219000D02*
X81000D01*
X56000Y-209500D02*
X96000D01*
X56000Y-228500D02*
X96000D01*
Y-209500D01*
X56000Y-228500D02*
Y-209500D01*
X423500Y-140000D02*
X433500D01*
X428500Y-145000D02*
Y-135000D01*
X419000Y-160000D02*
Y-120000D01*
X438000Y-160000D02*
Y-120000D01*
X419000D02*
X438000D01*
X419000Y-160000D02*
X438000D01*
X75829Y-462750D02*
Y-452750D01*
X70829Y-457750D02*
X80829D01*
X55829Y-448250D02*
X95830D01*
X55829Y-467250D02*
X95830D01*
Y-448250D01*
X55829Y-467250D02*
Y-448250D01*
X419450Y-330171D02*
X429450D01*
X424450Y-335171D02*
Y-325171D01*
X414950Y-350171D02*
Y-310171D01*
X433950Y-350171D02*
Y-310171D01*
X414950D02*
X433950D01*
X414950Y-350171D02*
X433950D01*
X165671Y-318750D02*
Y-308750D01*
X160671Y-313750D02*
X170671D01*
X148671Y-304250D02*
X182171D01*
X148671Y-323250D02*
X182171D01*
Y-304250D01*
X148671Y-323250D02*
Y-304250D01*
X515250Y-50430D02*
X525250D01*
X520250Y-55430D02*
Y-45430D01*
X510750Y-67430D02*
Y-33930D01*
X529750Y-67430D02*
Y-33930D01*
X510750D02*
X529750D01*
X510750Y-67430D02*
X529750D01*
X165500Y-557500D02*
Y-547500D01*
X160500Y-552500D02*
X170500D01*
X148500Y-543000D02*
X182000D01*
X148500Y-562000D02*
X182000D01*
Y-543000D01*
X148500Y-562000D02*
Y-543000D01*
X514200Y-240500D02*
X524200D01*
X519200Y-245501D02*
Y-235501D01*
X509700Y-257500D02*
Y-224000D01*
X528700Y-257500D02*
Y-224000D01*
X509700D02*
X528700D01*
X509700Y-257500D02*
X528700D01*
X77500Y-316000D02*
Y-306000D01*
X72500Y-311000D02*
X82500D01*
X60500Y-301500D02*
X94000D01*
X60500Y-320500D02*
X94000D01*
Y-301500D01*
X60500Y-320500D02*
Y-301500D01*
X513500Y-141000D02*
X523500D01*
X518500Y-146000D02*
Y-136000D01*
X509000Y-158000D02*
Y-124500D01*
X528000Y-158000D02*
Y-124500D01*
X509000D02*
X528000D01*
X509000Y-158000D02*
X528000D01*
X73500Y-556000D02*
Y-546000D01*
X68500Y-551000D02*
X78500D01*
X56500Y-541500D02*
X90000D01*
X56500Y-560500D02*
X90000D01*
Y-541500D01*
X56500Y-560500D02*
Y-541500D01*
X517500Y-334000D02*
X527500D01*
X522500Y-339000D02*
Y-329000D01*
X513000Y-351000D02*
Y-317500D01*
X532000Y-351000D02*
Y-317500D01*
X513000D02*
X532000D01*
X513000Y-351000D02*
X532000D01*
X170000Y-126000D02*
X180000D01*
X175000Y-131000D02*
Y-121000D01*
X147500Y-163500D02*
Y-88500D01*
X202500Y-163500D02*
Y-88500D01*
X147500D02*
X202500D01*
X147500Y-163500D02*
X202500D01*
X332500Y-46101D02*
Y-36101D01*
X327499Y-41101D02*
X337499D01*
X294999Y-68601D02*
X370000D01*
X294999Y-13600D02*
X370000D01*
X294999Y-68601D02*
Y-13600D01*
X370000Y-68601D02*
Y-13600D01*
X169830Y-364750D02*
X179830D01*
X174829Y-369750D02*
Y-359750D01*
X147329Y-402250D02*
Y-327250D01*
X202329Y-402250D02*
Y-327250D01*
X147329D02*
X202329D01*
X147329Y-402250D02*
X202329D01*
X331450Y-236171D02*
Y-226171D01*
X326450Y-231171D02*
X336449D01*
X293950Y-258671D02*
X368950D01*
X293950Y-203671D02*
X368950D01*
X293950Y-258671D02*
Y-203671D01*
X368950Y-258671D02*
Y-203671D01*
X73000Y-126000D02*
X83000D01*
X78000Y-131000D02*
Y-121000D01*
X50500Y-163500D02*
Y-88500D01*
X105500Y-163500D02*
Y-88500D01*
X50500D02*
X105500D01*
X50500Y-163500D02*
X105500D01*
X72829Y-364750D02*
X82830D01*
X77829Y-369750D02*
Y-359750D01*
X50330Y-402250D02*
Y-327250D01*
X105329Y-402250D02*
Y-327250D01*
X50330D02*
X105329D01*
X50330Y-402250D02*
X105329D01*
X331450Y-333171D02*
Y-323171D01*
X326450Y-328171D02*
X336449D01*
X293950Y-355671D02*
X368950D01*
X293950Y-300671D02*
X368950D01*
X293950Y-355671D02*
Y-300671D01*
X368950Y-355671D02*
Y-300671D01*
X153000Y-267000D02*
X163000D01*
X158000Y-272000D02*
Y-262000D01*
X130500Y-304500D02*
Y-229500D01*
X185501Y-304500D02*
Y-229500D01*
X130500D02*
X185501D01*
X130500Y-304500D02*
X185501D01*
X473499Y-63100D02*
Y-53100D01*
X468499Y-58100D02*
X478500D01*
X435999Y-85600D02*
X510999D01*
X435999Y-30600D02*
X510999D01*
X435999Y-85600D02*
Y-30600D01*
X510999Y-85600D02*
Y-30600D01*
X152829Y-505750D02*
X162829D01*
X157830Y-510750D02*
Y-500750D01*
X130330Y-543250D02*
Y-468250D01*
X185330Y-543250D02*
Y-468250D01*
X130330D02*
X185330D01*
X130330Y-543250D02*
X185330D01*
X472450Y-253171D02*
Y-243171D01*
X467449Y-248171D02*
X477449D01*
X434950Y-275671D02*
X509950D01*
X434950Y-220671D02*
X509950D01*
X434950Y-275671D02*
Y-220671D01*
X509950Y-275671D02*
Y-220671D01*
X64650Y-267000D02*
X74650D01*
X69650Y-272001D02*
Y-262001D01*
X42151Y-304500D02*
Y-229500D01*
X97150Y-304500D02*
Y-229500D01*
X42151D02*
X97150D01*
X42151Y-304500D02*
X97150D01*
X473500Y-151450D02*
Y-141450D01*
X468500Y-146450D02*
X478500D01*
X436000Y-173950D02*
X511000D01*
X436000Y-118950D02*
X511000D01*
X436000Y-173950D02*
Y-118950D01*
X511000Y-173950D02*
Y-118950D01*
X64480Y-505750D02*
X74479D01*
X69479Y-510750D02*
Y-500751D01*
X41980Y-543250D02*
Y-468250D01*
X96979Y-543250D02*
Y-468250D01*
X41980D02*
X96979D01*
X41980Y-543250D02*
X96979D01*
X472450Y-341521D02*
Y-331521D01*
X467450Y-336521D02*
X477450D01*
X434950Y-364021D02*
X509950D01*
X434950Y-309021D02*
X509950D01*
X434950Y-364021D02*
Y-309021D01*
X509950Y-364021D02*
Y-309021D01*
X332500Y-143100D02*
Y-133100D01*
X327499Y-138100D02*
X337499D01*
X294999Y-165600D02*
X370000D01*
X294999Y-110600D02*
X370000D01*
X294999Y-165600D02*
Y-110600D01*
X370000Y-165600D02*
Y-110600D01*
X375000Y-122422D02*
X394000D01*
X375000Y-88922D02*
X394000D01*
X375000Y-122422D02*
Y-88922D01*
X394000Y-122422D02*
Y-88922D01*
X384500Y-110422D02*
Y-100422D01*
X379500Y-105422D02*
X389500D01*
X386500Y-242500D02*
X490500D01*
X386500Y-138500D02*
X490500D01*
X386500Y-242500D02*
Y-138500D01*
X490500Y-242500D02*
Y-138500D01*
X438500Y-195500D02*
Y-185500D01*
X433500Y-190500D02*
X443500D01*
X212000Y-514000D02*
Y-421000D01*
X287000Y-514000D02*
Y-421000D01*
X212000D02*
X287000D01*
X212000Y-514000D02*
X287000D01*
X244500Y-467500D02*
X254500D01*
X249500Y-472500D02*
Y-462500D01*
X213500Y-302500D02*
Y-197500D01*
X288500Y-302500D02*
Y-197500D01*
X213500D02*
X288500D01*
X213500Y-302500D02*
X288500D01*
X246000Y-250000D02*
X256000D01*
X251000Y-255000D02*
Y-245000D01*
X402000Y-82050D02*
Y-27050D01*
X477000Y-82050D02*
Y-27050D01*
X402000D02*
X477000D01*
X402000Y-82050D02*
X477000D01*
X434500Y-54550D02*
X444500D01*
X439500Y-59550D02*
Y-49550D01*
X310500Y-300500D02*
Y-272500D01*
X350500Y-300500D02*
Y-272500D01*
X310500D02*
X350500D01*
X310500Y-300500D02*
X350500D01*
X325500Y-286500D02*
X335500D01*
X330500Y-291500D02*
Y-281500D01*
X312500Y-249000D02*
Y-230000D01*
X346000Y-249000D02*
Y-230000D01*
X312500D02*
X346000D01*
X312500Y-249000D02*
X346000D01*
X324500Y-239500D02*
X334500D01*
X329500Y-244500D02*
Y-234500D01*
X475500Y-378000D02*
Y-359000D01*
X442000Y-378000D02*
Y-359000D01*
Y-378000D02*
X475500D01*
X442000Y-359000D02*
X475500D01*
X453500Y-368500D02*
X463500D01*
X458500Y-373500D02*
Y-363500D01*
X379500Y-263000D02*
Y-244000D01*
X413000Y-263000D02*
Y-244000D01*
X379500D02*
X413000D01*
X379500Y-263000D02*
X413000D01*
X391500Y-253500D02*
X401500D01*
X396500Y-258500D02*
Y-248500D01*
X390500Y-111000D02*
X409500D01*
X390500Y-144500D02*
X409500D01*
Y-111000D01*
X390500Y-144500D02*
Y-111000D01*
X400000Y-133000D02*
Y-123000D01*
X395000Y-128000D02*
X405000D01*
X493000Y-171500D02*
X512000D01*
X493000Y-138000D02*
X512000D01*
X493000Y-171500D02*
Y-138000D01*
X512000Y-171500D02*
Y-138000D01*
X502500Y-159500D02*
Y-149500D01*
X497500Y-154500D02*
X507500D01*
X443422Y-338000D02*
Y-319000D01*
X476922Y-338000D02*
Y-319000D01*
X443422D02*
X476922D01*
X443422Y-338000D02*
X476922D01*
X455422Y-328500D02*
X465422D01*
X460422Y-333500D02*
Y-323500D01*
X384500Y-34500D02*
X403500D01*
X384500Y-68000D02*
X403500D01*
Y-34500D01*
X384500Y-68000D02*
Y-34500D01*
X394000Y-56500D02*
Y-46500D01*
X389000Y-51500D02*
X399000D01*
X231000Y-199500D02*
Y-180500D01*
X264500Y-199500D02*
Y-180500D01*
X231000D02*
X264500D01*
X231000Y-199500D02*
X264500D01*
X243000Y-190000D02*
X253000D01*
X248000Y-195000D02*
Y-185000D01*
X55719Y-470500D02*
Y-460500D01*
X50719Y-465500D02*
X60719D01*
X35719Y-456000D02*
X75719D01*
X35719Y-475000D02*
X75719D01*
X35719D02*
Y-456000D01*
X75719Y-475000D02*
Y-456000D01*
X144069Y-470501D02*
Y-460501D01*
X139069Y-465500D02*
X149069D01*
X124069Y-456001D02*
X164069D01*
X124069Y-475000D02*
X164069D01*
X124069D02*
Y-456001D01*
X164069Y-475000D02*
Y-456001D01*
X54249Y-565250D02*
Y-555250D01*
X49249Y-560250D02*
X59249D01*
X37749Y-550750D02*
X71249D01*
X37749Y-569750D02*
X71249D01*
X37749D02*
Y-550750D01*
X71249Y-569750D02*
Y-550750D01*
X142578Y-563500D02*
Y-553500D01*
X137578Y-558500D02*
X147578D01*
X126078Y-549000D02*
X159578D01*
X126078Y-568000D02*
X159578D01*
X126078D02*
Y-549000D01*
X159578Y-568000D02*
Y-549000D01*
X40069Y-372500D02*
X50069D01*
X45069Y-377500D02*
Y-367500D01*
X72569Y-410000D02*
Y-335001D01*
X17569Y-410000D02*
Y-335001D01*
X72569D01*
X17569Y-410000D02*
X72569D01*
X137069Y-372500D02*
X147069D01*
X142069Y-377500D02*
Y-367500D01*
X169569Y-410000D02*
Y-335001D01*
X114569Y-410000D02*
Y-335001D01*
X169569D01*
X114569Y-410000D02*
X169569D01*
X57069Y-513500D02*
X67069D01*
X62069Y-518501D02*
Y-508501D01*
X89569Y-551000D02*
Y-476001D01*
X34569Y-551000D02*
Y-476001D01*
X89569D01*
X34569Y-551000D02*
X89569D01*
X145419Y-513501D02*
X155419D01*
X150419Y-518501D02*
Y-508501D01*
X177919Y-551001D02*
Y-476001D01*
X122919Y-551001D02*
Y-476001D01*
X177919D01*
X122919Y-551001D02*
X177919D01*
X55500Y-229000D02*
Y-219000D01*
X50500Y-224000D02*
X60500D01*
X35500Y-214500D02*
X75500D01*
X35500Y-233500D02*
X75500D01*
X35500D02*
Y-214500D01*
X75500Y-233500D02*
Y-214500D01*
X144000Y-229999D02*
Y-219999D01*
X139000Y-225000D02*
X149000D01*
X124000Y-215500D02*
X164000D01*
X124000Y-234500D02*
X164000D01*
X124000D02*
Y-215500D01*
X164000Y-234500D02*
Y-215500D01*
X54180Y-324749D02*
Y-314749D01*
X49180Y-319749D02*
X59180D01*
X37680Y-310249D02*
X71180D01*
X37680Y-329249D02*
X71180D01*
X37680D02*
Y-310249D01*
X71180Y-329249D02*
Y-310249D01*
X148000Y-323000D02*
Y-313000D01*
X143000Y-318000D02*
X153000D01*
X131500Y-308500D02*
X165000D01*
X131500Y-327500D02*
X165000D01*
X131500D02*
Y-308500D01*
X165000Y-327500D02*
Y-308500D01*
X40000Y-132000D02*
X50000D01*
X45000Y-136999D02*
Y-126999D01*
X72500Y-169500D02*
Y-94500D01*
X17500Y-169500D02*
Y-94500D01*
X72500D01*
X17500Y-169500D02*
X72500D01*
X137000Y-132000D02*
X147000D01*
X142000Y-136999D02*
Y-126999D01*
X169500Y-169500D02*
Y-94500D01*
X114500Y-169500D02*
Y-94500D01*
X169500D01*
X114500Y-169500D02*
X169500D01*
X57000Y-273000D02*
X67000D01*
X62000Y-278000D02*
Y-267999D01*
X89500Y-310500D02*
Y-235499D01*
X34500Y-310500D02*
Y-235499D01*
X89500D01*
X34500Y-310500D02*
X89500D01*
X145350Y-273000D02*
X155350D01*
X150350Y-278000D02*
Y-268000D01*
X177850Y-310500D02*
Y-235501D01*
X122850Y-310500D02*
Y-235501D01*
X177850D01*
X122850Y-310500D02*
X177850D01*
X337500Y-143500D02*
Y-133500D01*
X332500Y-138500D02*
X342500D01*
X300000Y-191000D02*
X375000D01*
X300000Y-86000D02*
X375000D01*
Y-191000D02*
Y-86000D01*
X300000Y-191000D02*
Y-86000D01*
X406500Y-338000D02*
Y-319000D01*
X440000Y-338000D02*
Y-319000D01*
X406500D02*
X440000D01*
X406500Y-338000D02*
X440000D01*
X418500Y-328500D02*
X428500D01*
X423500Y-333500D02*
Y-323500D01*
X352500Y-237500D02*
Y-218500D01*
X386000Y-237500D02*
Y-218500D01*
X352500D02*
X386000D01*
X352500Y-237500D02*
X386000D01*
X364500Y-228000D02*
X374500D01*
X369500Y-233000D02*
Y-223000D01*
X251000Y-362000D02*
Y-352000D01*
X246000Y-357000D02*
X256000D01*
X213500Y-403500D02*
X288500D01*
X213500Y-310500D02*
X288500D01*
Y-403500D02*
Y-310500D01*
X213500Y-403500D02*
Y-310500D01*
M02*
